M48
; DRILL file {KiCad 8.0.4-1.fc40} date 2024-07-29T21:15:27+0200
; FORMAT={-:-/ absolute / metric / decimal}
; #@! TF.CreationDate,2024-07-29T21:15:27+02:00
; #@! TF.GenerationSoftware,Kicad,Pcbnew,8.0.4-1.fc40
; #@! TF.FileFunction,Plated,1,2,PTH
FMAT,2
METRIC
; #@! TA.AperFunction,Plated,PTH,ViaDrill
T1C0.250
; #@! TA.AperFunction,Plated,PTH,ComponentDrill
T2C0.600
; #@! TA.AperFunction,Plated,PTH,ComponentDrill
T3C0.950
; #@! TA.AperFunction,Plated,PTH,ComponentDrill
T4C1.000
; #@! TA.AperFunction,Plated,PTH,ComponentDrill
T5C1.900
; #@! TA.AperFunction,Plated,PTH,ComponentDrill
T6C4.300
; #@! TA.AperFunction,Plated,PTH,ComponentDrill
T7C4.500
%
G90
G05
T1
X133.75Y-70.5
X134.5Y-72.75
X134.75Y-70.5
X135.25Y-80.5
X135.25Y-82.5
X135.75Y-70.5
X136.75Y-70.5
X141.5Y-92.5
X144.0Y-81.75
X144.75Y-80.75
X145.75Y-81.25
X146.25Y-92.5
X146.5Y-88.25
X147.25Y-100.75
X147.75Y-81.25
X149.5Y-67.25
X150.0Y-91.75
X150.25Y-80.0
X150.25Y-96.75
X150.623Y-82.873
X151.25Y-79.25
X151.75Y-95.75
X152.5Y-85.25
X152.75Y-121.25
X153.25Y-87.25
X153.5Y-67.75
X153.75Y-66.5
X153.75Y-121.25
X154.0Y-88.0
X154.0Y-95.75
X154.25Y-112.0
X154.5Y-78.75
X154.75Y-88.75
X154.75Y-121.25
X155.0Y-74.0
X155.75Y-78.5
X156.0Y-89.0
X156.75Y-88.25
X157.25Y-74.5
X157.75Y-87.75
X158.25Y-74.5
X159.0Y-78.5
X159.25Y-74.5
X159.25Y-80.25
X159.75Y-84.0
X159.934Y-80.684
X160.25Y-111.25
X160.25Y-113.25
X160.25Y-114.25
X160.25Y-115.25
X160.5Y-81.25
X161.25Y-111.25
X161.25Y-112.25
X161.25Y-113.25
X161.25Y-114.25
X161.25Y-115.25
X161.5Y-90.425
X161.75Y-92.5
X162.0Y-73.25
X162.25Y-75.25
X162.25Y-111.25
X162.25Y-112.25
X162.25Y-113.25
X162.25Y-114.25
X162.75Y-87.5
X163.0Y-72.5
X163.0Y-101.0
X163.25Y-111.25
X163.25Y-112.25
X163.25Y-113.25
X163.25Y-114.25
X163.5Y-66.5
X163.75Y-92.75
X163.875Y-72.125
X164.2Y-98.5
X164.25Y-111.25
X164.25Y-112.25
X164.25Y-113.25
X164.25Y-114.25
X165.0Y-99.5
X165.25Y-111.25
X165.25Y-112.25
X165.25Y-113.25
X165.25Y-114.25
X165.25Y-115.25
X165.25Y-116.25
X165.5Y-105.5
X166.5Y-105.5
X167.0Y-72.5
X167.059Y-73.559
X167.25Y-80.5
X167.25Y-81.5
X167.25Y-82.5
X167.25Y-103.5
X167.75Y-64.0
X167.75Y-65.0
X168.25Y-71.75
X169.0Y-66.5
X169.25Y-64.0
X169.873Y-92.5
X170.5Y-91.5
X170.5Y-105.5
X171.127Y-94.0
X171.5Y-105.5
X172.25Y-77.5
X172.75Y-83.5
X173.25Y-77.5
X173.75Y-95.0
X173.75Y-98.5
X173.75Y-99.5
X173.75Y-101.0
X173.907Y-96.25
X174.0Y-82.5
X174.25Y-77.5
X175.5Y-64.25
X176.0Y-82.5
X176.0Y-90.25
X176.25Y-83.5
X176.5Y-104.0
X177.25Y-66.873
X177.25Y-69.0
X177.25Y-73.75
X178.5Y-90.25
X178.5Y-102.5
X178.517Y-95.0
X178.517Y-96.5
X179.5Y-107.0
X180.5Y-66.873
X180.5Y-68.25
X180.5Y-69.75
X180.5Y-73.75
X181.0Y-107.5
X181.25Y-83.0
X181.5Y-98.75
X181.75Y-94.25
X181.9Y-87.5
X182.0Y-80.25
X182.0Y-86.0
X182.05Y-93.45
X183.75Y-67.5
X183.75Y-69.75
X183.75Y-73.75
X183.75Y-80.75
X183.75Y-82.5
X184.747Y-97.0
X184.75Y-98.25
X184.75Y-101.5
X184.75Y-103.85
X185.5Y-100.75
X185.5Y-102.25
X185.5Y-103.25
X185.5Y-106.4
X185.5Y-108.5
X185.75Y-79.75
X185.75Y-104.5
X186.25Y-111.75
X186.25Y-114.75
X187.0Y-111.25
X187.25Y-117.0
X188.75Y-79.75
X189.0Y-74.25
X189.5Y-81.75
X195.5Y-83.25
X195.5Y-100.5
X195.5Y-102.75
X195.5Y-114.0
X195.5Y-115.75
X195.75Y-91.5
X195.75Y-111.5
X195.787Y-112.754
X196.75Y-100.5
X197.5Y-75.75
X197.5Y-79.75
X198.75Y-81.75
X207.0Y-75.75
X208.25Y-77.5
X208.25Y-78.5
X208.25Y-79.5
X208.5Y-86.0
X208.5Y-87.0
X208.5Y-89.0
X208.5Y-99.06
X209.0Y-96.0
X209.0Y-97.0
X209.25Y-79.5
X209.5Y-86.0
X209.5Y-87.0
X210.0Y-96.0
X210.0Y-97.0
X210.25Y-79.5
X210.5Y-86.0
X210.5Y-87.0
X211.0Y-96.0
X211.0Y-97.0
X211.25Y-79.5
X211.5Y-86.0
X211.5Y-87.0
X212.0Y-85.0
X212.0Y-96.0
X212.0Y-97.0
X212.0Y-98.0
X212.0Y-99.0
X212.0Y-117.0
X212.199Y-87.96
X212.223Y-89.014
X212.25Y-77.5
X212.25Y-78.5
X212.25Y-79.5
X212.5Y-86.0
X212.5Y-87.0
X213.0Y-97.0
X213.0Y-98.0
X213.0Y-99.0
X213.173Y-87.976
X213.173Y-89.029
X213.25Y-77.5
X213.25Y-78.5
X213.25Y-79.5
X214.0Y-98.0
X214.0Y-99.0
X214.25Y-77.5
X214.25Y-78.5
X214.25Y-79.5
X215.0Y-99.0
T2
X130.0Y-131.0
X130.055Y-63.28
X130.945Y-128.72
X130.945Y-133.28
X131.0Y-61.0
X131.0Y-65.561
X133.225Y-127.775
X133.225Y-134.225
X133.28Y-60.055
X133.28Y-66.505
X135.505Y-128.72
X135.505Y-133.28
X135.561Y-61.0
X135.561Y-65.561
X136.45Y-131.0
X136.505Y-63.28
X217.0Y-116.0
X217.775Y-78.225
X217.945Y-113.72
X217.945Y-118.28
X218.72Y-75.945
X218.72Y-80.505
X220.225Y-112.775
X220.225Y-119.225
X221.0Y-75.0
X221.0Y-81.45
X222.505Y-113.72
X222.505Y-118.28
X223.28Y-75.945
X223.28Y-80.505
X223.45Y-116.0
X224.225Y-78.225
T3
X163.5Y-60.0
X166.0Y-60.0
X168.5Y-60.0
X171.0Y-60.0
X173.5Y-60.0
X176.0Y-60.0
X184.0Y-60.0
X186.5Y-60.0
X189.0Y-60.0
X191.5Y-60.0
X194.0Y-60.0
T4
X176.46Y-114.75
X179.0Y-114.75
X181.54Y-114.75
X223.675Y-90.5
X223.675Y-103.5
T5
X218.675Y-93.5
X218.675Y-97.0
X218.675Y-100.5
T6
X133.225Y-131.0
X133.28Y-63.28
X220.225Y-116.0
X221.0Y-78.225
T7
X134.0Y-93.4
X134.0Y-100.6
T2
X145.18Y-60.075G85X145.18Y-59.275
G05
X145.18Y-64.405G85X145.18Y-63.305
G05
X153.82Y-60.075G85X153.82Y-59.275
G05
X153.82Y-64.405G85X153.82Y-63.305
G05
M30
