%TF.GenerationSoftware,KiCad,Pcbnew,8.0.4-1.fc40*%
%TF.CreationDate,2024-07-29T21:14:52+02:00*%
%TF.ProjectId,TractionHub,54726163-7469-46f6-9e48-75622e6b6963,rev?*%
%TF.SameCoordinates,Original*%
%TF.FileFunction,Soldermask,Bot*%
%TF.FilePolarity,Negative*%
%FSLAX46Y46*%
G04 Gerber Fmt 4.6, Leading zero omitted, Abs format (unit mm)*
G04 Created by KiCad (PCBNEW 8.0.4-1.fc40) date 2024-07-29 21:14:52*
%MOMM*%
%LPD*%
G01*
G04 APERTURE LIST*
G04 Aperture macros list*
%AMRoundRect*
0 Rectangle with rounded corners*
0 $1 Rounding radius*
0 $2 $3 $4 $5 $6 $7 $8 $9 X,Y pos of 4 corners*
0 Add a 4 corners polygon primitive as box body*
4,1,4,$2,$3,$4,$5,$6,$7,$8,$9,$2,$3,0*
0 Add four circle primitives for the rounded corners*
1,1,$1+$1,$2,$3*
1,1,$1+$1,$4,$5*
1,1,$1+$1,$6,$7*
1,1,$1+$1,$8,$9*
0 Add four rect primitives between the rounded corners*
20,1,$1+$1,$2,$3,$4,$5,0*
20,1,$1+$1,$4,$5,$6,$7,0*
20,1,$1+$1,$6,$7,$8,$9,0*
20,1,$1+$1,$8,$9,$2,$3,0*%
G04 Aperture macros list end*
%ADD10C,0.900000*%
%ADD11C,8.600000*%
%ADD12RoundRect,0.250000X0.600000X0.725000X-0.600000X0.725000X-0.600000X-0.725000X0.600000X-0.725000X0*%
%ADD13O,1.700000X1.950000*%
%ADD14RoundRect,1.500000X1.500000X-1.500000X1.500000X1.500000X-1.500000X1.500000X-1.500000X-1.500000X0*%
%ADD15C,6.000000*%
%ADD16C,1.400000*%
%ADD17R,3.000000X3.000000*%
%ADD18C,3.000000*%
%ADD19C,2.374900*%
%ADD20C,0.990600*%
%ADD21C,2.000000*%
%ADD22C,0.650000*%
%ADD23O,1.000000X2.100000*%
%ADD24O,1.000000X1.800000*%
%ADD25RoundRect,0.225000X0.225000X0.250000X-0.225000X0.250000X-0.225000X-0.250000X0.225000X-0.250000X0*%
%ADD26RoundRect,0.225000X-0.250000X0.225000X-0.250000X-0.225000X0.250000X-0.225000X0.250000X0.225000X0*%
%ADD27RoundRect,0.225000X-0.225000X-0.250000X0.225000X-0.250000X0.225000X0.250000X-0.225000X0.250000X0*%
G04 APERTURE END LIST*
D10*
X217000000Y-116000000D03*
X217944581Y-113719581D03*
X217944581Y-118280419D03*
X220225000Y-112775000D03*
D11*
X220225000Y-116000000D03*
D10*
X220225000Y-119225000D03*
X222505419Y-113719581D03*
X222505419Y-118280419D03*
X223450000Y-116000000D03*
D12*
X194000000Y-60000000D03*
D13*
X191500000Y-60000000D03*
X189000000Y-60000000D03*
X186500000Y-60000000D03*
X184000000Y-60000000D03*
D14*
X134000000Y-100600000D03*
D15*
X134000000Y-93400000D03*
D10*
X217775000Y-78225000D03*
X218719581Y-75944581D03*
X218719581Y-80505419D03*
X221000000Y-75000000D03*
D11*
X221000000Y-78225000D03*
D10*
X221000000Y-81450000D03*
X223280419Y-75944581D03*
X223280419Y-80505419D03*
X224225000Y-78225000D03*
D16*
X223675000Y-90500000D03*
X223675000Y-103500000D03*
D17*
X218675000Y-100500000D03*
D18*
X218675000Y-97000000D03*
X218675000Y-93500000D03*
D10*
X130055419Y-63280419D03*
X131000000Y-61000000D03*
X131000000Y-65560838D03*
X133280419Y-60055419D03*
D11*
X133280419Y-63280419D03*
D10*
X133280419Y-66505419D03*
X135560838Y-61000000D03*
X135560838Y-65560838D03*
X136505419Y-63280419D03*
X130000000Y-131000000D03*
X130944581Y-128719581D03*
X130944581Y-133280419D03*
X133225000Y-127775000D03*
D11*
X133225000Y-131000000D03*
D10*
X133225000Y-134225000D03*
X135505419Y-128719581D03*
X135505419Y-133280419D03*
X136450000Y-131000000D03*
D19*
X137790000Y-74460000D03*
D20*
X135250000Y-74460000D03*
D19*
X132710000Y-74460000D03*
X137790000Y-77635000D03*
X132710000Y-77635000D03*
D20*
X136266000Y-79540000D03*
X134234000Y-79540000D03*
D21*
X181540000Y-114750000D03*
X179000000Y-114750000D03*
X176460000Y-114750000D03*
D22*
X152390000Y-63355000D03*
X146610000Y-63355000D03*
D23*
X153820000Y-63855000D03*
D24*
X153820000Y-59675000D03*
D23*
X145180000Y-63855000D03*
D24*
X145180000Y-59675000D03*
D12*
X176000000Y-60000000D03*
D13*
X173500000Y-60000000D03*
X171000000Y-60000000D03*
X168500000Y-60000000D03*
X166000000Y-60000000D03*
X163500000Y-60000000D03*
D25*
X181275000Y-95500000D03*
X179725000Y-95500000D03*
D26*
X183000000Y-99725000D03*
X183000000Y-101275000D03*
D27*
X175500000Y-102500000D03*
X177050000Y-102500000D03*
X175500000Y-100750000D03*
X177050000Y-100750000D03*
D26*
X183000000Y-96475000D03*
X183000000Y-98025000D03*
M02*
