%TF.GenerationSoftware,KiCad,Pcbnew,8.0.4-1.fc40*%
%TF.CreationDate,2024-07-29T21:17:20+02:00*%
%TF.ProjectId,TractionHub,54726163-7469-46f6-9e48-75622e6b6963,rev?*%
%TF.SameCoordinates,Original*%
%TF.FileFunction,Drillmap*%
%TF.FilePolarity,Positive*%
%FSLAX45Y45*%
G04 Gerber Fmt 4.5, Leading zero omitted, Abs format (unit mm)*
G04 Created by KiCad (PCBNEW 8.0.4-1.fc40) date 2024-07-29 21:17:20*
%MOMM*%
%LPD*%
G01*
G04 APERTURE LIST*
%ADD10C,0.050000*%
%ADD11C,0.200000*%
%ADD12C,0.100000*%
%ADD13C,0.237490*%
G04 APERTURE END LIST*
D10*
X13100000Y-13700000D02*
X19800000Y-13700000D01*
X22700000Y-9700000D02*
X22700000Y-11800000D01*
X20600000Y-7200000D02*
G75*
G02*
X20200000Y-6800000I0J400000D01*
G01*
X20200000Y-12600000D02*
G75*
G02*
X20600000Y-12200000I400000J0D01*
G01*
X22300000Y-7200000D02*
G75*
G02*
X22700000Y-7600000I0J-400000D01*
G01*
X12700000Y-6100000D02*
G75*
G02*
X13100000Y-5700000I400000J0D01*
G01*
X22300000Y-12200000D02*
X20600000Y-12200000D01*
X19800000Y-5700000D02*
G75*
G02*
X20200000Y-6100000I0J-400000D01*
G01*
X22300000Y-7200000D02*
X20600000Y-7200000D01*
X13100000Y-13700000D02*
G75*
G02*
X12700000Y-13300000I0J400000D01*
G01*
X20200000Y-13300000D02*
G75*
G02*
X19800000Y-13700000I-400000J0D01*
G01*
X13100000Y-5700000D02*
X19800000Y-5700000D01*
X20200000Y-6800000D02*
X20200000Y-6100000D01*
X20200000Y-12600000D02*
X20200000Y-13300000D01*
X22700000Y-9700000D02*
X22700000Y-7600000D01*
X22700000Y-11800000D02*
G75*
G02*
X22300000Y-12200000I-400000J0D01*
G01*
X12700000Y-6100000D02*
X12700000Y-13300000D01*
D11*
D12*
X14628500Y-6303000D02*
X14693500Y-6368000D01*
X14693500Y-6303000D02*
X14628500Y-6368000D01*
X15206500Y-6303000D02*
X15271500Y-6368000D01*
X15271500Y-6303000D02*
X15206500Y-6368000D01*
X13472930Y-7954000D02*
G75*
G02*
X13373870Y-7954000I-49530J0D01*
G01*
X13373870Y-7954000D02*
G75*
G02*
X13472930Y-7954000I49530J0D01*
G01*
X13574530Y-7446000D02*
G75*
G02*
X13475470Y-7446000I-49530J0D01*
G01*
X13475470Y-7446000D02*
G75*
G02*
X13574530Y-7446000I49530J0D01*
G01*
X13676130Y-7954000D02*
G75*
G02*
X13577070Y-7954000I-49530J0D01*
G01*
X13577070Y-7954000D02*
G75*
G02*
X13676130Y-7954000I49530J0D01*
G01*
D13*
X13271000Y-7327255D02*
X13271000Y-7564745D01*
X13152255Y-7446000D02*
X13389745Y-7446000D01*
X13271000Y-7644755D02*
X13271000Y-7882245D01*
X13152255Y-7763500D02*
X13389745Y-7763500D01*
X13779000Y-7327255D02*
X13779000Y-7564745D01*
X13660255Y-7446000D02*
X13897745Y-7446000D01*
X13779000Y-7644755D02*
X13779000Y-7882245D01*
X13660255Y-7763500D02*
X13897745Y-7763500D01*
D11*
X12958277Y-14013984D02*
X12958277Y-13813984D01*
X12958277Y-13813984D02*
X13005896Y-13813984D01*
X13005896Y-13813984D02*
X13034467Y-13823508D01*
X13034467Y-13823508D02*
X13053515Y-13842555D01*
X13053515Y-13842555D02*
X13063039Y-13861603D01*
X13063039Y-13861603D02*
X13072562Y-13899698D01*
X13072562Y-13899698D02*
X13072562Y-13928269D01*
X13072562Y-13928269D02*
X13063039Y-13966365D01*
X13063039Y-13966365D02*
X13053515Y-13985412D01*
X13053515Y-13985412D02*
X13034467Y-14004460D01*
X13034467Y-14004460D02*
X13005896Y-14013984D01*
X13005896Y-14013984D02*
X12958277Y-14013984D01*
X13158277Y-14013984D02*
X13158277Y-13880650D01*
X13158277Y-13918746D02*
X13167801Y-13899698D01*
X13167801Y-13899698D02*
X13177324Y-13890174D01*
X13177324Y-13890174D02*
X13196372Y-13880650D01*
X13196372Y-13880650D02*
X13215420Y-13880650D01*
X13282086Y-14013984D02*
X13282086Y-13880650D01*
X13282086Y-13813984D02*
X13272562Y-13823508D01*
X13272562Y-13823508D02*
X13282086Y-13833031D01*
X13282086Y-13833031D02*
X13291610Y-13823508D01*
X13291610Y-13823508D02*
X13282086Y-13813984D01*
X13282086Y-13813984D02*
X13282086Y-13833031D01*
X13405896Y-14013984D02*
X13386848Y-14004460D01*
X13386848Y-14004460D02*
X13377324Y-13985412D01*
X13377324Y-13985412D02*
X13377324Y-13813984D01*
X13510658Y-14013984D02*
X13491610Y-14004460D01*
X13491610Y-14004460D02*
X13482086Y-13985412D01*
X13482086Y-13985412D02*
X13482086Y-13813984D01*
X13739229Y-14013984D02*
X13739229Y-13813984D01*
X13739229Y-13813984D02*
X13805896Y-13956841D01*
X13805896Y-13956841D02*
X13872562Y-13813984D01*
X13872562Y-13813984D02*
X13872562Y-14013984D01*
X14053515Y-14013984D02*
X14053515Y-13909222D01*
X14053515Y-13909222D02*
X14043991Y-13890174D01*
X14043991Y-13890174D02*
X14024943Y-13880650D01*
X14024943Y-13880650D02*
X13986848Y-13880650D01*
X13986848Y-13880650D02*
X13967801Y-13890174D01*
X14053515Y-14004460D02*
X14034467Y-14013984D01*
X14034467Y-14013984D02*
X13986848Y-14013984D01*
X13986848Y-14013984D02*
X13967801Y-14004460D01*
X13967801Y-14004460D02*
X13958277Y-13985412D01*
X13958277Y-13985412D02*
X13958277Y-13966365D01*
X13958277Y-13966365D02*
X13967801Y-13947317D01*
X13967801Y-13947317D02*
X13986848Y-13937793D01*
X13986848Y-13937793D02*
X14034467Y-13937793D01*
X14034467Y-13937793D02*
X14053515Y-13928269D01*
X14148753Y-13880650D02*
X14148753Y-14080650D01*
X14148753Y-13890174D02*
X14167801Y-13880650D01*
X14167801Y-13880650D02*
X14205896Y-13880650D01*
X14205896Y-13880650D02*
X14224943Y-13890174D01*
X14224943Y-13890174D02*
X14234467Y-13899698D01*
X14234467Y-13899698D02*
X14243991Y-13918746D01*
X14243991Y-13918746D02*
X14243991Y-13975888D01*
X14243991Y-13975888D02*
X14234467Y-13994936D01*
X14234467Y-13994936D02*
X14224943Y-14004460D01*
X14224943Y-14004460D02*
X14205896Y-14013984D01*
X14205896Y-14013984D02*
X14167801Y-14013984D01*
X14167801Y-14013984D02*
X14148753Y-14004460D01*
X14329705Y-13994936D02*
X14339229Y-14004460D01*
X14339229Y-14004460D02*
X14329705Y-14013984D01*
X14329705Y-14013984D02*
X14320182Y-14004460D01*
X14320182Y-14004460D02*
X14329705Y-13994936D01*
X14329705Y-13994936D02*
X14329705Y-14013984D01*
X14329705Y-13890174D02*
X14339229Y-13899698D01*
X14339229Y-13899698D02*
X14329705Y-13909222D01*
X14329705Y-13909222D02*
X14320182Y-13899698D01*
X14320182Y-13899698D02*
X14329705Y-13890174D01*
X14329705Y-13890174D02*
X14329705Y-13909222D01*
D12*
X12632500Y-14310000D02*
X12697500Y-14375000D01*
X12697500Y-14310000D02*
X12632500Y-14375000D01*
D11*
X12996372Y-14233984D02*
X13015420Y-14233984D01*
X13015420Y-14233984D02*
X13034467Y-14243508D01*
X13034467Y-14243508D02*
X13043991Y-14253031D01*
X13043991Y-14253031D02*
X13053515Y-14272079D01*
X13053515Y-14272079D02*
X13063039Y-14310174D01*
X13063039Y-14310174D02*
X13063039Y-14357793D01*
X13063039Y-14357793D02*
X13053515Y-14395888D01*
X13053515Y-14395888D02*
X13043991Y-14414936D01*
X13043991Y-14414936D02*
X13034467Y-14424460D01*
X13034467Y-14424460D02*
X13015420Y-14433984D01*
X13015420Y-14433984D02*
X12996372Y-14433984D01*
X12996372Y-14433984D02*
X12977324Y-14424460D01*
X12977324Y-14424460D02*
X12967801Y-14414936D01*
X12967801Y-14414936D02*
X12958277Y-14395888D01*
X12958277Y-14395888D02*
X12948753Y-14357793D01*
X12948753Y-14357793D02*
X12948753Y-14310174D01*
X12948753Y-14310174D02*
X12958277Y-14272079D01*
X12958277Y-14272079D02*
X12967801Y-14253031D01*
X12967801Y-14253031D02*
X12977324Y-14243508D01*
X12977324Y-14243508D02*
X12996372Y-14233984D01*
X13148753Y-14414936D02*
X13158277Y-14424460D01*
X13158277Y-14424460D02*
X13148753Y-14433984D01*
X13148753Y-14433984D02*
X13139229Y-14424460D01*
X13139229Y-14424460D02*
X13148753Y-14414936D01*
X13148753Y-14414936D02*
X13148753Y-14433984D01*
X13329705Y-14233984D02*
X13291610Y-14233984D01*
X13291610Y-14233984D02*
X13272562Y-14243508D01*
X13272562Y-14243508D02*
X13263039Y-14253031D01*
X13263039Y-14253031D02*
X13243991Y-14281603D01*
X13243991Y-14281603D02*
X13234467Y-14319698D01*
X13234467Y-14319698D02*
X13234467Y-14395888D01*
X13234467Y-14395888D02*
X13243991Y-14414936D01*
X13243991Y-14414936D02*
X13253515Y-14424460D01*
X13253515Y-14424460D02*
X13272562Y-14433984D01*
X13272562Y-14433984D02*
X13310658Y-14433984D01*
X13310658Y-14433984D02*
X13329705Y-14424460D01*
X13329705Y-14424460D02*
X13339229Y-14414936D01*
X13339229Y-14414936D02*
X13348753Y-14395888D01*
X13348753Y-14395888D02*
X13348753Y-14348269D01*
X13348753Y-14348269D02*
X13339229Y-14329222D01*
X13339229Y-14329222D02*
X13329705Y-14319698D01*
X13329705Y-14319698D02*
X13310658Y-14310174D01*
X13310658Y-14310174D02*
X13272562Y-14310174D01*
X13272562Y-14310174D02*
X13253515Y-14319698D01*
X13253515Y-14319698D02*
X13243991Y-14329222D01*
X13243991Y-14329222D02*
X13234467Y-14348269D01*
X13529705Y-14233984D02*
X13434467Y-14233984D01*
X13434467Y-14233984D02*
X13424943Y-14329222D01*
X13424943Y-14329222D02*
X13434467Y-14319698D01*
X13434467Y-14319698D02*
X13453515Y-14310174D01*
X13453515Y-14310174D02*
X13501134Y-14310174D01*
X13501134Y-14310174D02*
X13520182Y-14319698D01*
X13520182Y-14319698D02*
X13529705Y-14329222D01*
X13529705Y-14329222D02*
X13539229Y-14348269D01*
X13539229Y-14348269D02*
X13539229Y-14395888D01*
X13539229Y-14395888D02*
X13529705Y-14414936D01*
X13529705Y-14414936D02*
X13520182Y-14424460D01*
X13520182Y-14424460D02*
X13501134Y-14433984D01*
X13501134Y-14433984D02*
X13453515Y-14433984D01*
X13453515Y-14433984D02*
X13434467Y-14424460D01*
X13434467Y-14424460D02*
X13424943Y-14414936D01*
X13663039Y-14233984D02*
X13682086Y-14233984D01*
X13682086Y-14233984D02*
X13701134Y-14243508D01*
X13701134Y-14243508D02*
X13710658Y-14253031D01*
X13710658Y-14253031D02*
X13720182Y-14272079D01*
X13720182Y-14272079D02*
X13729705Y-14310174D01*
X13729705Y-14310174D02*
X13729705Y-14357793D01*
X13729705Y-14357793D02*
X13720182Y-14395888D01*
X13720182Y-14395888D02*
X13710658Y-14414936D01*
X13710658Y-14414936D02*
X13701134Y-14424460D01*
X13701134Y-14424460D02*
X13682086Y-14433984D01*
X13682086Y-14433984D02*
X13663039Y-14433984D01*
X13663039Y-14433984D02*
X13643991Y-14424460D01*
X13643991Y-14424460D02*
X13634467Y-14414936D01*
X13634467Y-14414936D02*
X13624943Y-14395888D01*
X13624943Y-14395888D02*
X13615420Y-14357793D01*
X13615420Y-14357793D02*
X13615420Y-14310174D01*
X13615420Y-14310174D02*
X13624943Y-14272079D01*
X13624943Y-14272079D02*
X13634467Y-14253031D01*
X13634467Y-14253031D02*
X13643991Y-14243508D01*
X13643991Y-14243508D02*
X13663039Y-14233984D01*
X13815420Y-14433984D02*
X13815420Y-14300650D01*
X13815420Y-14319698D02*
X13824943Y-14310174D01*
X13824943Y-14310174D02*
X13843991Y-14300650D01*
X13843991Y-14300650D02*
X13872563Y-14300650D01*
X13872563Y-14300650D02*
X13891610Y-14310174D01*
X13891610Y-14310174D02*
X13901134Y-14329222D01*
X13901134Y-14329222D02*
X13901134Y-14433984D01*
X13901134Y-14329222D02*
X13910658Y-14310174D01*
X13910658Y-14310174D02*
X13929705Y-14300650D01*
X13929705Y-14300650D02*
X13958277Y-14300650D01*
X13958277Y-14300650D02*
X13977324Y-14310174D01*
X13977324Y-14310174D02*
X13986848Y-14329222D01*
X13986848Y-14329222D02*
X13986848Y-14433984D01*
X14082086Y-14433984D02*
X14082086Y-14300650D01*
X14082086Y-14319698D02*
X14091610Y-14310174D01*
X14091610Y-14310174D02*
X14110658Y-14300650D01*
X14110658Y-14300650D02*
X14139229Y-14300650D01*
X14139229Y-14300650D02*
X14158277Y-14310174D01*
X14158277Y-14310174D02*
X14167801Y-14329222D01*
X14167801Y-14329222D02*
X14167801Y-14433984D01*
X14167801Y-14329222D02*
X14177324Y-14310174D01*
X14177324Y-14310174D02*
X14196372Y-14300650D01*
X14196372Y-14300650D02*
X14224943Y-14300650D01*
X14224943Y-14300650D02*
X14243991Y-14310174D01*
X14243991Y-14310174D02*
X14253515Y-14329222D01*
X14253515Y-14329222D02*
X14253515Y-14433984D01*
X14643991Y-14224460D02*
X14472563Y-14481603D01*
X14901134Y-14233984D02*
X14920182Y-14233984D01*
X14920182Y-14233984D02*
X14939229Y-14243508D01*
X14939229Y-14243508D02*
X14948753Y-14253031D01*
X14948753Y-14253031D02*
X14958277Y-14272079D01*
X14958277Y-14272079D02*
X14967801Y-14310174D01*
X14967801Y-14310174D02*
X14967801Y-14357793D01*
X14967801Y-14357793D02*
X14958277Y-14395888D01*
X14958277Y-14395888D02*
X14948753Y-14414936D01*
X14948753Y-14414936D02*
X14939229Y-14424460D01*
X14939229Y-14424460D02*
X14920182Y-14433984D01*
X14920182Y-14433984D02*
X14901134Y-14433984D01*
X14901134Y-14433984D02*
X14882086Y-14424460D01*
X14882086Y-14424460D02*
X14872563Y-14414936D01*
X14872563Y-14414936D02*
X14863039Y-14395888D01*
X14863039Y-14395888D02*
X14853515Y-14357793D01*
X14853515Y-14357793D02*
X14853515Y-14310174D01*
X14853515Y-14310174D02*
X14863039Y-14272079D01*
X14863039Y-14272079D02*
X14872563Y-14253031D01*
X14872563Y-14253031D02*
X14882086Y-14243508D01*
X14882086Y-14243508D02*
X14901134Y-14233984D01*
X15053515Y-14414936D02*
X15063039Y-14424460D01*
X15063039Y-14424460D02*
X15053515Y-14433984D01*
X15053515Y-14433984D02*
X15043991Y-14424460D01*
X15043991Y-14424460D02*
X15053515Y-14414936D01*
X15053515Y-14414936D02*
X15053515Y-14433984D01*
X15186848Y-14233984D02*
X15205896Y-14233984D01*
X15205896Y-14233984D02*
X15224944Y-14243508D01*
X15224944Y-14243508D02*
X15234467Y-14253031D01*
X15234467Y-14253031D02*
X15243991Y-14272079D01*
X15243991Y-14272079D02*
X15253515Y-14310174D01*
X15253515Y-14310174D02*
X15253515Y-14357793D01*
X15253515Y-14357793D02*
X15243991Y-14395888D01*
X15243991Y-14395888D02*
X15234467Y-14414936D01*
X15234467Y-14414936D02*
X15224944Y-14424460D01*
X15224944Y-14424460D02*
X15205896Y-14433984D01*
X15205896Y-14433984D02*
X15186848Y-14433984D01*
X15186848Y-14433984D02*
X15167801Y-14424460D01*
X15167801Y-14424460D02*
X15158277Y-14414936D01*
X15158277Y-14414936D02*
X15148753Y-14395888D01*
X15148753Y-14395888D02*
X15139229Y-14357793D01*
X15139229Y-14357793D02*
X15139229Y-14310174D01*
X15139229Y-14310174D02*
X15148753Y-14272079D01*
X15148753Y-14272079D02*
X15158277Y-14253031D01*
X15158277Y-14253031D02*
X15167801Y-14243508D01*
X15167801Y-14243508D02*
X15186848Y-14233984D01*
X15329706Y-14253031D02*
X15339229Y-14243508D01*
X15339229Y-14243508D02*
X15358277Y-14233984D01*
X15358277Y-14233984D02*
X15405896Y-14233984D01*
X15405896Y-14233984D02*
X15424944Y-14243508D01*
X15424944Y-14243508D02*
X15434467Y-14253031D01*
X15434467Y-14253031D02*
X15443991Y-14272079D01*
X15443991Y-14272079D02*
X15443991Y-14291127D01*
X15443991Y-14291127D02*
X15434467Y-14319698D01*
X15434467Y-14319698D02*
X15320182Y-14433984D01*
X15320182Y-14433984D02*
X15443991Y-14433984D01*
X15624944Y-14233984D02*
X15529706Y-14233984D01*
X15529706Y-14233984D02*
X15520182Y-14329222D01*
X15520182Y-14329222D02*
X15529706Y-14319698D01*
X15529706Y-14319698D02*
X15548753Y-14310174D01*
X15548753Y-14310174D02*
X15596372Y-14310174D01*
X15596372Y-14310174D02*
X15615420Y-14319698D01*
X15615420Y-14319698D02*
X15624944Y-14329222D01*
X15624944Y-14329222D02*
X15634467Y-14348269D01*
X15634467Y-14348269D02*
X15634467Y-14395888D01*
X15634467Y-14395888D02*
X15624944Y-14414936D01*
X15624944Y-14414936D02*
X15615420Y-14424460D01*
X15615420Y-14424460D02*
X15596372Y-14433984D01*
X15596372Y-14433984D02*
X15548753Y-14433984D01*
X15548753Y-14433984D02*
X15529706Y-14424460D01*
X15529706Y-14424460D02*
X15520182Y-14414936D01*
X15805896Y-14233984D02*
X15767801Y-14233984D01*
X15767801Y-14233984D02*
X15748753Y-14243508D01*
X15748753Y-14243508D02*
X15739229Y-14253031D01*
X15739229Y-14253031D02*
X15720182Y-14281603D01*
X15720182Y-14281603D02*
X15710658Y-14319698D01*
X15710658Y-14319698D02*
X15710658Y-14395888D01*
X15710658Y-14395888D02*
X15720182Y-14414936D01*
X15720182Y-14414936D02*
X15729706Y-14424460D01*
X15729706Y-14424460D02*
X15748753Y-14433984D01*
X15748753Y-14433984D02*
X15786848Y-14433984D01*
X15786848Y-14433984D02*
X15805896Y-14424460D01*
X15805896Y-14424460D02*
X15815420Y-14414936D01*
X15815420Y-14414936D02*
X15824944Y-14395888D01*
X15824944Y-14395888D02*
X15824944Y-14348269D01*
X15824944Y-14348269D02*
X15815420Y-14329222D01*
X15815420Y-14329222D02*
X15805896Y-14319698D01*
X15805896Y-14319698D02*
X15786848Y-14310174D01*
X15786848Y-14310174D02*
X15748753Y-14310174D01*
X15748753Y-14310174D02*
X15729706Y-14319698D01*
X15729706Y-14319698D02*
X15720182Y-14329222D01*
X15720182Y-14329222D02*
X15710658Y-14348269D01*
X15901134Y-14233984D02*
X15901134Y-14272079D01*
X15977325Y-14233984D02*
X15977325Y-14272079D01*
X16272563Y-14510174D02*
X16263039Y-14500650D01*
X16263039Y-14500650D02*
X16243991Y-14472079D01*
X16243991Y-14472079D02*
X16234468Y-14453031D01*
X16234468Y-14453031D02*
X16224944Y-14424460D01*
X16224944Y-14424460D02*
X16215420Y-14376841D01*
X16215420Y-14376841D02*
X16215420Y-14338746D01*
X16215420Y-14338746D02*
X16224944Y-14291127D01*
X16224944Y-14291127D02*
X16234468Y-14262555D01*
X16234468Y-14262555D02*
X16243991Y-14243508D01*
X16243991Y-14243508D02*
X16263039Y-14214936D01*
X16263039Y-14214936D02*
X16272563Y-14205412D01*
X16339229Y-14253031D02*
X16348753Y-14243508D01*
X16348753Y-14243508D02*
X16367801Y-14233984D01*
X16367801Y-14233984D02*
X16415420Y-14233984D01*
X16415420Y-14233984D02*
X16434468Y-14243508D01*
X16434468Y-14243508D02*
X16443991Y-14253031D01*
X16443991Y-14253031D02*
X16453515Y-14272079D01*
X16453515Y-14272079D02*
X16453515Y-14291127D01*
X16453515Y-14291127D02*
X16443991Y-14319698D01*
X16443991Y-14319698D02*
X16329706Y-14433984D01*
X16329706Y-14433984D02*
X16453515Y-14433984D01*
X16691610Y-14433984D02*
X16691610Y-14233984D01*
X16777325Y-14433984D02*
X16777325Y-14329222D01*
X16777325Y-14329222D02*
X16767801Y-14310174D01*
X16767801Y-14310174D02*
X16748753Y-14300650D01*
X16748753Y-14300650D02*
X16720182Y-14300650D01*
X16720182Y-14300650D02*
X16701134Y-14310174D01*
X16701134Y-14310174D02*
X16691610Y-14319698D01*
X16901134Y-14433984D02*
X16882087Y-14424460D01*
X16882087Y-14424460D02*
X16872563Y-14414936D01*
X16872563Y-14414936D02*
X16863039Y-14395888D01*
X16863039Y-14395888D02*
X16863039Y-14338746D01*
X16863039Y-14338746D02*
X16872563Y-14319698D01*
X16872563Y-14319698D02*
X16882087Y-14310174D01*
X16882087Y-14310174D02*
X16901134Y-14300650D01*
X16901134Y-14300650D02*
X16929706Y-14300650D01*
X16929706Y-14300650D02*
X16948753Y-14310174D01*
X16948753Y-14310174D02*
X16958277Y-14319698D01*
X16958277Y-14319698D02*
X16967801Y-14338746D01*
X16967801Y-14338746D02*
X16967801Y-14395888D01*
X16967801Y-14395888D02*
X16958277Y-14414936D01*
X16958277Y-14414936D02*
X16948753Y-14424460D01*
X16948753Y-14424460D02*
X16929706Y-14433984D01*
X16929706Y-14433984D02*
X16901134Y-14433984D01*
X17082087Y-14433984D02*
X17063039Y-14424460D01*
X17063039Y-14424460D02*
X17053515Y-14405412D01*
X17053515Y-14405412D02*
X17053515Y-14233984D01*
X17234468Y-14424460D02*
X17215420Y-14433984D01*
X17215420Y-14433984D02*
X17177325Y-14433984D01*
X17177325Y-14433984D02*
X17158277Y-14424460D01*
X17158277Y-14424460D02*
X17148753Y-14405412D01*
X17148753Y-14405412D02*
X17148753Y-14329222D01*
X17148753Y-14329222D02*
X17158277Y-14310174D01*
X17158277Y-14310174D02*
X17177325Y-14300650D01*
X17177325Y-14300650D02*
X17215420Y-14300650D01*
X17215420Y-14300650D02*
X17234468Y-14310174D01*
X17234468Y-14310174D02*
X17243992Y-14329222D01*
X17243992Y-14329222D02*
X17243992Y-14348269D01*
X17243992Y-14348269D02*
X17148753Y-14367317D01*
X17320182Y-14424460D02*
X17339230Y-14433984D01*
X17339230Y-14433984D02*
X17377325Y-14433984D01*
X17377325Y-14433984D02*
X17396373Y-14424460D01*
X17396373Y-14424460D02*
X17405896Y-14405412D01*
X17405896Y-14405412D02*
X17405896Y-14395888D01*
X17405896Y-14395888D02*
X17396373Y-14376841D01*
X17396373Y-14376841D02*
X17377325Y-14367317D01*
X17377325Y-14367317D02*
X17348753Y-14367317D01*
X17348753Y-14367317D02*
X17329706Y-14357793D01*
X17329706Y-14357793D02*
X17320182Y-14338746D01*
X17320182Y-14338746D02*
X17320182Y-14329222D01*
X17320182Y-14329222D02*
X17329706Y-14310174D01*
X17329706Y-14310174D02*
X17348753Y-14300650D01*
X17348753Y-14300650D02*
X17377325Y-14300650D01*
X17377325Y-14300650D02*
X17396373Y-14310174D01*
X17472563Y-14510174D02*
X17482087Y-14500650D01*
X17482087Y-14500650D02*
X17501134Y-14472079D01*
X17501134Y-14472079D02*
X17510658Y-14453031D01*
X17510658Y-14453031D02*
X17520182Y-14424460D01*
X17520182Y-14424460D02*
X17529706Y-14376841D01*
X17529706Y-14376841D02*
X17529706Y-14338746D01*
X17529706Y-14338746D02*
X17520182Y-14291127D01*
X17520182Y-14291127D02*
X17510658Y-14262555D01*
X17510658Y-14262555D02*
X17501134Y-14243508D01*
X17501134Y-14243508D02*
X17482087Y-14214936D01*
X17482087Y-14214936D02*
X17472563Y-14205412D01*
X17834468Y-14510174D02*
X17824944Y-14500650D01*
X17824944Y-14500650D02*
X17805896Y-14472079D01*
X17805896Y-14472079D02*
X17796373Y-14453031D01*
X17796373Y-14453031D02*
X17786849Y-14424460D01*
X17786849Y-14424460D02*
X17777325Y-14376841D01*
X17777325Y-14376841D02*
X17777325Y-14338746D01*
X17777325Y-14338746D02*
X17786849Y-14291127D01*
X17786849Y-14291127D02*
X17796373Y-14262555D01*
X17796373Y-14262555D02*
X17805896Y-14243508D01*
X17805896Y-14243508D02*
X17824944Y-14214936D01*
X17824944Y-14214936D02*
X17834468Y-14205412D01*
X17910658Y-14300650D02*
X17910658Y-14433984D01*
X17910658Y-14319698D02*
X17920182Y-14310174D01*
X17920182Y-14310174D02*
X17939230Y-14300650D01*
X17939230Y-14300650D02*
X17967801Y-14300650D01*
X17967801Y-14300650D02*
X17986849Y-14310174D01*
X17986849Y-14310174D02*
X17996373Y-14329222D01*
X17996373Y-14329222D02*
X17996373Y-14433984D01*
X18120182Y-14433984D02*
X18101134Y-14424460D01*
X18101134Y-14424460D02*
X18091611Y-14414936D01*
X18091611Y-14414936D02*
X18082087Y-14395888D01*
X18082087Y-14395888D02*
X18082087Y-14338746D01*
X18082087Y-14338746D02*
X18091611Y-14319698D01*
X18091611Y-14319698D02*
X18101134Y-14310174D01*
X18101134Y-14310174D02*
X18120182Y-14300650D01*
X18120182Y-14300650D02*
X18148754Y-14300650D01*
X18148754Y-14300650D02*
X18167801Y-14310174D01*
X18167801Y-14310174D02*
X18177325Y-14319698D01*
X18177325Y-14319698D02*
X18186849Y-14338746D01*
X18186849Y-14338746D02*
X18186849Y-14395888D01*
X18186849Y-14395888D02*
X18177325Y-14414936D01*
X18177325Y-14414936D02*
X18167801Y-14424460D01*
X18167801Y-14424460D02*
X18148754Y-14433984D01*
X18148754Y-14433984D02*
X18120182Y-14433984D01*
X18243992Y-14300650D02*
X18320182Y-14300650D01*
X18272563Y-14233984D02*
X18272563Y-14405412D01*
X18272563Y-14405412D02*
X18282087Y-14424460D01*
X18282087Y-14424460D02*
X18301134Y-14433984D01*
X18301134Y-14433984D02*
X18320182Y-14433984D01*
X18539230Y-14300650D02*
X18539230Y-14500650D01*
X18539230Y-14310174D02*
X18558277Y-14300650D01*
X18558277Y-14300650D02*
X18596373Y-14300650D01*
X18596373Y-14300650D02*
X18615420Y-14310174D01*
X18615420Y-14310174D02*
X18624944Y-14319698D01*
X18624944Y-14319698D02*
X18634468Y-14338746D01*
X18634468Y-14338746D02*
X18634468Y-14395888D01*
X18634468Y-14395888D02*
X18624944Y-14414936D01*
X18624944Y-14414936D02*
X18615420Y-14424460D01*
X18615420Y-14424460D02*
X18596373Y-14433984D01*
X18596373Y-14433984D02*
X18558277Y-14433984D01*
X18558277Y-14433984D02*
X18539230Y-14424460D01*
X18748754Y-14433984D02*
X18729706Y-14424460D01*
X18729706Y-14424460D02*
X18720182Y-14405412D01*
X18720182Y-14405412D02*
X18720182Y-14233984D01*
X18910658Y-14433984D02*
X18910658Y-14329222D01*
X18910658Y-14329222D02*
X18901135Y-14310174D01*
X18901135Y-14310174D02*
X18882087Y-14300650D01*
X18882087Y-14300650D02*
X18843992Y-14300650D01*
X18843992Y-14300650D02*
X18824944Y-14310174D01*
X18910658Y-14424460D02*
X18891611Y-14433984D01*
X18891611Y-14433984D02*
X18843992Y-14433984D01*
X18843992Y-14433984D02*
X18824944Y-14424460D01*
X18824944Y-14424460D02*
X18815420Y-14405412D01*
X18815420Y-14405412D02*
X18815420Y-14386365D01*
X18815420Y-14386365D02*
X18824944Y-14367317D01*
X18824944Y-14367317D02*
X18843992Y-14357793D01*
X18843992Y-14357793D02*
X18891611Y-14357793D01*
X18891611Y-14357793D02*
X18910658Y-14348269D01*
X18977325Y-14300650D02*
X19053515Y-14300650D01*
X19005896Y-14233984D02*
X19005896Y-14405412D01*
X19005896Y-14405412D02*
X19015420Y-14424460D01*
X19015420Y-14424460D02*
X19034468Y-14433984D01*
X19034468Y-14433984D02*
X19053515Y-14433984D01*
X19196373Y-14424460D02*
X19177325Y-14433984D01*
X19177325Y-14433984D02*
X19139230Y-14433984D01*
X19139230Y-14433984D02*
X19120182Y-14424460D01*
X19120182Y-14424460D02*
X19110658Y-14405412D01*
X19110658Y-14405412D02*
X19110658Y-14329222D01*
X19110658Y-14329222D02*
X19120182Y-14310174D01*
X19120182Y-14310174D02*
X19139230Y-14300650D01*
X19139230Y-14300650D02*
X19177325Y-14300650D01*
X19177325Y-14300650D02*
X19196373Y-14310174D01*
X19196373Y-14310174D02*
X19205896Y-14329222D01*
X19205896Y-14329222D02*
X19205896Y-14348269D01*
X19205896Y-14348269D02*
X19110658Y-14367317D01*
X19377325Y-14433984D02*
X19377325Y-14233984D01*
X19377325Y-14424460D02*
X19358277Y-14433984D01*
X19358277Y-14433984D02*
X19320182Y-14433984D01*
X19320182Y-14433984D02*
X19301135Y-14424460D01*
X19301135Y-14424460D02*
X19291611Y-14414936D01*
X19291611Y-14414936D02*
X19282087Y-14395888D01*
X19282087Y-14395888D02*
X19282087Y-14338746D01*
X19282087Y-14338746D02*
X19291611Y-14319698D01*
X19291611Y-14319698D02*
X19301135Y-14310174D01*
X19301135Y-14310174D02*
X19320182Y-14300650D01*
X19320182Y-14300650D02*
X19358277Y-14300650D01*
X19358277Y-14300650D02*
X19377325Y-14310174D01*
X19453516Y-14510174D02*
X19463039Y-14500650D01*
X19463039Y-14500650D02*
X19482087Y-14472079D01*
X19482087Y-14472079D02*
X19491611Y-14453031D01*
X19491611Y-14453031D02*
X19501135Y-14424460D01*
X19501135Y-14424460D02*
X19510658Y-14376841D01*
X19510658Y-14376841D02*
X19510658Y-14338746D01*
X19510658Y-14338746D02*
X19501135Y-14291127D01*
X19501135Y-14291127D02*
X19491611Y-14262555D01*
X19491611Y-14262555D02*
X19482087Y-14243508D01*
X19482087Y-14243508D02*
X19463039Y-14214936D01*
X19463039Y-14214936D02*
X19453516Y-14205412D01*
D12*
X12697500Y-14606500D02*
G75*
G02*
X12598440Y-14606500I-49530J0D01*
G01*
X12598440Y-14606500D02*
G75*
G02*
X12697500Y-14606500I49530J0D01*
G01*
D11*
X12996372Y-14497984D02*
X13015420Y-14497984D01*
X13015420Y-14497984D02*
X13034467Y-14507508D01*
X13034467Y-14507508D02*
X13043991Y-14517031D01*
X13043991Y-14517031D02*
X13053515Y-14536079D01*
X13053515Y-14536079D02*
X13063039Y-14574174D01*
X13063039Y-14574174D02*
X13063039Y-14621793D01*
X13063039Y-14621793D02*
X13053515Y-14659888D01*
X13053515Y-14659888D02*
X13043991Y-14678936D01*
X13043991Y-14678936D02*
X13034467Y-14688460D01*
X13034467Y-14688460D02*
X13015420Y-14697984D01*
X13015420Y-14697984D02*
X12996372Y-14697984D01*
X12996372Y-14697984D02*
X12977324Y-14688460D01*
X12977324Y-14688460D02*
X12967801Y-14678936D01*
X12967801Y-14678936D02*
X12958277Y-14659888D01*
X12958277Y-14659888D02*
X12948753Y-14621793D01*
X12948753Y-14621793D02*
X12948753Y-14574174D01*
X12948753Y-14574174D02*
X12958277Y-14536079D01*
X12958277Y-14536079D02*
X12967801Y-14517031D01*
X12967801Y-14517031D02*
X12977324Y-14507508D01*
X12977324Y-14507508D02*
X12996372Y-14497984D01*
X13148753Y-14678936D02*
X13158277Y-14688460D01*
X13158277Y-14688460D02*
X13148753Y-14697984D01*
X13148753Y-14697984D02*
X13139229Y-14688460D01*
X13139229Y-14688460D02*
X13148753Y-14678936D01*
X13148753Y-14678936D02*
X13148753Y-14697984D01*
X13253515Y-14697984D02*
X13291610Y-14697984D01*
X13291610Y-14697984D02*
X13310658Y-14688460D01*
X13310658Y-14688460D02*
X13320182Y-14678936D01*
X13320182Y-14678936D02*
X13339229Y-14650365D01*
X13339229Y-14650365D02*
X13348753Y-14612269D01*
X13348753Y-14612269D02*
X13348753Y-14536079D01*
X13348753Y-14536079D02*
X13339229Y-14517031D01*
X13339229Y-14517031D02*
X13329705Y-14507508D01*
X13329705Y-14507508D02*
X13310658Y-14497984D01*
X13310658Y-14497984D02*
X13272562Y-14497984D01*
X13272562Y-14497984D02*
X13253515Y-14507508D01*
X13253515Y-14507508D02*
X13243991Y-14517031D01*
X13243991Y-14517031D02*
X13234467Y-14536079D01*
X13234467Y-14536079D02*
X13234467Y-14583698D01*
X13234467Y-14583698D02*
X13243991Y-14602746D01*
X13243991Y-14602746D02*
X13253515Y-14612269D01*
X13253515Y-14612269D02*
X13272562Y-14621793D01*
X13272562Y-14621793D02*
X13310658Y-14621793D01*
X13310658Y-14621793D02*
X13329705Y-14612269D01*
X13329705Y-14612269D02*
X13339229Y-14602746D01*
X13339229Y-14602746D02*
X13348753Y-14583698D01*
X13443991Y-14697984D02*
X13482086Y-14697984D01*
X13482086Y-14697984D02*
X13501134Y-14688460D01*
X13501134Y-14688460D02*
X13510658Y-14678936D01*
X13510658Y-14678936D02*
X13529705Y-14650365D01*
X13529705Y-14650365D02*
X13539229Y-14612269D01*
X13539229Y-14612269D02*
X13539229Y-14536079D01*
X13539229Y-14536079D02*
X13529705Y-14517031D01*
X13529705Y-14517031D02*
X13520182Y-14507508D01*
X13520182Y-14507508D02*
X13501134Y-14497984D01*
X13501134Y-14497984D02*
X13463039Y-14497984D01*
X13463039Y-14497984D02*
X13443991Y-14507508D01*
X13443991Y-14507508D02*
X13434467Y-14517031D01*
X13434467Y-14517031D02*
X13424943Y-14536079D01*
X13424943Y-14536079D02*
X13424943Y-14583698D01*
X13424943Y-14583698D02*
X13434467Y-14602746D01*
X13434467Y-14602746D02*
X13443991Y-14612269D01*
X13443991Y-14612269D02*
X13463039Y-14621793D01*
X13463039Y-14621793D02*
X13501134Y-14621793D01*
X13501134Y-14621793D02*
X13520182Y-14612269D01*
X13520182Y-14612269D02*
X13529705Y-14602746D01*
X13529705Y-14602746D02*
X13539229Y-14583698D01*
X13729705Y-14697984D02*
X13615420Y-14697984D01*
X13672562Y-14697984D02*
X13672562Y-14497984D01*
X13672562Y-14497984D02*
X13653515Y-14526555D01*
X13653515Y-14526555D02*
X13634467Y-14545603D01*
X13634467Y-14545603D02*
X13615420Y-14555127D01*
X13815420Y-14697984D02*
X13815420Y-14564650D01*
X13815420Y-14583698D02*
X13824943Y-14574174D01*
X13824943Y-14574174D02*
X13843991Y-14564650D01*
X13843991Y-14564650D02*
X13872563Y-14564650D01*
X13872563Y-14564650D02*
X13891610Y-14574174D01*
X13891610Y-14574174D02*
X13901134Y-14593222D01*
X13901134Y-14593222D02*
X13901134Y-14697984D01*
X13901134Y-14593222D02*
X13910658Y-14574174D01*
X13910658Y-14574174D02*
X13929705Y-14564650D01*
X13929705Y-14564650D02*
X13958277Y-14564650D01*
X13958277Y-14564650D02*
X13977324Y-14574174D01*
X13977324Y-14574174D02*
X13986848Y-14593222D01*
X13986848Y-14593222D02*
X13986848Y-14697984D01*
X14082086Y-14697984D02*
X14082086Y-14564650D01*
X14082086Y-14583698D02*
X14091610Y-14574174D01*
X14091610Y-14574174D02*
X14110658Y-14564650D01*
X14110658Y-14564650D02*
X14139229Y-14564650D01*
X14139229Y-14564650D02*
X14158277Y-14574174D01*
X14158277Y-14574174D02*
X14167801Y-14593222D01*
X14167801Y-14593222D02*
X14167801Y-14697984D01*
X14167801Y-14593222D02*
X14177324Y-14574174D01*
X14177324Y-14574174D02*
X14196372Y-14564650D01*
X14196372Y-14564650D02*
X14224943Y-14564650D01*
X14224943Y-14564650D02*
X14243991Y-14574174D01*
X14243991Y-14574174D02*
X14253515Y-14593222D01*
X14253515Y-14593222D02*
X14253515Y-14697984D01*
X14643991Y-14488460D02*
X14472563Y-14745603D01*
X14901134Y-14497984D02*
X14920182Y-14497984D01*
X14920182Y-14497984D02*
X14939229Y-14507508D01*
X14939229Y-14507508D02*
X14948753Y-14517031D01*
X14948753Y-14517031D02*
X14958277Y-14536079D01*
X14958277Y-14536079D02*
X14967801Y-14574174D01*
X14967801Y-14574174D02*
X14967801Y-14621793D01*
X14967801Y-14621793D02*
X14958277Y-14659888D01*
X14958277Y-14659888D02*
X14948753Y-14678936D01*
X14948753Y-14678936D02*
X14939229Y-14688460D01*
X14939229Y-14688460D02*
X14920182Y-14697984D01*
X14920182Y-14697984D02*
X14901134Y-14697984D01*
X14901134Y-14697984D02*
X14882086Y-14688460D01*
X14882086Y-14688460D02*
X14872563Y-14678936D01*
X14872563Y-14678936D02*
X14863039Y-14659888D01*
X14863039Y-14659888D02*
X14853515Y-14621793D01*
X14853515Y-14621793D02*
X14853515Y-14574174D01*
X14853515Y-14574174D02*
X14863039Y-14536079D01*
X14863039Y-14536079D02*
X14872563Y-14517031D01*
X14872563Y-14517031D02*
X14882086Y-14507508D01*
X14882086Y-14507508D02*
X14901134Y-14497984D01*
X15053515Y-14678936D02*
X15063039Y-14688460D01*
X15063039Y-14688460D02*
X15053515Y-14697984D01*
X15053515Y-14697984D02*
X15043991Y-14688460D01*
X15043991Y-14688460D02*
X15053515Y-14678936D01*
X15053515Y-14678936D02*
X15053515Y-14697984D01*
X15186848Y-14497984D02*
X15205896Y-14497984D01*
X15205896Y-14497984D02*
X15224944Y-14507508D01*
X15224944Y-14507508D02*
X15234467Y-14517031D01*
X15234467Y-14517031D02*
X15243991Y-14536079D01*
X15243991Y-14536079D02*
X15253515Y-14574174D01*
X15253515Y-14574174D02*
X15253515Y-14621793D01*
X15253515Y-14621793D02*
X15243991Y-14659888D01*
X15243991Y-14659888D02*
X15234467Y-14678936D01*
X15234467Y-14678936D02*
X15224944Y-14688460D01*
X15224944Y-14688460D02*
X15205896Y-14697984D01*
X15205896Y-14697984D02*
X15186848Y-14697984D01*
X15186848Y-14697984D02*
X15167801Y-14688460D01*
X15167801Y-14688460D02*
X15158277Y-14678936D01*
X15158277Y-14678936D02*
X15148753Y-14659888D01*
X15148753Y-14659888D02*
X15139229Y-14621793D01*
X15139229Y-14621793D02*
X15139229Y-14574174D01*
X15139229Y-14574174D02*
X15148753Y-14536079D01*
X15148753Y-14536079D02*
X15158277Y-14517031D01*
X15158277Y-14517031D02*
X15167801Y-14507508D01*
X15167801Y-14507508D02*
X15186848Y-14497984D01*
X15320182Y-14497984D02*
X15443991Y-14497984D01*
X15443991Y-14497984D02*
X15377325Y-14574174D01*
X15377325Y-14574174D02*
X15405896Y-14574174D01*
X15405896Y-14574174D02*
X15424944Y-14583698D01*
X15424944Y-14583698D02*
X15434467Y-14593222D01*
X15434467Y-14593222D02*
X15443991Y-14612269D01*
X15443991Y-14612269D02*
X15443991Y-14659888D01*
X15443991Y-14659888D02*
X15434467Y-14678936D01*
X15434467Y-14678936D02*
X15424944Y-14688460D01*
X15424944Y-14688460D02*
X15405896Y-14697984D01*
X15405896Y-14697984D02*
X15348753Y-14697984D01*
X15348753Y-14697984D02*
X15329706Y-14688460D01*
X15329706Y-14688460D02*
X15320182Y-14678936D01*
X15539229Y-14697984D02*
X15577325Y-14697984D01*
X15577325Y-14697984D02*
X15596372Y-14688460D01*
X15596372Y-14688460D02*
X15605896Y-14678936D01*
X15605896Y-14678936D02*
X15624944Y-14650365D01*
X15624944Y-14650365D02*
X15634467Y-14612269D01*
X15634467Y-14612269D02*
X15634467Y-14536079D01*
X15634467Y-14536079D02*
X15624944Y-14517031D01*
X15624944Y-14517031D02*
X15615420Y-14507508D01*
X15615420Y-14507508D02*
X15596372Y-14497984D01*
X15596372Y-14497984D02*
X15558277Y-14497984D01*
X15558277Y-14497984D02*
X15539229Y-14507508D01*
X15539229Y-14507508D02*
X15529706Y-14517031D01*
X15529706Y-14517031D02*
X15520182Y-14536079D01*
X15520182Y-14536079D02*
X15520182Y-14583698D01*
X15520182Y-14583698D02*
X15529706Y-14602746D01*
X15529706Y-14602746D02*
X15539229Y-14612269D01*
X15539229Y-14612269D02*
X15558277Y-14621793D01*
X15558277Y-14621793D02*
X15596372Y-14621793D01*
X15596372Y-14621793D02*
X15615420Y-14612269D01*
X15615420Y-14612269D02*
X15624944Y-14602746D01*
X15624944Y-14602746D02*
X15634467Y-14583698D01*
X15758277Y-14497984D02*
X15777325Y-14497984D01*
X15777325Y-14497984D02*
X15796372Y-14507508D01*
X15796372Y-14507508D02*
X15805896Y-14517031D01*
X15805896Y-14517031D02*
X15815420Y-14536079D01*
X15815420Y-14536079D02*
X15824944Y-14574174D01*
X15824944Y-14574174D02*
X15824944Y-14621793D01*
X15824944Y-14621793D02*
X15815420Y-14659888D01*
X15815420Y-14659888D02*
X15805896Y-14678936D01*
X15805896Y-14678936D02*
X15796372Y-14688460D01*
X15796372Y-14688460D02*
X15777325Y-14697984D01*
X15777325Y-14697984D02*
X15758277Y-14697984D01*
X15758277Y-14697984D02*
X15739229Y-14688460D01*
X15739229Y-14688460D02*
X15729706Y-14678936D01*
X15729706Y-14678936D02*
X15720182Y-14659888D01*
X15720182Y-14659888D02*
X15710658Y-14621793D01*
X15710658Y-14621793D02*
X15710658Y-14574174D01*
X15710658Y-14574174D02*
X15720182Y-14536079D01*
X15720182Y-14536079D02*
X15729706Y-14517031D01*
X15729706Y-14517031D02*
X15739229Y-14507508D01*
X15739229Y-14507508D02*
X15758277Y-14497984D01*
X15901134Y-14497984D02*
X15901134Y-14536079D01*
X15977325Y-14497984D02*
X15977325Y-14536079D01*
X16272563Y-14774174D02*
X16263039Y-14764650D01*
X16263039Y-14764650D02*
X16243991Y-14736079D01*
X16243991Y-14736079D02*
X16234468Y-14717031D01*
X16234468Y-14717031D02*
X16224944Y-14688460D01*
X16224944Y-14688460D02*
X16215420Y-14640841D01*
X16215420Y-14640841D02*
X16215420Y-14602746D01*
X16215420Y-14602746D02*
X16224944Y-14555127D01*
X16224944Y-14555127D02*
X16234468Y-14526555D01*
X16234468Y-14526555D02*
X16243991Y-14507508D01*
X16243991Y-14507508D02*
X16263039Y-14478936D01*
X16263039Y-14478936D02*
X16272563Y-14469412D01*
X16329706Y-14497984D02*
X16453515Y-14497984D01*
X16453515Y-14497984D02*
X16386848Y-14574174D01*
X16386848Y-14574174D02*
X16415420Y-14574174D01*
X16415420Y-14574174D02*
X16434468Y-14583698D01*
X16434468Y-14583698D02*
X16443991Y-14593222D01*
X16443991Y-14593222D02*
X16453515Y-14612269D01*
X16453515Y-14612269D02*
X16453515Y-14659888D01*
X16453515Y-14659888D02*
X16443991Y-14678936D01*
X16443991Y-14678936D02*
X16434468Y-14688460D01*
X16434468Y-14688460D02*
X16415420Y-14697984D01*
X16415420Y-14697984D02*
X16358277Y-14697984D01*
X16358277Y-14697984D02*
X16339229Y-14688460D01*
X16339229Y-14688460D02*
X16329706Y-14678936D01*
X16691610Y-14697984D02*
X16691610Y-14497984D01*
X16777325Y-14697984D02*
X16777325Y-14593222D01*
X16777325Y-14593222D02*
X16767801Y-14574174D01*
X16767801Y-14574174D02*
X16748753Y-14564650D01*
X16748753Y-14564650D02*
X16720182Y-14564650D01*
X16720182Y-14564650D02*
X16701134Y-14574174D01*
X16701134Y-14574174D02*
X16691610Y-14583698D01*
X16901134Y-14697984D02*
X16882087Y-14688460D01*
X16882087Y-14688460D02*
X16872563Y-14678936D01*
X16872563Y-14678936D02*
X16863039Y-14659888D01*
X16863039Y-14659888D02*
X16863039Y-14602746D01*
X16863039Y-14602746D02*
X16872563Y-14583698D01*
X16872563Y-14583698D02*
X16882087Y-14574174D01*
X16882087Y-14574174D02*
X16901134Y-14564650D01*
X16901134Y-14564650D02*
X16929706Y-14564650D01*
X16929706Y-14564650D02*
X16948753Y-14574174D01*
X16948753Y-14574174D02*
X16958277Y-14583698D01*
X16958277Y-14583698D02*
X16967801Y-14602746D01*
X16967801Y-14602746D02*
X16967801Y-14659888D01*
X16967801Y-14659888D02*
X16958277Y-14678936D01*
X16958277Y-14678936D02*
X16948753Y-14688460D01*
X16948753Y-14688460D02*
X16929706Y-14697984D01*
X16929706Y-14697984D02*
X16901134Y-14697984D01*
X17082087Y-14697984D02*
X17063039Y-14688460D01*
X17063039Y-14688460D02*
X17053515Y-14669412D01*
X17053515Y-14669412D02*
X17053515Y-14497984D01*
X17234468Y-14688460D02*
X17215420Y-14697984D01*
X17215420Y-14697984D02*
X17177325Y-14697984D01*
X17177325Y-14697984D02*
X17158277Y-14688460D01*
X17158277Y-14688460D02*
X17148753Y-14669412D01*
X17148753Y-14669412D02*
X17148753Y-14593222D01*
X17148753Y-14593222D02*
X17158277Y-14574174D01*
X17158277Y-14574174D02*
X17177325Y-14564650D01*
X17177325Y-14564650D02*
X17215420Y-14564650D01*
X17215420Y-14564650D02*
X17234468Y-14574174D01*
X17234468Y-14574174D02*
X17243992Y-14593222D01*
X17243992Y-14593222D02*
X17243992Y-14612269D01*
X17243992Y-14612269D02*
X17148753Y-14631317D01*
X17320182Y-14688460D02*
X17339230Y-14697984D01*
X17339230Y-14697984D02*
X17377325Y-14697984D01*
X17377325Y-14697984D02*
X17396373Y-14688460D01*
X17396373Y-14688460D02*
X17405896Y-14669412D01*
X17405896Y-14669412D02*
X17405896Y-14659888D01*
X17405896Y-14659888D02*
X17396373Y-14640841D01*
X17396373Y-14640841D02*
X17377325Y-14631317D01*
X17377325Y-14631317D02*
X17348753Y-14631317D01*
X17348753Y-14631317D02*
X17329706Y-14621793D01*
X17329706Y-14621793D02*
X17320182Y-14602746D01*
X17320182Y-14602746D02*
X17320182Y-14593222D01*
X17320182Y-14593222D02*
X17329706Y-14574174D01*
X17329706Y-14574174D02*
X17348753Y-14564650D01*
X17348753Y-14564650D02*
X17377325Y-14564650D01*
X17377325Y-14564650D02*
X17396373Y-14574174D01*
X17472563Y-14774174D02*
X17482087Y-14764650D01*
X17482087Y-14764650D02*
X17501134Y-14736079D01*
X17501134Y-14736079D02*
X17510658Y-14717031D01*
X17510658Y-14717031D02*
X17520182Y-14688460D01*
X17520182Y-14688460D02*
X17529706Y-14640841D01*
X17529706Y-14640841D02*
X17529706Y-14602746D01*
X17529706Y-14602746D02*
X17520182Y-14555127D01*
X17520182Y-14555127D02*
X17510658Y-14526555D01*
X17510658Y-14526555D02*
X17501134Y-14507508D01*
X17501134Y-14507508D02*
X17482087Y-14478936D01*
X17482087Y-14478936D02*
X17472563Y-14469412D01*
X17834468Y-14774174D02*
X17824944Y-14764650D01*
X17824944Y-14764650D02*
X17805896Y-14736079D01*
X17805896Y-14736079D02*
X17796373Y-14717031D01*
X17796373Y-14717031D02*
X17786849Y-14688460D01*
X17786849Y-14688460D02*
X17777325Y-14640841D01*
X17777325Y-14640841D02*
X17777325Y-14602746D01*
X17777325Y-14602746D02*
X17786849Y-14555127D01*
X17786849Y-14555127D02*
X17796373Y-14526555D01*
X17796373Y-14526555D02*
X17805896Y-14507508D01*
X17805896Y-14507508D02*
X17824944Y-14478936D01*
X17824944Y-14478936D02*
X17834468Y-14469412D01*
X17910658Y-14564650D02*
X17910658Y-14697984D01*
X17910658Y-14583698D02*
X17920182Y-14574174D01*
X17920182Y-14574174D02*
X17939230Y-14564650D01*
X17939230Y-14564650D02*
X17967801Y-14564650D01*
X17967801Y-14564650D02*
X17986849Y-14574174D01*
X17986849Y-14574174D02*
X17996373Y-14593222D01*
X17996373Y-14593222D02*
X17996373Y-14697984D01*
X18120182Y-14697984D02*
X18101134Y-14688460D01*
X18101134Y-14688460D02*
X18091611Y-14678936D01*
X18091611Y-14678936D02*
X18082087Y-14659888D01*
X18082087Y-14659888D02*
X18082087Y-14602746D01*
X18082087Y-14602746D02*
X18091611Y-14583698D01*
X18091611Y-14583698D02*
X18101134Y-14574174D01*
X18101134Y-14574174D02*
X18120182Y-14564650D01*
X18120182Y-14564650D02*
X18148754Y-14564650D01*
X18148754Y-14564650D02*
X18167801Y-14574174D01*
X18167801Y-14574174D02*
X18177325Y-14583698D01*
X18177325Y-14583698D02*
X18186849Y-14602746D01*
X18186849Y-14602746D02*
X18186849Y-14659888D01*
X18186849Y-14659888D02*
X18177325Y-14678936D01*
X18177325Y-14678936D02*
X18167801Y-14688460D01*
X18167801Y-14688460D02*
X18148754Y-14697984D01*
X18148754Y-14697984D02*
X18120182Y-14697984D01*
X18243992Y-14564650D02*
X18320182Y-14564650D01*
X18272563Y-14497984D02*
X18272563Y-14669412D01*
X18272563Y-14669412D02*
X18282087Y-14688460D01*
X18282087Y-14688460D02*
X18301134Y-14697984D01*
X18301134Y-14697984D02*
X18320182Y-14697984D01*
X18539230Y-14564650D02*
X18539230Y-14764650D01*
X18539230Y-14574174D02*
X18558277Y-14564650D01*
X18558277Y-14564650D02*
X18596373Y-14564650D01*
X18596373Y-14564650D02*
X18615420Y-14574174D01*
X18615420Y-14574174D02*
X18624944Y-14583698D01*
X18624944Y-14583698D02*
X18634468Y-14602746D01*
X18634468Y-14602746D02*
X18634468Y-14659888D01*
X18634468Y-14659888D02*
X18624944Y-14678936D01*
X18624944Y-14678936D02*
X18615420Y-14688460D01*
X18615420Y-14688460D02*
X18596373Y-14697984D01*
X18596373Y-14697984D02*
X18558277Y-14697984D01*
X18558277Y-14697984D02*
X18539230Y-14688460D01*
X18748754Y-14697984D02*
X18729706Y-14688460D01*
X18729706Y-14688460D02*
X18720182Y-14669412D01*
X18720182Y-14669412D02*
X18720182Y-14497984D01*
X18910658Y-14697984D02*
X18910658Y-14593222D01*
X18910658Y-14593222D02*
X18901135Y-14574174D01*
X18901135Y-14574174D02*
X18882087Y-14564650D01*
X18882087Y-14564650D02*
X18843992Y-14564650D01*
X18843992Y-14564650D02*
X18824944Y-14574174D01*
X18910658Y-14688460D02*
X18891611Y-14697984D01*
X18891611Y-14697984D02*
X18843992Y-14697984D01*
X18843992Y-14697984D02*
X18824944Y-14688460D01*
X18824944Y-14688460D02*
X18815420Y-14669412D01*
X18815420Y-14669412D02*
X18815420Y-14650365D01*
X18815420Y-14650365D02*
X18824944Y-14631317D01*
X18824944Y-14631317D02*
X18843992Y-14621793D01*
X18843992Y-14621793D02*
X18891611Y-14621793D01*
X18891611Y-14621793D02*
X18910658Y-14612269D01*
X18977325Y-14564650D02*
X19053515Y-14564650D01*
X19005896Y-14497984D02*
X19005896Y-14669412D01*
X19005896Y-14669412D02*
X19015420Y-14688460D01*
X19015420Y-14688460D02*
X19034468Y-14697984D01*
X19034468Y-14697984D02*
X19053515Y-14697984D01*
X19196373Y-14688460D02*
X19177325Y-14697984D01*
X19177325Y-14697984D02*
X19139230Y-14697984D01*
X19139230Y-14697984D02*
X19120182Y-14688460D01*
X19120182Y-14688460D02*
X19110658Y-14669412D01*
X19110658Y-14669412D02*
X19110658Y-14593222D01*
X19110658Y-14593222D02*
X19120182Y-14574174D01*
X19120182Y-14574174D02*
X19139230Y-14564650D01*
X19139230Y-14564650D02*
X19177325Y-14564650D01*
X19177325Y-14564650D02*
X19196373Y-14574174D01*
X19196373Y-14574174D02*
X19205896Y-14593222D01*
X19205896Y-14593222D02*
X19205896Y-14612269D01*
X19205896Y-14612269D02*
X19110658Y-14631317D01*
X19377325Y-14697984D02*
X19377325Y-14497984D01*
X19377325Y-14688460D02*
X19358277Y-14697984D01*
X19358277Y-14697984D02*
X19320182Y-14697984D01*
X19320182Y-14697984D02*
X19301135Y-14688460D01*
X19301135Y-14688460D02*
X19291611Y-14678936D01*
X19291611Y-14678936D02*
X19282087Y-14659888D01*
X19282087Y-14659888D02*
X19282087Y-14602746D01*
X19282087Y-14602746D02*
X19291611Y-14583698D01*
X19291611Y-14583698D02*
X19301135Y-14574174D01*
X19301135Y-14574174D02*
X19320182Y-14564650D01*
X19320182Y-14564650D02*
X19358277Y-14564650D01*
X19358277Y-14564650D02*
X19377325Y-14574174D01*
X19453516Y-14774174D02*
X19463039Y-14764650D01*
X19463039Y-14764650D02*
X19482087Y-14736079D01*
X19482087Y-14736079D02*
X19491611Y-14717031D01*
X19491611Y-14717031D02*
X19501135Y-14688460D01*
X19501135Y-14688460D02*
X19510658Y-14640841D01*
X19510658Y-14640841D02*
X19510658Y-14602746D01*
X19510658Y-14602746D02*
X19501135Y-14555127D01*
X19501135Y-14555127D02*
X19491611Y-14526555D01*
X19491611Y-14526555D02*
X19482087Y-14507508D01*
X19482087Y-14507508D02*
X19463039Y-14478936D01*
X19463039Y-14478936D02*
X19453516Y-14469412D01*
X12597500Y-14770500D02*
X12597500Y-14970500D01*
X12497500Y-14870500D02*
X12697500Y-14870500D01*
X12948753Y-14781031D02*
X12958277Y-14771508D01*
X12958277Y-14771508D02*
X12977324Y-14761984D01*
X12977324Y-14761984D02*
X13024943Y-14761984D01*
X13024943Y-14761984D02*
X13043991Y-14771508D01*
X13043991Y-14771508D02*
X13053515Y-14781031D01*
X13053515Y-14781031D02*
X13063039Y-14800079D01*
X13063039Y-14800079D02*
X13063039Y-14819127D01*
X13063039Y-14819127D02*
X13053515Y-14847698D01*
X13053515Y-14847698D02*
X12939229Y-14961984D01*
X12939229Y-14961984D02*
X13063039Y-14961984D01*
X13148753Y-14942936D02*
X13158277Y-14952460D01*
X13158277Y-14952460D02*
X13148753Y-14961984D01*
X13148753Y-14961984D02*
X13139229Y-14952460D01*
X13139229Y-14952460D02*
X13148753Y-14942936D01*
X13148753Y-14942936D02*
X13148753Y-14961984D01*
X13224943Y-14761984D02*
X13348753Y-14761984D01*
X13348753Y-14761984D02*
X13282086Y-14838174D01*
X13282086Y-14838174D02*
X13310658Y-14838174D01*
X13310658Y-14838174D02*
X13329705Y-14847698D01*
X13329705Y-14847698D02*
X13339229Y-14857222D01*
X13339229Y-14857222D02*
X13348753Y-14876269D01*
X13348753Y-14876269D02*
X13348753Y-14923888D01*
X13348753Y-14923888D02*
X13339229Y-14942936D01*
X13339229Y-14942936D02*
X13329705Y-14952460D01*
X13329705Y-14952460D02*
X13310658Y-14961984D01*
X13310658Y-14961984D02*
X13253515Y-14961984D01*
X13253515Y-14961984D02*
X13234467Y-14952460D01*
X13234467Y-14952460D02*
X13224943Y-14942936D01*
X13415420Y-14761984D02*
X13548753Y-14761984D01*
X13548753Y-14761984D02*
X13463039Y-14961984D01*
X13720182Y-14761984D02*
X13624943Y-14761984D01*
X13624943Y-14761984D02*
X13615420Y-14857222D01*
X13615420Y-14857222D02*
X13624943Y-14847698D01*
X13624943Y-14847698D02*
X13643991Y-14838174D01*
X13643991Y-14838174D02*
X13691610Y-14838174D01*
X13691610Y-14838174D02*
X13710658Y-14847698D01*
X13710658Y-14847698D02*
X13720182Y-14857222D01*
X13720182Y-14857222D02*
X13729705Y-14876269D01*
X13729705Y-14876269D02*
X13729705Y-14923888D01*
X13729705Y-14923888D02*
X13720182Y-14942936D01*
X13720182Y-14942936D02*
X13710658Y-14952460D01*
X13710658Y-14952460D02*
X13691610Y-14961984D01*
X13691610Y-14961984D02*
X13643991Y-14961984D01*
X13643991Y-14961984D02*
X13624943Y-14952460D01*
X13624943Y-14952460D02*
X13615420Y-14942936D01*
X13815420Y-14961984D02*
X13815420Y-14828650D01*
X13815420Y-14847698D02*
X13824943Y-14838174D01*
X13824943Y-14838174D02*
X13843991Y-14828650D01*
X13843991Y-14828650D02*
X13872563Y-14828650D01*
X13872563Y-14828650D02*
X13891610Y-14838174D01*
X13891610Y-14838174D02*
X13901134Y-14857222D01*
X13901134Y-14857222D02*
X13901134Y-14961984D01*
X13901134Y-14857222D02*
X13910658Y-14838174D01*
X13910658Y-14838174D02*
X13929705Y-14828650D01*
X13929705Y-14828650D02*
X13958277Y-14828650D01*
X13958277Y-14828650D02*
X13977324Y-14838174D01*
X13977324Y-14838174D02*
X13986848Y-14857222D01*
X13986848Y-14857222D02*
X13986848Y-14961984D01*
X14082086Y-14961984D02*
X14082086Y-14828650D01*
X14082086Y-14847698D02*
X14091610Y-14838174D01*
X14091610Y-14838174D02*
X14110658Y-14828650D01*
X14110658Y-14828650D02*
X14139229Y-14828650D01*
X14139229Y-14828650D02*
X14158277Y-14838174D01*
X14158277Y-14838174D02*
X14167801Y-14857222D01*
X14167801Y-14857222D02*
X14167801Y-14961984D01*
X14167801Y-14857222D02*
X14177324Y-14838174D01*
X14177324Y-14838174D02*
X14196372Y-14828650D01*
X14196372Y-14828650D02*
X14224943Y-14828650D01*
X14224943Y-14828650D02*
X14243991Y-14838174D01*
X14243991Y-14838174D02*
X14253515Y-14857222D01*
X14253515Y-14857222D02*
X14253515Y-14961984D01*
X14643991Y-14752460D02*
X14472563Y-15009603D01*
X14901134Y-14761984D02*
X14920182Y-14761984D01*
X14920182Y-14761984D02*
X14939229Y-14771508D01*
X14939229Y-14771508D02*
X14948753Y-14781031D01*
X14948753Y-14781031D02*
X14958277Y-14800079D01*
X14958277Y-14800079D02*
X14967801Y-14838174D01*
X14967801Y-14838174D02*
X14967801Y-14885793D01*
X14967801Y-14885793D02*
X14958277Y-14923888D01*
X14958277Y-14923888D02*
X14948753Y-14942936D01*
X14948753Y-14942936D02*
X14939229Y-14952460D01*
X14939229Y-14952460D02*
X14920182Y-14961984D01*
X14920182Y-14961984D02*
X14901134Y-14961984D01*
X14901134Y-14961984D02*
X14882086Y-14952460D01*
X14882086Y-14952460D02*
X14872563Y-14942936D01*
X14872563Y-14942936D02*
X14863039Y-14923888D01*
X14863039Y-14923888D02*
X14853515Y-14885793D01*
X14853515Y-14885793D02*
X14853515Y-14838174D01*
X14853515Y-14838174D02*
X14863039Y-14800079D01*
X14863039Y-14800079D02*
X14872563Y-14781031D01*
X14872563Y-14781031D02*
X14882086Y-14771508D01*
X14882086Y-14771508D02*
X14901134Y-14761984D01*
X15053515Y-14942936D02*
X15063039Y-14952460D01*
X15063039Y-14952460D02*
X15053515Y-14961984D01*
X15053515Y-14961984D02*
X15043991Y-14952460D01*
X15043991Y-14952460D02*
X15053515Y-14942936D01*
X15053515Y-14942936D02*
X15053515Y-14961984D01*
X15186848Y-14761984D02*
X15205896Y-14761984D01*
X15205896Y-14761984D02*
X15224944Y-14771508D01*
X15224944Y-14771508D02*
X15234467Y-14781031D01*
X15234467Y-14781031D02*
X15243991Y-14800079D01*
X15243991Y-14800079D02*
X15253515Y-14838174D01*
X15253515Y-14838174D02*
X15253515Y-14885793D01*
X15253515Y-14885793D02*
X15243991Y-14923888D01*
X15243991Y-14923888D02*
X15234467Y-14942936D01*
X15234467Y-14942936D02*
X15224944Y-14952460D01*
X15224944Y-14952460D02*
X15205896Y-14961984D01*
X15205896Y-14961984D02*
X15186848Y-14961984D01*
X15186848Y-14961984D02*
X15167801Y-14952460D01*
X15167801Y-14952460D02*
X15158277Y-14942936D01*
X15158277Y-14942936D02*
X15148753Y-14923888D01*
X15148753Y-14923888D02*
X15139229Y-14885793D01*
X15139229Y-14885793D02*
X15139229Y-14838174D01*
X15139229Y-14838174D02*
X15148753Y-14800079D01*
X15148753Y-14800079D02*
X15158277Y-14781031D01*
X15158277Y-14781031D02*
X15167801Y-14771508D01*
X15167801Y-14771508D02*
X15186848Y-14761984D01*
X15348753Y-14961984D02*
X15386848Y-14961984D01*
X15386848Y-14961984D02*
X15405896Y-14952460D01*
X15405896Y-14952460D02*
X15415420Y-14942936D01*
X15415420Y-14942936D02*
X15434467Y-14914365D01*
X15434467Y-14914365D02*
X15443991Y-14876269D01*
X15443991Y-14876269D02*
X15443991Y-14800079D01*
X15443991Y-14800079D02*
X15434467Y-14781031D01*
X15434467Y-14781031D02*
X15424944Y-14771508D01*
X15424944Y-14771508D02*
X15405896Y-14761984D01*
X15405896Y-14761984D02*
X15367801Y-14761984D01*
X15367801Y-14761984D02*
X15348753Y-14771508D01*
X15348753Y-14771508D02*
X15339229Y-14781031D01*
X15339229Y-14781031D02*
X15329706Y-14800079D01*
X15329706Y-14800079D02*
X15329706Y-14847698D01*
X15329706Y-14847698D02*
X15339229Y-14866746D01*
X15339229Y-14866746D02*
X15348753Y-14876269D01*
X15348753Y-14876269D02*
X15367801Y-14885793D01*
X15367801Y-14885793D02*
X15405896Y-14885793D01*
X15405896Y-14885793D02*
X15424944Y-14876269D01*
X15424944Y-14876269D02*
X15434467Y-14866746D01*
X15434467Y-14866746D02*
X15443991Y-14847698D01*
X15510658Y-14761984D02*
X15634467Y-14761984D01*
X15634467Y-14761984D02*
X15567801Y-14838174D01*
X15567801Y-14838174D02*
X15596372Y-14838174D01*
X15596372Y-14838174D02*
X15615420Y-14847698D01*
X15615420Y-14847698D02*
X15624944Y-14857222D01*
X15624944Y-14857222D02*
X15634467Y-14876269D01*
X15634467Y-14876269D02*
X15634467Y-14923888D01*
X15634467Y-14923888D02*
X15624944Y-14942936D01*
X15624944Y-14942936D02*
X15615420Y-14952460D01*
X15615420Y-14952460D02*
X15596372Y-14961984D01*
X15596372Y-14961984D02*
X15539229Y-14961984D01*
X15539229Y-14961984D02*
X15520182Y-14952460D01*
X15520182Y-14952460D02*
X15510658Y-14942936D01*
X15815420Y-14761984D02*
X15720182Y-14761984D01*
X15720182Y-14761984D02*
X15710658Y-14857222D01*
X15710658Y-14857222D02*
X15720182Y-14847698D01*
X15720182Y-14847698D02*
X15739229Y-14838174D01*
X15739229Y-14838174D02*
X15786848Y-14838174D01*
X15786848Y-14838174D02*
X15805896Y-14847698D01*
X15805896Y-14847698D02*
X15815420Y-14857222D01*
X15815420Y-14857222D02*
X15824944Y-14876269D01*
X15824944Y-14876269D02*
X15824944Y-14923888D01*
X15824944Y-14923888D02*
X15815420Y-14942936D01*
X15815420Y-14942936D02*
X15805896Y-14952460D01*
X15805896Y-14952460D02*
X15786848Y-14961984D01*
X15786848Y-14961984D02*
X15739229Y-14961984D01*
X15739229Y-14961984D02*
X15720182Y-14952460D01*
X15720182Y-14952460D02*
X15710658Y-14942936D01*
X15901134Y-14761984D02*
X15901134Y-14800079D01*
X15977325Y-14761984D02*
X15977325Y-14800079D01*
X16272563Y-15038174D02*
X16263039Y-15028650D01*
X16263039Y-15028650D02*
X16243991Y-15000079D01*
X16243991Y-15000079D02*
X16234468Y-14981031D01*
X16234468Y-14981031D02*
X16224944Y-14952460D01*
X16224944Y-14952460D02*
X16215420Y-14904841D01*
X16215420Y-14904841D02*
X16215420Y-14866746D01*
X16215420Y-14866746D02*
X16224944Y-14819127D01*
X16224944Y-14819127D02*
X16234468Y-14790555D01*
X16234468Y-14790555D02*
X16243991Y-14771508D01*
X16243991Y-14771508D02*
X16263039Y-14742936D01*
X16263039Y-14742936D02*
X16272563Y-14733412D01*
X16434468Y-14828650D02*
X16434468Y-14961984D01*
X16386848Y-14752460D02*
X16339229Y-14895317D01*
X16339229Y-14895317D02*
X16463039Y-14895317D01*
X16691610Y-14961984D02*
X16691610Y-14761984D01*
X16777325Y-14961984D02*
X16777325Y-14857222D01*
X16777325Y-14857222D02*
X16767801Y-14838174D01*
X16767801Y-14838174D02*
X16748753Y-14828650D01*
X16748753Y-14828650D02*
X16720182Y-14828650D01*
X16720182Y-14828650D02*
X16701134Y-14838174D01*
X16701134Y-14838174D02*
X16691610Y-14847698D01*
X16901134Y-14961984D02*
X16882087Y-14952460D01*
X16882087Y-14952460D02*
X16872563Y-14942936D01*
X16872563Y-14942936D02*
X16863039Y-14923888D01*
X16863039Y-14923888D02*
X16863039Y-14866746D01*
X16863039Y-14866746D02*
X16872563Y-14847698D01*
X16872563Y-14847698D02*
X16882087Y-14838174D01*
X16882087Y-14838174D02*
X16901134Y-14828650D01*
X16901134Y-14828650D02*
X16929706Y-14828650D01*
X16929706Y-14828650D02*
X16948753Y-14838174D01*
X16948753Y-14838174D02*
X16958277Y-14847698D01*
X16958277Y-14847698D02*
X16967801Y-14866746D01*
X16967801Y-14866746D02*
X16967801Y-14923888D01*
X16967801Y-14923888D02*
X16958277Y-14942936D01*
X16958277Y-14942936D02*
X16948753Y-14952460D01*
X16948753Y-14952460D02*
X16929706Y-14961984D01*
X16929706Y-14961984D02*
X16901134Y-14961984D01*
X17082087Y-14961984D02*
X17063039Y-14952460D01*
X17063039Y-14952460D02*
X17053515Y-14933412D01*
X17053515Y-14933412D02*
X17053515Y-14761984D01*
X17234468Y-14952460D02*
X17215420Y-14961984D01*
X17215420Y-14961984D02*
X17177325Y-14961984D01*
X17177325Y-14961984D02*
X17158277Y-14952460D01*
X17158277Y-14952460D02*
X17148753Y-14933412D01*
X17148753Y-14933412D02*
X17148753Y-14857222D01*
X17148753Y-14857222D02*
X17158277Y-14838174D01*
X17158277Y-14838174D02*
X17177325Y-14828650D01*
X17177325Y-14828650D02*
X17215420Y-14828650D01*
X17215420Y-14828650D02*
X17234468Y-14838174D01*
X17234468Y-14838174D02*
X17243992Y-14857222D01*
X17243992Y-14857222D02*
X17243992Y-14876269D01*
X17243992Y-14876269D02*
X17148753Y-14895317D01*
X17320182Y-14952460D02*
X17339230Y-14961984D01*
X17339230Y-14961984D02*
X17377325Y-14961984D01*
X17377325Y-14961984D02*
X17396373Y-14952460D01*
X17396373Y-14952460D02*
X17405896Y-14933412D01*
X17405896Y-14933412D02*
X17405896Y-14923888D01*
X17405896Y-14923888D02*
X17396373Y-14904841D01*
X17396373Y-14904841D02*
X17377325Y-14895317D01*
X17377325Y-14895317D02*
X17348753Y-14895317D01*
X17348753Y-14895317D02*
X17329706Y-14885793D01*
X17329706Y-14885793D02*
X17320182Y-14866746D01*
X17320182Y-14866746D02*
X17320182Y-14857222D01*
X17320182Y-14857222D02*
X17329706Y-14838174D01*
X17329706Y-14838174D02*
X17348753Y-14828650D01*
X17348753Y-14828650D02*
X17377325Y-14828650D01*
X17377325Y-14828650D02*
X17396373Y-14838174D01*
X17472563Y-15038174D02*
X17482087Y-15028650D01*
X17482087Y-15028650D02*
X17501134Y-15000079D01*
X17501134Y-15000079D02*
X17510658Y-14981031D01*
X17510658Y-14981031D02*
X17520182Y-14952460D01*
X17520182Y-14952460D02*
X17529706Y-14904841D01*
X17529706Y-14904841D02*
X17529706Y-14866746D01*
X17529706Y-14866746D02*
X17520182Y-14819127D01*
X17520182Y-14819127D02*
X17510658Y-14790555D01*
X17510658Y-14790555D02*
X17501134Y-14771508D01*
X17501134Y-14771508D02*
X17482087Y-14742936D01*
X17482087Y-14742936D02*
X17472563Y-14733412D01*
X17834468Y-15038174D02*
X17824944Y-15028650D01*
X17824944Y-15028650D02*
X17805896Y-15000079D01*
X17805896Y-15000079D02*
X17796373Y-14981031D01*
X17796373Y-14981031D02*
X17786849Y-14952460D01*
X17786849Y-14952460D02*
X17777325Y-14904841D01*
X17777325Y-14904841D02*
X17777325Y-14866746D01*
X17777325Y-14866746D02*
X17786849Y-14819127D01*
X17786849Y-14819127D02*
X17796373Y-14790555D01*
X17796373Y-14790555D02*
X17805896Y-14771508D01*
X17805896Y-14771508D02*
X17824944Y-14742936D01*
X17824944Y-14742936D02*
X17834468Y-14733412D01*
X17910658Y-14828650D02*
X17910658Y-14961984D01*
X17910658Y-14847698D02*
X17920182Y-14838174D01*
X17920182Y-14838174D02*
X17939230Y-14828650D01*
X17939230Y-14828650D02*
X17967801Y-14828650D01*
X17967801Y-14828650D02*
X17986849Y-14838174D01*
X17986849Y-14838174D02*
X17996373Y-14857222D01*
X17996373Y-14857222D02*
X17996373Y-14961984D01*
X18120182Y-14961984D02*
X18101134Y-14952460D01*
X18101134Y-14952460D02*
X18091611Y-14942936D01*
X18091611Y-14942936D02*
X18082087Y-14923888D01*
X18082087Y-14923888D02*
X18082087Y-14866746D01*
X18082087Y-14866746D02*
X18091611Y-14847698D01*
X18091611Y-14847698D02*
X18101134Y-14838174D01*
X18101134Y-14838174D02*
X18120182Y-14828650D01*
X18120182Y-14828650D02*
X18148754Y-14828650D01*
X18148754Y-14828650D02*
X18167801Y-14838174D01*
X18167801Y-14838174D02*
X18177325Y-14847698D01*
X18177325Y-14847698D02*
X18186849Y-14866746D01*
X18186849Y-14866746D02*
X18186849Y-14923888D01*
X18186849Y-14923888D02*
X18177325Y-14942936D01*
X18177325Y-14942936D02*
X18167801Y-14952460D01*
X18167801Y-14952460D02*
X18148754Y-14961984D01*
X18148754Y-14961984D02*
X18120182Y-14961984D01*
X18243992Y-14828650D02*
X18320182Y-14828650D01*
X18272563Y-14761984D02*
X18272563Y-14933412D01*
X18272563Y-14933412D02*
X18282087Y-14952460D01*
X18282087Y-14952460D02*
X18301134Y-14961984D01*
X18301134Y-14961984D02*
X18320182Y-14961984D01*
X18539230Y-14828650D02*
X18539230Y-15028650D01*
X18539230Y-14838174D02*
X18558277Y-14828650D01*
X18558277Y-14828650D02*
X18596373Y-14828650D01*
X18596373Y-14828650D02*
X18615420Y-14838174D01*
X18615420Y-14838174D02*
X18624944Y-14847698D01*
X18624944Y-14847698D02*
X18634468Y-14866746D01*
X18634468Y-14866746D02*
X18634468Y-14923888D01*
X18634468Y-14923888D02*
X18624944Y-14942936D01*
X18624944Y-14942936D02*
X18615420Y-14952460D01*
X18615420Y-14952460D02*
X18596373Y-14961984D01*
X18596373Y-14961984D02*
X18558277Y-14961984D01*
X18558277Y-14961984D02*
X18539230Y-14952460D01*
X18748754Y-14961984D02*
X18729706Y-14952460D01*
X18729706Y-14952460D02*
X18720182Y-14933412D01*
X18720182Y-14933412D02*
X18720182Y-14761984D01*
X18910658Y-14961984D02*
X18910658Y-14857222D01*
X18910658Y-14857222D02*
X18901135Y-14838174D01*
X18901135Y-14838174D02*
X18882087Y-14828650D01*
X18882087Y-14828650D02*
X18843992Y-14828650D01*
X18843992Y-14828650D02*
X18824944Y-14838174D01*
X18910658Y-14952460D02*
X18891611Y-14961984D01*
X18891611Y-14961984D02*
X18843992Y-14961984D01*
X18843992Y-14961984D02*
X18824944Y-14952460D01*
X18824944Y-14952460D02*
X18815420Y-14933412D01*
X18815420Y-14933412D02*
X18815420Y-14914365D01*
X18815420Y-14914365D02*
X18824944Y-14895317D01*
X18824944Y-14895317D02*
X18843992Y-14885793D01*
X18843992Y-14885793D02*
X18891611Y-14885793D01*
X18891611Y-14885793D02*
X18910658Y-14876269D01*
X18977325Y-14828650D02*
X19053515Y-14828650D01*
X19005896Y-14761984D02*
X19005896Y-14933412D01*
X19005896Y-14933412D02*
X19015420Y-14952460D01*
X19015420Y-14952460D02*
X19034468Y-14961984D01*
X19034468Y-14961984D02*
X19053515Y-14961984D01*
X19196373Y-14952460D02*
X19177325Y-14961984D01*
X19177325Y-14961984D02*
X19139230Y-14961984D01*
X19139230Y-14961984D02*
X19120182Y-14952460D01*
X19120182Y-14952460D02*
X19110658Y-14933412D01*
X19110658Y-14933412D02*
X19110658Y-14857222D01*
X19110658Y-14857222D02*
X19120182Y-14838174D01*
X19120182Y-14838174D02*
X19139230Y-14828650D01*
X19139230Y-14828650D02*
X19177325Y-14828650D01*
X19177325Y-14828650D02*
X19196373Y-14838174D01*
X19196373Y-14838174D02*
X19205896Y-14857222D01*
X19205896Y-14857222D02*
X19205896Y-14876269D01*
X19205896Y-14876269D02*
X19110658Y-14895317D01*
X19377325Y-14961984D02*
X19377325Y-14761984D01*
X19377325Y-14952460D02*
X19358277Y-14961984D01*
X19358277Y-14961984D02*
X19320182Y-14961984D01*
X19320182Y-14961984D02*
X19301135Y-14952460D01*
X19301135Y-14952460D02*
X19291611Y-14942936D01*
X19291611Y-14942936D02*
X19282087Y-14923888D01*
X19282087Y-14923888D02*
X19282087Y-14866746D01*
X19282087Y-14866746D02*
X19291611Y-14847698D01*
X19291611Y-14847698D02*
X19301135Y-14838174D01*
X19301135Y-14838174D02*
X19320182Y-14828650D01*
X19320182Y-14828650D02*
X19358277Y-14828650D01*
X19358277Y-14828650D02*
X19377325Y-14838174D01*
X19453516Y-15038174D02*
X19463039Y-15028650D01*
X19463039Y-15028650D02*
X19482087Y-15000079D01*
X19482087Y-15000079D02*
X19491611Y-14981031D01*
X19491611Y-14981031D02*
X19501135Y-14952460D01*
X19501135Y-14952460D02*
X19510658Y-14904841D01*
X19510658Y-14904841D02*
X19510658Y-14866746D01*
X19510658Y-14866746D02*
X19501135Y-14819127D01*
X19501135Y-14819127D02*
X19491611Y-14790555D01*
X19491611Y-14790555D02*
X19482087Y-14771508D01*
X19482087Y-14771508D02*
X19463039Y-14742936D01*
X19463039Y-14742936D02*
X19453516Y-14733412D01*
M02*
