%TF.GenerationSoftware,KiCad,Pcbnew,8.0.4-1.fc40*%
%TF.CreationDate,2024-07-29T21:17:20+02:00*%
%TF.ProjectId,TractionHub,54726163-7469-46f6-9e48-75622e6b6963,rev?*%
%TF.SameCoordinates,Original*%
%TF.FileFunction,Drillmap*%
%TF.FilePolarity,Positive*%
%FSLAX45Y45*%
G04 Gerber Fmt 4.5, Leading zero omitted, Abs format (unit mm)*
G04 Created by KiCad (PCBNEW 8.0.4-1.fc40) date 2024-07-29 21:17:20*
%MOMM*%
%LPD*%
G01*
G04 APERTURE LIST*
%ADD10C,0.050000*%
%ADD11C,0.200000*%
%ADD12C,0.100000*%
%ADD13C,0.190000*%
%ADD14C,0.430000*%
%ADD15C,0.450000*%
G04 APERTURE END LIST*
D10*
X13100000Y-13700000D02*
X19800000Y-13700000D01*
X22700000Y-9700000D02*
X22700000Y-11800000D01*
X20600000Y-7200000D02*
G75*
G02*
X20200000Y-6800000I0J400000D01*
G01*
X20200000Y-12600000D02*
G75*
G02*
X20600000Y-12200000I400000J0D01*
G01*
X22300000Y-7200000D02*
G75*
G02*
X22700000Y-7600000I0J-400000D01*
G01*
X12700000Y-6100000D02*
G75*
G02*
X13100000Y-5700000I400000J0D01*
G01*
X22300000Y-12200000D02*
X20600000Y-12200000D01*
X19800000Y-5700000D02*
G75*
G02*
X20200000Y-6100000I0J-400000D01*
G01*
X22300000Y-7200000D02*
X20600000Y-7200000D01*
X13100000Y-13700000D02*
G75*
G02*
X12700000Y-13300000I0J400000D01*
G01*
X20200000Y-13300000D02*
G75*
G02*
X19800000Y-13700000I-400000J0D01*
G01*
X13100000Y-5700000D02*
X19800000Y-5700000D01*
X20200000Y-6800000D02*
X20200000Y-6100000D01*
X20200000Y-12600000D02*
X20200000Y-13300000D01*
X22700000Y-9700000D02*
X22700000Y-7600000D01*
X22700000Y-11800000D02*
G75*
G02*
X22300000Y-12200000I-400000J0D01*
G01*
X12700000Y-6100000D02*
X12700000Y-13300000D01*
D11*
D12*
X13362500Y-7037500D02*
X13387500Y-7062500D01*
X13387500Y-7037500D02*
X13362500Y-7062500D01*
X13437500Y-7262500D02*
X13462500Y-7287500D01*
X13462500Y-7262500D02*
X13437500Y-7287500D01*
X13462500Y-7037500D02*
X13487500Y-7062500D01*
X13487500Y-7037500D02*
X13462500Y-7062500D01*
X13512500Y-8037500D02*
X13537500Y-8062500D01*
X13537500Y-8037500D02*
X13512500Y-8062500D01*
X13512500Y-8237500D02*
X13537500Y-8262500D01*
X13537500Y-8237500D02*
X13512500Y-8262500D01*
X13562500Y-7037500D02*
X13587500Y-7062500D01*
X13587500Y-7037500D02*
X13562500Y-7062500D01*
X13662500Y-7037500D02*
X13687500Y-7062500D01*
X13687500Y-7037500D02*
X13662500Y-7062500D01*
X14137500Y-9237500D02*
X14162500Y-9262500D01*
X14162500Y-9237500D02*
X14137500Y-9262500D01*
X14387500Y-8162500D02*
X14412500Y-8187500D01*
X14412500Y-8162500D02*
X14387500Y-8187500D01*
X14462500Y-8062500D02*
X14487500Y-8087500D01*
X14487500Y-8062500D02*
X14462500Y-8087500D01*
X14562500Y-8112500D02*
X14587500Y-8137500D01*
X14587500Y-8112500D02*
X14562500Y-8137500D01*
X14612500Y-9237500D02*
X14637500Y-9262500D01*
X14637500Y-9237500D02*
X14612500Y-9262500D01*
X14637500Y-8812500D02*
X14662500Y-8837500D01*
X14662500Y-8812500D02*
X14637500Y-8837500D01*
X14712500Y-10062500D02*
X14737500Y-10087500D01*
X14737500Y-10062500D02*
X14712500Y-10087500D01*
X14762500Y-8112500D02*
X14787500Y-8137500D01*
X14787500Y-8112500D02*
X14762500Y-8137500D01*
X14937500Y-6712500D02*
X14962500Y-6737500D01*
X14962500Y-6712500D02*
X14937500Y-6737500D01*
X14987500Y-9162500D02*
X15012500Y-9187500D01*
X15012500Y-9162500D02*
X14987500Y-9187500D01*
X15012500Y-7987500D02*
X15037500Y-8012500D01*
X15037500Y-7987500D02*
X15012500Y-8012500D01*
X15012500Y-9662500D02*
X15037500Y-9687500D01*
X15037500Y-9662500D02*
X15012500Y-9687500D01*
X15049800Y-8274800D02*
X15074800Y-8299800D01*
X15074800Y-8274800D02*
X15049800Y-8299800D01*
X15112500Y-7912500D02*
X15137500Y-7937500D01*
X15137500Y-7912500D02*
X15112500Y-7937500D01*
X15162500Y-9562500D02*
X15187500Y-9587500D01*
X15187500Y-9562500D02*
X15162500Y-9587500D01*
X15237500Y-8512500D02*
X15262500Y-8537500D01*
X15262500Y-8512500D02*
X15237500Y-8537500D01*
X15262500Y-12112500D02*
X15287500Y-12137500D01*
X15287500Y-12112500D02*
X15262500Y-12137500D01*
X15312500Y-8712500D02*
X15337500Y-8737500D01*
X15337500Y-8712500D02*
X15312500Y-8737500D01*
X15337500Y-6762500D02*
X15362500Y-6787500D01*
X15362500Y-6762500D02*
X15337500Y-6787500D01*
X15362500Y-6637500D02*
X15387500Y-6662500D01*
X15387500Y-6637500D02*
X15362500Y-6662500D01*
X15362500Y-12112500D02*
X15387500Y-12137500D01*
X15387500Y-12112500D02*
X15362500Y-12137500D01*
X15387500Y-8787500D02*
X15412500Y-8812500D01*
X15412500Y-8787500D02*
X15387500Y-8812500D01*
X15387500Y-9562500D02*
X15412500Y-9587500D01*
X15412500Y-9562500D02*
X15387500Y-9587500D01*
X15412500Y-11187500D02*
X15437500Y-11212500D01*
X15437500Y-11187500D02*
X15412500Y-11212500D01*
X15437500Y-7862500D02*
X15462500Y-7887500D01*
X15462500Y-7862500D02*
X15437500Y-7887500D01*
X15462500Y-8862500D02*
X15487500Y-8887500D01*
X15487500Y-8862500D02*
X15462500Y-8887500D01*
X15462500Y-12112500D02*
X15487500Y-12137500D01*
X15487500Y-12112500D02*
X15462500Y-12137500D01*
X15487500Y-7387500D02*
X15512500Y-7412500D01*
X15512500Y-7387500D02*
X15487500Y-7412500D01*
X15562500Y-7837500D02*
X15587500Y-7862500D01*
X15587500Y-7837500D02*
X15562500Y-7862500D01*
X15587500Y-8887500D02*
X15612500Y-8912500D01*
X15612500Y-8887500D02*
X15587500Y-8912500D01*
X15662500Y-8812500D02*
X15687500Y-8837500D01*
X15687500Y-8812500D02*
X15662500Y-8837500D01*
X15712500Y-7437500D02*
X15737500Y-7462500D01*
X15737500Y-7437500D02*
X15712500Y-7462500D01*
X15762500Y-8762500D02*
X15787500Y-8787500D01*
X15787500Y-8762500D02*
X15762500Y-8787500D01*
X15812500Y-7437500D02*
X15837500Y-7462500D01*
X15837500Y-7437500D02*
X15812500Y-7462500D01*
X15887500Y-7837500D02*
X15912500Y-7862500D01*
X15912500Y-7837500D02*
X15887500Y-7862500D01*
X15912500Y-7437500D02*
X15937500Y-7462500D01*
X15937500Y-7437500D02*
X15912500Y-7462500D01*
X15912500Y-8012500D02*
X15937500Y-8037500D01*
X15937500Y-8012500D02*
X15912500Y-8037500D01*
X15962500Y-8387500D02*
X15987500Y-8412500D01*
X15987500Y-8387500D02*
X15962500Y-8412500D01*
X15980931Y-8055931D02*
X16005931Y-8080931D01*
X16005931Y-8055931D02*
X15980931Y-8080931D01*
X16012500Y-11112500D02*
X16037500Y-11137500D01*
X16037500Y-11112500D02*
X16012500Y-11137500D01*
X16012500Y-11312500D02*
X16037500Y-11337500D01*
X16037500Y-11312500D02*
X16012500Y-11337500D01*
X16012500Y-11412500D02*
X16037500Y-11437500D01*
X16037500Y-11412500D02*
X16012500Y-11437500D01*
X16012500Y-11512500D02*
X16037500Y-11537500D01*
X16037500Y-11512500D02*
X16012500Y-11537500D01*
X16037500Y-8112500D02*
X16062500Y-8137500D01*
X16062500Y-8112500D02*
X16037500Y-8137500D01*
X16112500Y-11112500D02*
X16137500Y-11137500D01*
X16137500Y-11112500D02*
X16112500Y-11137500D01*
X16112500Y-11212500D02*
X16137500Y-11237500D01*
X16137500Y-11212500D02*
X16112500Y-11237500D01*
X16112500Y-11312500D02*
X16137500Y-11337500D01*
X16137500Y-11312500D02*
X16112500Y-11337500D01*
X16112500Y-11412500D02*
X16137500Y-11437500D01*
X16137500Y-11412500D02*
X16112500Y-11437500D01*
X16112500Y-11512500D02*
X16137500Y-11537500D01*
X16137500Y-11512500D02*
X16112500Y-11537500D01*
X16137500Y-9030000D02*
X16162500Y-9055000D01*
X16162500Y-9030000D02*
X16137500Y-9055000D01*
X16162500Y-9237500D02*
X16187500Y-9262500D01*
X16187500Y-9237500D02*
X16162500Y-9262500D01*
X16187500Y-7312500D02*
X16212500Y-7337500D01*
X16212500Y-7312500D02*
X16187500Y-7337500D01*
X16212500Y-7512500D02*
X16237500Y-7537500D01*
X16237500Y-7512500D02*
X16212500Y-7537500D01*
X16212500Y-11112500D02*
X16237500Y-11137500D01*
X16237500Y-11112500D02*
X16212500Y-11137500D01*
X16212500Y-11212500D02*
X16237500Y-11237500D01*
X16237500Y-11212500D02*
X16212500Y-11237500D01*
X16212500Y-11312500D02*
X16237500Y-11337500D01*
X16237500Y-11312500D02*
X16212500Y-11337500D01*
X16212500Y-11412500D02*
X16237500Y-11437500D01*
X16237500Y-11412500D02*
X16212500Y-11437500D01*
X16262500Y-8737500D02*
X16287500Y-8762500D01*
X16287500Y-8737500D02*
X16262500Y-8762500D01*
X16287500Y-7237500D02*
X16312500Y-7262500D01*
X16312500Y-7237500D02*
X16287500Y-7262500D01*
X16287500Y-10087500D02*
X16312500Y-10112500D01*
X16312500Y-10087500D02*
X16287500Y-10112500D01*
X16312500Y-11112500D02*
X16337500Y-11137500D01*
X16337500Y-11112500D02*
X16312500Y-11137500D01*
X16312500Y-11212500D02*
X16337500Y-11237500D01*
X16337500Y-11212500D02*
X16312500Y-11237500D01*
X16312500Y-11312500D02*
X16337500Y-11337500D01*
X16337500Y-11312500D02*
X16312500Y-11337500D01*
X16312500Y-11412500D02*
X16337500Y-11437500D01*
X16337500Y-11412500D02*
X16312500Y-11437500D01*
X16337500Y-6637500D02*
X16362500Y-6662500D01*
X16362500Y-6637500D02*
X16337500Y-6662500D01*
X16362500Y-9262500D02*
X16387500Y-9287500D01*
X16387500Y-9262500D02*
X16362500Y-9287500D01*
X16375000Y-7200000D02*
X16400000Y-7225000D01*
X16400000Y-7200000D02*
X16375000Y-7225000D01*
X16407542Y-9837500D02*
X16432542Y-9862500D01*
X16432542Y-9837500D02*
X16407542Y-9862500D01*
X16412500Y-11112500D02*
X16437500Y-11137500D01*
X16437500Y-11112500D02*
X16412500Y-11137500D01*
X16412500Y-11212500D02*
X16437500Y-11237500D01*
X16437500Y-11212500D02*
X16412500Y-11237500D01*
X16412500Y-11312500D02*
X16437500Y-11337500D01*
X16437500Y-11312500D02*
X16412500Y-11337500D01*
X16412500Y-11412500D02*
X16437500Y-11437500D01*
X16437500Y-11412500D02*
X16412500Y-11437500D01*
X16487500Y-9937500D02*
X16512500Y-9962500D01*
X16512500Y-9937500D02*
X16487500Y-9962500D01*
X16512500Y-11112500D02*
X16537500Y-11137500D01*
X16537500Y-11112500D02*
X16512500Y-11137500D01*
X16512500Y-11212500D02*
X16537500Y-11237500D01*
X16537500Y-11212500D02*
X16512500Y-11237500D01*
X16512500Y-11312500D02*
X16537500Y-11337500D01*
X16537500Y-11312500D02*
X16512500Y-11337500D01*
X16512500Y-11412500D02*
X16537500Y-11437500D01*
X16537500Y-11412500D02*
X16512500Y-11437500D01*
X16512500Y-11512500D02*
X16537500Y-11537500D01*
X16537500Y-11512500D02*
X16512500Y-11537500D01*
X16512500Y-11612500D02*
X16537500Y-11637500D01*
X16537500Y-11612500D02*
X16512500Y-11637500D01*
X16537500Y-10537500D02*
X16562500Y-10562500D01*
X16562500Y-10537500D02*
X16537500Y-10562500D01*
X16637500Y-10537500D02*
X16662500Y-10562500D01*
X16662500Y-10537500D02*
X16637500Y-10562500D01*
X16687500Y-7237500D02*
X16712500Y-7262500D01*
X16712500Y-7237500D02*
X16687500Y-7262500D01*
X16693431Y-7343431D02*
X16718431Y-7368431D01*
X16718431Y-7343431D02*
X16693431Y-7368431D01*
X16712500Y-8037500D02*
X16737500Y-8062500D01*
X16737500Y-8037500D02*
X16712500Y-8062500D01*
X16712500Y-8137500D02*
X16737500Y-8162500D01*
X16737500Y-8137500D02*
X16712500Y-8162500D01*
X16712500Y-8237500D02*
X16737500Y-8262500D01*
X16737500Y-8237500D02*
X16712500Y-8262500D01*
X16712500Y-10337500D02*
X16737500Y-10362500D01*
X16737500Y-10337500D02*
X16712500Y-10362500D01*
X16762500Y-6387500D02*
X16787500Y-6412500D01*
X16787500Y-6387500D02*
X16762500Y-6412500D01*
X16762500Y-6487500D02*
X16787500Y-6512500D01*
X16787500Y-6487500D02*
X16762500Y-6512500D01*
X16812500Y-7162500D02*
X16837500Y-7187500D01*
X16837500Y-7162500D02*
X16812500Y-7187500D01*
X16887500Y-6637500D02*
X16912500Y-6662500D01*
X16912500Y-6637500D02*
X16887500Y-6662500D01*
X16912500Y-6387500D02*
X16937500Y-6412500D01*
X16937500Y-6387500D02*
X16912500Y-6412500D01*
X16974800Y-9237500D02*
X16999800Y-9262500D01*
X16999800Y-9237500D02*
X16974800Y-9262500D01*
X17037500Y-9137500D02*
X17062500Y-9162500D01*
X17062500Y-9137500D02*
X17037500Y-9162500D01*
X17037500Y-10537500D02*
X17062500Y-10562500D01*
X17062500Y-10537500D02*
X17037500Y-10562500D01*
X17100200Y-9387500D02*
X17125200Y-9412500D01*
X17125200Y-9387500D02*
X17100200Y-9412500D01*
X17137500Y-10537500D02*
X17162500Y-10562500D01*
X17162500Y-10537500D02*
X17137500Y-10562500D01*
X17212500Y-7737500D02*
X17237500Y-7762500D01*
X17237500Y-7737500D02*
X17212500Y-7762500D01*
X17262500Y-8337500D02*
X17287500Y-8362500D01*
X17287500Y-8337500D02*
X17262500Y-8362500D01*
X17312500Y-7737500D02*
X17337500Y-7762500D01*
X17337500Y-7737500D02*
X17312500Y-7762500D01*
X17362500Y-9487500D02*
X17387500Y-9512500D01*
X17387500Y-9487500D02*
X17362500Y-9512500D01*
X17362500Y-9837500D02*
X17387500Y-9862500D01*
X17387500Y-9837500D02*
X17362500Y-9862500D01*
X17362500Y-9937500D02*
X17387500Y-9962500D01*
X17387500Y-9937500D02*
X17362500Y-9962500D01*
X17362500Y-10087500D02*
X17387500Y-10112500D01*
X17387500Y-10087500D02*
X17362500Y-10112500D01*
X17378200Y-9612500D02*
X17403200Y-9637500D01*
X17403200Y-9612500D02*
X17378200Y-9637500D01*
X17387500Y-8237500D02*
X17412500Y-8262500D01*
X17412500Y-8237500D02*
X17387500Y-8262500D01*
X17412500Y-7737500D02*
X17437500Y-7762500D01*
X17437500Y-7737500D02*
X17412500Y-7762500D01*
X17537500Y-6412500D02*
X17562500Y-6437500D01*
X17562500Y-6412500D02*
X17537500Y-6437500D01*
X17587500Y-8237500D02*
X17612500Y-8262500D01*
X17612500Y-8237500D02*
X17587500Y-8262500D01*
X17587500Y-9012500D02*
X17612500Y-9037500D01*
X17612500Y-9012500D02*
X17587500Y-9037500D01*
X17612500Y-8337500D02*
X17637500Y-8362500D01*
X17637500Y-8337500D02*
X17612500Y-8362500D01*
X17637500Y-10387500D02*
X17662500Y-10412500D01*
X17662500Y-10387500D02*
X17637500Y-10412500D01*
X17712500Y-6674800D02*
X17737500Y-6699800D01*
X17737500Y-6674800D02*
X17712500Y-6699800D01*
X17712500Y-6887500D02*
X17737500Y-6912500D01*
X17737500Y-6887500D02*
X17712500Y-6912500D01*
X17712500Y-7362500D02*
X17737500Y-7387500D01*
X17737500Y-7362500D02*
X17712500Y-7387500D01*
X17837500Y-9012500D02*
X17862500Y-9037500D01*
X17862500Y-9012500D02*
X17837500Y-9037500D01*
X17837500Y-10237500D02*
X17862500Y-10262500D01*
X17862500Y-10237500D02*
X17837500Y-10262500D01*
X17839200Y-9487500D02*
X17864200Y-9512500D01*
X17864200Y-9487500D02*
X17839200Y-9512500D01*
X17839200Y-9637500D02*
X17864200Y-9662500D01*
X17864200Y-9637500D02*
X17839200Y-9662500D01*
X17937500Y-10687500D02*
X17962500Y-10712500D01*
X17962500Y-10687500D02*
X17937500Y-10712500D01*
X18037500Y-6674800D02*
X18062500Y-6699800D01*
X18062500Y-6674800D02*
X18037500Y-6699800D01*
X18037500Y-6812500D02*
X18062500Y-6837500D01*
X18062500Y-6812500D02*
X18037500Y-6837500D01*
X18037500Y-6962500D02*
X18062500Y-6987500D01*
X18062500Y-6962500D02*
X18037500Y-6987500D01*
X18037500Y-7362500D02*
X18062500Y-7387500D01*
X18062500Y-7362500D02*
X18037500Y-7387500D01*
X18087500Y-10737500D02*
X18112500Y-10762500D01*
X18112500Y-10737500D02*
X18087500Y-10762500D01*
X18112500Y-8287500D02*
X18137500Y-8312500D01*
X18137500Y-8287500D02*
X18112500Y-8312500D01*
X18137500Y-9862500D02*
X18162500Y-9887500D01*
X18162500Y-9862500D02*
X18137500Y-9887500D01*
X18162500Y-9412500D02*
X18187500Y-9437500D01*
X18187500Y-9412500D02*
X18162500Y-9437500D01*
X18177500Y-8737500D02*
X18202500Y-8762500D01*
X18202500Y-8737500D02*
X18177500Y-8762500D01*
X18187500Y-8012500D02*
X18212500Y-8037500D01*
X18212500Y-8012500D02*
X18187500Y-8037500D01*
X18187500Y-8587500D02*
X18212500Y-8612500D01*
X18212500Y-8587500D02*
X18187500Y-8612500D01*
X18192500Y-9332500D02*
X18217500Y-9357500D01*
X18217500Y-9332500D02*
X18192500Y-9357500D01*
X18362500Y-6737500D02*
X18387500Y-6762500D01*
X18387500Y-6737500D02*
X18362500Y-6762500D01*
X18362500Y-6962500D02*
X18387500Y-6987500D01*
X18387500Y-6962500D02*
X18362500Y-6987500D01*
X18362500Y-7362500D02*
X18387500Y-7387500D01*
X18387500Y-7362500D02*
X18362500Y-7387500D01*
X18362500Y-8062500D02*
X18387500Y-8087500D01*
X18387500Y-8062500D02*
X18362500Y-8087500D01*
X18362500Y-8237500D02*
X18387500Y-8262500D01*
X18387500Y-8237500D02*
X18362500Y-8262500D01*
X18462202Y-9687500D02*
X18487202Y-9712500D01*
X18487202Y-9687500D02*
X18462202Y-9712500D01*
X18462500Y-9812500D02*
X18487500Y-9837500D01*
X18487500Y-9812500D02*
X18462500Y-9837500D01*
X18462500Y-10137500D02*
X18487500Y-10162500D01*
X18487500Y-10137500D02*
X18462500Y-10162500D01*
X18462500Y-10372500D02*
X18487500Y-10397500D01*
X18487500Y-10372500D02*
X18462500Y-10397500D01*
X18537500Y-10062500D02*
X18562500Y-10087500D01*
X18562500Y-10062500D02*
X18537500Y-10087500D01*
X18537500Y-10212500D02*
X18562500Y-10237500D01*
X18562500Y-10212500D02*
X18537500Y-10237500D01*
X18537500Y-10312500D02*
X18562500Y-10337500D01*
X18562500Y-10312500D02*
X18537500Y-10337500D01*
X18537500Y-10627500D02*
X18562500Y-10652500D01*
X18562500Y-10627500D02*
X18537500Y-10652500D01*
X18537500Y-10837500D02*
X18562500Y-10862500D01*
X18562500Y-10837500D02*
X18537500Y-10862500D01*
X18562500Y-7962500D02*
X18587500Y-7987500D01*
X18587500Y-7962500D02*
X18562500Y-7987500D01*
X18562500Y-10437500D02*
X18587500Y-10462500D01*
X18587500Y-10437500D02*
X18562500Y-10462500D01*
X18612500Y-11162500D02*
X18637500Y-11187500D01*
X18637500Y-11162500D02*
X18612500Y-11187500D01*
X18612500Y-11462500D02*
X18637500Y-11487500D01*
X18637500Y-11462500D02*
X18612500Y-11487500D01*
X18687500Y-11112500D02*
X18712500Y-11137500D01*
X18712500Y-11112500D02*
X18687500Y-11137500D01*
X18712500Y-11687500D02*
X18737500Y-11712500D01*
X18737500Y-11687500D02*
X18712500Y-11712500D01*
X18862500Y-7962500D02*
X18887500Y-7987500D01*
X18887500Y-7962500D02*
X18862500Y-7987500D01*
X18887500Y-7412500D02*
X18912500Y-7437500D01*
X18912500Y-7412500D02*
X18887500Y-7437500D01*
X18937500Y-8162500D02*
X18962500Y-8187500D01*
X18962500Y-8162500D02*
X18937500Y-8187500D01*
X19537500Y-8312500D02*
X19562500Y-8337500D01*
X19562500Y-8312500D02*
X19537500Y-8337500D01*
X19537500Y-10037500D02*
X19562500Y-10062500D01*
X19562500Y-10037500D02*
X19537500Y-10062500D01*
X19537500Y-10262500D02*
X19562500Y-10287500D01*
X19562500Y-10262500D02*
X19537500Y-10287500D01*
X19537500Y-11387500D02*
X19562500Y-11412500D01*
X19562500Y-11387500D02*
X19537500Y-11412500D01*
X19537500Y-11562500D02*
X19562500Y-11587500D01*
X19562500Y-11562500D02*
X19537500Y-11587500D01*
X19562500Y-9137500D02*
X19587500Y-9162500D01*
X19587500Y-9137500D02*
X19562500Y-9162500D01*
X19562500Y-11137500D02*
X19587500Y-11162500D01*
X19587500Y-11137500D02*
X19562500Y-11162500D01*
X19566153Y-11262868D02*
X19591153Y-11287868D01*
X19591153Y-11262868D02*
X19566153Y-11287868D01*
X19662500Y-10037500D02*
X19687500Y-10062500D01*
X19687500Y-10037500D02*
X19662500Y-10062500D01*
X19737500Y-7562500D02*
X19762500Y-7587500D01*
X19762500Y-7562500D02*
X19737500Y-7587500D01*
X19737500Y-7962500D02*
X19762500Y-7987500D01*
X19762500Y-7962500D02*
X19737500Y-7987500D01*
X19862500Y-8162500D02*
X19887500Y-8187500D01*
X19887500Y-8162500D02*
X19862500Y-8187500D01*
X20687500Y-7562500D02*
X20712500Y-7587500D01*
X20712500Y-7562500D02*
X20687500Y-7587500D01*
X20812500Y-7737500D02*
X20837500Y-7762500D01*
X20837500Y-7737500D02*
X20812500Y-7762500D01*
X20812500Y-7837500D02*
X20837500Y-7862500D01*
X20837500Y-7837500D02*
X20812500Y-7862500D01*
X20812500Y-7937500D02*
X20837500Y-7962500D01*
X20837500Y-7937500D02*
X20812500Y-7962500D01*
X20837500Y-8587500D02*
X20862500Y-8612500D01*
X20862500Y-8587500D02*
X20837500Y-8612500D01*
X20837500Y-8687500D02*
X20862500Y-8712500D01*
X20862500Y-8687500D02*
X20837500Y-8712500D01*
X20837500Y-8887500D02*
X20862500Y-8912500D01*
X20862500Y-8887500D02*
X20837500Y-8912500D01*
X20837500Y-9893500D02*
X20862500Y-9918500D01*
X20862500Y-9893500D02*
X20837500Y-9918500D01*
X20887500Y-9587500D02*
X20912500Y-9612500D01*
X20912500Y-9587500D02*
X20887500Y-9612500D01*
X20887500Y-9687500D02*
X20912500Y-9712500D01*
X20912500Y-9687500D02*
X20887500Y-9712500D01*
X20912500Y-7937500D02*
X20937500Y-7962500D01*
X20937500Y-7937500D02*
X20912500Y-7962500D01*
X20937500Y-8587500D02*
X20962500Y-8612500D01*
X20962500Y-8587500D02*
X20937500Y-8612500D01*
X20937500Y-8687500D02*
X20962500Y-8712500D01*
X20962500Y-8687500D02*
X20937500Y-8712500D01*
X20987500Y-9587500D02*
X21012500Y-9612500D01*
X21012500Y-9587500D02*
X20987500Y-9612500D01*
X20987500Y-9687500D02*
X21012500Y-9712500D01*
X21012500Y-9687500D02*
X20987500Y-9712500D01*
X21012500Y-7937500D02*
X21037500Y-7962500D01*
X21037500Y-7937500D02*
X21012500Y-7962500D01*
X21037500Y-8587500D02*
X21062500Y-8612500D01*
X21062500Y-8587500D02*
X21037500Y-8612500D01*
X21037500Y-8687500D02*
X21062500Y-8712500D01*
X21062500Y-8687500D02*
X21037500Y-8712500D01*
X21087500Y-9587500D02*
X21112500Y-9612500D01*
X21112500Y-9587500D02*
X21087500Y-9612500D01*
X21087500Y-9687500D02*
X21112500Y-9712500D01*
X21112500Y-9687500D02*
X21087500Y-9712500D01*
X21112500Y-7937500D02*
X21137500Y-7962500D01*
X21137500Y-7937500D02*
X21112500Y-7962500D01*
X21137500Y-8587500D02*
X21162500Y-8612500D01*
X21162500Y-8587500D02*
X21137500Y-8612500D01*
X21137500Y-8687500D02*
X21162500Y-8712500D01*
X21162500Y-8687500D02*
X21137500Y-8712500D01*
X21187500Y-8487500D02*
X21212500Y-8512500D01*
X21212500Y-8487500D02*
X21187500Y-8512500D01*
X21187500Y-9587500D02*
X21212500Y-9612500D01*
X21212500Y-9587500D02*
X21187500Y-9612500D01*
X21187500Y-9687500D02*
X21212500Y-9712500D01*
X21212500Y-9687500D02*
X21187500Y-9712500D01*
X21187500Y-9787500D02*
X21212500Y-9812500D01*
X21212500Y-9787500D02*
X21187500Y-9812500D01*
X21187500Y-9887500D02*
X21212500Y-9912500D01*
X21212500Y-9887500D02*
X21187500Y-9912500D01*
X21187500Y-11687500D02*
X21212500Y-11712500D01*
X21212500Y-11687500D02*
X21187500Y-11712500D01*
X21207407Y-8783540D02*
X21232407Y-8808540D01*
X21232407Y-8783540D02*
X21207407Y-8808540D01*
X21209783Y-8888865D02*
X21234783Y-8913865D01*
X21234783Y-8888865D02*
X21209783Y-8913865D01*
X21212500Y-7737500D02*
X21237500Y-7762500D01*
X21237500Y-7737500D02*
X21212500Y-7762500D01*
X21212500Y-7837500D02*
X21237500Y-7862500D01*
X21237500Y-7837500D02*
X21212500Y-7862500D01*
X21212500Y-7937500D02*
X21237500Y-7962500D01*
X21237500Y-7937500D02*
X21212500Y-7962500D01*
X21237500Y-8587500D02*
X21262500Y-8612500D01*
X21262500Y-8587500D02*
X21237500Y-8612500D01*
X21237500Y-8687500D02*
X21262500Y-8712500D01*
X21262500Y-8687500D02*
X21237500Y-8712500D01*
X21287500Y-9687500D02*
X21312500Y-9712500D01*
X21312500Y-9687500D02*
X21287500Y-9712500D01*
X21287500Y-9787500D02*
X21312500Y-9812500D01*
X21312500Y-9787500D02*
X21287500Y-9812500D01*
X21287500Y-9887500D02*
X21312500Y-9912500D01*
X21312500Y-9887500D02*
X21287500Y-9912500D01*
X21304813Y-8785124D02*
X21329813Y-8810124D01*
X21329813Y-8785124D02*
X21304813Y-8810124D01*
X21304813Y-8890449D02*
X21329813Y-8915449D01*
X21329813Y-8890449D02*
X21304813Y-8915449D01*
X21312500Y-7737500D02*
X21337500Y-7762500D01*
X21337500Y-7737500D02*
X21312500Y-7762500D01*
X21312500Y-7837500D02*
X21337500Y-7862500D01*
X21337500Y-7837500D02*
X21312500Y-7862500D01*
X21312500Y-7937500D02*
X21337500Y-7962500D01*
X21337500Y-7937500D02*
X21312500Y-7962500D01*
X21387500Y-9787500D02*
X21412500Y-9812500D01*
X21412500Y-9787500D02*
X21387500Y-9812500D01*
X21387500Y-9887500D02*
X21412500Y-9912500D01*
X21412500Y-9887500D02*
X21387500Y-9912500D01*
X21412500Y-7737500D02*
X21437500Y-7762500D01*
X21437500Y-7737500D02*
X21412500Y-7762500D01*
X21412500Y-7837500D02*
X21437500Y-7862500D01*
X21437500Y-7837500D02*
X21412500Y-7862500D01*
X21412500Y-7937500D02*
X21437500Y-7962500D01*
X21437500Y-7937500D02*
X21412500Y-7962500D01*
X21487500Y-9887500D02*
X21512500Y-9912500D01*
X21512500Y-9887500D02*
X21487500Y-9912500D01*
X13030000Y-13100000D02*
G75*
G02*
X12970000Y-13100000I-30000J0D01*
G01*
X12970000Y-13100000D02*
G75*
G02*
X13030000Y-13100000I30000J0D01*
G01*
X13035542Y-6328042D02*
G75*
G02*
X12975542Y-6328042I-30000J0D01*
G01*
X12975542Y-6328042D02*
G75*
G02*
X13035542Y-6328042I30000J0D01*
G01*
X13124458Y-12871958D02*
G75*
G02*
X13064458Y-12871958I-30000J0D01*
G01*
X13064458Y-12871958D02*
G75*
G02*
X13124458Y-12871958I30000J0D01*
G01*
X13124458Y-13328042D02*
G75*
G02*
X13064458Y-13328042I-30000J0D01*
G01*
X13064458Y-13328042D02*
G75*
G02*
X13124458Y-13328042I30000J0D01*
G01*
X13130000Y-6100000D02*
G75*
G02*
X13070000Y-6100000I-30000J0D01*
G01*
X13070000Y-6100000D02*
G75*
G02*
X13130000Y-6100000I30000J0D01*
G01*
X13130000Y-6556084D02*
G75*
G02*
X13070000Y-6556084I-30000J0D01*
G01*
X13070000Y-6556084D02*
G75*
G02*
X13130000Y-6556084I30000J0D01*
G01*
X13352500Y-12777500D02*
G75*
G02*
X13292500Y-12777500I-30000J0D01*
G01*
X13292500Y-12777500D02*
G75*
G02*
X13352500Y-12777500I30000J0D01*
G01*
X13352500Y-13422500D02*
G75*
G02*
X13292500Y-13422500I-30000J0D01*
G01*
X13292500Y-13422500D02*
G75*
G02*
X13352500Y-13422500I30000J0D01*
G01*
X13358042Y-6005542D02*
G75*
G02*
X13298042Y-6005542I-30000J0D01*
G01*
X13298042Y-6005542D02*
G75*
G02*
X13358042Y-6005542I30000J0D01*
G01*
X13358042Y-6650542D02*
G75*
G02*
X13298042Y-6650542I-30000J0D01*
G01*
X13298042Y-6650542D02*
G75*
G02*
X13358042Y-6650542I30000J0D01*
G01*
X13580542Y-12871958D02*
G75*
G02*
X13520542Y-12871958I-30000J0D01*
G01*
X13520542Y-12871958D02*
G75*
G02*
X13580542Y-12871958I30000J0D01*
G01*
X13580542Y-13328042D02*
G75*
G02*
X13520542Y-13328042I-30000J0D01*
G01*
X13520542Y-13328042D02*
G75*
G02*
X13580542Y-13328042I30000J0D01*
G01*
X13586084Y-6100000D02*
G75*
G02*
X13526084Y-6100000I-30000J0D01*
G01*
X13526084Y-6100000D02*
G75*
G02*
X13586084Y-6100000I30000J0D01*
G01*
X13586084Y-6556084D02*
G75*
G02*
X13526084Y-6556084I-30000J0D01*
G01*
X13526084Y-6556084D02*
G75*
G02*
X13586084Y-6556084I30000J0D01*
G01*
X13675000Y-13100000D02*
G75*
G02*
X13615000Y-13100000I-30000J0D01*
G01*
X13615000Y-13100000D02*
G75*
G02*
X13675000Y-13100000I30000J0D01*
G01*
X13680542Y-6328042D02*
G75*
G02*
X13620542Y-6328042I-30000J0D01*
G01*
X13620542Y-6328042D02*
G75*
G02*
X13680542Y-6328042I30000J0D01*
G01*
X14548000Y-5967500D02*
G75*
G02*
X14488000Y-5967500I-30000J0D01*
G01*
X14488000Y-5967500D02*
G75*
G02*
X14548000Y-5967500I30000J0D01*
G01*
X14548000Y-6007500D02*
X14548000Y-5927500D01*
X14488000Y-5927500D02*
G75*
G02*
X14548000Y-5927500I30000J0D01*
G01*
X14488000Y-5927500D02*
X14488000Y-6007500D01*
X14488000Y-6007500D02*
G75*
G03*
X14548000Y-6007500I30000J0D01*
G01*
X14548000Y-6385500D02*
G75*
G02*
X14488000Y-6385500I-30000J0D01*
G01*
X14488000Y-6385500D02*
G75*
G02*
X14548000Y-6385500I30000J0D01*
G01*
X14548000Y-6440500D02*
X14548000Y-6330500D01*
X14488000Y-6330500D02*
G75*
G02*
X14548000Y-6330500I30000J0D01*
G01*
X14488000Y-6330500D02*
X14488000Y-6440500D01*
X14488000Y-6440500D02*
G75*
G03*
X14548000Y-6440500I30000J0D01*
G01*
X15412000Y-5967500D02*
G75*
G02*
X15352000Y-5967500I-30000J0D01*
G01*
X15352000Y-5967500D02*
G75*
G02*
X15412000Y-5967500I30000J0D01*
G01*
X15412000Y-6007500D02*
X15412000Y-5927500D01*
X15352000Y-5927500D02*
G75*
G02*
X15412000Y-5927500I30000J0D01*
G01*
X15352000Y-5927500D02*
X15352000Y-6007500D01*
X15352000Y-6007500D02*
G75*
G03*
X15412000Y-6007500I30000J0D01*
G01*
X15412000Y-6385500D02*
G75*
G02*
X15352000Y-6385500I-30000J0D01*
G01*
X15352000Y-6385500D02*
G75*
G02*
X15412000Y-6385500I30000J0D01*
G01*
X15412000Y-6440500D02*
X15412000Y-6330500D01*
X15352000Y-6330500D02*
G75*
G02*
X15412000Y-6330500I30000J0D01*
G01*
X15352000Y-6330500D02*
X15352000Y-6440500D01*
X15352000Y-6440500D02*
G75*
G03*
X15412000Y-6440500I30000J0D01*
G01*
X21730000Y-11600000D02*
G75*
G02*
X21670000Y-11600000I-30000J0D01*
G01*
X21670000Y-11600000D02*
G75*
G02*
X21730000Y-11600000I30000J0D01*
G01*
X21807500Y-7822500D02*
G75*
G02*
X21747500Y-7822500I-30000J0D01*
G01*
X21747500Y-7822500D02*
G75*
G02*
X21807500Y-7822500I30000J0D01*
G01*
X21824458Y-11371958D02*
G75*
G02*
X21764458Y-11371958I-30000J0D01*
G01*
X21764458Y-11371958D02*
G75*
G02*
X21824458Y-11371958I30000J0D01*
G01*
X21824458Y-11828042D02*
G75*
G02*
X21764458Y-11828042I-30000J0D01*
G01*
X21764458Y-11828042D02*
G75*
G02*
X21824458Y-11828042I30000J0D01*
G01*
X21901958Y-7594458D02*
G75*
G02*
X21841958Y-7594458I-30000J0D01*
G01*
X21841958Y-7594458D02*
G75*
G02*
X21901958Y-7594458I30000J0D01*
G01*
X21901958Y-8050542D02*
G75*
G02*
X21841958Y-8050542I-30000J0D01*
G01*
X21841958Y-8050542D02*
G75*
G02*
X21901958Y-8050542I30000J0D01*
G01*
X22052500Y-11277500D02*
G75*
G02*
X21992500Y-11277500I-30000J0D01*
G01*
X21992500Y-11277500D02*
G75*
G02*
X22052500Y-11277500I30000J0D01*
G01*
X22052500Y-11922500D02*
G75*
G02*
X21992500Y-11922500I-30000J0D01*
G01*
X21992500Y-11922500D02*
G75*
G02*
X22052500Y-11922500I30000J0D01*
G01*
X22130000Y-7500000D02*
G75*
G02*
X22070000Y-7500000I-30000J0D01*
G01*
X22070000Y-7500000D02*
G75*
G02*
X22130000Y-7500000I30000J0D01*
G01*
X22130000Y-8145000D02*
G75*
G02*
X22070000Y-8145000I-30000J0D01*
G01*
X22070000Y-8145000D02*
G75*
G02*
X22130000Y-8145000I30000J0D01*
G01*
X22280542Y-11371958D02*
G75*
G02*
X22220542Y-11371958I-30000J0D01*
G01*
X22220542Y-11371958D02*
G75*
G02*
X22280542Y-11371958I30000J0D01*
G01*
X22280542Y-11828042D02*
G75*
G02*
X22220542Y-11828042I-30000J0D01*
G01*
X22220542Y-11828042D02*
G75*
G02*
X22280542Y-11828042I30000J0D01*
G01*
X22358042Y-7594458D02*
G75*
G02*
X22298042Y-7594458I-30000J0D01*
G01*
X22298042Y-7594458D02*
G75*
G02*
X22358042Y-7594458I30000J0D01*
G01*
X22358042Y-8050542D02*
G75*
G02*
X22298042Y-8050542I-30000J0D01*
G01*
X22298042Y-8050542D02*
G75*
G02*
X22358042Y-8050542I30000J0D01*
G01*
X22375000Y-11600000D02*
G75*
G02*
X22315000Y-11600000I-30000J0D01*
G01*
X22315000Y-11600000D02*
G75*
G02*
X22375000Y-11600000I30000J0D01*
G01*
X22452500Y-7822500D02*
G75*
G02*
X22392500Y-7822500I-30000J0D01*
G01*
X22392500Y-7822500D02*
G75*
G02*
X22452500Y-7822500I30000J0D01*
G01*
X16350000Y-5952500D02*
X16350000Y-6047500D01*
X16302500Y-6000000D02*
X16397500Y-6000000D01*
X16600000Y-5952500D02*
X16600000Y-6047500D01*
X16552500Y-6000000D02*
X16647500Y-6000000D01*
X16850000Y-5952500D02*
X16850000Y-6047500D01*
X16802500Y-6000000D02*
X16897500Y-6000000D01*
X17100000Y-5952500D02*
X17100000Y-6047500D01*
X17052500Y-6000000D02*
X17147500Y-6000000D01*
X17350000Y-5952500D02*
X17350000Y-6047500D01*
X17302500Y-6000000D02*
X17397500Y-6000000D01*
X17600000Y-5952500D02*
X17600000Y-6047500D01*
X17552500Y-6000000D02*
X17647500Y-6000000D01*
X18400000Y-5952500D02*
X18400000Y-6047500D01*
X18352500Y-6000000D02*
X18447500Y-6000000D01*
X18650000Y-5952500D02*
X18650000Y-6047500D01*
X18602500Y-6000000D02*
X18697500Y-6000000D01*
X18900000Y-5952500D02*
X18900000Y-6047500D01*
X18852500Y-6000000D02*
X18947500Y-6000000D01*
X19150000Y-5952500D02*
X19150000Y-6047500D01*
X19102500Y-6000000D02*
X19197500Y-6000000D01*
X19400000Y-5952500D02*
X19400000Y-6047500D01*
X19352500Y-6000000D02*
X19447500Y-6000000D01*
X17681356Y-11510356D02*
X17681356Y-11439644D01*
X17610644Y-11439644D01*
X17610644Y-11510356D01*
X17681356Y-11510356D01*
X17935356Y-11510356D02*
X17935356Y-11439644D01*
X17864644Y-11439644D01*
X17864644Y-11510356D01*
X17935356Y-11510356D01*
X18189356Y-11510356D02*
X18189356Y-11439644D01*
X18118644Y-11439644D01*
X18118644Y-11510356D01*
X18189356Y-11510356D01*
X22402856Y-9085356D02*
X22402856Y-9014644D01*
X22332144Y-9014644D01*
X22332144Y-9085356D01*
X22402856Y-9085356D01*
X22402856Y-10385356D02*
X22402856Y-10314644D01*
X22332144Y-10314644D01*
X22332144Y-10385356D01*
X22402856Y-10385356D01*
D13*
X21867500Y-9445000D02*
X21962500Y-9350000D01*
X21867500Y-9255000D01*
X21772500Y-9350000D01*
X21867500Y-9445000D01*
X21867500Y-9795000D02*
X21962500Y-9700000D01*
X21867500Y-9605000D01*
X21772500Y-9700000D01*
X21867500Y-9795000D01*
X21867500Y-10145000D02*
X21962500Y-10050000D01*
X21867500Y-9955000D01*
X21772500Y-10050000D01*
X21867500Y-10145000D01*
D14*
X13107500Y-12885000D02*
X13537500Y-13315000D01*
X13537500Y-12885000D02*
X13107500Y-13315000D01*
X13537500Y-13100000D02*
G75*
G02*
X13107500Y-13100000I-215000J0D01*
G01*
X13107500Y-13100000D02*
G75*
G02*
X13537500Y-13100000I215000J0D01*
G01*
X13113042Y-6113042D02*
X13543042Y-6543042D01*
X13543042Y-6113042D02*
X13113042Y-6543042D01*
X13543042Y-6328042D02*
G75*
G02*
X13113042Y-6328042I-215000J0D01*
G01*
X13113042Y-6328042D02*
G75*
G02*
X13543042Y-6328042I215000J0D01*
G01*
X21807500Y-11385000D02*
X22237500Y-11815000D01*
X22237500Y-11385000D02*
X21807500Y-11815000D01*
X22237500Y-11600000D02*
G75*
G02*
X21807500Y-11600000I-215000J0D01*
G01*
X21807500Y-11600000D02*
G75*
G02*
X22237500Y-11600000I215000J0D01*
G01*
X21885000Y-7607500D02*
X22315000Y-8037500D01*
X22315000Y-7607500D02*
X21885000Y-8037500D01*
X22315000Y-7822500D02*
G75*
G02*
X21885000Y-7822500I-215000J0D01*
G01*
X21885000Y-7822500D02*
G75*
G02*
X22315000Y-7822500I215000J0D01*
G01*
D15*
X13175000Y-9115000D02*
X13625000Y-9565000D01*
X13625000Y-9115000D02*
X13175000Y-9565000D01*
X13400000Y-9115000D02*
X13400000Y-9565000D01*
X13175000Y-9340000D02*
X13625000Y-9340000D01*
X13175000Y-9835000D02*
X13625000Y-10285000D01*
X13625000Y-9835000D02*
X13175000Y-10285000D01*
X13400000Y-9835000D02*
X13400000Y-10285000D01*
X13175000Y-10060000D02*
X13625000Y-10060000D01*
D11*
X12958277Y-14013984D02*
X12958277Y-13813984D01*
X12958277Y-13813984D02*
X13005896Y-13813984D01*
X13005896Y-13813984D02*
X13034467Y-13823508D01*
X13034467Y-13823508D02*
X13053515Y-13842555D01*
X13053515Y-13842555D02*
X13063039Y-13861603D01*
X13063039Y-13861603D02*
X13072562Y-13899698D01*
X13072562Y-13899698D02*
X13072562Y-13928269D01*
X13072562Y-13928269D02*
X13063039Y-13966365D01*
X13063039Y-13966365D02*
X13053515Y-13985412D01*
X13053515Y-13985412D02*
X13034467Y-14004460D01*
X13034467Y-14004460D02*
X13005896Y-14013984D01*
X13005896Y-14013984D02*
X12958277Y-14013984D01*
X13158277Y-14013984D02*
X13158277Y-13880650D01*
X13158277Y-13918746D02*
X13167801Y-13899698D01*
X13167801Y-13899698D02*
X13177324Y-13890174D01*
X13177324Y-13890174D02*
X13196372Y-13880650D01*
X13196372Y-13880650D02*
X13215420Y-13880650D01*
X13282086Y-14013984D02*
X13282086Y-13880650D01*
X13282086Y-13813984D02*
X13272562Y-13823508D01*
X13272562Y-13823508D02*
X13282086Y-13833031D01*
X13282086Y-13833031D02*
X13291610Y-13823508D01*
X13291610Y-13823508D02*
X13282086Y-13813984D01*
X13282086Y-13813984D02*
X13282086Y-13833031D01*
X13405896Y-14013984D02*
X13386848Y-14004460D01*
X13386848Y-14004460D02*
X13377324Y-13985412D01*
X13377324Y-13985412D02*
X13377324Y-13813984D01*
X13510658Y-14013984D02*
X13491610Y-14004460D01*
X13491610Y-14004460D02*
X13482086Y-13985412D01*
X13482086Y-13985412D02*
X13482086Y-13813984D01*
X13739229Y-14013984D02*
X13739229Y-13813984D01*
X13739229Y-13813984D02*
X13805896Y-13956841D01*
X13805896Y-13956841D02*
X13872562Y-13813984D01*
X13872562Y-13813984D02*
X13872562Y-14013984D01*
X14053515Y-14013984D02*
X14053515Y-13909222D01*
X14053515Y-13909222D02*
X14043991Y-13890174D01*
X14043991Y-13890174D02*
X14024943Y-13880650D01*
X14024943Y-13880650D02*
X13986848Y-13880650D01*
X13986848Y-13880650D02*
X13967801Y-13890174D01*
X14053515Y-14004460D02*
X14034467Y-14013984D01*
X14034467Y-14013984D02*
X13986848Y-14013984D01*
X13986848Y-14013984D02*
X13967801Y-14004460D01*
X13967801Y-14004460D02*
X13958277Y-13985412D01*
X13958277Y-13985412D02*
X13958277Y-13966365D01*
X13958277Y-13966365D02*
X13967801Y-13947317D01*
X13967801Y-13947317D02*
X13986848Y-13937793D01*
X13986848Y-13937793D02*
X14034467Y-13937793D01*
X14034467Y-13937793D02*
X14053515Y-13928269D01*
X14148753Y-13880650D02*
X14148753Y-14080650D01*
X14148753Y-13890174D02*
X14167801Y-13880650D01*
X14167801Y-13880650D02*
X14205896Y-13880650D01*
X14205896Y-13880650D02*
X14224943Y-13890174D01*
X14224943Y-13890174D02*
X14234467Y-13899698D01*
X14234467Y-13899698D02*
X14243991Y-13918746D01*
X14243991Y-13918746D02*
X14243991Y-13975888D01*
X14243991Y-13975888D02*
X14234467Y-13994936D01*
X14234467Y-13994936D02*
X14224943Y-14004460D01*
X14224943Y-14004460D02*
X14205896Y-14013984D01*
X14205896Y-14013984D02*
X14167801Y-14013984D01*
X14167801Y-14013984D02*
X14148753Y-14004460D01*
X14329705Y-13994936D02*
X14339229Y-14004460D01*
X14339229Y-14004460D02*
X14329705Y-14013984D01*
X14329705Y-14013984D02*
X14320182Y-14004460D01*
X14320182Y-14004460D02*
X14329705Y-13994936D01*
X14329705Y-13994936D02*
X14329705Y-14013984D01*
X14329705Y-13890174D02*
X14339229Y-13899698D01*
X14339229Y-13899698D02*
X14329705Y-13909222D01*
X14329705Y-13909222D02*
X14320182Y-13899698D01*
X14320182Y-13899698D02*
X14329705Y-13890174D01*
X14329705Y-13890174D02*
X14329705Y-13909222D01*
D12*
X12672500Y-14330000D02*
X12697500Y-14355000D01*
X12697500Y-14330000D02*
X12672500Y-14355000D01*
D11*
X12996372Y-14233984D02*
X13015420Y-14233984D01*
X13015420Y-14233984D02*
X13034467Y-14243508D01*
X13034467Y-14243508D02*
X13043991Y-14253031D01*
X13043991Y-14253031D02*
X13053515Y-14272079D01*
X13053515Y-14272079D02*
X13063039Y-14310174D01*
X13063039Y-14310174D02*
X13063039Y-14357793D01*
X13063039Y-14357793D02*
X13053515Y-14395888D01*
X13053515Y-14395888D02*
X13043991Y-14414936D01*
X13043991Y-14414936D02*
X13034467Y-14424460D01*
X13034467Y-14424460D02*
X13015420Y-14433984D01*
X13015420Y-14433984D02*
X12996372Y-14433984D01*
X12996372Y-14433984D02*
X12977324Y-14424460D01*
X12977324Y-14424460D02*
X12967801Y-14414936D01*
X12967801Y-14414936D02*
X12958277Y-14395888D01*
X12958277Y-14395888D02*
X12948753Y-14357793D01*
X12948753Y-14357793D02*
X12948753Y-14310174D01*
X12948753Y-14310174D02*
X12958277Y-14272079D01*
X12958277Y-14272079D02*
X12967801Y-14253031D01*
X12967801Y-14253031D02*
X12977324Y-14243508D01*
X12977324Y-14243508D02*
X12996372Y-14233984D01*
X13148753Y-14414936D02*
X13158277Y-14424460D01*
X13158277Y-14424460D02*
X13148753Y-14433984D01*
X13148753Y-14433984D02*
X13139229Y-14424460D01*
X13139229Y-14424460D02*
X13148753Y-14414936D01*
X13148753Y-14414936D02*
X13148753Y-14433984D01*
X13234467Y-14253031D02*
X13243991Y-14243508D01*
X13243991Y-14243508D02*
X13263039Y-14233984D01*
X13263039Y-14233984D02*
X13310658Y-14233984D01*
X13310658Y-14233984D02*
X13329705Y-14243508D01*
X13329705Y-14243508D02*
X13339229Y-14253031D01*
X13339229Y-14253031D02*
X13348753Y-14272079D01*
X13348753Y-14272079D02*
X13348753Y-14291127D01*
X13348753Y-14291127D02*
X13339229Y-14319698D01*
X13339229Y-14319698D02*
X13224943Y-14433984D01*
X13224943Y-14433984D02*
X13348753Y-14433984D01*
X13529705Y-14233984D02*
X13434467Y-14233984D01*
X13434467Y-14233984D02*
X13424943Y-14329222D01*
X13424943Y-14329222D02*
X13434467Y-14319698D01*
X13434467Y-14319698D02*
X13453515Y-14310174D01*
X13453515Y-14310174D02*
X13501134Y-14310174D01*
X13501134Y-14310174D02*
X13520182Y-14319698D01*
X13520182Y-14319698D02*
X13529705Y-14329222D01*
X13529705Y-14329222D02*
X13539229Y-14348269D01*
X13539229Y-14348269D02*
X13539229Y-14395888D01*
X13539229Y-14395888D02*
X13529705Y-14414936D01*
X13529705Y-14414936D02*
X13520182Y-14424460D01*
X13520182Y-14424460D02*
X13501134Y-14433984D01*
X13501134Y-14433984D02*
X13453515Y-14433984D01*
X13453515Y-14433984D02*
X13434467Y-14424460D01*
X13434467Y-14424460D02*
X13424943Y-14414936D01*
X13663039Y-14233984D02*
X13682086Y-14233984D01*
X13682086Y-14233984D02*
X13701134Y-14243508D01*
X13701134Y-14243508D02*
X13710658Y-14253031D01*
X13710658Y-14253031D02*
X13720182Y-14272079D01*
X13720182Y-14272079D02*
X13729705Y-14310174D01*
X13729705Y-14310174D02*
X13729705Y-14357793D01*
X13729705Y-14357793D02*
X13720182Y-14395888D01*
X13720182Y-14395888D02*
X13710658Y-14414936D01*
X13710658Y-14414936D02*
X13701134Y-14424460D01*
X13701134Y-14424460D02*
X13682086Y-14433984D01*
X13682086Y-14433984D02*
X13663039Y-14433984D01*
X13663039Y-14433984D02*
X13643991Y-14424460D01*
X13643991Y-14424460D02*
X13634467Y-14414936D01*
X13634467Y-14414936D02*
X13624943Y-14395888D01*
X13624943Y-14395888D02*
X13615420Y-14357793D01*
X13615420Y-14357793D02*
X13615420Y-14310174D01*
X13615420Y-14310174D02*
X13624943Y-14272079D01*
X13624943Y-14272079D02*
X13634467Y-14253031D01*
X13634467Y-14253031D02*
X13643991Y-14243508D01*
X13643991Y-14243508D02*
X13663039Y-14233984D01*
X13815420Y-14433984D02*
X13815420Y-14300650D01*
X13815420Y-14319698D02*
X13824943Y-14310174D01*
X13824943Y-14310174D02*
X13843991Y-14300650D01*
X13843991Y-14300650D02*
X13872563Y-14300650D01*
X13872563Y-14300650D02*
X13891610Y-14310174D01*
X13891610Y-14310174D02*
X13901134Y-14329222D01*
X13901134Y-14329222D02*
X13901134Y-14433984D01*
X13901134Y-14329222D02*
X13910658Y-14310174D01*
X13910658Y-14310174D02*
X13929705Y-14300650D01*
X13929705Y-14300650D02*
X13958277Y-14300650D01*
X13958277Y-14300650D02*
X13977324Y-14310174D01*
X13977324Y-14310174D02*
X13986848Y-14329222D01*
X13986848Y-14329222D02*
X13986848Y-14433984D01*
X14082086Y-14433984D02*
X14082086Y-14300650D01*
X14082086Y-14319698D02*
X14091610Y-14310174D01*
X14091610Y-14310174D02*
X14110658Y-14300650D01*
X14110658Y-14300650D02*
X14139229Y-14300650D01*
X14139229Y-14300650D02*
X14158277Y-14310174D01*
X14158277Y-14310174D02*
X14167801Y-14329222D01*
X14167801Y-14329222D02*
X14167801Y-14433984D01*
X14167801Y-14329222D02*
X14177324Y-14310174D01*
X14177324Y-14310174D02*
X14196372Y-14300650D01*
X14196372Y-14300650D02*
X14224943Y-14300650D01*
X14224943Y-14300650D02*
X14243991Y-14310174D01*
X14243991Y-14310174D02*
X14253515Y-14329222D01*
X14253515Y-14329222D02*
X14253515Y-14433984D01*
X14643991Y-14224460D02*
X14472563Y-14481603D01*
X14901134Y-14233984D02*
X14920182Y-14233984D01*
X14920182Y-14233984D02*
X14939229Y-14243508D01*
X14939229Y-14243508D02*
X14948753Y-14253031D01*
X14948753Y-14253031D02*
X14958277Y-14272079D01*
X14958277Y-14272079D02*
X14967801Y-14310174D01*
X14967801Y-14310174D02*
X14967801Y-14357793D01*
X14967801Y-14357793D02*
X14958277Y-14395888D01*
X14958277Y-14395888D02*
X14948753Y-14414936D01*
X14948753Y-14414936D02*
X14939229Y-14424460D01*
X14939229Y-14424460D02*
X14920182Y-14433984D01*
X14920182Y-14433984D02*
X14901134Y-14433984D01*
X14901134Y-14433984D02*
X14882086Y-14424460D01*
X14882086Y-14424460D02*
X14872563Y-14414936D01*
X14872563Y-14414936D02*
X14863039Y-14395888D01*
X14863039Y-14395888D02*
X14853515Y-14357793D01*
X14853515Y-14357793D02*
X14853515Y-14310174D01*
X14853515Y-14310174D02*
X14863039Y-14272079D01*
X14863039Y-14272079D02*
X14872563Y-14253031D01*
X14872563Y-14253031D02*
X14882086Y-14243508D01*
X14882086Y-14243508D02*
X14901134Y-14233984D01*
X15053515Y-14414936D02*
X15063039Y-14424460D01*
X15063039Y-14424460D02*
X15053515Y-14433984D01*
X15053515Y-14433984D02*
X15043991Y-14424460D01*
X15043991Y-14424460D02*
X15053515Y-14414936D01*
X15053515Y-14414936D02*
X15053515Y-14433984D01*
X15186848Y-14233984D02*
X15205896Y-14233984D01*
X15205896Y-14233984D02*
X15224944Y-14243508D01*
X15224944Y-14243508D02*
X15234467Y-14253031D01*
X15234467Y-14253031D02*
X15243991Y-14272079D01*
X15243991Y-14272079D02*
X15253515Y-14310174D01*
X15253515Y-14310174D02*
X15253515Y-14357793D01*
X15253515Y-14357793D02*
X15243991Y-14395888D01*
X15243991Y-14395888D02*
X15234467Y-14414936D01*
X15234467Y-14414936D02*
X15224944Y-14424460D01*
X15224944Y-14424460D02*
X15205896Y-14433984D01*
X15205896Y-14433984D02*
X15186848Y-14433984D01*
X15186848Y-14433984D02*
X15167801Y-14424460D01*
X15167801Y-14424460D02*
X15158277Y-14414936D01*
X15158277Y-14414936D02*
X15148753Y-14395888D01*
X15148753Y-14395888D02*
X15139229Y-14357793D01*
X15139229Y-14357793D02*
X15139229Y-14310174D01*
X15139229Y-14310174D02*
X15148753Y-14272079D01*
X15148753Y-14272079D02*
X15158277Y-14253031D01*
X15158277Y-14253031D02*
X15167801Y-14243508D01*
X15167801Y-14243508D02*
X15186848Y-14233984D01*
X15377325Y-14233984D02*
X15396372Y-14233984D01*
X15396372Y-14233984D02*
X15415420Y-14243508D01*
X15415420Y-14243508D02*
X15424944Y-14253031D01*
X15424944Y-14253031D02*
X15434467Y-14272079D01*
X15434467Y-14272079D02*
X15443991Y-14310174D01*
X15443991Y-14310174D02*
X15443991Y-14357793D01*
X15443991Y-14357793D02*
X15434467Y-14395888D01*
X15434467Y-14395888D02*
X15424944Y-14414936D01*
X15424944Y-14414936D02*
X15415420Y-14424460D01*
X15415420Y-14424460D02*
X15396372Y-14433984D01*
X15396372Y-14433984D02*
X15377325Y-14433984D01*
X15377325Y-14433984D02*
X15358277Y-14424460D01*
X15358277Y-14424460D02*
X15348753Y-14414936D01*
X15348753Y-14414936D02*
X15339229Y-14395888D01*
X15339229Y-14395888D02*
X15329706Y-14357793D01*
X15329706Y-14357793D02*
X15329706Y-14310174D01*
X15329706Y-14310174D02*
X15339229Y-14272079D01*
X15339229Y-14272079D02*
X15348753Y-14253031D01*
X15348753Y-14253031D02*
X15358277Y-14243508D01*
X15358277Y-14243508D02*
X15377325Y-14233984D01*
X15539229Y-14433984D02*
X15577325Y-14433984D01*
X15577325Y-14433984D02*
X15596372Y-14424460D01*
X15596372Y-14424460D02*
X15605896Y-14414936D01*
X15605896Y-14414936D02*
X15624944Y-14386365D01*
X15624944Y-14386365D02*
X15634467Y-14348269D01*
X15634467Y-14348269D02*
X15634467Y-14272079D01*
X15634467Y-14272079D02*
X15624944Y-14253031D01*
X15624944Y-14253031D02*
X15615420Y-14243508D01*
X15615420Y-14243508D02*
X15596372Y-14233984D01*
X15596372Y-14233984D02*
X15558277Y-14233984D01*
X15558277Y-14233984D02*
X15539229Y-14243508D01*
X15539229Y-14243508D02*
X15529706Y-14253031D01*
X15529706Y-14253031D02*
X15520182Y-14272079D01*
X15520182Y-14272079D02*
X15520182Y-14319698D01*
X15520182Y-14319698D02*
X15529706Y-14338746D01*
X15529706Y-14338746D02*
X15539229Y-14348269D01*
X15539229Y-14348269D02*
X15558277Y-14357793D01*
X15558277Y-14357793D02*
X15596372Y-14357793D01*
X15596372Y-14357793D02*
X15615420Y-14348269D01*
X15615420Y-14348269D02*
X15624944Y-14338746D01*
X15624944Y-14338746D02*
X15634467Y-14319698D01*
X15748753Y-14319698D02*
X15729706Y-14310174D01*
X15729706Y-14310174D02*
X15720182Y-14300650D01*
X15720182Y-14300650D02*
X15710658Y-14281603D01*
X15710658Y-14281603D02*
X15710658Y-14272079D01*
X15710658Y-14272079D02*
X15720182Y-14253031D01*
X15720182Y-14253031D02*
X15729706Y-14243508D01*
X15729706Y-14243508D02*
X15748753Y-14233984D01*
X15748753Y-14233984D02*
X15786848Y-14233984D01*
X15786848Y-14233984D02*
X15805896Y-14243508D01*
X15805896Y-14243508D02*
X15815420Y-14253031D01*
X15815420Y-14253031D02*
X15824944Y-14272079D01*
X15824944Y-14272079D02*
X15824944Y-14281603D01*
X15824944Y-14281603D02*
X15815420Y-14300650D01*
X15815420Y-14300650D02*
X15805896Y-14310174D01*
X15805896Y-14310174D02*
X15786848Y-14319698D01*
X15786848Y-14319698D02*
X15748753Y-14319698D01*
X15748753Y-14319698D02*
X15729706Y-14329222D01*
X15729706Y-14329222D02*
X15720182Y-14338746D01*
X15720182Y-14338746D02*
X15710658Y-14357793D01*
X15710658Y-14357793D02*
X15710658Y-14395888D01*
X15710658Y-14395888D02*
X15720182Y-14414936D01*
X15720182Y-14414936D02*
X15729706Y-14424460D01*
X15729706Y-14424460D02*
X15748753Y-14433984D01*
X15748753Y-14433984D02*
X15786848Y-14433984D01*
X15786848Y-14433984D02*
X15805896Y-14424460D01*
X15805896Y-14424460D02*
X15815420Y-14414936D01*
X15815420Y-14414936D02*
X15824944Y-14395888D01*
X15824944Y-14395888D02*
X15824944Y-14357793D01*
X15824944Y-14357793D02*
X15815420Y-14338746D01*
X15815420Y-14338746D02*
X15805896Y-14329222D01*
X15805896Y-14329222D02*
X15786848Y-14319698D01*
X15901134Y-14233984D02*
X15901134Y-14272079D01*
X15977325Y-14233984D02*
X15977325Y-14272079D01*
X16272563Y-14510174D02*
X16263039Y-14500650D01*
X16263039Y-14500650D02*
X16243991Y-14472079D01*
X16243991Y-14472079D02*
X16234468Y-14453031D01*
X16234468Y-14453031D02*
X16224944Y-14424460D01*
X16224944Y-14424460D02*
X16215420Y-14376841D01*
X16215420Y-14376841D02*
X16215420Y-14338746D01*
X16215420Y-14338746D02*
X16224944Y-14291127D01*
X16224944Y-14291127D02*
X16234468Y-14262555D01*
X16234468Y-14262555D02*
X16243991Y-14243508D01*
X16243991Y-14243508D02*
X16263039Y-14214936D01*
X16263039Y-14214936D02*
X16272563Y-14205412D01*
X16339229Y-14253031D02*
X16348753Y-14243508D01*
X16348753Y-14243508D02*
X16367801Y-14233984D01*
X16367801Y-14233984D02*
X16415420Y-14233984D01*
X16415420Y-14233984D02*
X16434468Y-14243508D01*
X16434468Y-14243508D02*
X16443991Y-14253031D01*
X16443991Y-14253031D02*
X16453515Y-14272079D01*
X16453515Y-14272079D02*
X16453515Y-14291127D01*
X16453515Y-14291127D02*
X16443991Y-14319698D01*
X16443991Y-14319698D02*
X16329706Y-14433984D01*
X16329706Y-14433984D02*
X16453515Y-14433984D01*
X16529706Y-14253031D02*
X16539229Y-14243508D01*
X16539229Y-14243508D02*
X16558277Y-14233984D01*
X16558277Y-14233984D02*
X16605896Y-14233984D01*
X16605896Y-14233984D02*
X16624944Y-14243508D01*
X16624944Y-14243508D02*
X16634468Y-14253031D01*
X16634468Y-14253031D02*
X16643991Y-14272079D01*
X16643991Y-14272079D02*
X16643991Y-14291127D01*
X16643991Y-14291127D02*
X16634468Y-14319698D01*
X16634468Y-14319698D02*
X16520182Y-14433984D01*
X16520182Y-14433984D02*
X16643991Y-14433984D01*
X16815420Y-14300650D02*
X16815420Y-14433984D01*
X16767801Y-14224460D02*
X16720182Y-14367317D01*
X16720182Y-14367317D02*
X16843991Y-14367317D01*
X17072563Y-14433984D02*
X17072563Y-14233984D01*
X17158277Y-14433984D02*
X17158277Y-14329222D01*
X17158277Y-14329222D02*
X17148753Y-14310174D01*
X17148753Y-14310174D02*
X17129706Y-14300650D01*
X17129706Y-14300650D02*
X17101134Y-14300650D01*
X17101134Y-14300650D02*
X17082087Y-14310174D01*
X17082087Y-14310174D02*
X17072563Y-14319698D01*
X17282087Y-14433984D02*
X17263039Y-14424460D01*
X17263039Y-14424460D02*
X17253515Y-14414936D01*
X17253515Y-14414936D02*
X17243992Y-14395888D01*
X17243992Y-14395888D02*
X17243992Y-14338746D01*
X17243992Y-14338746D02*
X17253515Y-14319698D01*
X17253515Y-14319698D02*
X17263039Y-14310174D01*
X17263039Y-14310174D02*
X17282087Y-14300650D01*
X17282087Y-14300650D02*
X17310658Y-14300650D01*
X17310658Y-14300650D02*
X17329706Y-14310174D01*
X17329706Y-14310174D02*
X17339230Y-14319698D01*
X17339230Y-14319698D02*
X17348753Y-14338746D01*
X17348753Y-14338746D02*
X17348753Y-14395888D01*
X17348753Y-14395888D02*
X17339230Y-14414936D01*
X17339230Y-14414936D02*
X17329706Y-14424460D01*
X17329706Y-14424460D02*
X17310658Y-14433984D01*
X17310658Y-14433984D02*
X17282087Y-14433984D01*
X17463039Y-14433984D02*
X17443992Y-14424460D01*
X17443992Y-14424460D02*
X17434468Y-14405412D01*
X17434468Y-14405412D02*
X17434468Y-14233984D01*
X17615420Y-14424460D02*
X17596373Y-14433984D01*
X17596373Y-14433984D02*
X17558277Y-14433984D01*
X17558277Y-14433984D02*
X17539230Y-14424460D01*
X17539230Y-14424460D02*
X17529706Y-14405412D01*
X17529706Y-14405412D02*
X17529706Y-14329222D01*
X17529706Y-14329222D02*
X17539230Y-14310174D01*
X17539230Y-14310174D02*
X17558277Y-14300650D01*
X17558277Y-14300650D02*
X17596373Y-14300650D01*
X17596373Y-14300650D02*
X17615420Y-14310174D01*
X17615420Y-14310174D02*
X17624944Y-14329222D01*
X17624944Y-14329222D02*
X17624944Y-14348269D01*
X17624944Y-14348269D02*
X17529706Y-14367317D01*
X17701134Y-14424460D02*
X17720182Y-14433984D01*
X17720182Y-14433984D02*
X17758277Y-14433984D01*
X17758277Y-14433984D02*
X17777325Y-14424460D01*
X17777325Y-14424460D02*
X17786849Y-14405412D01*
X17786849Y-14405412D02*
X17786849Y-14395888D01*
X17786849Y-14395888D02*
X17777325Y-14376841D01*
X17777325Y-14376841D02*
X17758277Y-14367317D01*
X17758277Y-14367317D02*
X17729706Y-14367317D01*
X17729706Y-14367317D02*
X17710658Y-14357793D01*
X17710658Y-14357793D02*
X17701134Y-14338746D01*
X17701134Y-14338746D02*
X17701134Y-14329222D01*
X17701134Y-14329222D02*
X17710658Y-14310174D01*
X17710658Y-14310174D02*
X17729706Y-14300650D01*
X17729706Y-14300650D02*
X17758277Y-14300650D01*
X17758277Y-14300650D02*
X17777325Y-14310174D01*
X17853515Y-14510174D02*
X17863039Y-14500650D01*
X17863039Y-14500650D02*
X17882087Y-14472079D01*
X17882087Y-14472079D02*
X17891611Y-14453031D01*
X17891611Y-14453031D02*
X17901134Y-14424460D01*
X17901134Y-14424460D02*
X17910658Y-14376841D01*
X17910658Y-14376841D02*
X17910658Y-14338746D01*
X17910658Y-14338746D02*
X17901134Y-14291127D01*
X17901134Y-14291127D02*
X17891611Y-14262555D01*
X17891611Y-14262555D02*
X17882087Y-14243508D01*
X17882087Y-14243508D02*
X17863039Y-14214936D01*
X17863039Y-14214936D02*
X17853515Y-14205412D01*
D12*
X12697500Y-14606500D02*
G75*
G02*
X12637500Y-14606500I-30000J0D01*
G01*
X12637500Y-14606500D02*
G75*
G02*
X12697500Y-14606500I30000J0D01*
G01*
D11*
X12996372Y-14497984D02*
X13015420Y-14497984D01*
X13015420Y-14497984D02*
X13034467Y-14507508D01*
X13034467Y-14507508D02*
X13043991Y-14517031D01*
X13043991Y-14517031D02*
X13053515Y-14536079D01*
X13053515Y-14536079D02*
X13063039Y-14574174D01*
X13063039Y-14574174D02*
X13063039Y-14621793D01*
X13063039Y-14621793D02*
X13053515Y-14659888D01*
X13053515Y-14659888D02*
X13043991Y-14678936D01*
X13043991Y-14678936D02*
X13034467Y-14688460D01*
X13034467Y-14688460D02*
X13015420Y-14697984D01*
X13015420Y-14697984D02*
X12996372Y-14697984D01*
X12996372Y-14697984D02*
X12977324Y-14688460D01*
X12977324Y-14688460D02*
X12967801Y-14678936D01*
X12967801Y-14678936D02*
X12958277Y-14659888D01*
X12958277Y-14659888D02*
X12948753Y-14621793D01*
X12948753Y-14621793D02*
X12948753Y-14574174D01*
X12948753Y-14574174D02*
X12958277Y-14536079D01*
X12958277Y-14536079D02*
X12967801Y-14517031D01*
X12967801Y-14517031D02*
X12977324Y-14507508D01*
X12977324Y-14507508D02*
X12996372Y-14497984D01*
X13148753Y-14678936D02*
X13158277Y-14688460D01*
X13158277Y-14688460D02*
X13148753Y-14697984D01*
X13148753Y-14697984D02*
X13139229Y-14688460D01*
X13139229Y-14688460D02*
X13148753Y-14678936D01*
X13148753Y-14678936D02*
X13148753Y-14697984D01*
X13329705Y-14497984D02*
X13291610Y-14497984D01*
X13291610Y-14497984D02*
X13272562Y-14507508D01*
X13272562Y-14507508D02*
X13263039Y-14517031D01*
X13263039Y-14517031D02*
X13243991Y-14545603D01*
X13243991Y-14545603D02*
X13234467Y-14583698D01*
X13234467Y-14583698D02*
X13234467Y-14659888D01*
X13234467Y-14659888D02*
X13243991Y-14678936D01*
X13243991Y-14678936D02*
X13253515Y-14688460D01*
X13253515Y-14688460D02*
X13272562Y-14697984D01*
X13272562Y-14697984D02*
X13310658Y-14697984D01*
X13310658Y-14697984D02*
X13329705Y-14688460D01*
X13329705Y-14688460D02*
X13339229Y-14678936D01*
X13339229Y-14678936D02*
X13348753Y-14659888D01*
X13348753Y-14659888D02*
X13348753Y-14612269D01*
X13348753Y-14612269D02*
X13339229Y-14593222D01*
X13339229Y-14593222D02*
X13329705Y-14583698D01*
X13329705Y-14583698D02*
X13310658Y-14574174D01*
X13310658Y-14574174D02*
X13272562Y-14574174D01*
X13272562Y-14574174D02*
X13253515Y-14583698D01*
X13253515Y-14583698D02*
X13243991Y-14593222D01*
X13243991Y-14593222D02*
X13234467Y-14612269D01*
X13472562Y-14497984D02*
X13491610Y-14497984D01*
X13491610Y-14497984D02*
X13510658Y-14507508D01*
X13510658Y-14507508D02*
X13520182Y-14517031D01*
X13520182Y-14517031D02*
X13529705Y-14536079D01*
X13529705Y-14536079D02*
X13539229Y-14574174D01*
X13539229Y-14574174D02*
X13539229Y-14621793D01*
X13539229Y-14621793D02*
X13529705Y-14659888D01*
X13529705Y-14659888D02*
X13520182Y-14678936D01*
X13520182Y-14678936D02*
X13510658Y-14688460D01*
X13510658Y-14688460D02*
X13491610Y-14697984D01*
X13491610Y-14697984D02*
X13472562Y-14697984D01*
X13472562Y-14697984D02*
X13453515Y-14688460D01*
X13453515Y-14688460D02*
X13443991Y-14678936D01*
X13443991Y-14678936D02*
X13434467Y-14659888D01*
X13434467Y-14659888D02*
X13424943Y-14621793D01*
X13424943Y-14621793D02*
X13424943Y-14574174D01*
X13424943Y-14574174D02*
X13434467Y-14536079D01*
X13434467Y-14536079D02*
X13443991Y-14517031D01*
X13443991Y-14517031D02*
X13453515Y-14507508D01*
X13453515Y-14507508D02*
X13472562Y-14497984D01*
X13663039Y-14497984D02*
X13682086Y-14497984D01*
X13682086Y-14497984D02*
X13701134Y-14507508D01*
X13701134Y-14507508D02*
X13710658Y-14517031D01*
X13710658Y-14517031D02*
X13720182Y-14536079D01*
X13720182Y-14536079D02*
X13729705Y-14574174D01*
X13729705Y-14574174D02*
X13729705Y-14621793D01*
X13729705Y-14621793D02*
X13720182Y-14659888D01*
X13720182Y-14659888D02*
X13710658Y-14678936D01*
X13710658Y-14678936D02*
X13701134Y-14688460D01*
X13701134Y-14688460D02*
X13682086Y-14697984D01*
X13682086Y-14697984D02*
X13663039Y-14697984D01*
X13663039Y-14697984D02*
X13643991Y-14688460D01*
X13643991Y-14688460D02*
X13634467Y-14678936D01*
X13634467Y-14678936D02*
X13624943Y-14659888D01*
X13624943Y-14659888D02*
X13615420Y-14621793D01*
X13615420Y-14621793D02*
X13615420Y-14574174D01*
X13615420Y-14574174D02*
X13624943Y-14536079D01*
X13624943Y-14536079D02*
X13634467Y-14517031D01*
X13634467Y-14517031D02*
X13643991Y-14507508D01*
X13643991Y-14507508D02*
X13663039Y-14497984D01*
X13815420Y-14697984D02*
X13815420Y-14564650D01*
X13815420Y-14583698D02*
X13824943Y-14574174D01*
X13824943Y-14574174D02*
X13843991Y-14564650D01*
X13843991Y-14564650D02*
X13872563Y-14564650D01*
X13872563Y-14564650D02*
X13891610Y-14574174D01*
X13891610Y-14574174D02*
X13901134Y-14593222D01*
X13901134Y-14593222D02*
X13901134Y-14697984D01*
X13901134Y-14593222D02*
X13910658Y-14574174D01*
X13910658Y-14574174D02*
X13929705Y-14564650D01*
X13929705Y-14564650D02*
X13958277Y-14564650D01*
X13958277Y-14564650D02*
X13977324Y-14574174D01*
X13977324Y-14574174D02*
X13986848Y-14593222D01*
X13986848Y-14593222D02*
X13986848Y-14697984D01*
X14082086Y-14697984D02*
X14082086Y-14564650D01*
X14082086Y-14583698D02*
X14091610Y-14574174D01*
X14091610Y-14574174D02*
X14110658Y-14564650D01*
X14110658Y-14564650D02*
X14139229Y-14564650D01*
X14139229Y-14564650D02*
X14158277Y-14574174D01*
X14158277Y-14574174D02*
X14167801Y-14593222D01*
X14167801Y-14593222D02*
X14167801Y-14697984D01*
X14167801Y-14593222D02*
X14177324Y-14574174D01*
X14177324Y-14574174D02*
X14196372Y-14564650D01*
X14196372Y-14564650D02*
X14224943Y-14564650D01*
X14224943Y-14564650D02*
X14243991Y-14574174D01*
X14243991Y-14574174D02*
X14253515Y-14593222D01*
X14253515Y-14593222D02*
X14253515Y-14697984D01*
X14643991Y-14488460D02*
X14472563Y-14745603D01*
X14901134Y-14497984D02*
X14920182Y-14497984D01*
X14920182Y-14497984D02*
X14939229Y-14507508D01*
X14939229Y-14507508D02*
X14948753Y-14517031D01*
X14948753Y-14517031D02*
X14958277Y-14536079D01*
X14958277Y-14536079D02*
X14967801Y-14574174D01*
X14967801Y-14574174D02*
X14967801Y-14621793D01*
X14967801Y-14621793D02*
X14958277Y-14659888D01*
X14958277Y-14659888D02*
X14948753Y-14678936D01*
X14948753Y-14678936D02*
X14939229Y-14688460D01*
X14939229Y-14688460D02*
X14920182Y-14697984D01*
X14920182Y-14697984D02*
X14901134Y-14697984D01*
X14901134Y-14697984D02*
X14882086Y-14688460D01*
X14882086Y-14688460D02*
X14872563Y-14678936D01*
X14872563Y-14678936D02*
X14863039Y-14659888D01*
X14863039Y-14659888D02*
X14853515Y-14621793D01*
X14853515Y-14621793D02*
X14853515Y-14574174D01*
X14853515Y-14574174D02*
X14863039Y-14536079D01*
X14863039Y-14536079D02*
X14872563Y-14517031D01*
X14872563Y-14517031D02*
X14882086Y-14507508D01*
X14882086Y-14507508D02*
X14901134Y-14497984D01*
X15053515Y-14678936D02*
X15063039Y-14688460D01*
X15063039Y-14688460D02*
X15053515Y-14697984D01*
X15053515Y-14697984D02*
X15043991Y-14688460D01*
X15043991Y-14688460D02*
X15053515Y-14678936D01*
X15053515Y-14678936D02*
X15053515Y-14697984D01*
X15186848Y-14497984D02*
X15205896Y-14497984D01*
X15205896Y-14497984D02*
X15224944Y-14507508D01*
X15224944Y-14507508D02*
X15234467Y-14517031D01*
X15234467Y-14517031D02*
X15243991Y-14536079D01*
X15243991Y-14536079D02*
X15253515Y-14574174D01*
X15253515Y-14574174D02*
X15253515Y-14621793D01*
X15253515Y-14621793D02*
X15243991Y-14659888D01*
X15243991Y-14659888D02*
X15234467Y-14678936D01*
X15234467Y-14678936D02*
X15224944Y-14688460D01*
X15224944Y-14688460D02*
X15205896Y-14697984D01*
X15205896Y-14697984D02*
X15186848Y-14697984D01*
X15186848Y-14697984D02*
X15167801Y-14688460D01*
X15167801Y-14688460D02*
X15158277Y-14678936D01*
X15158277Y-14678936D02*
X15148753Y-14659888D01*
X15148753Y-14659888D02*
X15139229Y-14621793D01*
X15139229Y-14621793D02*
X15139229Y-14574174D01*
X15139229Y-14574174D02*
X15148753Y-14536079D01*
X15148753Y-14536079D02*
X15158277Y-14517031D01*
X15158277Y-14517031D02*
X15167801Y-14507508D01*
X15167801Y-14507508D02*
X15186848Y-14497984D01*
X15329706Y-14517031D02*
X15339229Y-14507508D01*
X15339229Y-14507508D02*
X15358277Y-14497984D01*
X15358277Y-14497984D02*
X15405896Y-14497984D01*
X15405896Y-14497984D02*
X15424944Y-14507508D01*
X15424944Y-14507508D02*
X15434467Y-14517031D01*
X15434467Y-14517031D02*
X15443991Y-14536079D01*
X15443991Y-14536079D02*
X15443991Y-14555127D01*
X15443991Y-14555127D02*
X15434467Y-14583698D01*
X15434467Y-14583698D02*
X15320182Y-14697984D01*
X15320182Y-14697984D02*
X15443991Y-14697984D01*
X15510658Y-14497984D02*
X15634467Y-14497984D01*
X15634467Y-14497984D02*
X15567801Y-14574174D01*
X15567801Y-14574174D02*
X15596372Y-14574174D01*
X15596372Y-14574174D02*
X15615420Y-14583698D01*
X15615420Y-14583698D02*
X15624944Y-14593222D01*
X15624944Y-14593222D02*
X15634467Y-14612269D01*
X15634467Y-14612269D02*
X15634467Y-14659888D01*
X15634467Y-14659888D02*
X15624944Y-14678936D01*
X15624944Y-14678936D02*
X15615420Y-14688460D01*
X15615420Y-14688460D02*
X15596372Y-14697984D01*
X15596372Y-14697984D02*
X15539229Y-14697984D01*
X15539229Y-14697984D02*
X15520182Y-14688460D01*
X15520182Y-14688460D02*
X15510658Y-14678936D01*
X15805896Y-14497984D02*
X15767801Y-14497984D01*
X15767801Y-14497984D02*
X15748753Y-14507508D01*
X15748753Y-14507508D02*
X15739229Y-14517031D01*
X15739229Y-14517031D02*
X15720182Y-14545603D01*
X15720182Y-14545603D02*
X15710658Y-14583698D01*
X15710658Y-14583698D02*
X15710658Y-14659888D01*
X15710658Y-14659888D02*
X15720182Y-14678936D01*
X15720182Y-14678936D02*
X15729706Y-14688460D01*
X15729706Y-14688460D02*
X15748753Y-14697984D01*
X15748753Y-14697984D02*
X15786848Y-14697984D01*
X15786848Y-14697984D02*
X15805896Y-14688460D01*
X15805896Y-14688460D02*
X15815420Y-14678936D01*
X15815420Y-14678936D02*
X15824944Y-14659888D01*
X15824944Y-14659888D02*
X15824944Y-14612269D01*
X15824944Y-14612269D02*
X15815420Y-14593222D01*
X15815420Y-14593222D02*
X15805896Y-14583698D01*
X15805896Y-14583698D02*
X15786848Y-14574174D01*
X15786848Y-14574174D02*
X15748753Y-14574174D01*
X15748753Y-14574174D02*
X15729706Y-14583698D01*
X15729706Y-14583698D02*
X15720182Y-14593222D01*
X15720182Y-14593222D02*
X15710658Y-14612269D01*
X15901134Y-14497984D02*
X15901134Y-14536079D01*
X15977325Y-14497984D02*
X15977325Y-14536079D01*
X16272563Y-14774174D02*
X16263039Y-14764650D01*
X16263039Y-14764650D02*
X16243991Y-14736079D01*
X16243991Y-14736079D02*
X16234468Y-14717031D01*
X16234468Y-14717031D02*
X16224944Y-14688460D01*
X16224944Y-14688460D02*
X16215420Y-14640841D01*
X16215420Y-14640841D02*
X16215420Y-14602746D01*
X16215420Y-14602746D02*
X16224944Y-14555127D01*
X16224944Y-14555127D02*
X16234468Y-14526555D01*
X16234468Y-14526555D02*
X16243991Y-14507508D01*
X16243991Y-14507508D02*
X16263039Y-14478936D01*
X16263039Y-14478936D02*
X16272563Y-14469412D01*
X16329706Y-14497984D02*
X16453515Y-14497984D01*
X16453515Y-14497984D02*
X16386848Y-14574174D01*
X16386848Y-14574174D02*
X16415420Y-14574174D01*
X16415420Y-14574174D02*
X16434468Y-14583698D01*
X16434468Y-14583698D02*
X16443991Y-14593222D01*
X16443991Y-14593222D02*
X16453515Y-14612269D01*
X16453515Y-14612269D02*
X16453515Y-14659888D01*
X16453515Y-14659888D02*
X16443991Y-14678936D01*
X16443991Y-14678936D02*
X16434468Y-14688460D01*
X16434468Y-14688460D02*
X16415420Y-14697984D01*
X16415420Y-14697984D02*
X16358277Y-14697984D01*
X16358277Y-14697984D02*
X16339229Y-14688460D01*
X16339229Y-14688460D02*
X16329706Y-14678936D01*
X16529706Y-14517031D02*
X16539229Y-14507508D01*
X16539229Y-14507508D02*
X16558277Y-14497984D01*
X16558277Y-14497984D02*
X16605896Y-14497984D01*
X16605896Y-14497984D02*
X16624944Y-14507508D01*
X16624944Y-14507508D02*
X16634468Y-14517031D01*
X16634468Y-14517031D02*
X16643991Y-14536079D01*
X16643991Y-14536079D02*
X16643991Y-14555127D01*
X16643991Y-14555127D02*
X16634468Y-14583698D01*
X16634468Y-14583698D02*
X16520182Y-14697984D01*
X16520182Y-14697984D02*
X16643991Y-14697984D01*
X16882087Y-14697984D02*
X16882087Y-14497984D01*
X16967801Y-14697984D02*
X16967801Y-14593222D01*
X16967801Y-14593222D02*
X16958277Y-14574174D01*
X16958277Y-14574174D02*
X16939230Y-14564650D01*
X16939230Y-14564650D02*
X16910658Y-14564650D01*
X16910658Y-14564650D02*
X16891611Y-14574174D01*
X16891611Y-14574174D02*
X16882087Y-14583698D01*
X17091611Y-14697984D02*
X17072563Y-14688460D01*
X17072563Y-14688460D02*
X17063039Y-14678936D01*
X17063039Y-14678936D02*
X17053515Y-14659888D01*
X17053515Y-14659888D02*
X17053515Y-14602746D01*
X17053515Y-14602746D02*
X17063039Y-14583698D01*
X17063039Y-14583698D02*
X17072563Y-14574174D01*
X17072563Y-14574174D02*
X17091611Y-14564650D01*
X17091611Y-14564650D02*
X17120182Y-14564650D01*
X17120182Y-14564650D02*
X17139230Y-14574174D01*
X17139230Y-14574174D02*
X17148753Y-14583698D01*
X17148753Y-14583698D02*
X17158277Y-14602746D01*
X17158277Y-14602746D02*
X17158277Y-14659888D01*
X17158277Y-14659888D02*
X17148753Y-14678936D01*
X17148753Y-14678936D02*
X17139230Y-14688460D01*
X17139230Y-14688460D02*
X17120182Y-14697984D01*
X17120182Y-14697984D02*
X17091611Y-14697984D01*
X17272563Y-14697984D02*
X17253515Y-14688460D01*
X17253515Y-14688460D02*
X17243992Y-14669412D01*
X17243992Y-14669412D02*
X17243992Y-14497984D01*
X17424944Y-14688460D02*
X17405896Y-14697984D01*
X17405896Y-14697984D02*
X17367801Y-14697984D01*
X17367801Y-14697984D02*
X17348753Y-14688460D01*
X17348753Y-14688460D02*
X17339230Y-14669412D01*
X17339230Y-14669412D02*
X17339230Y-14593222D01*
X17339230Y-14593222D02*
X17348753Y-14574174D01*
X17348753Y-14574174D02*
X17367801Y-14564650D01*
X17367801Y-14564650D02*
X17405896Y-14564650D01*
X17405896Y-14564650D02*
X17424944Y-14574174D01*
X17424944Y-14574174D02*
X17434468Y-14593222D01*
X17434468Y-14593222D02*
X17434468Y-14612269D01*
X17434468Y-14612269D02*
X17339230Y-14631317D01*
X17510658Y-14688460D02*
X17529706Y-14697984D01*
X17529706Y-14697984D02*
X17567801Y-14697984D01*
X17567801Y-14697984D02*
X17586849Y-14688460D01*
X17586849Y-14688460D02*
X17596373Y-14669412D01*
X17596373Y-14669412D02*
X17596373Y-14659888D01*
X17596373Y-14659888D02*
X17586849Y-14640841D01*
X17586849Y-14640841D02*
X17567801Y-14631317D01*
X17567801Y-14631317D02*
X17539230Y-14631317D01*
X17539230Y-14631317D02*
X17520182Y-14621793D01*
X17520182Y-14621793D02*
X17510658Y-14602746D01*
X17510658Y-14602746D02*
X17510658Y-14593222D01*
X17510658Y-14593222D02*
X17520182Y-14574174D01*
X17520182Y-14574174D02*
X17539230Y-14564650D01*
X17539230Y-14564650D02*
X17567801Y-14564650D01*
X17567801Y-14564650D02*
X17586849Y-14574174D01*
X17834468Y-14621793D02*
X17986849Y-14621793D01*
X17910658Y-14697984D02*
X17910658Y-14545603D01*
X18320182Y-14564650D02*
X18320182Y-14697984D01*
X18272563Y-14488460D02*
X18224944Y-14631317D01*
X18224944Y-14631317D02*
X18348754Y-14631317D01*
X18567801Y-14688460D02*
X18586849Y-14697984D01*
X18586849Y-14697984D02*
X18624944Y-14697984D01*
X18624944Y-14697984D02*
X18643992Y-14688460D01*
X18643992Y-14688460D02*
X18653516Y-14669412D01*
X18653516Y-14669412D02*
X18653516Y-14659888D01*
X18653516Y-14659888D02*
X18643992Y-14640841D01*
X18643992Y-14640841D02*
X18624944Y-14631317D01*
X18624944Y-14631317D02*
X18596373Y-14631317D01*
X18596373Y-14631317D02*
X18577325Y-14621793D01*
X18577325Y-14621793D02*
X18567801Y-14602746D01*
X18567801Y-14602746D02*
X18567801Y-14593222D01*
X18567801Y-14593222D02*
X18577325Y-14574174D01*
X18577325Y-14574174D02*
X18596373Y-14564650D01*
X18596373Y-14564650D02*
X18624944Y-14564650D01*
X18624944Y-14564650D02*
X18643992Y-14574174D01*
X18767801Y-14697984D02*
X18748754Y-14688460D01*
X18748754Y-14688460D02*
X18739230Y-14669412D01*
X18739230Y-14669412D02*
X18739230Y-14497984D01*
X18872563Y-14697984D02*
X18853516Y-14688460D01*
X18853516Y-14688460D02*
X18843992Y-14678936D01*
X18843992Y-14678936D02*
X18834468Y-14659888D01*
X18834468Y-14659888D02*
X18834468Y-14602746D01*
X18834468Y-14602746D02*
X18843992Y-14583698D01*
X18843992Y-14583698D02*
X18853516Y-14574174D01*
X18853516Y-14574174D02*
X18872563Y-14564650D01*
X18872563Y-14564650D02*
X18901135Y-14564650D01*
X18901135Y-14564650D02*
X18920182Y-14574174D01*
X18920182Y-14574174D02*
X18929706Y-14583698D01*
X18929706Y-14583698D02*
X18939230Y-14602746D01*
X18939230Y-14602746D02*
X18939230Y-14659888D01*
X18939230Y-14659888D02*
X18929706Y-14678936D01*
X18929706Y-14678936D02*
X18920182Y-14688460D01*
X18920182Y-14688460D02*
X18901135Y-14697984D01*
X18901135Y-14697984D02*
X18872563Y-14697984D01*
X18996373Y-14564650D02*
X19072563Y-14564650D01*
X19024944Y-14497984D02*
X19024944Y-14669412D01*
X19024944Y-14669412D02*
X19034468Y-14688460D01*
X19034468Y-14688460D02*
X19053516Y-14697984D01*
X19053516Y-14697984D02*
X19072563Y-14697984D01*
X19129706Y-14688460D02*
X19148754Y-14697984D01*
X19148754Y-14697984D02*
X19186849Y-14697984D01*
X19186849Y-14697984D02*
X19205897Y-14688460D01*
X19205897Y-14688460D02*
X19215420Y-14669412D01*
X19215420Y-14669412D02*
X19215420Y-14659888D01*
X19215420Y-14659888D02*
X19205897Y-14640841D01*
X19205897Y-14640841D02*
X19186849Y-14631317D01*
X19186849Y-14631317D02*
X19158277Y-14631317D01*
X19158277Y-14631317D02*
X19139230Y-14621793D01*
X19139230Y-14621793D02*
X19129706Y-14602746D01*
X19129706Y-14602746D02*
X19129706Y-14593222D01*
X19129706Y-14593222D02*
X19139230Y-14574174D01*
X19139230Y-14574174D02*
X19158277Y-14564650D01*
X19158277Y-14564650D02*
X19186849Y-14564650D01*
X19186849Y-14564650D02*
X19205897Y-14574174D01*
X19282087Y-14774174D02*
X19291611Y-14764650D01*
X19291611Y-14764650D02*
X19310658Y-14736079D01*
X19310658Y-14736079D02*
X19320182Y-14717031D01*
X19320182Y-14717031D02*
X19329706Y-14688460D01*
X19329706Y-14688460D02*
X19339230Y-14640841D01*
X19339230Y-14640841D02*
X19339230Y-14602746D01*
X19339230Y-14602746D02*
X19329706Y-14555127D01*
X19329706Y-14555127D02*
X19320182Y-14526555D01*
X19320182Y-14526555D02*
X19310658Y-14507508D01*
X19310658Y-14507508D02*
X19291611Y-14478936D01*
X19291611Y-14478936D02*
X19282087Y-14469412D01*
D12*
X12650000Y-14823000D02*
X12650000Y-14918000D01*
X12602500Y-14870500D02*
X12697500Y-14870500D01*
D11*
X12996372Y-14761984D02*
X13015420Y-14761984D01*
X13015420Y-14761984D02*
X13034467Y-14771508D01*
X13034467Y-14771508D02*
X13043991Y-14781031D01*
X13043991Y-14781031D02*
X13053515Y-14800079D01*
X13053515Y-14800079D02*
X13063039Y-14838174D01*
X13063039Y-14838174D02*
X13063039Y-14885793D01*
X13063039Y-14885793D02*
X13053515Y-14923888D01*
X13053515Y-14923888D02*
X13043991Y-14942936D01*
X13043991Y-14942936D02*
X13034467Y-14952460D01*
X13034467Y-14952460D02*
X13015420Y-14961984D01*
X13015420Y-14961984D02*
X12996372Y-14961984D01*
X12996372Y-14961984D02*
X12977324Y-14952460D01*
X12977324Y-14952460D02*
X12967801Y-14942936D01*
X12967801Y-14942936D02*
X12958277Y-14923888D01*
X12958277Y-14923888D02*
X12948753Y-14885793D01*
X12948753Y-14885793D02*
X12948753Y-14838174D01*
X12948753Y-14838174D02*
X12958277Y-14800079D01*
X12958277Y-14800079D02*
X12967801Y-14781031D01*
X12967801Y-14781031D02*
X12977324Y-14771508D01*
X12977324Y-14771508D02*
X12996372Y-14761984D01*
X13148753Y-14942936D02*
X13158277Y-14952460D01*
X13158277Y-14952460D02*
X13148753Y-14961984D01*
X13148753Y-14961984D02*
X13139229Y-14952460D01*
X13139229Y-14952460D02*
X13148753Y-14942936D01*
X13148753Y-14942936D02*
X13148753Y-14961984D01*
X13253515Y-14961984D02*
X13291610Y-14961984D01*
X13291610Y-14961984D02*
X13310658Y-14952460D01*
X13310658Y-14952460D02*
X13320182Y-14942936D01*
X13320182Y-14942936D02*
X13339229Y-14914365D01*
X13339229Y-14914365D02*
X13348753Y-14876269D01*
X13348753Y-14876269D02*
X13348753Y-14800079D01*
X13348753Y-14800079D02*
X13339229Y-14781031D01*
X13339229Y-14781031D02*
X13329705Y-14771508D01*
X13329705Y-14771508D02*
X13310658Y-14761984D01*
X13310658Y-14761984D02*
X13272562Y-14761984D01*
X13272562Y-14761984D02*
X13253515Y-14771508D01*
X13253515Y-14771508D02*
X13243991Y-14781031D01*
X13243991Y-14781031D02*
X13234467Y-14800079D01*
X13234467Y-14800079D02*
X13234467Y-14847698D01*
X13234467Y-14847698D02*
X13243991Y-14866746D01*
X13243991Y-14866746D02*
X13253515Y-14876269D01*
X13253515Y-14876269D02*
X13272562Y-14885793D01*
X13272562Y-14885793D02*
X13310658Y-14885793D01*
X13310658Y-14885793D02*
X13329705Y-14876269D01*
X13329705Y-14876269D02*
X13339229Y-14866746D01*
X13339229Y-14866746D02*
X13348753Y-14847698D01*
X13529705Y-14761984D02*
X13434467Y-14761984D01*
X13434467Y-14761984D02*
X13424943Y-14857222D01*
X13424943Y-14857222D02*
X13434467Y-14847698D01*
X13434467Y-14847698D02*
X13453515Y-14838174D01*
X13453515Y-14838174D02*
X13501134Y-14838174D01*
X13501134Y-14838174D02*
X13520182Y-14847698D01*
X13520182Y-14847698D02*
X13529705Y-14857222D01*
X13529705Y-14857222D02*
X13539229Y-14876269D01*
X13539229Y-14876269D02*
X13539229Y-14923888D01*
X13539229Y-14923888D02*
X13529705Y-14942936D01*
X13529705Y-14942936D02*
X13520182Y-14952460D01*
X13520182Y-14952460D02*
X13501134Y-14961984D01*
X13501134Y-14961984D02*
X13453515Y-14961984D01*
X13453515Y-14961984D02*
X13434467Y-14952460D01*
X13434467Y-14952460D02*
X13424943Y-14942936D01*
X13663039Y-14761984D02*
X13682086Y-14761984D01*
X13682086Y-14761984D02*
X13701134Y-14771508D01*
X13701134Y-14771508D02*
X13710658Y-14781031D01*
X13710658Y-14781031D02*
X13720182Y-14800079D01*
X13720182Y-14800079D02*
X13729705Y-14838174D01*
X13729705Y-14838174D02*
X13729705Y-14885793D01*
X13729705Y-14885793D02*
X13720182Y-14923888D01*
X13720182Y-14923888D02*
X13710658Y-14942936D01*
X13710658Y-14942936D02*
X13701134Y-14952460D01*
X13701134Y-14952460D02*
X13682086Y-14961984D01*
X13682086Y-14961984D02*
X13663039Y-14961984D01*
X13663039Y-14961984D02*
X13643991Y-14952460D01*
X13643991Y-14952460D02*
X13634467Y-14942936D01*
X13634467Y-14942936D02*
X13624943Y-14923888D01*
X13624943Y-14923888D02*
X13615420Y-14885793D01*
X13615420Y-14885793D02*
X13615420Y-14838174D01*
X13615420Y-14838174D02*
X13624943Y-14800079D01*
X13624943Y-14800079D02*
X13634467Y-14781031D01*
X13634467Y-14781031D02*
X13643991Y-14771508D01*
X13643991Y-14771508D02*
X13663039Y-14761984D01*
X13815420Y-14961984D02*
X13815420Y-14828650D01*
X13815420Y-14847698D02*
X13824943Y-14838174D01*
X13824943Y-14838174D02*
X13843991Y-14828650D01*
X13843991Y-14828650D02*
X13872563Y-14828650D01*
X13872563Y-14828650D02*
X13891610Y-14838174D01*
X13891610Y-14838174D02*
X13901134Y-14857222D01*
X13901134Y-14857222D02*
X13901134Y-14961984D01*
X13901134Y-14857222D02*
X13910658Y-14838174D01*
X13910658Y-14838174D02*
X13929705Y-14828650D01*
X13929705Y-14828650D02*
X13958277Y-14828650D01*
X13958277Y-14828650D02*
X13977324Y-14838174D01*
X13977324Y-14838174D02*
X13986848Y-14857222D01*
X13986848Y-14857222D02*
X13986848Y-14961984D01*
X14082086Y-14961984D02*
X14082086Y-14828650D01*
X14082086Y-14847698D02*
X14091610Y-14838174D01*
X14091610Y-14838174D02*
X14110658Y-14828650D01*
X14110658Y-14828650D02*
X14139229Y-14828650D01*
X14139229Y-14828650D02*
X14158277Y-14838174D01*
X14158277Y-14838174D02*
X14167801Y-14857222D01*
X14167801Y-14857222D02*
X14167801Y-14961984D01*
X14167801Y-14857222D02*
X14177324Y-14838174D01*
X14177324Y-14838174D02*
X14196372Y-14828650D01*
X14196372Y-14828650D02*
X14224943Y-14828650D01*
X14224943Y-14828650D02*
X14243991Y-14838174D01*
X14243991Y-14838174D02*
X14253515Y-14857222D01*
X14253515Y-14857222D02*
X14253515Y-14961984D01*
X14643991Y-14752460D02*
X14472563Y-15009603D01*
X14901134Y-14761984D02*
X14920182Y-14761984D01*
X14920182Y-14761984D02*
X14939229Y-14771508D01*
X14939229Y-14771508D02*
X14948753Y-14781031D01*
X14948753Y-14781031D02*
X14958277Y-14800079D01*
X14958277Y-14800079D02*
X14967801Y-14838174D01*
X14967801Y-14838174D02*
X14967801Y-14885793D01*
X14967801Y-14885793D02*
X14958277Y-14923888D01*
X14958277Y-14923888D02*
X14948753Y-14942936D01*
X14948753Y-14942936D02*
X14939229Y-14952460D01*
X14939229Y-14952460D02*
X14920182Y-14961984D01*
X14920182Y-14961984D02*
X14901134Y-14961984D01*
X14901134Y-14961984D02*
X14882086Y-14952460D01*
X14882086Y-14952460D02*
X14872563Y-14942936D01*
X14872563Y-14942936D02*
X14863039Y-14923888D01*
X14863039Y-14923888D02*
X14853515Y-14885793D01*
X14853515Y-14885793D02*
X14853515Y-14838174D01*
X14853515Y-14838174D02*
X14863039Y-14800079D01*
X14863039Y-14800079D02*
X14872563Y-14781031D01*
X14872563Y-14781031D02*
X14882086Y-14771508D01*
X14882086Y-14771508D02*
X14901134Y-14761984D01*
X15053515Y-14942936D02*
X15063039Y-14952460D01*
X15063039Y-14952460D02*
X15053515Y-14961984D01*
X15053515Y-14961984D02*
X15043991Y-14952460D01*
X15043991Y-14952460D02*
X15053515Y-14942936D01*
X15053515Y-14942936D02*
X15053515Y-14961984D01*
X15186848Y-14761984D02*
X15205896Y-14761984D01*
X15205896Y-14761984D02*
X15224944Y-14771508D01*
X15224944Y-14771508D02*
X15234467Y-14781031D01*
X15234467Y-14781031D02*
X15243991Y-14800079D01*
X15243991Y-14800079D02*
X15253515Y-14838174D01*
X15253515Y-14838174D02*
X15253515Y-14885793D01*
X15253515Y-14885793D02*
X15243991Y-14923888D01*
X15243991Y-14923888D02*
X15234467Y-14942936D01*
X15234467Y-14942936D02*
X15224944Y-14952460D01*
X15224944Y-14952460D02*
X15205896Y-14961984D01*
X15205896Y-14961984D02*
X15186848Y-14961984D01*
X15186848Y-14961984D02*
X15167801Y-14952460D01*
X15167801Y-14952460D02*
X15158277Y-14942936D01*
X15158277Y-14942936D02*
X15148753Y-14923888D01*
X15148753Y-14923888D02*
X15139229Y-14885793D01*
X15139229Y-14885793D02*
X15139229Y-14838174D01*
X15139229Y-14838174D02*
X15148753Y-14800079D01*
X15148753Y-14800079D02*
X15158277Y-14781031D01*
X15158277Y-14781031D02*
X15167801Y-14771508D01*
X15167801Y-14771508D02*
X15186848Y-14761984D01*
X15320182Y-14761984D02*
X15443991Y-14761984D01*
X15443991Y-14761984D02*
X15377325Y-14838174D01*
X15377325Y-14838174D02*
X15405896Y-14838174D01*
X15405896Y-14838174D02*
X15424944Y-14847698D01*
X15424944Y-14847698D02*
X15434467Y-14857222D01*
X15434467Y-14857222D02*
X15443991Y-14876269D01*
X15443991Y-14876269D02*
X15443991Y-14923888D01*
X15443991Y-14923888D02*
X15434467Y-14942936D01*
X15434467Y-14942936D02*
X15424944Y-14952460D01*
X15424944Y-14952460D02*
X15405896Y-14961984D01*
X15405896Y-14961984D02*
X15348753Y-14961984D01*
X15348753Y-14961984D02*
X15329706Y-14952460D01*
X15329706Y-14952460D02*
X15320182Y-14942936D01*
X15510658Y-14761984D02*
X15643991Y-14761984D01*
X15643991Y-14761984D02*
X15558277Y-14961984D01*
X15805896Y-14828650D02*
X15805896Y-14961984D01*
X15758277Y-14752460D02*
X15710658Y-14895317D01*
X15710658Y-14895317D02*
X15834467Y-14895317D01*
X15901134Y-14761984D02*
X15901134Y-14800079D01*
X15977325Y-14761984D02*
X15977325Y-14800079D01*
X16272563Y-15038174D02*
X16263039Y-15028650D01*
X16263039Y-15028650D02*
X16243991Y-15000079D01*
X16243991Y-15000079D02*
X16234468Y-14981031D01*
X16234468Y-14981031D02*
X16224944Y-14952460D01*
X16224944Y-14952460D02*
X16215420Y-14904841D01*
X16215420Y-14904841D02*
X16215420Y-14866746D01*
X16215420Y-14866746D02*
X16224944Y-14819127D01*
X16224944Y-14819127D02*
X16234468Y-14790555D01*
X16234468Y-14790555D02*
X16243991Y-14771508D01*
X16243991Y-14771508D02*
X16263039Y-14742936D01*
X16263039Y-14742936D02*
X16272563Y-14733412D01*
X16453515Y-14961984D02*
X16339229Y-14961984D01*
X16396372Y-14961984D02*
X16396372Y-14761984D01*
X16396372Y-14761984D02*
X16377325Y-14790555D01*
X16377325Y-14790555D02*
X16358277Y-14809603D01*
X16358277Y-14809603D02*
X16339229Y-14819127D01*
X16643991Y-14961984D02*
X16529706Y-14961984D01*
X16586848Y-14961984D02*
X16586848Y-14761984D01*
X16586848Y-14761984D02*
X16567801Y-14790555D01*
X16567801Y-14790555D02*
X16548753Y-14809603D01*
X16548753Y-14809603D02*
X16529706Y-14819127D01*
X16882087Y-14961984D02*
X16882087Y-14761984D01*
X16967801Y-14961984D02*
X16967801Y-14857222D01*
X16967801Y-14857222D02*
X16958277Y-14838174D01*
X16958277Y-14838174D02*
X16939230Y-14828650D01*
X16939230Y-14828650D02*
X16910658Y-14828650D01*
X16910658Y-14828650D02*
X16891611Y-14838174D01*
X16891611Y-14838174D02*
X16882087Y-14847698D01*
X17091611Y-14961984D02*
X17072563Y-14952460D01*
X17072563Y-14952460D02*
X17063039Y-14942936D01*
X17063039Y-14942936D02*
X17053515Y-14923888D01*
X17053515Y-14923888D02*
X17053515Y-14866746D01*
X17053515Y-14866746D02*
X17063039Y-14847698D01*
X17063039Y-14847698D02*
X17072563Y-14838174D01*
X17072563Y-14838174D02*
X17091611Y-14828650D01*
X17091611Y-14828650D02*
X17120182Y-14828650D01*
X17120182Y-14828650D02*
X17139230Y-14838174D01*
X17139230Y-14838174D02*
X17148753Y-14847698D01*
X17148753Y-14847698D02*
X17158277Y-14866746D01*
X17158277Y-14866746D02*
X17158277Y-14923888D01*
X17158277Y-14923888D02*
X17148753Y-14942936D01*
X17148753Y-14942936D02*
X17139230Y-14952460D01*
X17139230Y-14952460D02*
X17120182Y-14961984D01*
X17120182Y-14961984D02*
X17091611Y-14961984D01*
X17272563Y-14961984D02*
X17253515Y-14952460D01*
X17253515Y-14952460D02*
X17243992Y-14933412D01*
X17243992Y-14933412D02*
X17243992Y-14761984D01*
X17424944Y-14952460D02*
X17405896Y-14961984D01*
X17405896Y-14961984D02*
X17367801Y-14961984D01*
X17367801Y-14961984D02*
X17348753Y-14952460D01*
X17348753Y-14952460D02*
X17339230Y-14933412D01*
X17339230Y-14933412D02*
X17339230Y-14857222D01*
X17339230Y-14857222D02*
X17348753Y-14838174D01*
X17348753Y-14838174D02*
X17367801Y-14828650D01*
X17367801Y-14828650D02*
X17405896Y-14828650D01*
X17405896Y-14828650D02*
X17424944Y-14838174D01*
X17424944Y-14838174D02*
X17434468Y-14857222D01*
X17434468Y-14857222D02*
X17434468Y-14876269D01*
X17434468Y-14876269D02*
X17339230Y-14895317D01*
X17510658Y-14952460D02*
X17529706Y-14961984D01*
X17529706Y-14961984D02*
X17567801Y-14961984D01*
X17567801Y-14961984D02*
X17586849Y-14952460D01*
X17586849Y-14952460D02*
X17596373Y-14933412D01*
X17596373Y-14933412D02*
X17596373Y-14923888D01*
X17596373Y-14923888D02*
X17586849Y-14904841D01*
X17586849Y-14904841D02*
X17567801Y-14895317D01*
X17567801Y-14895317D02*
X17539230Y-14895317D01*
X17539230Y-14895317D02*
X17520182Y-14885793D01*
X17520182Y-14885793D02*
X17510658Y-14866746D01*
X17510658Y-14866746D02*
X17510658Y-14857222D01*
X17510658Y-14857222D02*
X17520182Y-14838174D01*
X17520182Y-14838174D02*
X17539230Y-14828650D01*
X17539230Y-14828650D02*
X17567801Y-14828650D01*
X17567801Y-14828650D02*
X17586849Y-14838174D01*
X17663039Y-15038174D02*
X17672563Y-15028650D01*
X17672563Y-15028650D02*
X17691611Y-15000079D01*
X17691611Y-15000079D02*
X17701134Y-14981031D01*
X17701134Y-14981031D02*
X17710658Y-14952460D01*
X17710658Y-14952460D02*
X17720182Y-14904841D01*
X17720182Y-14904841D02*
X17720182Y-14866746D01*
X17720182Y-14866746D02*
X17710658Y-14819127D01*
X17710658Y-14819127D02*
X17701134Y-14790555D01*
X17701134Y-14790555D02*
X17691611Y-14771508D01*
X17691611Y-14771508D02*
X17672563Y-14742936D01*
X17672563Y-14742936D02*
X17663039Y-14733412D01*
D12*
X12682856Y-15169856D02*
X12682856Y-15099144D01*
X12612144Y-15099144D01*
X12612144Y-15169856D01*
X12682856Y-15169856D01*
D11*
X13063039Y-15225984D02*
X12948753Y-15225984D01*
X13005896Y-15225984D02*
X13005896Y-15025984D01*
X13005896Y-15025984D02*
X12986848Y-15054555D01*
X12986848Y-15054555D02*
X12967801Y-15073603D01*
X12967801Y-15073603D02*
X12948753Y-15083127D01*
X13148753Y-15206936D02*
X13158277Y-15216460D01*
X13158277Y-15216460D02*
X13148753Y-15225984D01*
X13148753Y-15225984D02*
X13139229Y-15216460D01*
X13139229Y-15216460D02*
X13148753Y-15206936D01*
X13148753Y-15206936D02*
X13148753Y-15225984D01*
X13282086Y-15025984D02*
X13301134Y-15025984D01*
X13301134Y-15025984D02*
X13320182Y-15035508D01*
X13320182Y-15035508D02*
X13329705Y-15045031D01*
X13329705Y-15045031D02*
X13339229Y-15064079D01*
X13339229Y-15064079D02*
X13348753Y-15102174D01*
X13348753Y-15102174D02*
X13348753Y-15149793D01*
X13348753Y-15149793D02*
X13339229Y-15187888D01*
X13339229Y-15187888D02*
X13329705Y-15206936D01*
X13329705Y-15206936D02*
X13320182Y-15216460D01*
X13320182Y-15216460D02*
X13301134Y-15225984D01*
X13301134Y-15225984D02*
X13282086Y-15225984D01*
X13282086Y-15225984D02*
X13263039Y-15216460D01*
X13263039Y-15216460D02*
X13253515Y-15206936D01*
X13253515Y-15206936D02*
X13243991Y-15187888D01*
X13243991Y-15187888D02*
X13234467Y-15149793D01*
X13234467Y-15149793D02*
X13234467Y-15102174D01*
X13234467Y-15102174D02*
X13243991Y-15064079D01*
X13243991Y-15064079D02*
X13253515Y-15045031D01*
X13253515Y-15045031D02*
X13263039Y-15035508D01*
X13263039Y-15035508D02*
X13282086Y-15025984D01*
X13472562Y-15025984D02*
X13491610Y-15025984D01*
X13491610Y-15025984D02*
X13510658Y-15035508D01*
X13510658Y-15035508D02*
X13520182Y-15045031D01*
X13520182Y-15045031D02*
X13529705Y-15064079D01*
X13529705Y-15064079D02*
X13539229Y-15102174D01*
X13539229Y-15102174D02*
X13539229Y-15149793D01*
X13539229Y-15149793D02*
X13529705Y-15187888D01*
X13529705Y-15187888D02*
X13520182Y-15206936D01*
X13520182Y-15206936D02*
X13510658Y-15216460D01*
X13510658Y-15216460D02*
X13491610Y-15225984D01*
X13491610Y-15225984D02*
X13472562Y-15225984D01*
X13472562Y-15225984D02*
X13453515Y-15216460D01*
X13453515Y-15216460D02*
X13443991Y-15206936D01*
X13443991Y-15206936D02*
X13434467Y-15187888D01*
X13434467Y-15187888D02*
X13424943Y-15149793D01*
X13424943Y-15149793D02*
X13424943Y-15102174D01*
X13424943Y-15102174D02*
X13434467Y-15064079D01*
X13434467Y-15064079D02*
X13443991Y-15045031D01*
X13443991Y-15045031D02*
X13453515Y-15035508D01*
X13453515Y-15035508D02*
X13472562Y-15025984D01*
X13663039Y-15025984D02*
X13682086Y-15025984D01*
X13682086Y-15025984D02*
X13701134Y-15035508D01*
X13701134Y-15035508D02*
X13710658Y-15045031D01*
X13710658Y-15045031D02*
X13720182Y-15064079D01*
X13720182Y-15064079D02*
X13729705Y-15102174D01*
X13729705Y-15102174D02*
X13729705Y-15149793D01*
X13729705Y-15149793D02*
X13720182Y-15187888D01*
X13720182Y-15187888D02*
X13710658Y-15206936D01*
X13710658Y-15206936D02*
X13701134Y-15216460D01*
X13701134Y-15216460D02*
X13682086Y-15225984D01*
X13682086Y-15225984D02*
X13663039Y-15225984D01*
X13663039Y-15225984D02*
X13643991Y-15216460D01*
X13643991Y-15216460D02*
X13634467Y-15206936D01*
X13634467Y-15206936D02*
X13624943Y-15187888D01*
X13624943Y-15187888D02*
X13615420Y-15149793D01*
X13615420Y-15149793D02*
X13615420Y-15102174D01*
X13615420Y-15102174D02*
X13624943Y-15064079D01*
X13624943Y-15064079D02*
X13634467Y-15045031D01*
X13634467Y-15045031D02*
X13643991Y-15035508D01*
X13643991Y-15035508D02*
X13663039Y-15025984D01*
X13815420Y-15225984D02*
X13815420Y-15092650D01*
X13815420Y-15111698D02*
X13824943Y-15102174D01*
X13824943Y-15102174D02*
X13843991Y-15092650D01*
X13843991Y-15092650D02*
X13872563Y-15092650D01*
X13872563Y-15092650D02*
X13891610Y-15102174D01*
X13891610Y-15102174D02*
X13901134Y-15121222D01*
X13901134Y-15121222D02*
X13901134Y-15225984D01*
X13901134Y-15121222D02*
X13910658Y-15102174D01*
X13910658Y-15102174D02*
X13929705Y-15092650D01*
X13929705Y-15092650D02*
X13958277Y-15092650D01*
X13958277Y-15092650D02*
X13977324Y-15102174D01*
X13977324Y-15102174D02*
X13986848Y-15121222D01*
X13986848Y-15121222D02*
X13986848Y-15225984D01*
X14082086Y-15225984D02*
X14082086Y-15092650D01*
X14082086Y-15111698D02*
X14091610Y-15102174D01*
X14091610Y-15102174D02*
X14110658Y-15092650D01*
X14110658Y-15092650D02*
X14139229Y-15092650D01*
X14139229Y-15092650D02*
X14158277Y-15102174D01*
X14158277Y-15102174D02*
X14167801Y-15121222D01*
X14167801Y-15121222D02*
X14167801Y-15225984D01*
X14167801Y-15121222D02*
X14177324Y-15102174D01*
X14177324Y-15102174D02*
X14196372Y-15092650D01*
X14196372Y-15092650D02*
X14224943Y-15092650D01*
X14224943Y-15092650D02*
X14243991Y-15102174D01*
X14243991Y-15102174D02*
X14253515Y-15121222D01*
X14253515Y-15121222D02*
X14253515Y-15225984D01*
X14643991Y-15016460D02*
X14472563Y-15273603D01*
X14901134Y-15025984D02*
X14920182Y-15025984D01*
X14920182Y-15025984D02*
X14939229Y-15035508D01*
X14939229Y-15035508D02*
X14948753Y-15045031D01*
X14948753Y-15045031D02*
X14958277Y-15064079D01*
X14958277Y-15064079D02*
X14967801Y-15102174D01*
X14967801Y-15102174D02*
X14967801Y-15149793D01*
X14967801Y-15149793D02*
X14958277Y-15187888D01*
X14958277Y-15187888D02*
X14948753Y-15206936D01*
X14948753Y-15206936D02*
X14939229Y-15216460D01*
X14939229Y-15216460D02*
X14920182Y-15225984D01*
X14920182Y-15225984D02*
X14901134Y-15225984D01*
X14901134Y-15225984D02*
X14882086Y-15216460D01*
X14882086Y-15216460D02*
X14872563Y-15206936D01*
X14872563Y-15206936D02*
X14863039Y-15187888D01*
X14863039Y-15187888D02*
X14853515Y-15149793D01*
X14853515Y-15149793D02*
X14853515Y-15102174D01*
X14853515Y-15102174D02*
X14863039Y-15064079D01*
X14863039Y-15064079D02*
X14872563Y-15045031D01*
X14872563Y-15045031D02*
X14882086Y-15035508D01*
X14882086Y-15035508D02*
X14901134Y-15025984D01*
X15053515Y-15206936D02*
X15063039Y-15216460D01*
X15063039Y-15216460D02*
X15053515Y-15225984D01*
X15053515Y-15225984D02*
X15043991Y-15216460D01*
X15043991Y-15216460D02*
X15053515Y-15206936D01*
X15053515Y-15206936D02*
X15053515Y-15225984D01*
X15186848Y-15025984D02*
X15205896Y-15025984D01*
X15205896Y-15025984D02*
X15224944Y-15035508D01*
X15224944Y-15035508D02*
X15234467Y-15045031D01*
X15234467Y-15045031D02*
X15243991Y-15064079D01*
X15243991Y-15064079D02*
X15253515Y-15102174D01*
X15253515Y-15102174D02*
X15253515Y-15149793D01*
X15253515Y-15149793D02*
X15243991Y-15187888D01*
X15243991Y-15187888D02*
X15234467Y-15206936D01*
X15234467Y-15206936D02*
X15224944Y-15216460D01*
X15224944Y-15216460D02*
X15205896Y-15225984D01*
X15205896Y-15225984D02*
X15186848Y-15225984D01*
X15186848Y-15225984D02*
X15167801Y-15216460D01*
X15167801Y-15216460D02*
X15158277Y-15206936D01*
X15158277Y-15206936D02*
X15148753Y-15187888D01*
X15148753Y-15187888D02*
X15139229Y-15149793D01*
X15139229Y-15149793D02*
X15139229Y-15102174D01*
X15139229Y-15102174D02*
X15148753Y-15064079D01*
X15148753Y-15064079D02*
X15158277Y-15045031D01*
X15158277Y-15045031D02*
X15167801Y-15035508D01*
X15167801Y-15035508D02*
X15186848Y-15025984D01*
X15320182Y-15025984D02*
X15443991Y-15025984D01*
X15443991Y-15025984D02*
X15377325Y-15102174D01*
X15377325Y-15102174D02*
X15405896Y-15102174D01*
X15405896Y-15102174D02*
X15424944Y-15111698D01*
X15424944Y-15111698D02*
X15434467Y-15121222D01*
X15434467Y-15121222D02*
X15443991Y-15140269D01*
X15443991Y-15140269D02*
X15443991Y-15187888D01*
X15443991Y-15187888D02*
X15434467Y-15206936D01*
X15434467Y-15206936D02*
X15424944Y-15216460D01*
X15424944Y-15216460D02*
X15405896Y-15225984D01*
X15405896Y-15225984D02*
X15348753Y-15225984D01*
X15348753Y-15225984D02*
X15329706Y-15216460D01*
X15329706Y-15216460D02*
X15320182Y-15206936D01*
X15539229Y-15225984D02*
X15577325Y-15225984D01*
X15577325Y-15225984D02*
X15596372Y-15216460D01*
X15596372Y-15216460D02*
X15605896Y-15206936D01*
X15605896Y-15206936D02*
X15624944Y-15178365D01*
X15624944Y-15178365D02*
X15634467Y-15140269D01*
X15634467Y-15140269D02*
X15634467Y-15064079D01*
X15634467Y-15064079D02*
X15624944Y-15045031D01*
X15624944Y-15045031D02*
X15615420Y-15035508D01*
X15615420Y-15035508D02*
X15596372Y-15025984D01*
X15596372Y-15025984D02*
X15558277Y-15025984D01*
X15558277Y-15025984D02*
X15539229Y-15035508D01*
X15539229Y-15035508D02*
X15529706Y-15045031D01*
X15529706Y-15045031D02*
X15520182Y-15064079D01*
X15520182Y-15064079D02*
X15520182Y-15111698D01*
X15520182Y-15111698D02*
X15529706Y-15130746D01*
X15529706Y-15130746D02*
X15539229Y-15140269D01*
X15539229Y-15140269D02*
X15558277Y-15149793D01*
X15558277Y-15149793D02*
X15596372Y-15149793D01*
X15596372Y-15149793D02*
X15615420Y-15140269D01*
X15615420Y-15140269D02*
X15624944Y-15130746D01*
X15624944Y-15130746D02*
X15634467Y-15111698D01*
X15805896Y-15092650D02*
X15805896Y-15225984D01*
X15758277Y-15016460D02*
X15710658Y-15159317D01*
X15710658Y-15159317D02*
X15834467Y-15159317D01*
X15901134Y-15025984D02*
X15901134Y-15064079D01*
X15977325Y-15025984D02*
X15977325Y-15064079D01*
X16272563Y-15302174D02*
X16263039Y-15292650D01*
X16263039Y-15292650D02*
X16243991Y-15264079D01*
X16243991Y-15264079D02*
X16234468Y-15245031D01*
X16234468Y-15245031D02*
X16224944Y-15216460D01*
X16224944Y-15216460D02*
X16215420Y-15168841D01*
X16215420Y-15168841D02*
X16215420Y-15130746D01*
X16215420Y-15130746D02*
X16224944Y-15083127D01*
X16224944Y-15083127D02*
X16234468Y-15054555D01*
X16234468Y-15054555D02*
X16243991Y-15035508D01*
X16243991Y-15035508D02*
X16263039Y-15006936D01*
X16263039Y-15006936D02*
X16272563Y-14997412D01*
X16443991Y-15025984D02*
X16348753Y-15025984D01*
X16348753Y-15025984D02*
X16339229Y-15121222D01*
X16339229Y-15121222D02*
X16348753Y-15111698D01*
X16348753Y-15111698D02*
X16367801Y-15102174D01*
X16367801Y-15102174D02*
X16415420Y-15102174D01*
X16415420Y-15102174D02*
X16434468Y-15111698D01*
X16434468Y-15111698D02*
X16443991Y-15121222D01*
X16443991Y-15121222D02*
X16453515Y-15140269D01*
X16453515Y-15140269D02*
X16453515Y-15187888D01*
X16453515Y-15187888D02*
X16443991Y-15206936D01*
X16443991Y-15206936D02*
X16434468Y-15216460D01*
X16434468Y-15216460D02*
X16415420Y-15225984D01*
X16415420Y-15225984D02*
X16367801Y-15225984D01*
X16367801Y-15225984D02*
X16348753Y-15216460D01*
X16348753Y-15216460D02*
X16339229Y-15206936D01*
X16691610Y-15225984D02*
X16691610Y-15025984D01*
X16777325Y-15225984D02*
X16777325Y-15121222D01*
X16777325Y-15121222D02*
X16767801Y-15102174D01*
X16767801Y-15102174D02*
X16748753Y-15092650D01*
X16748753Y-15092650D02*
X16720182Y-15092650D01*
X16720182Y-15092650D02*
X16701134Y-15102174D01*
X16701134Y-15102174D02*
X16691610Y-15111698D01*
X16901134Y-15225984D02*
X16882087Y-15216460D01*
X16882087Y-15216460D02*
X16872563Y-15206936D01*
X16872563Y-15206936D02*
X16863039Y-15187888D01*
X16863039Y-15187888D02*
X16863039Y-15130746D01*
X16863039Y-15130746D02*
X16872563Y-15111698D01*
X16872563Y-15111698D02*
X16882087Y-15102174D01*
X16882087Y-15102174D02*
X16901134Y-15092650D01*
X16901134Y-15092650D02*
X16929706Y-15092650D01*
X16929706Y-15092650D02*
X16948753Y-15102174D01*
X16948753Y-15102174D02*
X16958277Y-15111698D01*
X16958277Y-15111698D02*
X16967801Y-15130746D01*
X16967801Y-15130746D02*
X16967801Y-15187888D01*
X16967801Y-15187888D02*
X16958277Y-15206936D01*
X16958277Y-15206936D02*
X16948753Y-15216460D01*
X16948753Y-15216460D02*
X16929706Y-15225984D01*
X16929706Y-15225984D02*
X16901134Y-15225984D01*
X17082087Y-15225984D02*
X17063039Y-15216460D01*
X17063039Y-15216460D02*
X17053515Y-15197412D01*
X17053515Y-15197412D02*
X17053515Y-15025984D01*
X17234468Y-15216460D02*
X17215420Y-15225984D01*
X17215420Y-15225984D02*
X17177325Y-15225984D01*
X17177325Y-15225984D02*
X17158277Y-15216460D01*
X17158277Y-15216460D02*
X17148753Y-15197412D01*
X17148753Y-15197412D02*
X17148753Y-15121222D01*
X17148753Y-15121222D02*
X17158277Y-15102174D01*
X17158277Y-15102174D02*
X17177325Y-15092650D01*
X17177325Y-15092650D02*
X17215420Y-15092650D01*
X17215420Y-15092650D02*
X17234468Y-15102174D01*
X17234468Y-15102174D02*
X17243992Y-15121222D01*
X17243992Y-15121222D02*
X17243992Y-15140269D01*
X17243992Y-15140269D02*
X17148753Y-15159317D01*
X17320182Y-15216460D02*
X17339230Y-15225984D01*
X17339230Y-15225984D02*
X17377325Y-15225984D01*
X17377325Y-15225984D02*
X17396373Y-15216460D01*
X17396373Y-15216460D02*
X17405896Y-15197412D01*
X17405896Y-15197412D02*
X17405896Y-15187888D01*
X17405896Y-15187888D02*
X17396373Y-15168841D01*
X17396373Y-15168841D02*
X17377325Y-15159317D01*
X17377325Y-15159317D02*
X17348753Y-15159317D01*
X17348753Y-15159317D02*
X17329706Y-15149793D01*
X17329706Y-15149793D02*
X17320182Y-15130746D01*
X17320182Y-15130746D02*
X17320182Y-15121222D01*
X17320182Y-15121222D02*
X17329706Y-15102174D01*
X17329706Y-15102174D02*
X17348753Y-15092650D01*
X17348753Y-15092650D02*
X17377325Y-15092650D01*
X17377325Y-15092650D02*
X17396373Y-15102174D01*
X17472563Y-15302174D02*
X17482087Y-15292650D01*
X17482087Y-15292650D02*
X17501134Y-15264079D01*
X17501134Y-15264079D02*
X17510658Y-15245031D01*
X17510658Y-15245031D02*
X17520182Y-15216460D01*
X17520182Y-15216460D02*
X17529706Y-15168841D01*
X17529706Y-15168841D02*
X17529706Y-15130746D01*
X17529706Y-15130746D02*
X17520182Y-15083127D01*
X17520182Y-15083127D02*
X17510658Y-15054555D01*
X17510658Y-15054555D02*
X17501134Y-15035508D01*
X17501134Y-15035508D02*
X17482087Y-15006936D01*
X17482087Y-15006936D02*
X17472563Y-14997412D01*
D13*
X12602500Y-15493500D02*
X12697500Y-15398500D01*
X12602500Y-15303500D01*
X12507500Y-15398500D01*
X12602500Y-15493500D01*
D11*
X13063039Y-15489984D02*
X12948753Y-15489984D01*
X13005896Y-15489984D02*
X13005896Y-15289984D01*
X13005896Y-15289984D02*
X12986848Y-15318555D01*
X12986848Y-15318555D02*
X12967801Y-15337603D01*
X12967801Y-15337603D02*
X12948753Y-15347127D01*
X13148753Y-15470936D02*
X13158277Y-15480460D01*
X13158277Y-15480460D02*
X13148753Y-15489984D01*
X13148753Y-15489984D02*
X13139229Y-15480460D01*
X13139229Y-15480460D02*
X13148753Y-15470936D01*
X13148753Y-15470936D02*
X13148753Y-15489984D01*
X13253515Y-15489984D02*
X13291610Y-15489984D01*
X13291610Y-15489984D02*
X13310658Y-15480460D01*
X13310658Y-15480460D02*
X13320182Y-15470936D01*
X13320182Y-15470936D02*
X13339229Y-15442365D01*
X13339229Y-15442365D02*
X13348753Y-15404269D01*
X13348753Y-15404269D02*
X13348753Y-15328079D01*
X13348753Y-15328079D02*
X13339229Y-15309031D01*
X13339229Y-15309031D02*
X13329705Y-15299508D01*
X13329705Y-15299508D02*
X13310658Y-15289984D01*
X13310658Y-15289984D02*
X13272562Y-15289984D01*
X13272562Y-15289984D02*
X13253515Y-15299508D01*
X13253515Y-15299508D02*
X13243991Y-15309031D01*
X13243991Y-15309031D02*
X13234467Y-15328079D01*
X13234467Y-15328079D02*
X13234467Y-15375698D01*
X13234467Y-15375698D02*
X13243991Y-15394746D01*
X13243991Y-15394746D02*
X13253515Y-15404269D01*
X13253515Y-15404269D02*
X13272562Y-15413793D01*
X13272562Y-15413793D02*
X13310658Y-15413793D01*
X13310658Y-15413793D02*
X13329705Y-15404269D01*
X13329705Y-15404269D02*
X13339229Y-15394746D01*
X13339229Y-15394746D02*
X13348753Y-15375698D01*
X13472562Y-15289984D02*
X13491610Y-15289984D01*
X13491610Y-15289984D02*
X13510658Y-15299508D01*
X13510658Y-15299508D02*
X13520182Y-15309031D01*
X13520182Y-15309031D02*
X13529705Y-15328079D01*
X13529705Y-15328079D02*
X13539229Y-15366174D01*
X13539229Y-15366174D02*
X13539229Y-15413793D01*
X13539229Y-15413793D02*
X13529705Y-15451888D01*
X13529705Y-15451888D02*
X13520182Y-15470936D01*
X13520182Y-15470936D02*
X13510658Y-15480460D01*
X13510658Y-15480460D02*
X13491610Y-15489984D01*
X13491610Y-15489984D02*
X13472562Y-15489984D01*
X13472562Y-15489984D02*
X13453515Y-15480460D01*
X13453515Y-15480460D02*
X13443991Y-15470936D01*
X13443991Y-15470936D02*
X13434467Y-15451888D01*
X13434467Y-15451888D02*
X13424943Y-15413793D01*
X13424943Y-15413793D02*
X13424943Y-15366174D01*
X13424943Y-15366174D02*
X13434467Y-15328079D01*
X13434467Y-15328079D02*
X13443991Y-15309031D01*
X13443991Y-15309031D02*
X13453515Y-15299508D01*
X13453515Y-15299508D02*
X13472562Y-15289984D01*
X13663039Y-15289984D02*
X13682086Y-15289984D01*
X13682086Y-15289984D02*
X13701134Y-15299508D01*
X13701134Y-15299508D02*
X13710658Y-15309031D01*
X13710658Y-15309031D02*
X13720182Y-15328079D01*
X13720182Y-15328079D02*
X13729705Y-15366174D01*
X13729705Y-15366174D02*
X13729705Y-15413793D01*
X13729705Y-15413793D02*
X13720182Y-15451888D01*
X13720182Y-15451888D02*
X13710658Y-15470936D01*
X13710658Y-15470936D02*
X13701134Y-15480460D01*
X13701134Y-15480460D02*
X13682086Y-15489984D01*
X13682086Y-15489984D02*
X13663039Y-15489984D01*
X13663039Y-15489984D02*
X13643991Y-15480460D01*
X13643991Y-15480460D02*
X13634467Y-15470936D01*
X13634467Y-15470936D02*
X13624943Y-15451888D01*
X13624943Y-15451888D02*
X13615420Y-15413793D01*
X13615420Y-15413793D02*
X13615420Y-15366174D01*
X13615420Y-15366174D02*
X13624943Y-15328079D01*
X13624943Y-15328079D02*
X13634467Y-15309031D01*
X13634467Y-15309031D02*
X13643991Y-15299508D01*
X13643991Y-15299508D02*
X13663039Y-15289984D01*
X13815420Y-15489984D02*
X13815420Y-15356650D01*
X13815420Y-15375698D02*
X13824943Y-15366174D01*
X13824943Y-15366174D02*
X13843991Y-15356650D01*
X13843991Y-15356650D02*
X13872563Y-15356650D01*
X13872563Y-15356650D02*
X13891610Y-15366174D01*
X13891610Y-15366174D02*
X13901134Y-15385222D01*
X13901134Y-15385222D02*
X13901134Y-15489984D01*
X13901134Y-15385222D02*
X13910658Y-15366174D01*
X13910658Y-15366174D02*
X13929705Y-15356650D01*
X13929705Y-15356650D02*
X13958277Y-15356650D01*
X13958277Y-15356650D02*
X13977324Y-15366174D01*
X13977324Y-15366174D02*
X13986848Y-15385222D01*
X13986848Y-15385222D02*
X13986848Y-15489984D01*
X14082086Y-15489984D02*
X14082086Y-15356650D01*
X14082086Y-15375698D02*
X14091610Y-15366174D01*
X14091610Y-15366174D02*
X14110658Y-15356650D01*
X14110658Y-15356650D02*
X14139229Y-15356650D01*
X14139229Y-15356650D02*
X14158277Y-15366174D01*
X14158277Y-15366174D02*
X14167801Y-15385222D01*
X14167801Y-15385222D02*
X14167801Y-15489984D01*
X14167801Y-15385222D02*
X14177324Y-15366174D01*
X14177324Y-15366174D02*
X14196372Y-15356650D01*
X14196372Y-15356650D02*
X14224943Y-15356650D01*
X14224943Y-15356650D02*
X14243991Y-15366174D01*
X14243991Y-15366174D02*
X14253515Y-15385222D01*
X14253515Y-15385222D02*
X14253515Y-15489984D01*
X14643991Y-15280460D02*
X14472563Y-15537603D01*
X14901134Y-15289984D02*
X14920182Y-15289984D01*
X14920182Y-15289984D02*
X14939229Y-15299508D01*
X14939229Y-15299508D02*
X14948753Y-15309031D01*
X14948753Y-15309031D02*
X14958277Y-15328079D01*
X14958277Y-15328079D02*
X14967801Y-15366174D01*
X14967801Y-15366174D02*
X14967801Y-15413793D01*
X14967801Y-15413793D02*
X14958277Y-15451888D01*
X14958277Y-15451888D02*
X14948753Y-15470936D01*
X14948753Y-15470936D02*
X14939229Y-15480460D01*
X14939229Y-15480460D02*
X14920182Y-15489984D01*
X14920182Y-15489984D02*
X14901134Y-15489984D01*
X14901134Y-15489984D02*
X14882086Y-15480460D01*
X14882086Y-15480460D02*
X14872563Y-15470936D01*
X14872563Y-15470936D02*
X14863039Y-15451888D01*
X14863039Y-15451888D02*
X14853515Y-15413793D01*
X14853515Y-15413793D02*
X14853515Y-15366174D01*
X14853515Y-15366174D02*
X14863039Y-15328079D01*
X14863039Y-15328079D02*
X14872563Y-15309031D01*
X14872563Y-15309031D02*
X14882086Y-15299508D01*
X14882086Y-15299508D02*
X14901134Y-15289984D01*
X15053515Y-15470936D02*
X15063039Y-15480460D01*
X15063039Y-15480460D02*
X15053515Y-15489984D01*
X15053515Y-15489984D02*
X15043991Y-15480460D01*
X15043991Y-15480460D02*
X15053515Y-15470936D01*
X15053515Y-15470936D02*
X15053515Y-15489984D01*
X15186848Y-15289984D02*
X15205896Y-15289984D01*
X15205896Y-15289984D02*
X15224944Y-15299508D01*
X15224944Y-15299508D02*
X15234467Y-15309031D01*
X15234467Y-15309031D02*
X15243991Y-15328079D01*
X15243991Y-15328079D02*
X15253515Y-15366174D01*
X15253515Y-15366174D02*
X15253515Y-15413793D01*
X15253515Y-15413793D02*
X15243991Y-15451888D01*
X15243991Y-15451888D02*
X15234467Y-15470936D01*
X15234467Y-15470936D02*
X15224944Y-15480460D01*
X15224944Y-15480460D02*
X15205896Y-15489984D01*
X15205896Y-15489984D02*
X15186848Y-15489984D01*
X15186848Y-15489984D02*
X15167801Y-15480460D01*
X15167801Y-15480460D02*
X15158277Y-15470936D01*
X15158277Y-15470936D02*
X15148753Y-15451888D01*
X15148753Y-15451888D02*
X15139229Y-15413793D01*
X15139229Y-15413793D02*
X15139229Y-15366174D01*
X15139229Y-15366174D02*
X15148753Y-15328079D01*
X15148753Y-15328079D02*
X15158277Y-15309031D01*
X15158277Y-15309031D02*
X15167801Y-15299508D01*
X15167801Y-15299508D02*
X15186848Y-15289984D01*
X15320182Y-15289984D02*
X15453515Y-15289984D01*
X15453515Y-15289984D02*
X15367801Y-15489984D01*
X15615420Y-15356650D02*
X15615420Y-15489984D01*
X15567801Y-15280460D02*
X15520182Y-15423317D01*
X15520182Y-15423317D02*
X15643991Y-15423317D01*
X15748753Y-15375698D02*
X15729706Y-15366174D01*
X15729706Y-15366174D02*
X15720182Y-15356650D01*
X15720182Y-15356650D02*
X15710658Y-15337603D01*
X15710658Y-15337603D02*
X15710658Y-15328079D01*
X15710658Y-15328079D02*
X15720182Y-15309031D01*
X15720182Y-15309031D02*
X15729706Y-15299508D01*
X15729706Y-15299508D02*
X15748753Y-15289984D01*
X15748753Y-15289984D02*
X15786848Y-15289984D01*
X15786848Y-15289984D02*
X15805896Y-15299508D01*
X15805896Y-15299508D02*
X15815420Y-15309031D01*
X15815420Y-15309031D02*
X15824944Y-15328079D01*
X15824944Y-15328079D02*
X15824944Y-15337603D01*
X15824944Y-15337603D02*
X15815420Y-15356650D01*
X15815420Y-15356650D02*
X15805896Y-15366174D01*
X15805896Y-15366174D02*
X15786848Y-15375698D01*
X15786848Y-15375698D02*
X15748753Y-15375698D01*
X15748753Y-15375698D02*
X15729706Y-15385222D01*
X15729706Y-15385222D02*
X15720182Y-15394746D01*
X15720182Y-15394746D02*
X15710658Y-15413793D01*
X15710658Y-15413793D02*
X15710658Y-15451888D01*
X15710658Y-15451888D02*
X15720182Y-15470936D01*
X15720182Y-15470936D02*
X15729706Y-15480460D01*
X15729706Y-15480460D02*
X15748753Y-15489984D01*
X15748753Y-15489984D02*
X15786848Y-15489984D01*
X15786848Y-15489984D02*
X15805896Y-15480460D01*
X15805896Y-15480460D02*
X15815420Y-15470936D01*
X15815420Y-15470936D02*
X15824944Y-15451888D01*
X15824944Y-15451888D02*
X15824944Y-15413793D01*
X15824944Y-15413793D02*
X15815420Y-15394746D01*
X15815420Y-15394746D02*
X15805896Y-15385222D01*
X15805896Y-15385222D02*
X15786848Y-15375698D01*
X15901134Y-15289984D02*
X15901134Y-15328079D01*
X15977325Y-15289984D02*
X15977325Y-15328079D01*
X16272563Y-15566174D02*
X16263039Y-15556650D01*
X16263039Y-15556650D02*
X16243991Y-15528079D01*
X16243991Y-15528079D02*
X16234468Y-15509031D01*
X16234468Y-15509031D02*
X16224944Y-15480460D01*
X16224944Y-15480460D02*
X16215420Y-15432841D01*
X16215420Y-15432841D02*
X16215420Y-15394746D01*
X16215420Y-15394746D02*
X16224944Y-15347127D01*
X16224944Y-15347127D02*
X16234468Y-15318555D01*
X16234468Y-15318555D02*
X16243991Y-15299508D01*
X16243991Y-15299508D02*
X16263039Y-15270936D01*
X16263039Y-15270936D02*
X16272563Y-15261412D01*
X16329706Y-15289984D02*
X16453515Y-15289984D01*
X16453515Y-15289984D02*
X16386848Y-15366174D01*
X16386848Y-15366174D02*
X16415420Y-15366174D01*
X16415420Y-15366174D02*
X16434468Y-15375698D01*
X16434468Y-15375698D02*
X16443991Y-15385222D01*
X16443991Y-15385222D02*
X16453515Y-15404269D01*
X16453515Y-15404269D02*
X16453515Y-15451888D01*
X16453515Y-15451888D02*
X16443991Y-15470936D01*
X16443991Y-15470936D02*
X16434468Y-15480460D01*
X16434468Y-15480460D02*
X16415420Y-15489984D01*
X16415420Y-15489984D02*
X16358277Y-15489984D01*
X16358277Y-15489984D02*
X16339229Y-15480460D01*
X16339229Y-15480460D02*
X16329706Y-15470936D01*
X16691610Y-15489984D02*
X16691610Y-15289984D01*
X16777325Y-15489984D02*
X16777325Y-15385222D01*
X16777325Y-15385222D02*
X16767801Y-15366174D01*
X16767801Y-15366174D02*
X16748753Y-15356650D01*
X16748753Y-15356650D02*
X16720182Y-15356650D01*
X16720182Y-15356650D02*
X16701134Y-15366174D01*
X16701134Y-15366174D02*
X16691610Y-15375698D01*
X16901134Y-15489984D02*
X16882087Y-15480460D01*
X16882087Y-15480460D02*
X16872563Y-15470936D01*
X16872563Y-15470936D02*
X16863039Y-15451888D01*
X16863039Y-15451888D02*
X16863039Y-15394746D01*
X16863039Y-15394746D02*
X16872563Y-15375698D01*
X16872563Y-15375698D02*
X16882087Y-15366174D01*
X16882087Y-15366174D02*
X16901134Y-15356650D01*
X16901134Y-15356650D02*
X16929706Y-15356650D01*
X16929706Y-15356650D02*
X16948753Y-15366174D01*
X16948753Y-15366174D02*
X16958277Y-15375698D01*
X16958277Y-15375698D02*
X16967801Y-15394746D01*
X16967801Y-15394746D02*
X16967801Y-15451888D01*
X16967801Y-15451888D02*
X16958277Y-15470936D01*
X16958277Y-15470936D02*
X16948753Y-15480460D01*
X16948753Y-15480460D02*
X16929706Y-15489984D01*
X16929706Y-15489984D02*
X16901134Y-15489984D01*
X17082087Y-15489984D02*
X17063039Y-15480460D01*
X17063039Y-15480460D02*
X17053515Y-15461412D01*
X17053515Y-15461412D02*
X17053515Y-15289984D01*
X17234468Y-15480460D02*
X17215420Y-15489984D01*
X17215420Y-15489984D02*
X17177325Y-15489984D01*
X17177325Y-15489984D02*
X17158277Y-15480460D01*
X17158277Y-15480460D02*
X17148753Y-15461412D01*
X17148753Y-15461412D02*
X17148753Y-15385222D01*
X17148753Y-15385222D02*
X17158277Y-15366174D01*
X17158277Y-15366174D02*
X17177325Y-15356650D01*
X17177325Y-15356650D02*
X17215420Y-15356650D01*
X17215420Y-15356650D02*
X17234468Y-15366174D01*
X17234468Y-15366174D02*
X17243992Y-15385222D01*
X17243992Y-15385222D02*
X17243992Y-15404269D01*
X17243992Y-15404269D02*
X17148753Y-15423317D01*
X17320182Y-15480460D02*
X17339230Y-15489984D01*
X17339230Y-15489984D02*
X17377325Y-15489984D01*
X17377325Y-15489984D02*
X17396373Y-15480460D01*
X17396373Y-15480460D02*
X17405896Y-15461412D01*
X17405896Y-15461412D02*
X17405896Y-15451888D01*
X17405896Y-15451888D02*
X17396373Y-15432841D01*
X17396373Y-15432841D02*
X17377325Y-15423317D01*
X17377325Y-15423317D02*
X17348753Y-15423317D01*
X17348753Y-15423317D02*
X17329706Y-15413793D01*
X17329706Y-15413793D02*
X17320182Y-15394746D01*
X17320182Y-15394746D02*
X17320182Y-15385222D01*
X17320182Y-15385222D02*
X17329706Y-15366174D01*
X17329706Y-15366174D02*
X17348753Y-15356650D01*
X17348753Y-15356650D02*
X17377325Y-15356650D01*
X17377325Y-15356650D02*
X17396373Y-15366174D01*
X17472563Y-15566174D02*
X17482087Y-15556650D01*
X17482087Y-15556650D02*
X17501134Y-15528079D01*
X17501134Y-15528079D02*
X17510658Y-15509031D01*
X17510658Y-15509031D02*
X17520182Y-15480460D01*
X17520182Y-15480460D02*
X17529706Y-15432841D01*
X17529706Y-15432841D02*
X17529706Y-15394746D01*
X17529706Y-15394746D02*
X17520182Y-15347127D01*
X17520182Y-15347127D02*
X17510658Y-15318555D01*
X17510658Y-15318555D02*
X17501134Y-15299508D01*
X17501134Y-15299508D02*
X17482087Y-15270936D01*
X17482087Y-15270936D02*
X17472563Y-15261412D01*
X12497500Y-15608500D02*
X12697500Y-15808500D01*
X12697500Y-15608500D02*
X12497500Y-15808500D01*
X12697500Y-15708500D02*
G75*
G02*
X12497500Y-15708500I-100000J0D01*
G01*
X12497500Y-15708500D02*
G75*
G02*
X12697500Y-15708500I100000J0D01*
G01*
X13043991Y-15666650D02*
X13043991Y-15799984D01*
X12996372Y-15590460D02*
X12948753Y-15733317D01*
X12948753Y-15733317D02*
X13072562Y-15733317D01*
X13148753Y-15780936D02*
X13158277Y-15790460D01*
X13158277Y-15790460D02*
X13148753Y-15799984D01*
X13148753Y-15799984D02*
X13139229Y-15790460D01*
X13139229Y-15790460D02*
X13148753Y-15780936D01*
X13148753Y-15780936D02*
X13148753Y-15799984D01*
X13224943Y-15599984D02*
X13348753Y-15599984D01*
X13348753Y-15599984D02*
X13282086Y-15676174D01*
X13282086Y-15676174D02*
X13310658Y-15676174D01*
X13310658Y-15676174D02*
X13329705Y-15685698D01*
X13329705Y-15685698D02*
X13339229Y-15695222D01*
X13339229Y-15695222D02*
X13348753Y-15714269D01*
X13348753Y-15714269D02*
X13348753Y-15761888D01*
X13348753Y-15761888D02*
X13339229Y-15780936D01*
X13339229Y-15780936D02*
X13329705Y-15790460D01*
X13329705Y-15790460D02*
X13310658Y-15799984D01*
X13310658Y-15799984D02*
X13253515Y-15799984D01*
X13253515Y-15799984D02*
X13234467Y-15790460D01*
X13234467Y-15790460D02*
X13224943Y-15780936D01*
X13472562Y-15599984D02*
X13491610Y-15599984D01*
X13491610Y-15599984D02*
X13510658Y-15609508D01*
X13510658Y-15609508D02*
X13520182Y-15619031D01*
X13520182Y-15619031D02*
X13529705Y-15638079D01*
X13529705Y-15638079D02*
X13539229Y-15676174D01*
X13539229Y-15676174D02*
X13539229Y-15723793D01*
X13539229Y-15723793D02*
X13529705Y-15761888D01*
X13529705Y-15761888D02*
X13520182Y-15780936D01*
X13520182Y-15780936D02*
X13510658Y-15790460D01*
X13510658Y-15790460D02*
X13491610Y-15799984D01*
X13491610Y-15799984D02*
X13472562Y-15799984D01*
X13472562Y-15799984D02*
X13453515Y-15790460D01*
X13453515Y-15790460D02*
X13443991Y-15780936D01*
X13443991Y-15780936D02*
X13434467Y-15761888D01*
X13434467Y-15761888D02*
X13424943Y-15723793D01*
X13424943Y-15723793D02*
X13424943Y-15676174D01*
X13424943Y-15676174D02*
X13434467Y-15638079D01*
X13434467Y-15638079D02*
X13443991Y-15619031D01*
X13443991Y-15619031D02*
X13453515Y-15609508D01*
X13453515Y-15609508D02*
X13472562Y-15599984D01*
X13663039Y-15599984D02*
X13682086Y-15599984D01*
X13682086Y-15599984D02*
X13701134Y-15609508D01*
X13701134Y-15609508D02*
X13710658Y-15619031D01*
X13710658Y-15619031D02*
X13720182Y-15638079D01*
X13720182Y-15638079D02*
X13729705Y-15676174D01*
X13729705Y-15676174D02*
X13729705Y-15723793D01*
X13729705Y-15723793D02*
X13720182Y-15761888D01*
X13720182Y-15761888D02*
X13710658Y-15780936D01*
X13710658Y-15780936D02*
X13701134Y-15790460D01*
X13701134Y-15790460D02*
X13682086Y-15799984D01*
X13682086Y-15799984D02*
X13663039Y-15799984D01*
X13663039Y-15799984D02*
X13643991Y-15790460D01*
X13643991Y-15790460D02*
X13634467Y-15780936D01*
X13634467Y-15780936D02*
X13624943Y-15761888D01*
X13624943Y-15761888D02*
X13615420Y-15723793D01*
X13615420Y-15723793D02*
X13615420Y-15676174D01*
X13615420Y-15676174D02*
X13624943Y-15638079D01*
X13624943Y-15638079D02*
X13634467Y-15619031D01*
X13634467Y-15619031D02*
X13643991Y-15609508D01*
X13643991Y-15609508D02*
X13663039Y-15599984D01*
X13815420Y-15799984D02*
X13815420Y-15666650D01*
X13815420Y-15685698D02*
X13824943Y-15676174D01*
X13824943Y-15676174D02*
X13843991Y-15666650D01*
X13843991Y-15666650D02*
X13872563Y-15666650D01*
X13872563Y-15666650D02*
X13891610Y-15676174D01*
X13891610Y-15676174D02*
X13901134Y-15695222D01*
X13901134Y-15695222D02*
X13901134Y-15799984D01*
X13901134Y-15695222D02*
X13910658Y-15676174D01*
X13910658Y-15676174D02*
X13929705Y-15666650D01*
X13929705Y-15666650D02*
X13958277Y-15666650D01*
X13958277Y-15666650D02*
X13977324Y-15676174D01*
X13977324Y-15676174D02*
X13986848Y-15695222D01*
X13986848Y-15695222D02*
X13986848Y-15799984D01*
X14082086Y-15799984D02*
X14082086Y-15666650D01*
X14082086Y-15685698D02*
X14091610Y-15676174D01*
X14091610Y-15676174D02*
X14110658Y-15666650D01*
X14110658Y-15666650D02*
X14139229Y-15666650D01*
X14139229Y-15666650D02*
X14158277Y-15676174D01*
X14158277Y-15676174D02*
X14167801Y-15695222D01*
X14167801Y-15695222D02*
X14167801Y-15799984D01*
X14167801Y-15695222D02*
X14177324Y-15676174D01*
X14177324Y-15676174D02*
X14196372Y-15666650D01*
X14196372Y-15666650D02*
X14224943Y-15666650D01*
X14224943Y-15666650D02*
X14243991Y-15676174D01*
X14243991Y-15676174D02*
X14253515Y-15695222D01*
X14253515Y-15695222D02*
X14253515Y-15799984D01*
X14643991Y-15590460D02*
X14472563Y-15847603D01*
X14901134Y-15599984D02*
X14920182Y-15599984D01*
X14920182Y-15599984D02*
X14939229Y-15609508D01*
X14939229Y-15609508D02*
X14948753Y-15619031D01*
X14948753Y-15619031D02*
X14958277Y-15638079D01*
X14958277Y-15638079D02*
X14967801Y-15676174D01*
X14967801Y-15676174D02*
X14967801Y-15723793D01*
X14967801Y-15723793D02*
X14958277Y-15761888D01*
X14958277Y-15761888D02*
X14948753Y-15780936D01*
X14948753Y-15780936D02*
X14939229Y-15790460D01*
X14939229Y-15790460D02*
X14920182Y-15799984D01*
X14920182Y-15799984D02*
X14901134Y-15799984D01*
X14901134Y-15799984D02*
X14882086Y-15790460D01*
X14882086Y-15790460D02*
X14872563Y-15780936D01*
X14872563Y-15780936D02*
X14863039Y-15761888D01*
X14863039Y-15761888D02*
X14853515Y-15723793D01*
X14853515Y-15723793D02*
X14853515Y-15676174D01*
X14853515Y-15676174D02*
X14863039Y-15638079D01*
X14863039Y-15638079D02*
X14872563Y-15619031D01*
X14872563Y-15619031D02*
X14882086Y-15609508D01*
X14882086Y-15609508D02*
X14901134Y-15599984D01*
X15053515Y-15780936D02*
X15063039Y-15790460D01*
X15063039Y-15790460D02*
X15053515Y-15799984D01*
X15053515Y-15799984D02*
X15043991Y-15790460D01*
X15043991Y-15790460D02*
X15053515Y-15780936D01*
X15053515Y-15780936D02*
X15053515Y-15799984D01*
X15253515Y-15799984D02*
X15139229Y-15799984D01*
X15196372Y-15799984D02*
X15196372Y-15599984D01*
X15196372Y-15599984D02*
X15177325Y-15628555D01*
X15177325Y-15628555D02*
X15158277Y-15647603D01*
X15158277Y-15647603D02*
X15139229Y-15657127D01*
X15424944Y-15599984D02*
X15386848Y-15599984D01*
X15386848Y-15599984D02*
X15367801Y-15609508D01*
X15367801Y-15609508D02*
X15358277Y-15619031D01*
X15358277Y-15619031D02*
X15339229Y-15647603D01*
X15339229Y-15647603D02*
X15329706Y-15685698D01*
X15329706Y-15685698D02*
X15329706Y-15761888D01*
X15329706Y-15761888D02*
X15339229Y-15780936D01*
X15339229Y-15780936D02*
X15348753Y-15790460D01*
X15348753Y-15790460D02*
X15367801Y-15799984D01*
X15367801Y-15799984D02*
X15405896Y-15799984D01*
X15405896Y-15799984D02*
X15424944Y-15790460D01*
X15424944Y-15790460D02*
X15434467Y-15780936D01*
X15434467Y-15780936D02*
X15443991Y-15761888D01*
X15443991Y-15761888D02*
X15443991Y-15714269D01*
X15443991Y-15714269D02*
X15434467Y-15695222D01*
X15434467Y-15695222D02*
X15424944Y-15685698D01*
X15424944Y-15685698D02*
X15405896Y-15676174D01*
X15405896Y-15676174D02*
X15367801Y-15676174D01*
X15367801Y-15676174D02*
X15348753Y-15685698D01*
X15348753Y-15685698D02*
X15339229Y-15695222D01*
X15339229Y-15695222D02*
X15329706Y-15714269D01*
X15539229Y-15799984D02*
X15577325Y-15799984D01*
X15577325Y-15799984D02*
X15596372Y-15790460D01*
X15596372Y-15790460D02*
X15605896Y-15780936D01*
X15605896Y-15780936D02*
X15624944Y-15752365D01*
X15624944Y-15752365D02*
X15634467Y-15714269D01*
X15634467Y-15714269D02*
X15634467Y-15638079D01*
X15634467Y-15638079D02*
X15624944Y-15619031D01*
X15624944Y-15619031D02*
X15615420Y-15609508D01*
X15615420Y-15609508D02*
X15596372Y-15599984D01*
X15596372Y-15599984D02*
X15558277Y-15599984D01*
X15558277Y-15599984D02*
X15539229Y-15609508D01*
X15539229Y-15609508D02*
X15529706Y-15619031D01*
X15529706Y-15619031D02*
X15520182Y-15638079D01*
X15520182Y-15638079D02*
X15520182Y-15685698D01*
X15520182Y-15685698D02*
X15529706Y-15704746D01*
X15529706Y-15704746D02*
X15539229Y-15714269D01*
X15539229Y-15714269D02*
X15558277Y-15723793D01*
X15558277Y-15723793D02*
X15596372Y-15723793D01*
X15596372Y-15723793D02*
X15615420Y-15714269D01*
X15615420Y-15714269D02*
X15624944Y-15704746D01*
X15624944Y-15704746D02*
X15634467Y-15685698D01*
X15701134Y-15599984D02*
X15824944Y-15599984D01*
X15824944Y-15599984D02*
X15758277Y-15676174D01*
X15758277Y-15676174D02*
X15786848Y-15676174D01*
X15786848Y-15676174D02*
X15805896Y-15685698D01*
X15805896Y-15685698D02*
X15815420Y-15695222D01*
X15815420Y-15695222D02*
X15824944Y-15714269D01*
X15824944Y-15714269D02*
X15824944Y-15761888D01*
X15824944Y-15761888D02*
X15815420Y-15780936D01*
X15815420Y-15780936D02*
X15805896Y-15790460D01*
X15805896Y-15790460D02*
X15786848Y-15799984D01*
X15786848Y-15799984D02*
X15729706Y-15799984D01*
X15729706Y-15799984D02*
X15710658Y-15790460D01*
X15710658Y-15790460D02*
X15701134Y-15780936D01*
X15901134Y-15599984D02*
X15901134Y-15638079D01*
X15977325Y-15599984D02*
X15977325Y-15638079D01*
X16272563Y-15876174D02*
X16263039Y-15866650D01*
X16263039Y-15866650D02*
X16243991Y-15838079D01*
X16243991Y-15838079D02*
X16234468Y-15819031D01*
X16234468Y-15819031D02*
X16224944Y-15790460D01*
X16224944Y-15790460D02*
X16215420Y-15742841D01*
X16215420Y-15742841D02*
X16215420Y-15704746D01*
X16215420Y-15704746D02*
X16224944Y-15657127D01*
X16224944Y-15657127D02*
X16234468Y-15628555D01*
X16234468Y-15628555D02*
X16243991Y-15609508D01*
X16243991Y-15609508D02*
X16263039Y-15580936D01*
X16263039Y-15580936D02*
X16272563Y-15571412D01*
X16434468Y-15666650D02*
X16434468Y-15799984D01*
X16386848Y-15590460D02*
X16339229Y-15733317D01*
X16339229Y-15733317D02*
X16463039Y-15733317D01*
X16691610Y-15799984D02*
X16691610Y-15599984D01*
X16777325Y-15799984D02*
X16777325Y-15695222D01*
X16777325Y-15695222D02*
X16767801Y-15676174D01*
X16767801Y-15676174D02*
X16748753Y-15666650D01*
X16748753Y-15666650D02*
X16720182Y-15666650D01*
X16720182Y-15666650D02*
X16701134Y-15676174D01*
X16701134Y-15676174D02*
X16691610Y-15685698D01*
X16901134Y-15799984D02*
X16882087Y-15790460D01*
X16882087Y-15790460D02*
X16872563Y-15780936D01*
X16872563Y-15780936D02*
X16863039Y-15761888D01*
X16863039Y-15761888D02*
X16863039Y-15704746D01*
X16863039Y-15704746D02*
X16872563Y-15685698D01*
X16872563Y-15685698D02*
X16882087Y-15676174D01*
X16882087Y-15676174D02*
X16901134Y-15666650D01*
X16901134Y-15666650D02*
X16929706Y-15666650D01*
X16929706Y-15666650D02*
X16948753Y-15676174D01*
X16948753Y-15676174D02*
X16958277Y-15685698D01*
X16958277Y-15685698D02*
X16967801Y-15704746D01*
X16967801Y-15704746D02*
X16967801Y-15761888D01*
X16967801Y-15761888D02*
X16958277Y-15780936D01*
X16958277Y-15780936D02*
X16948753Y-15790460D01*
X16948753Y-15790460D02*
X16929706Y-15799984D01*
X16929706Y-15799984D02*
X16901134Y-15799984D01*
X17082087Y-15799984D02*
X17063039Y-15790460D01*
X17063039Y-15790460D02*
X17053515Y-15771412D01*
X17053515Y-15771412D02*
X17053515Y-15599984D01*
X17234468Y-15790460D02*
X17215420Y-15799984D01*
X17215420Y-15799984D02*
X17177325Y-15799984D01*
X17177325Y-15799984D02*
X17158277Y-15790460D01*
X17158277Y-15790460D02*
X17148753Y-15771412D01*
X17148753Y-15771412D02*
X17148753Y-15695222D01*
X17148753Y-15695222D02*
X17158277Y-15676174D01*
X17158277Y-15676174D02*
X17177325Y-15666650D01*
X17177325Y-15666650D02*
X17215420Y-15666650D01*
X17215420Y-15666650D02*
X17234468Y-15676174D01*
X17234468Y-15676174D02*
X17243992Y-15695222D01*
X17243992Y-15695222D02*
X17243992Y-15714269D01*
X17243992Y-15714269D02*
X17148753Y-15733317D01*
X17320182Y-15790460D02*
X17339230Y-15799984D01*
X17339230Y-15799984D02*
X17377325Y-15799984D01*
X17377325Y-15799984D02*
X17396373Y-15790460D01*
X17396373Y-15790460D02*
X17405896Y-15771412D01*
X17405896Y-15771412D02*
X17405896Y-15761888D01*
X17405896Y-15761888D02*
X17396373Y-15742841D01*
X17396373Y-15742841D02*
X17377325Y-15733317D01*
X17377325Y-15733317D02*
X17348753Y-15733317D01*
X17348753Y-15733317D02*
X17329706Y-15723793D01*
X17329706Y-15723793D02*
X17320182Y-15704746D01*
X17320182Y-15704746D02*
X17320182Y-15695222D01*
X17320182Y-15695222D02*
X17329706Y-15676174D01*
X17329706Y-15676174D02*
X17348753Y-15666650D01*
X17348753Y-15666650D02*
X17377325Y-15666650D01*
X17377325Y-15666650D02*
X17396373Y-15676174D01*
X17472563Y-15876174D02*
X17482087Y-15866650D01*
X17482087Y-15866650D02*
X17501134Y-15838079D01*
X17501134Y-15838079D02*
X17510658Y-15819031D01*
X17510658Y-15819031D02*
X17520182Y-15790460D01*
X17520182Y-15790460D02*
X17529706Y-15742841D01*
X17529706Y-15742841D02*
X17529706Y-15704746D01*
X17529706Y-15704746D02*
X17520182Y-15657127D01*
X17520182Y-15657127D02*
X17510658Y-15628555D01*
X17510658Y-15628555D02*
X17501134Y-15609508D01*
X17501134Y-15609508D02*
X17482087Y-15580936D01*
X17482087Y-15580936D02*
X17472563Y-15571412D01*
X12497500Y-15928500D02*
X12697500Y-16128500D01*
X12697500Y-15928500D02*
X12497500Y-16128500D01*
X12597500Y-15928500D02*
X12597500Y-16128500D01*
X12497500Y-16028500D02*
X12697500Y-16028500D01*
X13043991Y-15986650D02*
X13043991Y-16119984D01*
X12996372Y-15910460D02*
X12948753Y-16053317D01*
X12948753Y-16053317D02*
X13072562Y-16053317D01*
X13148753Y-16100936D02*
X13158277Y-16110460D01*
X13158277Y-16110460D02*
X13148753Y-16119984D01*
X13148753Y-16119984D02*
X13139229Y-16110460D01*
X13139229Y-16110460D02*
X13148753Y-16100936D01*
X13148753Y-16100936D02*
X13148753Y-16119984D01*
X13339229Y-15919984D02*
X13243991Y-15919984D01*
X13243991Y-15919984D02*
X13234467Y-16015222D01*
X13234467Y-16015222D02*
X13243991Y-16005698D01*
X13243991Y-16005698D02*
X13263039Y-15996174D01*
X13263039Y-15996174D02*
X13310658Y-15996174D01*
X13310658Y-15996174D02*
X13329705Y-16005698D01*
X13329705Y-16005698D02*
X13339229Y-16015222D01*
X13339229Y-16015222D02*
X13348753Y-16034269D01*
X13348753Y-16034269D02*
X13348753Y-16081888D01*
X13348753Y-16081888D02*
X13339229Y-16100936D01*
X13339229Y-16100936D02*
X13329705Y-16110460D01*
X13329705Y-16110460D02*
X13310658Y-16119984D01*
X13310658Y-16119984D02*
X13263039Y-16119984D01*
X13263039Y-16119984D02*
X13243991Y-16110460D01*
X13243991Y-16110460D02*
X13234467Y-16100936D01*
X13472562Y-15919984D02*
X13491610Y-15919984D01*
X13491610Y-15919984D02*
X13510658Y-15929508D01*
X13510658Y-15929508D02*
X13520182Y-15939031D01*
X13520182Y-15939031D02*
X13529705Y-15958079D01*
X13529705Y-15958079D02*
X13539229Y-15996174D01*
X13539229Y-15996174D02*
X13539229Y-16043793D01*
X13539229Y-16043793D02*
X13529705Y-16081888D01*
X13529705Y-16081888D02*
X13520182Y-16100936D01*
X13520182Y-16100936D02*
X13510658Y-16110460D01*
X13510658Y-16110460D02*
X13491610Y-16119984D01*
X13491610Y-16119984D02*
X13472562Y-16119984D01*
X13472562Y-16119984D02*
X13453515Y-16110460D01*
X13453515Y-16110460D02*
X13443991Y-16100936D01*
X13443991Y-16100936D02*
X13434467Y-16081888D01*
X13434467Y-16081888D02*
X13424943Y-16043793D01*
X13424943Y-16043793D02*
X13424943Y-15996174D01*
X13424943Y-15996174D02*
X13434467Y-15958079D01*
X13434467Y-15958079D02*
X13443991Y-15939031D01*
X13443991Y-15939031D02*
X13453515Y-15929508D01*
X13453515Y-15929508D02*
X13472562Y-15919984D01*
X13663039Y-15919984D02*
X13682086Y-15919984D01*
X13682086Y-15919984D02*
X13701134Y-15929508D01*
X13701134Y-15929508D02*
X13710658Y-15939031D01*
X13710658Y-15939031D02*
X13720182Y-15958079D01*
X13720182Y-15958079D02*
X13729705Y-15996174D01*
X13729705Y-15996174D02*
X13729705Y-16043793D01*
X13729705Y-16043793D02*
X13720182Y-16081888D01*
X13720182Y-16081888D02*
X13710658Y-16100936D01*
X13710658Y-16100936D02*
X13701134Y-16110460D01*
X13701134Y-16110460D02*
X13682086Y-16119984D01*
X13682086Y-16119984D02*
X13663039Y-16119984D01*
X13663039Y-16119984D02*
X13643991Y-16110460D01*
X13643991Y-16110460D02*
X13634467Y-16100936D01*
X13634467Y-16100936D02*
X13624943Y-16081888D01*
X13624943Y-16081888D02*
X13615420Y-16043793D01*
X13615420Y-16043793D02*
X13615420Y-15996174D01*
X13615420Y-15996174D02*
X13624943Y-15958079D01*
X13624943Y-15958079D02*
X13634467Y-15939031D01*
X13634467Y-15939031D02*
X13643991Y-15929508D01*
X13643991Y-15929508D02*
X13663039Y-15919984D01*
X13815420Y-16119984D02*
X13815420Y-15986650D01*
X13815420Y-16005698D02*
X13824943Y-15996174D01*
X13824943Y-15996174D02*
X13843991Y-15986650D01*
X13843991Y-15986650D02*
X13872563Y-15986650D01*
X13872563Y-15986650D02*
X13891610Y-15996174D01*
X13891610Y-15996174D02*
X13901134Y-16015222D01*
X13901134Y-16015222D02*
X13901134Y-16119984D01*
X13901134Y-16015222D02*
X13910658Y-15996174D01*
X13910658Y-15996174D02*
X13929705Y-15986650D01*
X13929705Y-15986650D02*
X13958277Y-15986650D01*
X13958277Y-15986650D02*
X13977324Y-15996174D01*
X13977324Y-15996174D02*
X13986848Y-16015222D01*
X13986848Y-16015222D02*
X13986848Y-16119984D01*
X14082086Y-16119984D02*
X14082086Y-15986650D01*
X14082086Y-16005698D02*
X14091610Y-15996174D01*
X14091610Y-15996174D02*
X14110658Y-15986650D01*
X14110658Y-15986650D02*
X14139229Y-15986650D01*
X14139229Y-15986650D02*
X14158277Y-15996174D01*
X14158277Y-15996174D02*
X14167801Y-16015222D01*
X14167801Y-16015222D02*
X14167801Y-16119984D01*
X14167801Y-16015222D02*
X14177324Y-15996174D01*
X14177324Y-15996174D02*
X14196372Y-15986650D01*
X14196372Y-15986650D02*
X14224943Y-15986650D01*
X14224943Y-15986650D02*
X14243991Y-15996174D01*
X14243991Y-15996174D02*
X14253515Y-16015222D01*
X14253515Y-16015222D02*
X14253515Y-16119984D01*
X14643991Y-15910460D02*
X14472563Y-16167603D01*
X14901134Y-15919984D02*
X14920182Y-15919984D01*
X14920182Y-15919984D02*
X14939229Y-15929508D01*
X14939229Y-15929508D02*
X14948753Y-15939031D01*
X14948753Y-15939031D02*
X14958277Y-15958079D01*
X14958277Y-15958079D02*
X14967801Y-15996174D01*
X14967801Y-15996174D02*
X14967801Y-16043793D01*
X14967801Y-16043793D02*
X14958277Y-16081888D01*
X14958277Y-16081888D02*
X14948753Y-16100936D01*
X14948753Y-16100936D02*
X14939229Y-16110460D01*
X14939229Y-16110460D02*
X14920182Y-16119984D01*
X14920182Y-16119984D02*
X14901134Y-16119984D01*
X14901134Y-16119984D02*
X14882086Y-16110460D01*
X14882086Y-16110460D02*
X14872563Y-16100936D01*
X14872563Y-16100936D02*
X14863039Y-16081888D01*
X14863039Y-16081888D02*
X14853515Y-16043793D01*
X14853515Y-16043793D02*
X14853515Y-15996174D01*
X14853515Y-15996174D02*
X14863039Y-15958079D01*
X14863039Y-15958079D02*
X14872563Y-15939031D01*
X14872563Y-15939031D02*
X14882086Y-15929508D01*
X14882086Y-15929508D02*
X14901134Y-15919984D01*
X15053515Y-16100936D02*
X15063039Y-16110460D01*
X15063039Y-16110460D02*
X15053515Y-16119984D01*
X15053515Y-16119984D02*
X15043991Y-16110460D01*
X15043991Y-16110460D02*
X15053515Y-16100936D01*
X15053515Y-16100936D02*
X15053515Y-16119984D01*
X15253515Y-16119984D02*
X15139229Y-16119984D01*
X15196372Y-16119984D02*
X15196372Y-15919984D01*
X15196372Y-15919984D02*
X15177325Y-15948555D01*
X15177325Y-15948555D02*
X15158277Y-15967603D01*
X15158277Y-15967603D02*
X15139229Y-15977127D01*
X15320182Y-15919984D02*
X15453515Y-15919984D01*
X15453515Y-15919984D02*
X15367801Y-16119984D01*
X15510658Y-15919984D02*
X15643991Y-15919984D01*
X15643991Y-15919984D02*
X15558277Y-16119984D01*
X15710658Y-15939031D02*
X15720182Y-15929508D01*
X15720182Y-15929508D02*
X15739229Y-15919984D01*
X15739229Y-15919984D02*
X15786848Y-15919984D01*
X15786848Y-15919984D02*
X15805896Y-15929508D01*
X15805896Y-15929508D02*
X15815420Y-15939031D01*
X15815420Y-15939031D02*
X15824944Y-15958079D01*
X15824944Y-15958079D02*
X15824944Y-15977127D01*
X15824944Y-15977127D02*
X15815420Y-16005698D01*
X15815420Y-16005698D02*
X15701134Y-16119984D01*
X15701134Y-16119984D02*
X15824944Y-16119984D01*
X15901134Y-15919984D02*
X15901134Y-15958079D01*
X15977325Y-15919984D02*
X15977325Y-15958079D01*
X16272563Y-16196174D02*
X16263039Y-16186650D01*
X16263039Y-16186650D02*
X16243991Y-16158079D01*
X16243991Y-16158079D02*
X16234468Y-16139031D01*
X16234468Y-16139031D02*
X16224944Y-16110460D01*
X16224944Y-16110460D02*
X16215420Y-16062841D01*
X16215420Y-16062841D02*
X16215420Y-16024746D01*
X16215420Y-16024746D02*
X16224944Y-15977127D01*
X16224944Y-15977127D02*
X16234468Y-15948555D01*
X16234468Y-15948555D02*
X16243991Y-15929508D01*
X16243991Y-15929508D02*
X16263039Y-15900936D01*
X16263039Y-15900936D02*
X16272563Y-15891412D01*
X16339229Y-15939031D02*
X16348753Y-15929508D01*
X16348753Y-15929508D02*
X16367801Y-15919984D01*
X16367801Y-15919984D02*
X16415420Y-15919984D01*
X16415420Y-15919984D02*
X16434468Y-15929508D01*
X16434468Y-15929508D02*
X16443991Y-15939031D01*
X16443991Y-15939031D02*
X16453515Y-15958079D01*
X16453515Y-15958079D02*
X16453515Y-15977127D01*
X16453515Y-15977127D02*
X16443991Y-16005698D01*
X16443991Y-16005698D02*
X16329706Y-16119984D01*
X16329706Y-16119984D02*
X16453515Y-16119984D01*
X16691610Y-16119984D02*
X16691610Y-15919984D01*
X16777325Y-16119984D02*
X16777325Y-16015222D01*
X16777325Y-16015222D02*
X16767801Y-15996174D01*
X16767801Y-15996174D02*
X16748753Y-15986650D01*
X16748753Y-15986650D02*
X16720182Y-15986650D01*
X16720182Y-15986650D02*
X16701134Y-15996174D01*
X16701134Y-15996174D02*
X16691610Y-16005698D01*
X16901134Y-16119984D02*
X16882087Y-16110460D01*
X16882087Y-16110460D02*
X16872563Y-16100936D01*
X16872563Y-16100936D02*
X16863039Y-16081888D01*
X16863039Y-16081888D02*
X16863039Y-16024746D01*
X16863039Y-16024746D02*
X16872563Y-16005698D01*
X16872563Y-16005698D02*
X16882087Y-15996174D01*
X16882087Y-15996174D02*
X16901134Y-15986650D01*
X16901134Y-15986650D02*
X16929706Y-15986650D01*
X16929706Y-15986650D02*
X16948753Y-15996174D01*
X16948753Y-15996174D02*
X16958277Y-16005698D01*
X16958277Y-16005698D02*
X16967801Y-16024746D01*
X16967801Y-16024746D02*
X16967801Y-16081888D01*
X16967801Y-16081888D02*
X16958277Y-16100936D01*
X16958277Y-16100936D02*
X16948753Y-16110460D01*
X16948753Y-16110460D02*
X16929706Y-16119984D01*
X16929706Y-16119984D02*
X16901134Y-16119984D01*
X17082087Y-16119984D02*
X17063039Y-16110460D01*
X17063039Y-16110460D02*
X17053515Y-16091412D01*
X17053515Y-16091412D02*
X17053515Y-15919984D01*
X17234468Y-16110460D02*
X17215420Y-16119984D01*
X17215420Y-16119984D02*
X17177325Y-16119984D01*
X17177325Y-16119984D02*
X17158277Y-16110460D01*
X17158277Y-16110460D02*
X17148753Y-16091412D01*
X17148753Y-16091412D02*
X17148753Y-16015222D01*
X17148753Y-16015222D02*
X17158277Y-15996174D01*
X17158277Y-15996174D02*
X17177325Y-15986650D01*
X17177325Y-15986650D02*
X17215420Y-15986650D01*
X17215420Y-15986650D02*
X17234468Y-15996174D01*
X17234468Y-15996174D02*
X17243992Y-16015222D01*
X17243992Y-16015222D02*
X17243992Y-16034269D01*
X17243992Y-16034269D02*
X17148753Y-16053317D01*
X17320182Y-16110460D02*
X17339230Y-16119984D01*
X17339230Y-16119984D02*
X17377325Y-16119984D01*
X17377325Y-16119984D02*
X17396373Y-16110460D01*
X17396373Y-16110460D02*
X17405896Y-16091412D01*
X17405896Y-16091412D02*
X17405896Y-16081888D01*
X17405896Y-16081888D02*
X17396373Y-16062841D01*
X17396373Y-16062841D02*
X17377325Y-16053317D01*
X17377325Y-16053317D02*
X17348753Y-16053317D01*
X17348753Y-16053317D02*
X17329706Y-16043793D01*
X17329706Y-16043793D02*
X17320182Y-16024746D01*
X17320182Y-16024746D02*
X17320182Y-16015222D01*
X17320182Y-16015222D02*
X17329706Y-15996174D01*
X17329706Y-15996174D02*
X17348753Y-15986650D01*
X17348753Y-15986650D02*
X17377325Y-15986650D01*
X17377325Y-15986650D02*
X17396373Y-15996174D01*
X17472563Y-16196174D02*
X17482087Y-16186650D01*
X17482087Y-16186650D02*
X17501134Y-16158079D01*
X17501134Y-16158079D02*
X17510658Y-16139031D01*
X17510658Y-16139031D02*
X17520182Y-16110460D01*
X17520182Y-16110460D02*
X17529706Y-16062841D01*
X17529706Y-16062841D02*
X17529706Y-16024746D01*
X17529706Y-16024746D02*
X17520182Y-15977127D01*
X17520182Y-15977127D02*
X17510658Y-15948555D01*
X17510658Y-15948555D02*
X17501134Y-15929508D01*
X17501134Y-15929508D02*
X17482087Y-15900936D01*
X17482087Y-15900936D02*
X17472563Y-15891412D01*
M02*
