%TF.GenerationSoftware,KiCad,Pcbnew,8.0.4-1.fc40*%
%TF.CreationDate,2024-07-29T21:14:52+02:00*%
%TF.ProjectId,TractionHub,54726163-7469-46f6-9e48-75622e6b6963,rev?*%
%TF.SameCoordinates,Original*%
%TF.FileFunction,Legend,Bot*%
%TF.FilePolarity,Positive*%
%FSLAX46Y46*%
G04 Gerber Fmt 4.6, Leading zero omitted, Abs format (unit mm)*
G04 Created by KiCad (PCBNEW 8.0.4-1.fc40) date 2024-07-29 21:14:52*
%MOMM*%
%LPD*%
G01*
G04 APERTURE LIST*
G04 Aperture macros list*
%AMRoundRect*
0 Rectangle with rounded corners*
0 $1 Rounding radius*
0 $2 $3 $4 $5 $6 $7 $8 $9 X,Y pos of 4 corners*
0 Add a 4 corners polygon primitive as box body*
4,1,4,$2,$3,$4,$5,$6,$7,$8,$9,$2,$3,0*
0 Add four circle primitives for the rounded corners*
1,1,$1+$1,$2,$3*
1,1,$1+$1,$4,$5*
1,1,$1+$1,$6,$7*
1,1,$1+$1,$8,$9*
0 Add four rect primitives between the rounded corners*
20,1,$1+$1,$2,$3,$4,$5,0*
20,1,$1+$1,$4,$5,$6,$7,0*
20,1,$1+$1,$6,$7,$8,$9,0*
20,1,$1+$1,$8,$9,$2,$3,0*%
G04 Aperture macros list end*
%ADD10C,0.150000*%
%ADD11C,0.120000*%
%ADD12C,0.900000*%
%ADD13C,8.600000*%
%ADD14RoundRect,0.250000X0.600000X0.725000X-0.600000X0.725000X-0.600000X-0.725000X0.600000X-0.725000X0*%
%ADD15O,1.700000X1.950000*%
%ADD16RoundRect,1.500000X1.500000X-1.500000X1.500000X1.500000X-1.500000X1.500000X-1.500000X-1.500000X0*%
%ADD17C,6.000000*%
%ADD18C,1.400000*%
%ADD19R,3.000000X3.000000*%
%ADD20C,3.000000*%
%ADD21C,2.374900*%
%ADD22C,0.990600*%
%ADD23C,2.000000*%
%ADD24C,0.650000*%
%ADD25O,1.000000X2.100000*%
%ADD26O,1.000000X1.800000*%
%ADD27RoundRect,0.225000X0.225000X0.250000X-0.225000X0.250000X-0.225000X-0.250000X0.225000X-0.250000X0*%
%ADD28RoundRect,0.225000X-0.250000X0.225000X-0.250000X-0.225000X0.250000X-0.225000X0.250000X0.225000X0*%
%ADD29RoundRect,0.225000X-0.225000X-0.250000X0.225000X-0.250000X0.225000X0.250000X-0.225000X0.250000X0*%
G04 APERTURE END LIST*
D10*
X178142857Y-95859580D02*
X178190476Y-95907200D01*
X178190476Y-95907200D02*
X178333333Y-95954819D01*
X178333333Y-95954819D02*
X178428571Y-95954819D01*
X178428571Y-95954819D02*
X178571428Y-95907200D01*
X178571428Y-95907200D02*
X178666666Y-95811961D01*
X178666666Y-95811961D02*
X178714285Y-95716723D01*
X178714285Y-95716723D02*
X178761904Y-95526247D01*
X178761904Y-95526247D02*
X178761904Y-95383390D01*
X178761904Y-95383390D02*
X178714285Y-95192914D01*
X178714285Y-95192914D02*
X178666666Y-95097676D01*
X178666666Y-95097676D02*
X178571428Y-95002438D01*
X178571428Y-95002438D02*
X178428571Y-94954819D01*
X178428571Y-94954819D02*
X178333333Y-94954819D01*
X178333333Y-94954819D02*
X178190476Y-95002438D01*
X178190476Y-95002438D02*
X178142857Y-95050057D01*
X177761904Y-95050057D02*
X177714285Y-95002438D01*
X177714285Y-95002438D02*
X177619047Y-94954819D01*
X177619047Y-94954819D02*
X177380952Y-94954819D01*
X177380952Y-94954819D02*
X177285714Y-95002438D01*
X177285714Y-95002438D02*
X177238095Y-95050057D01*
X177238095Y-95050057D02*
X177190476Y-95145295D01*
X177190476Y-95145295D02*
X177190476Y-95240533D01*
X177190476Y-95240533D02*
X177238095Y-95383390D01*
X177238095Y-95383390D02*
X177809523Y-95954819D01*
X177809523Y-95954819D02*
X177190476Y-95954819D01*
X176238095Y-95954819D02*
X176809523Y-95954819D01*
X176523809Y-95954819D02*
X176523809Y-94954819D01*
X176523809Y-94954819D02*
X176619047Y-95097676D01*
X176619047Y-95097676D02*
X176714285Y-95192914D01*
X176714285Y-95192914D02*
X176809523Y-95240533D01*
X183359580Y-102857142D02*
X183407200Y-102809523D01*
X183407200Y-102809523D02*
X183454819Y-102666666D01*
X183454819Y-102666666D02*
X183454819Y-102571428D01*
X183454819Y-102571428D02*
X183407200Y-102428571D01*
X183407200Y-102428571D02*
X183311961Y-102333333D01*
X183311961Y-102333333D02*
X183216723Y-102285714D01*
X183216723Y-102285714D02*
X183026247Y-102238095D01*
X183026247Y-102238095D02*
X182883390Y-102238095D01*
X182883390Y-102238095D02*
X182692914Y-102285714D01*
X182692914Y-102285714D02*
X182597676Y-102333333D01*
X182597676Y-102333333D02*
X182502438Y-102428571D01*
X182502438Y-102428571D02*
X182454819Y-102571428D01*
X182454819Y-102571428D02*
X182454819Y-102666666D01*
X182454819Y-102666666D02*
X182502438Y-102809523D01*
X182502438Y-102809523D02*
X182550057Y-102857142D01*
X182550057Y-103238095D02*
X182502438Y-103285714D01*
X182502438Y-103285714D02*
X182454819Y-103380952D01*
X182454819Y-103380952D02*
X182454819Y-103619047D01*
X182454819Y-103619047D02*
X182502438Y-103714285D01*
X182502438Y-103714285D02*
X182550057Y-103761904D01*
X182550057Y-103761904D02*
X182645295Y-103809523D01*
X182645295Y-103809523D02*
X182740533Y-103809523D01*
X182740533Y-103809523D02*
X182883390Y-103761904D01*
X182883390Y-103761904D02*
X183454819Y-103190476D01*
X183454819Y-103190476D02*
X183454819Y-103809523D01*
X182454819Y-104142857D02*
X182454819Y-104761904D01*
X182454819Y-104761904D02*
X182835771Y-104428571D01*
X182835771Y-104428571D02*
X182835771Y-104571428D01*
X182835771Y-104571428D02*
X182883390Y-104666666D01*
X182883390Y-104666666D02*
X182931009Y-104714285D01*
X182931009Y-104714285D02*
X183026247Y-104761904D01*
X183026247Y-104761904D02*
X183264342Y-104761904D01*
X183264342Y-104761904D02*
X183359580Y-104714285D01*
X183359580Y-104714285D02*
X183407200Y-104666666D01*
X183407200Y-104666666D02*
X183454819Y-104571428D01*
X183454819Y-104571428D02*
X183454819Y-104285714D01*
X183454819Y-104285714D02*
X183407200Y-104190476D01*
X183407200Y-104190476D02*
X183359580Y-104142857D01*
X179917857Y-102859580D02*
X179965476Y-102907200D01*
X179965476Y-102907200D02*
X180108333Y-102954819D01*
X180108333Y-102954819D02*
X180203571Y-102954819D01*
X180203571Y-102954819D02*
X180346428Y-102907200D01*
X180346428Y-102907200D02*
X180441666Y-102811961D01*
X180441666Y-102811961D02*
X180489285Y-102716723D01*
X180489285Y-102716723D02*
X180536904Y-102526247D01*
X180536904Y-102526247D02*
X180536904Y-102383390D01*
X180536904Y-102383390D02*
X180489285Y-102192914D01*
X180489285Y-102192914D02*
X180441666Y-102097676D01*
X180441666Y-102097676D02*
X180346428Y-102002438D01*
X180346428Y-102002438D02*
X180203571Y-101954819D01*
X180203571Y-101954819D02*
X180108333Y-101954819D01*
X180108333Y-101954819D02*
X179965476Y-102002438D01*
X179965476Y-102002438D02*
X179917857Y-102050057D01*
X178965476Y-102954819D02*
X179536904Y-102954819D01*
X179251190Y-102954819D02*
X179251190Y-101954819D01*
X179251190Y-101954819D02*
X179346428Y-102097676D01*
X179346428Y-102097676D02*
X179441666Y-102192914D01*
X179441666Y-102192914D02*
X179536904Y-102240533D01*
X178394047Y-102383390D02*
X178489285Y-102335771D01*
X178489285Y-102335771D02*
X178536904Y-102288152D01*
X178536904Y-102288152D02*
X178584523Y-102192914D01*
X178584523Y-102192914D02*
X178584523Y-102145295D01*
X178584523Y-102145295D02*
X178536904Y-102050057D01*
X178536904Y-102050057D02*
X178489285Y-102002438D01*
X178489285Y-102002438D02*
X178394047Y-101954819D01*
X178394047Y-101954819D02*
X178203571Y-101954819D01*
X178203571Y-101954819D02*
X178108333Y-102002438D01*
X178108333Y-102002438D02*
X178060714Y-102050057D01*
X178060714Y-102050057D02*
X178013095Y-102145295D01*
X178013095Y-102145295D02*
X178013095Y-102192914D01*
X178013095Y-102192914D02*
X178060714Y-102288152D01*
X178060714Y-102288152D02*
X178108333Y-102335771D01*
X178108333Y-102335771D02*
X178203571Y-102383390D01*
X178203571Y-102383390D02*
X178394047Y-102383390D01*
X178394047Y-102383390D02*
X178489285Y-102431009D01*
X178489285Y-102431009D02*
X178536904Y-102478628D01*
X178536904Y-102478628D02*
X178584523Y-102573866D01*
X178584523Y-102573866D02*
X178584523Y-102764342D01*
X178584523Y-102764342D02*
X178536904Y-102859580D01*
X178536904Y-102859580D02*
X178489285Y-102907200D01*
X178489285Y-102907200D02*
X178394047Y-102954819D01*
X178394047Y-102954819D02*
X178203571Y-102954819D01*
X178203571Y-102954819D02*
X178108333Y-102907200D01*
X178108333Y-102907200D02*
X178060714Y-102859580D01*
X178060714Y-102859580D02*
X178013095Y-102764342D01*
X178013095Y-102764342D02*
X178013095Y-102573866D01*
X178013095Y-102573866D02*
X178060714Y-102478628D01*
X178060714Y-102478628D02*
X178108333Y-102431009D01*
X178108333Y-102431009D02*
X178203571Y-102383390D01*
X179917857Y-101139580D02*
X179965476Y-101187200D01*
X179965476Y-101187200D02*
X180108333Y-101234819D01*
X180108333Y-101234819D02*
X180203571Y-101234819D01*
X180203571Y-101234819D02*
X180346428Y-101187200D01*
X180346428Y-101187200D02*
X180441666Y-101091961D01*
X180441666Y-101091961D02*
X180489285Y-100996723D01*
X180489285Y-100996723D02*
X180536904Y-100806247D01*
X180536904Y-100806247D02*
X180536904Y-100663390D01*
X180536904Y-100663390D02*
X180489285Y-100472914D01*
X180489285Y-100472914D02*
X180441666Y-100377676D01*
X180441666Y-100377676D02*
X180346428Y-100282438D01*
X180346428Y-100282438D02*
X180203571Y-100234819D01*
X180203571Y-100234819D02*
X180108333Y-100234819D01*
X180108333Y-100234819D02*
X179965476Y-100282438D01*
X179965476Y-100282438D02*
X179917857Y-100330057D01*
X178965476Y-101234819D02*
X179536904Y-101234819D01*
X179251190Y-101234819D02*
X179251190Y-100234819D01*
X179251190Y-100234819D02*
X179346428Y-100377676D01*
X179346428Y-100377676D02*
X179441666Y-100472914D01*
X179441666Y-100472914D02*
X179536904Y-100520533D01*
X178489285Y-101234819D02*
X178298809Y-101234819D01*
X178298809Y-101234819D02*
X178203571Y-101187200D01*
X178203571Y-101187200D02*
X178155952Y-101139580D01*
X178155952Y-101139580D02*
X178060714Y-100996723D01*
X178060714Y-100996723D02*
X178013095Y-100806247D01*
X178013095Y-100806247D02*
X178013095Y-100425295D01*
X178013095Y-100425295D02*
X178060714Y-100330057D01*
X178060714Y-100330057D02*
X178108333Y-100282438D01*
X178108333Y-100282438D02*
X178203571Y-100234819D01*
X178203571Y-100234819D02*
X178394047Y-100234819D01*
X178394047Y-100234819D02*
X178489285Y-100282438D01*
X178489285Y-100282438D02*
X178536904Y-100330057D01*
X178536904Y-100330057D02*
X178584523Y-100425295D01*
X178584523Y-100425295D02*
X178584523Y-100663390D01*
X178584523Y-100663390D02*
X178536904Y-100758628D01*
X178536904Y-100758628D02*
X178489285Y-100806247D01*
X178489285Y-100806247D02*
X178394047Y-100853866D01*
X178394047Y-100853866D02*
X178203571Y-100853866D01*
X178203571Y-100853866D02*
X178108333Y-100806247D01*
X178108333Y-100806247D02*
X178060714Y-100758628D01*
X178060714Y-100758628D02*
X178013095Y-100663390D01*
X183359580Y-93607142D02*
X183407200Y-93559523D01*
X183407200Y-93559523D02*
X183454819Y-93416666D01*
X183454819Y-93416666D02*
X183454819Y-93321428D01*
X183454819Y-93321428D02*
X183407200Y-93178571D01*
X183407200Y-93178571D02*
X183311961Y-93083333D01*
X183311961Y-93083333D02*
X183216723Y-93035714D01*
X183216723Y-93035714D02*
X183026247Y-92988095D01*
X183026247Y-92988095D02*
X182883390Y-92988095D01*
X182883390Y-92988095D02*
X182692914Y-93035714D01*
X182692914Y-93035714D02*
X182597676Y-93083333D01*
X182597676Y-93083333D02*
X182502438Y-93178571D01*
X182502438Y-93178571D02*
X182454819Y-93321428D01*
X182454819Y-93321428D02*
X182454819Y-93416666D01*
X182454819Y-93416666D02*
X182502438Y-93559523D01*
X182502438Y-93559523D02*
X182550057Y-93607142D01*
X182550057Y-93988095D02*
X182502438Y-94035714D01*
X182502438Y-94035714D02*
X182454819Y-94130952D01*
X182454819Y-94130952D02*
X182454819Y-94369047D01*
X182454819Y-94369047D02*
X182502438Y-94464285D01*
X182502438Y-94464285D02*
X182550057Y-94511904D01*
X182550057Y-94511904D02*
X182645295Y-94559523D01*
X182645295Y-94559523D02*
X182740533Y-94559523D01*
X182740533Y-94559523D02*
X182883390Y-94511904D01*
X182883390Y-94511904D02*
X183454819Y-93940476D01*
X183454819Y-93940476D02*
X183454819Y-94559523D01*
X182550057Y-94940476D02*
X182502438Y-94988095D01*
X182502438Y-94988095D02*
X182454819Y-95083333D01*
X182454819Y-95083333D02*
X182454819Y-95321428D01*
X182454819Y-95321428D02*
X182502438Y-95416666D01*
X182502438Y-95416666D02*
X182550057Y-95464285D01*
X182550057Y-95464285D02*
X182645295Y-95511904D01*
X182645295Y-95511904D02*
X182740533Y-95511904D01*
X182740533Y-95511904D02*
X182883390Y-95464285D01*
X182883390Y-95464285D02*
X183454819Y-94892857D01*
X183454819Y-94892857D02*
X183454819Y-95511904D01*
D11*
X180359420Y-94990000D02*
X180640580Y-94990000D01*
X180359420Y-96010000D02*
X180640580Y-96010000D01*
X182490000Y-100640580D02*
X182490000Y-100359420D01*
X183510000Y-100640580D02*
X183510000Y-100359420D01*
X176415580Y-101990000D02*
X176134420Y-101990000D01*
X176415580Y-103010000D02*
X176134420Y-103010000D01*
X176415580Y-100240000D02*
X176134420Y-100240000D01*
X176415580Y-101260000D02*
X176134420Y-101260000D01*
X182490000Y-97390580D02*
X182490000Y-97109420D01*
X183510000Y-97390580D02*
X183510000Y-97109420D01*
%LPC*%
D12*
X217000000Y-116000000D03*
X217944581Y-113719581D03*
X217944581Y-118280419D03*
X220225000Y-112775000D03*
D13*
X220225000Y-116000000D03*
D12*
X220225000Y-119225000D03*
X222505419Y-113719581D03*
X222505419Y-118280419D03*
X223450000Y-116000000D03*
D14*
X194000000Y-60000000D03*
D15*
X191500000Y-60000000D03*
X189000000Y-60000000D03*
X186500000Y-60000000D03*
X184000000Y-60000000D03*
D16*
X134000000Y-100600000D03*
D17*
X134000000Y-93400000D03*
D12*
X217775000Y-78225000D03*
X218719581Y-75944581D03*
X218719581Y-80505419D03*
X221000000Y-75000000D03*
D13*
X221000000Y-78225000D03*
D12*
X221000000Y-81450000D03*
X223280419Y-75944581D03*
X223280419Y-80505419D03*
X224225000Y-78225000D03*
D18*
X223675000Y-90500000D03*
X223675000Y-103500000D03*
D19*
X218675000Y-100500000D03*
D20*
X218675000Y-97000000D03*
X218675000Y-93500000D03*
D12*
X130055419Y-63280419D03*
X131000000Y-61000000D03*
X131000000Y-65560838D03*
X133280419Y-60055419D03*
D13*
X133280419Y-63280419D03*
D12*
X133280419Y-66505419D03*
X135560838Y-61000000D03*
X135560838Y-65560838D03*
X136505419Y-63280419D03*
X130000000Y-131000000D03*
X130944581Y-128719581D03*
X130944581Y-133280419D03*
X133225000Y-127775000D03*
D13*
X133225000Y-131000000D03*
D12*
X133225000Y-134225000D03*
X135505419Y-128719581D03*
X135505419Y-133280419D03*
X136450000Y-131000000D03*
D21*
X137790000Y-74460000D03*
D22*
X135250000Y-74460000D03*
D21*
X132710000Y-74460000D03*
X137790000Y-77635000D03*
X132710000Y-77635000D03*
D22*
X136266000Y-79540000D03*
X134234000Y-79540000D03*
D23*
X181540000Y-114750000D03*
X179000000Y-114750000D03*
X176460000Y-114750000D03*
D24*
X152390000Y-63355000D03*
X146610000Y-63355000D03*
D25*
X153820000Y-63855000D03*
D26*
X153820000Y-59675000D03*
D25*
X145180000Y-63855000D03*
D26*
X145180000Y-59675000D03*
D14*
X176000000Y-60000000D03*
D15*
X173500000Y-60000000D03*
X171000000Y-60000000D03*
X168500000Y-60000000D03*
X166000000Y-60000000D03*
X163500000Y-60000000D03*
D27*
X181275000Y-95500000D03*
X179725000Y-95500000D03*
D28*
X183000000Y-99725000D03*
X183000000Y-101275000D03*
D29*
X175500000Y-102500000D03*
X177050000Y-102500000D03*
X175500000Y-100750000D03*
X177050000Y-100750000D03*
D28*
X183000000Y-96475000D03*
X183000000Y-98025000D03*
%LPD*%
M02*
