%TF.GenerationSoftware,KiCad,Pcbnew,8.0.4-1.fc40*%
%TF.CreationDate,2024-07-29T21:14:52+02:00*%
%TF.ProjectId,TractionHub,54726163-7469-46f6-9e48-75622e6b6963,rev?*%
%TF.SameCoordinates,Original*%
%TF.FileFunction,Soldermask,Top*%
%TF.FilePolarity,Negative*%
%FSLAX46Y46*%
G04 Gerber Fmt 4.6, Leading zero omitted, Abs format (unit mm)*
G04 Created by KiCad (PCBNEW 8.0.4-1.fc40) date 2024-07-29 21:14:52*
%MOMM*%
%LPD*%
G01*
G04 APERTURE LIST*
G04 Aperture macros list*
%AMRoundRect*
0 Rectangle with rounded corners*
0 $1 Rounding radius*
0 $2 $3 $4 $5 $6 $7 $8 $9 X,Y pos of 4 corners*
0 Add a 4 corners polygon primitive as box body*
4,1,4,$2,$3,$4,$5,$6,$7,$8,$9,$2,$3,0*
0 Add four circle primitives for the rounded corners*
1,1,$1+$1,$2,$3*
1,1,$1+$1,$4,$5*
1,1,$1+$1,$6,$7*
1,1,$1+$1,$8,$9*
0 Add four rect primitives between the rounded corners*
20,1,$1+$1,$2,$3,$4,$5,0*
20,1,$1+$1,$4,$5,$6,$7,0*
20,1,$1+$1,$6,$7,$8,$9,0*
20,1,$1+$1,$8,$9,$2,$3,0*%
%AMRotRect*
0 Rectangle, with rotation*
0 The origin of the aperture is its center*
0 $1 length*
0 $2 width*
0 $3 Rotation angle, in degrees counterclockwise*
0 Add horizontal line*
21,1,$1,$2,0,0,$3*%
G04 Aperture macros list end*
%ADD10RotRect,0.900000X0.800000X45.000000*%
%ADD11RoundRect,0.075000X-0.521491X0.415425X0.415425X-0.521491X0.521491X-0.415425X-0.415425X0.521491X0*%
%ADD12RoundRect,0.075000X-0.521491X-0.415425X-0.415425X-0.521491X0.521491X0.415425X0.415425X0.521491X0*%
%ADD13RoundRect,0.400000X-0.400000X1.100000X-0.400000X-1.100000X0.400000X-1.100000X0.400000X1.100000X0*%
%ADD14RoundRect,0.250000X0.850000X0.350000X-0.850000X0.350000X-0.850000X-0.350000X0.850000X-0.350000X0*%
%ADD15RoundRect,0.249997X2.950003X2.650003X-2.950003X2.650003X-2.950003X-2.650003X2.950003X-2.650003X0*%
%ADD16R,1.475000X0.300000*%
%ADD17R,3.610000X7.110000*%
%ADD18RoundRect,0.225000X0.017678X-0.335876X0.335876X-0.017678X-0.017678X0.335876X-0.335876X0.017678X0*%
%ADD19RoundRect,0.200000X0.275000X-0.200000X0.275000X0.200000X-0.275000X0.200000X-0.275000X-0.200000X0*%
%ADD20RoundRect,0.400000X0.400000X-1.350000X0.400000X1.350000X-0.400000X1.350000X-0.400000X-1.350000X0*%
%ADD21RoundRect,0.225000X-0.017678X0.335876X-0.335876X0.017678X0.017678X-0.335876X0.335876X-0.017678X0*%
%ADD22RoundRect,0.200000X-0.200000X-0.275000X0.200000X-0.275000X0.200000X0.275000X-0.200000X0.275000X0*%
%ADD23RoundRect,0.225000X-0.225000X-0.250000X0.225000X-0.250000X0.225000X0.250000X-0.225000X0.250000X0*%
%ADD24RoundRect,0.725000X-0.725000X-1.975000X0.725000X-1.975000X0.725000X1.975000X-0.725000X1.975000X0*%
%ADD25RoundRect,0.200000X-0.275000X0.200000X-0.275000X-0.200000X0.275000X-0.200000X0.275000X0.200000X0*%
%ADD26RoundRect,0.218750X0.218750X0.256250X-0.218750X0.256250X-0.218750X-0.256250X0.218750X-0.256250X0*%
%ADD27RoundRect,0.225000X0.250000X-0.225000X0.250000X0.225000X-0.250000X0.225000X-0.250000X-0.225000X0*%
%ADD28RoundRect,0.250000X-0.325000X-0.650000X0.325000X-0.650000X0.325000X0.650000X-0.325000X0.650000X0*%
%ADD29RoundRect,0.243600X-0.901400X-0.771400X0.901400X-0.771400X0.901400X0.771400X-0.901400X0.771400X0*%
%ADD30RoundRect,0.091200X-0.608800X-0.288800X0.608800X-0.288800X0.608800X0.288800X-0.608800X0.288800X0*%
%ADD31RoundRect,0.190000X-0.510000X-0.190000X0.510000X-0.190000X0.510000X0.190000X-0.510000X0.190000X0*%
%ADD32RoundRect,0.225000X0.225000X0.250000X-0.225000X0.250000X-0.225000X-0.250000X0.225000X-0.250000X0*%
%ADD33RoundRect,0.225000X-0.335876X-0.017678X-0.017678X-0.335876X0.335876X0.017678X0.017678X0.335876X0*%
%ADD34RoundRect,0.200000X0.200000X0.275000X-0.200000X0.275000X-0.200000X-0.275000X0.200000X-0.275000X0*%
%ADD35C,0.900000*%
%ADD36C,8.600000*%
%ADD37RoundRect,0.250000X0.600000X0.725000X-0.600000X0.725000X-0.600000X-0.725000X0.600000X-0.725000X0*%
%ADD38O,1.700000X1.950000*%
%ADD39RoundRect,1.500000X1.500000X-1.500000X1.500000X1.500000X-1.500000X1.500000X-1.500000X-1.500000X0*%
%ADD40C,6.000000*%
%ADD41RoundRect,0.575000X0.575000X-0.575000X0.575000X0.575000X-0.575000X0.575000X-0.575000X-0.575000X0*%
%ADD42C,1.400000*%
%ADD43R,3.000000X3.000000*%
%ADD44C,3.000000*%
%ADD45RoundRect,0.218750X-0.218750X-0.256250X0.218750X-0.256250X0.218750X0.256250X-0.218750X0.256250X0*%
%ADD46RoundRect,0.200000X-0.053033X0.335876X-0.335876X0.053033X0.053033X-0.335876X0.335876X-0.053033X0*%
%ADD47C,2.374900*%
%ADD48C,0.990600*%
%ADD49C,0.787400*%
%ADD50RoundRect,0.375000X-0.625000X-0.375000X0.625000X-0.375000X0.625000X0.375000X-0.625000X0.375000X0*%
%ADD51RoundRect,0.500000X-0.500000X-1.400000X0.500000X-1.400000X0.500000X1.400000X-0.500000X1.400000X0*%
%ADD52C,2.000000*%
%ADD53C,0.650000*%
%ADD54RoundRect,0.150000X0.150000X0.425000X-0.150000X0.425000X-0.150000X-0.425000X0.150000X-0.425000X0*%
%ADD55RoundRect,0.075000X0.075000X0.500000X-0.075000X0.500000X-0.075000X-0.500000X0.075000X-0.500000X0*%
%ADD56O,1.000000X2.100000*%
%ADD57O,1.000000X1.800000*%
%ADD58RoundRect,0.150000X0.150000X-0.512500X0.150000X0.512500X-0.150000X0.512500X-0.150000X-0.512500X0*%
%ADD59RoundRect,0.400000X-0.400000X1.350000X-0.400000X-1.350000X0.400000X-1.350000X0.400000X1.350000X0*%
%ADD60RoundRect,0.225000X0.335876X0.017678X0.017678X0.335876X-0.335876X-0.017678X-0.017678X-0.335876X0*%
%ADD61RoundRect,0.250000X0.600000X-0.400000X0.600000X0.400000X-0.600000X0.400000X-0.600000X-0.400000X0*%
G04 APERTURE END LIST*
D10*
X149143934Y-82883883D03*
X150133883Y-81893934D03*
X149356066Y-81116117D03*
X148366117Y-82106066D03*
D11*
X153251212Y-82362124D03*
X152897658Y-82715678D03*
X152544105Y-83069231D03*
X152190551Y-83422785D03*
X151836998Y-83776338D03*
X151483445Y-84129891D03*
X151129891Y-84483445D03*
X150776338Y-84836998D03*
X150422785Y-85190551D03*
X150069231Y-85544105D03*
X149715678Y-85897658D03*
X149362124Y-86251212D03*
D12*
X149362124Y-88248788D03*
X149715678Y-88602342D03*
X150069231Y-88955895D03*
X150422785Y-89309449D03*
X150776338Y-89663002D03*
X151129891Y-90016555D03*
X151483445Y-90370109D03*
X151836998Y-90723662D03*
X152190551Y-91077215D03*
X152544105Y-91430769D03*
X152897658Y-91784322D03*
X153251212Y-92137876D03*
D11*
X155248788Y-92137876D03*
X155602342Y-91784322D03*
X155955895Y-91430769D03*
X156309449Y-91077215D03*
X156663002Y-90723662D03*
X157016555Y-90370109D03*
X157370109Y-90016555D03*
X157723662Y-89663002D03*
X158077215Y-89309449D03*
X158430769Y-88955895D03*
X158784322Y-88602342D03*
X159137876Y-88248788D03*
D12*
X159137876Y-86251212D03*
X158784322Y-85897658D03*
X158430769Y-85544105D03*
X158077215Y-85190551D03*
X157723662Y-84836998D03*
X157370109Y-84483445D03*
X157016555Y-84129891D03*
X156663002Y-83776338D03*
X156309449Y-83422785D03*
X155955895Y-83069231D03*
X155602342Y-82715678D03*
X155248788Y-82362124D03*
D13*
X151000000Y-114800000D03*
X151000000Y-119200000D03*
D14*
X197667835Y-88979565D03*
D15*
X191367835Y-86699565D03*
D14*
X197667835Y-84419565D03*
D16*
X172424000Y-90000000D03*
X172424000Y-90500000D03*
X172424000Y-91000000D03*
X172424000Y-91500000D03*
X172424000Y-92000000D03*
X172424000Y-92500000D03*
X172424000Y-93000000D03*
X172424000Y-93500000D03*
X172424000Y-94000000D03*
X172424000Y-94500000D03*
X172424000Y-95000000D03*
X172424000Y-95500000D03*
X172424000Y-96000000D03*
X172424000Y-96500000D03*
X172424000Y-97000000D03*
X172424000Y-97500000D03*
X172424000Y-98000000D03*
X172424000Y-98500000D03*
X172424000Y-99000000D03*
X172424000Y-99500000D03*
X172424000Y-100000000D03*
X172424000Y-100500000D03*
X172424000Y-101000000D03*
X172424000Y-101500000D03*
X172424000Y-102000000D03*
X172424000Y-102500000D03*
X172424000Y-103000000D03*
X172424000Y-103500000D03*
X180000000Y-103500000D03*
X180000000Y-103000000D03*
X180000000Y-102500000D03*
X180000000Y-102000000D03*
X180000000Y-101500000D03*
X180000000Y-101000000D03*
X180000000Y-100500000D03*
X180000000Y-100000000D03*
X180000000Y-99500000D03*
X180000000Y-99000000D03*
X180000000Y-98500000D03*
X180000000Y-98000000D03*
X180000000Y-97500000D03*
X180000000Y-97000000D03*
X180000000Y-96500000D03*
X180000000Y-96000000D03*
X180000000Y-95500000D03*
X180000000Y-95000000D03*
X180000000Y-94500000D03*
X180000000Y-94000000D03*
X180000000Y-93500000D03*
X180000000Y-93000000D03*
X180000000Y-92500000D03*
X180000000Y-92000000D03*
X180000000Y-91500000D03*
X180000000Y-91000000D03*
X180000000Y-90500000D03*
X180000000Y-90000000D03*
D17*
X176212000Y-96750000D03*
D18*
X152201992Y-80548008D03*
X153298008Y-79451992D03*
D19*
X189000000Y-64825000D03*
X189000000Y-63175000D03*
D20*
X196000000Y-127200000D03*
X196000000Y-132800000D03*
D21*
X161798008Y-88451992D03*
X160701992Y-89548008D03*
D22*
X143925000Y-113500000D03*
X145575000Y-113500000D03*
D23*
X172475000Y-88500000D03*
X174025000Y-88500000D03*
D22*
X178425000Y-84750000D03*
X180075000Y-84750000D03*
D24*
X161050000Y-130000000D03*
X170950000Y-130000000D03*
D25*
X180500000Y-70675000D03*
X180500000Y-72325000D03*
D26*
X145537500Y-116000000D03*
X143962500Y-116000000D03*
D27*
X169000000Y-96525000D03*
X169000000Y-94975000D03*
D21*
X148048008Y-92201992D03*
X146951992Y-93298008D03*
D27*
X183750000Y-65775000D03*
X183750000Y-64225000D03*
D28*
X174775000Y-105750000D03*
X177725000Y-105750000D03*
D14*
X209959453Y-109058713D03*
D15*
X203659453Y-106778713D03*
D14*
X209959453Y-104498713D03*
D27*
X166500000Y-93275000D03*
X166500000Y-91725000D03*
D29*
X204009844Y-76669492D03*
D30*
X203564844Y-78574492D03*
D31*
X210424844Y-76034492D03*
D29*
X209979844Y-77939492D03*
D32*
X183525000Y-107500000D03*
X181975000Y-107500000D03*
D33*
X155701992Y-80201992D03*
X156798008Y-81298008D03*
D14*
X197634963Y-109092505D03*
D15*
X191334963Y-106812505D03*
D14*
X197634963Y-104532505D03*
D22*
X196675000Y-101500000D03*
X198325000Y-101500000D03*
X196675000Y-114000000D03*
X198325000Y-114000000D03*
D34*
X201825000Y-79750000D03*
X200175000Y-79750000D03*
D32*
X170025000Y-103500000D03*
X168475000Y-103500000D03*
D22*
X178425000Y-81250000D03*
X180075000Y-81250000D03*
X174925000Y-86500000D03*
X176575000Y-86500000D03*
D35*
X217000000Y-116000000D03*
X217944581Y-113719581D03*
X217944581Y-118280419D03*
X220225000Y-112775000D03*
D36*
X220225000Y-116000000D03*
D35*
X220225000Y-119225000D03*
X222505419Y-113719581D03*
X222505419Y-118280419D03*
X223450000Y-116000000D03*
D37*
X194000000Y-60000000D03*
D38*
X191500000Y-60000000D03*
X189000000Y-60000000D03*
X186500000Y-60000000D03*
X184000000Y-60000000D03*
D27*
X177250000Y-65775000D03*
X177250000Y-64225000D03*
D22*
X174925000Y-84750000D03*
X176575000Y-84750000D03*
X194175000Y-75750000D03*
X195825000Y-75750000D03*
D39*
X134000000Y-100600000D03*
D40*
X134000000Y-93400000D03*
D41*
X144500000Y-132250000D03*
X144500000Y-127750000D03*
D23*
X180475000Y-105750000D03*
X182025000Y-105750000D03*
D35*
X217775000Y-78225000D03*
X218719581Y-75944581D03*
X218719581Y-80505419D03*
X221000000Y-75000000D03*
D36*
X221000000Y-78225000D03*
D35*
X221000000Y-81450000D03*
X223280419Y-75944581D03*
X223280419Y-80505419D03*
X224225000Y-78225000D03*
D21*
X149298008Y-93451992D03*
X148201992Y-94548008D03*
D19*
X186500000Y-64825000D03*
X186500000Y-63175000D03*
D25*
X143250000Y-60675000D03*
X143250000Y-62325000D03*
D14*
X210000000Y-99060000D03*
D15*
X203700000Y-96780000D03*
D14*
X210000000Y-94500000D03*
D20*
X152500000Y-127200000D03*
X152500000Y-132800000D03*
D42*
X223675000Y-90500000D03*
X223675000Y-103500000D03*
D43*
X218675000Y-100500000D03*
D44*
X218675000Y-97000000D03*
X218675000Y-93500000D03*
D25*
X156000000Y-60675000D03*
X156000000Y-62325000D03*
D22*
X194175000Y-81750000D03*
X195825000Y-81750000D03*
D45*
X143962500Y-111750000D03*
X145537500Y-111750000D03*
D35*
X130055419Y-63280419D03*
X131000000Y-61000000D03*
X131000000Y-65560838D03*
X133280419Y-60055419D03*
D36*
X133280419Y-63280419D03*
D35*
X133280419Y-66505419D03*
X135560838Y-61000000D03*
X135560838Y-65560838D03*
X136505419Y-63280419D03*
D22*
X171425000Y-108000000D03*
X173075000Y-108000000D03*
X194175000Y-79750000D03*
X195825000Y-79750000D03*
X194175000Y-77750000D03*
X195825000Y-77750000D03*
D46*
X150583363Y-94666637D03*
X149416637Y-95833363D03*
D35*
X130000000Y-131000000D03*
X130944581Y-128719581D03*
X130944581Y-133280419D03*
X133225000Y-127775000D03*
D36*
X133225000Y-131000000D03*
D35*
X133225000Y-134225000D03*
X135505419Y-128719581D03*
X135505419Y-133280419D03*
X136450000Y-131000000D03*
D47*
X137790000Y-74460000D03*
D48*
X135250000Y-74460000D03*
D47*
X132710000Y-74460000D03*
X137790000Y-77635000D03*
X132710000Y-77635000D03*
D48*
X136266000Y-79540000D03*
X134234000Y-79540000D03*
D49*
X134615000Y-75730000D03*
X135885000Y-75730000D03*
X134615000Y-77000000D03*
X135885000Y-77000000D03*
X134615000Y-78270000D03*
X135885000Y-78270000D03*
D25*
X183750000Y-70675000D03*
X183750000Y-72325000D03*
D29*
X203968905Y-115734576D03*
D30*
X203523905Y-117639576D03*
D31*
X210383905Y-115099576D03*
D29*
X209938905Y-117004576D03*
D27*
X168500000Y-93275000D03*
X168500000Y-91725000D03*
D25*
X177250000Y-70675000D03*
X177250000Y-72325000D03*
D23*
X155975000Y-112000000D03*
X157525000Y-112000000D03*
D20*
X179500000Y-127200000D03*
X179500000Y-132800000D03*
D50*
X156850000Y-114700000D03*
X156850000Y-117000000D03*
D51*
X163150000Y-117000000D03*
D50*
X156850000Y-119300000D03*
D52*
X181540000Y-114750000D03*
X179000000Y-114750000D03*
X176460000Y-114750000D03*
D34*
X145575000Y-118000000D03*
X143925000Y-118000000D03*
D14*
X210000000Y-89000000D03*
D15*
X203700000Y-86720000D03*
D14*
X210000000Y-84440000D03*
D32*
X169775000Y-108000000D03*
X168225000Y-108000000D03*
D53*
X152390000Y-63355000D03*
X146610000Y-63355000D03*
D54*
X152700000Y-64430000D03*
X151900000Y-64430000D03*
D55*
X150750000Y-64430000D03*
X149750000Y-64430000D03*
X149250000Y-64430000D03*
X148250000Y-64430000D03*
D54*
X147100000Y-64430000D03*
X146300000Y-64430000D03*
X146300000Y-64430000D03*
X147100000Y-64430000D03*
D55*
X147750000Y-64430000D03*
X148750000Y-64430000D03*
X150250000Y-64430000D03*
X151250000Y-64430000D03*
D54*
X151900000Y-64430000D03*
X152700000Y-64430000D03*
D56*
X153820000Y-63855000D03*
D57*
X153820000Y-59675000D03*
D56*
X145180000Y-63855000D03*
D57*
X145180000Y-59675000D03*
D22*
X178425000Y-86500000D03*
X180075000Y-86500000D03*
D58*
X148550000Y-70887500D03*
X149500000Y-70887500D03*
X150450000Y-70887500D03*
X150450000Y-68612500D03*
X149500000Y-68612500D03*
X148550000Y-68612500D03*
D59*
X168750000Y-119800000D03*
X168750000Y-114200000D03*
D19*
X191500000Y-64825000D03*
X191500000Y-63175000D03*
D37*
X176000000Y-60000000D03*
D38*
X173500000Y-60000000D03*
X171000000Y-60000000D03*
X168500000Y-60000000D03*
X166000000Y-60000000D03*
X163500000Y-60000000D03*
D34*
X201825000Y-81750000D03*
X200175000Y-81750000D03*
D14*
X197634975Y-99057715D03*
D15*
X191334975Y-96777715D03*
D14*
X197634975Y-94497715D03*
D60*
X153048008Y-94798008D03*
X151951992Y-93701992D03*
D27*
X180500000Y-65775000D03*
X180500000Y-64225000D03*
D22*
X196675000Y-115750000D03*
X198325000Y-115750000D03*
X196675000Y-111500000D03*
X198325000Y-111500000D03*
X205175000Y-111750000D03*
X206825000Y-111750000D03*
D34*
X210325000Y-111750000D03*
X208675000Y-111750000D03*
D20*
X188000000Y-127200000D03*
X188000000Y-132800000D03*
D22*
X178425000Y-83000000D03*
X180075000Y-83000000D03*
D34*
X173075000Y-109750000D03*
X171425000Y-109750000D03*
D61*
X145250000Y-71500000D03*
X145250000Y-68000000D03*
D22*
X196675000Y-91500000D03*
X198325000Y-91500000D03*
D23*
X178475000Y-88500000D03*
X180025000Y-88500000D03*
M02*
