%TF.GenerationSoftware,KiCad,Pcbnew,8.0.4-1.fc40*%
%TF.CreationDate,2024-07-29T21:14:52+02:00*%
%TF.ProjectId,TractionHub,54726163-7469-46f6-9e48-75622e6b6963,rev?*%
%TF.SameCoordinates,Original*%
%TF.FileFunction,Copper,L2,Bot*%
%TF.FilePolarity,Positive*%
%FSLAX46Y46*%
G04 Gerber Fmt 4.6, Leading zero omitted, Abs format (unit mm)*
G04 Created by KiCad (PCBNEW 8.0.4-1.fc40) date 2024-07-29 21:14:52*
%MOMM*%
%LPD*%
G01*
G04 APERTURE LIST*
G04 Aperture macros list*
%AMRoundRect*
0 Rectangle with rounded corners*
0 $1 Rounding radius*
0 $2 $3 $4 $5 $6 $7 $8 $9 X,Y pos of 4 corners*
0 Add a 4 corners polygon primitive as box body*
4,1,4,$2,$3,$4,$5,$6,$7,$8,$9,$2,$3,0*
0 Add four circle primitives for the rounded corners*
1,1,$1+$1,$2,$3*
1,1,$1+$1,$4,$5*
1,1,$1+$1,$6,$7*
1,1,$1+$1,$8,$9*
0 Add four rect primitives between the rounded corners*
20,1,$1+$1,$2,$3,$4,$5,0*
20,1,$1+$1,$4,$5,$6,$7,0*
20,1,$1+$1,$6,$7,$8,$9,0*
20,1,$1+$1,$8,$9,$2,$3,0*%
G04 Aperture macros list end*
%TA.AperFunction,ComponentPad*%
%ADD10C,0.900000*%
%TD*%
%TA.AperFunction,ComponentPad*%
%ADD11C,8.600000*%
%TD*%
%TA.AperFunction,ComponentPad*%
%ADD12RoundRect,0.250000X0.600000X0.725000X-0.600000X0.725000X-0.600000X-0.725000X0.600000X-0.725000X0*%
%TD*%
%TA.AperFunction,ComponentPad*%
%ADD13O,1.700000X1.950000*%
%TD*%
%TA.AperFunction,ComponentPad*%
%ADD14RoundRect,1.500000X1.500000X-1.500000X1.500000X1.500000X-1.500000X1.500000X-1.500000X-1.500000X0*%
%TD*%
%TA.AperFunction,ComponentPad*%
%ADD15C,6.000000*%
%TD*%
%TA.AperFunction,ComponentPad*%
%ADD16C,1.400000*%
%TD*%
%TA.AperFunction,ComponentPad*%
%ADD17R,3.000000X3.000000*%
%TD*%
%TA.AperFunction,ComponentPad*%
%ADD18C,3.000000*%
%TD*%
%TA.AperFunction,ComponentPad*%
%ADD19C,2.000000*%
%TD*%
%TA.AperFunction,ComponentPad*%
%ADD20O,1.000000X2.100000*%
%TD*%
%TA.AperFunction,ComponentPad*%
%ADD21O,1.000000X1.800000*%
%TD*%
%TA.AperFunction,SMDPad,CuDef*%
%ADD22RoundRect,0.225000X0.225000X0.250000X-0.225000X0.250000X-0.225000X-0.250000X0.225000X-0.250000X0*%
%TD*%
%TA.AperFunction,SMDPad,CuDef*%
%ADD23RoundRect,0.225000X-0.250000X0.225000X-0.250000X-0.225000X0.250000X-0.225000X0.250000X0.225000X0*%
%TD*%
%TA.AperFunction,SMDPad,CuDef*%
%ADD24RoundRect,0.225000X-0.225000X-0.250000X0.225000X-0.250000X0.225000X0.250000X-0.225000X0.250000X0*%
%TD*%
%TA.AperFunction,ViaPad*%
%ADD25C,0.600000*%
%TD*%
%TA.AperFunction,Conductor*%
%ADD26C,0.254000*%
%TD*%
%TA.AperFunction,Conductor*%
%ADD27C,0.300000*%
%TD*%
%TA.AperFunction,Conductor*%
%ADD28C,0.400000*%
%TD*%
%TA.AperFunction,Conductor*%
%ADD29C,1.500000*%
%TD*%
%TA.AperFunction,Conductor*%
%ADD30C,0.500000*%
%TD*%
G04 APERTURE END LIST*
D10*
X217000000Y-116000000D03*
X217944581Y-113719581D03*
X217944581Y-118280419D03*
X220225000Y-112775000D03*
D11*
X220225000Y-116000000D03*
D10*
X220225000Y-119225000D03*
X222505419Y-113719581D03*
X222505419Y-118280419D03*
X223450000Y-116000000D03*
D12*
X194000000Y-60000000D03*
D13*
X191500000Y-60000000D03*
X189000000Y-60000000D03*
X186500000Y-60000000D03*
X184000000Y-60000000D03*
D14*
X134000000Y-100600000D03*
D15*
X134000000Y-93400000D03*
D10*
X217775000Y-78225000D03*
X218719581Y-75944581D03*
X218719581Y-80505419D03*
X221000000Y-75000000D03*
D11*
X221000000Y-78225000D03*
D10*
X221000000Y-81450000D03*
X223280419Y-75944581D03*
X223280419Y-80505419D03*
X224225000Y-78225000D03*
D16*
X223675000Y-90500000D03*
X223675000Y-103500000D03*
D17*
X218675000Y-100500000D03*
D18*
X218675000Y-97000000D03*
X218675000Y-93500000D03*
D10*
X130055419Y-63280419D03*
X131000000Y-61000000D03*
X131000000Y-65560838D03*
X133280419Y-60055419D03*
D11*
X133280419Y-63280419D03*
D10*
X133280419Y-66505419D03*
X135560838Y-61000000D03*
X135560838Y-65560838D03*
X136505419Y-63280419D03*
X130000000Y-131000000D03*
X130944581Y-128719581D03*
X130944581Y-133280419D03*
X133225000Y-127775000D03*
D11*
X133225000Y-131000000D03*
D10*
X133225000Y-134225000D03*
X135505419Y-128719581D03*
X135505419Y-133280419D03*
X136450000Y-131000000D03*
D19*
X181540000Y-114750000D03*
X179000000Y-114750000D03*
X176460000Y-114750000D03*
D20*
X153820000Y-63855000D03*
D21*
X153820000Y-59675000D03*
D20*
X145180000Y-63855000D03*
D21*
X145180000Y-59675000D03*
D12*
X176000000Y-60000000D03*
D13*
X173500000Y-60000000D03*
X171000000Y-60000000D03*
X168500000Y-60000000D03*
X166000000Y-60000000D03*
X163500000Y-60000000D03*
D22*
X181275000Y-95500000D03*
X179725000Y-95500000D03*
D23*
X183000000Y-99725000D03*
X183000000Y-101275000D03*
D24*
X175500000Y-102500000D03*
X177050000Y-102500000D03*
X175500000Y-100750000D03*
X177050000Y-100750000D03*
D23*
X183000000Y-96475000D03*
X183000000Y-98025000D03*
D25*
X163000000Y-101000000D03*
X153500000Y-67750000D03*
X167250000Y-103500000D03*
X146500000Y-88250000D03*
X150000000Y-91750000D03*
X162250000Y-75250000D03*
X159000000Y-78500000D03*
X155000000Y-74000000D03*
X154500000Y-78750000D03*
X166500000Y-105500000D03*
X165500000Y-105500000D03*
X141500000Y-92500000D03*
X146250000Y-92500000D03*
X167250000Y-81500000D03*
X209000000Y-96000000D03*
X135250000Y-82500000D03*
X170500000Y-105500000D03*
X209000000Y-97000000D03*
X174250000Y-77500000D03*
X176000000Y-90250000D03*
X172750000Y-83500000D03*
X210000000Y-97000000D03*
X171500000Y-105500000D03*
X175500000Y-64250000D03*
X212000000Y-96000000D03*
X213000000Y-99000000D03*
X211000000Y-97000000D03*
X213000000Y-98000000D03*
X151750000Y-95750000D03*
X210000000Y-96000000D03*
X213000000Y-97000000D03*
X182000000Y-80250000D03*
X167250000Y-82500000D03*
X161500000Y-90425000D03*
X172250000Y-77500000D03*
X211000000Y-96000000D03*
X135250000Y-80500000D03*
X212000000Y-97000000D03*
X212000000Y-99000000D03*
X215000000Y-99000000D03*
X147250000Y-100750000D03*
X214000000Y-99000000D03*
X173250000Y-77500000D03*
X176500000Y-104000000D03*
X182000000Y-86000000D03*
X150623000Y-82873000D03*
X214000000Y-98000000D03*
X212000000Y-98000000D03*
X163750000Y-92750000D03*
X149500000Y-67250000D03*
X176250000Y-83500000D03*
X167250000Y-80500000D03*
X147750000Y-81250000D03*
X178500000Y-90250000D03*
X163500000Y-66500000D03*
X153750000Y-66500000D03*
X153750000Y-121250000D03*
X135750000Y-70500000D03*
X152750000Y-121250000D03*
X136750000Y-70500000D03*
X134750000Y-70500000D03*
X133750000Y-70500000D03*
X169000000Y-66500000D03*
X154750000Y-121250000D03*
X183750000Y-73750000D03*
X134500000Y-72750000D03*
X160250000Y-111250000D03*
X165250000Y-112250000D03*
X162250000Y-114250000D03*
X180500000Y-73750000D03*
X161250000Y-115250000D03*
X177250000Y-73750000D03*
X162250000Y-111250000D03*
X164250000Y-112250000D03*
X163250000Y-111250000D03*
X163250000Y-113250000D03*
X165250000Y-114250000D03*
X151250000Y-79250000D03*
X171127000Y-94000000D03*
X155750000Y-78500000D03*
X165250000Y-111250000D03*
X160250000Y-113250000D03*
X162250000Y-113250000D03*
X164250000Y-113250000D03*
X154000000Y-95750000D03*
X162250000Y-112250000D03*
X164250000Y-111250000D03*
X165250000Y-113250000D03*
X165250000Y-115250000D03*
X161250000Y-112250000D03*
X164250000Y-114250000D03*
X160250000Y-115250000D03*
X162750000Y-87500000D03*
X161250000Y-114250000D03*
X160250000Y-114250000D03*
X165250000Y-116250000D03*
X161250000Y-113250000D03*
X150250000Y-96750000D03*
X163250000Y-112250000D03*
X161250000Y-111250000D03*
X163250000Y-114250000D03*
X154250000Y-112000000D03*
X173750000Y-101000000D03*
X173750000Y-95000000D03*
X195500000Y-83250000D03*
X183750000Y-80750000D03*
X178517002Y-95000000D03*
X182050000Y-93449997D03*
X195500000Y-100500000D03*
X181900000Y-87500000D03*
X184750000Y-98250000D03*
X178517002Y-96500000D03*
X181500000Y-98750000D03*
X181250000Y-83000000D03*
X184750000Y-101500000D03*
X195500000Y-102750000D03*
X184750000Y-103850000D03*
X185500000Y-108500000D03*
X185500000Y-106400000D03*
X195500000Y-114000000D03*
X195500000Y-115750000D03*
X186250000Y-114750000D03*
X185750000Y-104500000D03*
X181000000Y-107500000D03*
X186250000Y-111750000D03*
X178500000Y-102500000D03*
X179500000Y-107000000D03*
X168250000Y-71750000D03*
X183750000Y-69750000D03*
X160500000Y-81250000D03*
X183750000Y-67500000D03*
X167059313Y-73559313D03*
X177250000Y-66873000D03*
X159934313Y-80684313D03*
X177250000Y-69000000D03*
X180500000Y-68250000D03*
X167000000Y-72500000D03*
X180500000Y-69750000D03*
X159250000Y-80250000D03*
X180500000Y-66873000D03*
X195750000Y-91500000D03*
X181750000Y-94250000D03*
X196750000Y-100500000D03*
X184747017Y-97000000D03*
X156000000Y-89000000D03*
X173906998Y-96250000D03*
X188750000Y-79750000D03*
X185750000Y-79750000D03*
X195750000Y-111500000D03*
X185500000Y-100750000D03*
X164200419Y-98500000D03*
X173750000Y-98500000D03*
X212500000Y-87000000D03*
X208250000Y-77500000D03*
X212199073Y-87960404D03*
X208250000Y-78500000D03*
X189000000Y-74250000D03*
X214250000Y-78500000D03*
X212250000Y-79500000D03*
X211500000Y-87000000D03*
X210250000Y-79500000D03*
X211500000Y-86000000D03*
X213173125Y-89029485D03*
X213250000Y-78500000D03*
X208500000Y-87000000D03*
X211250000Y-79500000D03*
X209500000Y-86000000D03*
X209250000Y-79500000D03*
X210500000Y-86000000D03*
X214250000Y-77500000D03*
X213250000Y-79500000D03*
X209500000Y-87000000D03*
X208250000Y-79500000D03*
X210500000Y-87000000D03*
X213173125Y-87976242D03*
X212500000Y-86000000D03*
X214250000Y-79500000D03*
X212250000Y-78500000D03*
X212000000Y-85000000D03*
X212250000Y-77500000D03*
X212222830Y-89013647D03*
X208500000Y-86000000D03*
X213250000Y-77500000D03*
X156750000Y-88250000D03*
X170500000Y-91500000D03*
X169873000Y-92500000D03*
X157750000Y-87750000D03*
X159750000Y-84000000D03*
X161750000Y-92500000D03*
X173750000Y-99500000D03*
X165000000Y-99500000D03*
X187000000Y-111250000D03*
X187250000Y-117000000D03*
X185500000Y-103250000D03*
X212000000Y-117000000D03*
X189500000Y-81750000D03*
X183750000Y-82500000D03*
X195786525Y-112753683D03*
X185500000Y-102250000D03*
X152500000Y-85250000D03*
X150250000Y-80000000D03*
X167750000Y-65000000D03*
X158250000Y-74500000D03*
X154000000Y-88000000D03*
X154750000Y-88750000D03*
X159250000Y-74500000D03*
X153250000Y-87250000D03*
X167750000Y-64000000D03*
X169250000Y-64000000D03*
X157250000Y-74500000D03*
X198750000Y-81750000D03*
X208500000Y-89000000D03*
X197500000Y-79750000D03*
X208500000Y-99060000D03*
X197500000Y-75750000D03*
X207000000Y-75750000D03*
X144000000Y-81750000D03*
X163875000Y-72125000D03*
X163000000Y-72500000D03*
X144750000Y-80750000D03*
X174000000Y-82500000D03*
X162000000Y-73250000D03*
X176000000Y-82500000D03*
X145750000Y-81250000D03*
D26*
X149000000Y-81250000D02*
X147750000Y-81250000D01*
X150623000Y-82873000D02*
X149000000Y-81250000D01*
X150000000Y-67750000D02*
X153500000Y-67750000D01*
X149500000Y-67250000D02*
X150000000Y-67750000D01*
D27*
X167250000Y-103500000D02*
X167250000Y-104750000D01*
X167250000Y-104750000D02*
X166500000Y-105500000D01*
X150000000Y-91750000D02*
X146500000Y-88250000D01*
D28*
X159000000Y-78500000D02*
X162250000Y-75250000D01*
X155050000Y-74050000D02*
X155000000Y-74000000D01*
X155050000Y-78700000D02*
X155050000Y-74050000D01*
X155000000Y-78750000D02*
X155050000Y-78700000D01*
X154500000Y-78750000D02*
X155000000Y-78750000D01*
D26*
X135250000Y-80500000D02*
X135250000Y-82500000D01*
D28*
X182000000Y-86000000D02*
X182000000Y-80250000D01*
D29*
X170250000Y-77500000D02*
X167250000Y-80500000D01*
X174250000Y-77500000D02*
X170250000Y-77500000D01*
D27*
X161500000Y-90500000D02*
X163750000Y-92750000D01*
X151750000Y-96169239D02*
X147250000Y-100669239D01*
D28*
X146250000Y-92500000D02*
X141500000Y-92500000D01*
D27*
X147250000Y-100669239D02*
X147250000Y-100750000D01*
X161500000Y-90425000D02*
X161500000Y-90500000D01*
D30*
X176000000Y-63750000D02*
X175500000Y-64250000D01*
D28*
X177050000Y-100750000D02*
X177050000Y-102500000D01*
D30*
X176000000Y-60000000D02*
X176000000Y-63750000D01*
D28*
X176250000Y-83500000D02*
X172750000Y-83500000D01*
X178500000Y-90250000D02*
X176000000Y-90250000D01*
D27*
X151750000Y-95750000D02*
X151750000Y-96169239D01*
D28*
X177050000Y-103450000D02*
X176500000Y-104000000D01*
X177050000Y-102500000D02*
X177050000Y-103450000D01*
D29*
X165500000Y-105500000D02*
X171500000Y-105500000D01*
X167250000Y-82500000D02*
X167250000Y-80500000D01*
X133750000Y-70500000D02*
X134750000Y-70500000D01*
X139000000Y-115500000D02*
X139000000Y-90000000D01*
X128500000Y-72250000D02*
X130250000Y-70500000D01*
X134750000Y-70500000D02*
X135750000Y-70500000D01*
X128500000Y-85750000D02*
X128500000Y-72250000D01*
X136500000Y-87500000D02*
X130250000Y-87500000D01*
D30*
X169000000Y-66500000D02*
X163500000Y-66500000D01*
D29*
X130250000Y-70500000D02*
X133750000Y-70500000D01*
D30*
X140750000Y-66500000D02*
X136750000Y-70500000D01*
X153750000Y-66500000D02*
X140750000Y-66500000D01*
D29*
X152750000Y-121250000D02*
X144750000Y-121250000D01*
X139000000Y-90000000D02*
X136500000Y-87500000D01*
X152750000Y-121250000D02*
X154750000Y-121250000D01*
X135750000Y-70500000D02*
X136750000Y-70500000D01*
X144750000Y-121250000D02*
X139000000Y-115500000D01*
X130250000Y-87500000D02*
X128500000Y-85750000D01*
D27*
X171127000Y-94000000D02*
X172500000Y-94000000D01*
X174500000Y-101000000D02*
X175250000Y-101000000D01*
X175500000Y-102500000D02*
X175500000Y-100750000D01*
X174750000Y-100750000D02*
X174500000Y-101000000D01*
X174250000Y-95000000D02*
X174750000Y-95500000D01*
X174750000Y-95500000D02*
X174750000Y-100750000D01*
X173750000Y-95000000D02*
X174250000Y-95000000D01*
X173750000Y-101000000D02*
X174500000Y-101000000D01*
X175250000Y-101000000D02*
X175500000Y-100750000D01*
X179225000Y-95000000D02*
X179725000Y-95500000D01*
X178517002Y-95000000D02*
X179225000Y-95000000D01*
D28*
X195000000Y-80750000D02*
X185500000Y-80750000D01*
X185500000Y-80750000D02*
X183750000Y-80750000D01*
X195500000Y-81250000D02*
X195000000Y-80750000D01*
X195500000Y-83250000D02*
X195500000Y-81250000D01*
D27*
X181000000Y-94000000D02*
X181000000Y-95225000D01*
X181000000Y-95225000D02*
X181275000Y-95500000D01*
X182050000Y-93449997D02*
X181550003Y-93449997D01*
X181550003Y-93449997D02*
X181000000Y-94000000D01*
X179000000Y-92500000D02*
X177750000Y-93750000D01*
D28*
X188000000Y-100750000D02*
X195250000Y-100750000D01*
X184750000Y-98250000D02*
X185500000Y-98250000D01*
X195250000Y-100750000D02*
X195500000Y-100500000D01*
D27*
X181000000Y-92500000D02*
X179000000Y-92500000D01*
X183250000Y-98250000D02*
X183025000Y-98025000D01*
X181900000Y-87500000D02*
X181900000Y-91600000D01*
X183025000Y-98025000D02*
X183000000Y-98025000D01*
X178775000Y-98025000D02*
X183000000Y-98025000D01*
X177750000Y-97000000D02*
X178775000Y-98025000D01*
X177750000Y-93750000D02*
X177750000Y-97000000D01*
X181900000Y-91600000D02*
X181000000Y-92500000D01*
X184750000Y-98250000D02*
X183250000Y-98250000D01*
D28*
X185500000Y-98250000D02*
X188000000Y-100750000D01*
D27*
X183000000Y-96475000D02*
X182975000Y-96500000D01*
X182975000Y-96500000D02*
X178517002Y-96500000D01*
X181750000Y-99000000D02*
X182275000Y-99000000D01*
X181500000Y-98750000D02*
X181750000Y-99000000D01*
X182275000Y-99000000D02*
X183000000Y-99725000D01*
X177000000Y-97500000D02*
X177000000Y-93250000D01*
D28*
X195500000Y-102750000D02*
X187750000Y-102750000D01*
D27*
X178750000Y-99250000D02*
X177000000Y-97500000D01*
D28*
X187750000Y-102750000D02*
X186500000Y-101500000D01*
D27*
X182275000Y-101275000D02*
X180250000Y-99250000D01*
X178750000Y-91500000D02*
X180500000Y-91500000D01*
X184525000Y-101275000D02*
X184750000Y-101500000D01*
X180250000Y-99250000D02*
X178750000Y-99250000D01*
X177000000Y-93250000D02*
X178750000Y-91500000D01*
X183000000Y-101275000D02*
X182275000Y-101275000D01*
D28*
X186500000Y-101500000D02*
X184750000Y-101500000D01*
D27*
X183000000Y-101275000D02*
X184525000Y-101275000D01*
X180500000Y-91500000D02*
X181250000Y-90750000D01*
X181250000Y-90750000D02*
X181250000Y-83000000D01*
D28*
X185500000Y-112250000D02*
X187250000Y-114000000D01*
X187250000Y-114000000D02*
X195500000Y-114000000D01*
X185500000Y-106400000D02*
X184750000Y-105650000D01*
X185500000Y-108500000D02*
X185500000Y-112250000D01*
X184750000Y-105650000D02*
X184750000Y-103850000D01*
X186250000Y-114750000D02*
X187250000Y-115750000D01*
X186250000Y-105000000D02*
X185750000Y-104500000D01*
D27*
X181000000Y-107500000D02*
X186250000Y-107500000D01*
D28*
X187250000Y-115750000D02*
X195500000Y-115750000D01*
X186250000Y-107500000D02*
X186250000Y-105000000D01*
X186250000Y-107500000D02*
X186250000Y-111750000D01*
D27*
X178500000Y-102500000D02*
X178500000Y-106000000D01*
X178500000Y-106000000D02*
X179500000Y-107000000D01*
D26*
X168250000Y-73500000D02*
X160500000Y-81250000D01*
X183750000Y-69750000D02*
X183750000Y-67500000D01*
X168250000Y-71750000D02*
X168250000Y-73500000D01*
X167059313Y-73559313D02*
X159934313Y-80684313D01*
X177250000Y-66873000D02*
X177250000Y-69000000D01*
X159250000Y-80250000D02*
X167000000Y-72500000D01*
X180500000Y-66873000D02*
X180500000Y-68250000D01*
X180500000Y-69750000D02*
X180500000Y-68250000D01*
D28*
X193000000Y-94250000D02*
X181750000Y-94250000D01*
X195750000Y-91500000D02*
X193000000Y-94250000D01*
X188250000Y-99500000D02*
X195750000Y-99500000D01*
X195750000Y-99500000D02*
X196750000Y-100500000D01*
X185750000Y-97000000D02*
X188250000Y-99500000D01*
X184747017Y-97000000D02*
X185750000Y-97000000D01*
D26*
X156000000Y-89500000D02*
X156000000Y-89000000D01*
X173906998Y-96250000D02*
X162750000Y-96250000D01*
X162750000Y-96250000D02*
X156000000Y-89500000D01*
D28*
X188750000Y-79750000D02*
X185750000Y-79750000D01*
X186750000Y-100750000D02*
X185500000Y-100750000D01*
X195750000Y-104250000D02*
X196250000Y-103750000D01*
X197250000Y-102750000D02*
X197250000Y-102250000D01*
X194750000Y-101750000D02*
X187750000Y-101750000D01*
X187750000Y-101750000D02*
X187000000Y-101000000D01*
X196750000Y-101750000D02*
X194750000Y-101750000D01*
X195750000Y-111500000D02*
X195750000Y-104250000D01*
X187000000Y-101000000D02*
X186750000Y-100750000D01*
X197250000Y-102250000D02*
X196750000Y-101750000D01*
X196250000Y-103750000D02*
X197250000Y-102750000D01*
D26*
X164200419Y-98500000D02*
X173750000Y-98500000D01*
D28*
X211000000Y-74250000D02*
X189750000Y-74250000D01*
X212250000Y-77500000D02*
X212250000Y-75500000D01*
X189750000Y-74250000D02*
X189000000Y-74250000D01*
X212250000Y-75500000D02*
X211000000Y-74250000D01*
D26*
X156750000Y-89500000D02*
X156750000Y-88250000D01*
X170500000Y-91500000D02*
X170500000Y-94750000D01*
X170500000Y-94750000D02*
X169750000Y-95500000D01*
X162750000Y-95500000D02*
X156750000Y-89500000D01*
X169750000Y-95500000D02*
X162750000Y-95500000D01*
X169250000Y-95000000D02*
X163250000Y-95000000D01*
X169873000Y-92500000D02*
X169873000Y-94377000D01*
X163250000Y-95000000D02*
X157750000Y-89500000D01*
X169873000Y-94377000D02*
X169250000Y-95000000D01*
X157750000Y-89500000D02*
X157750000Y-87750000D01*
X159750000Y-84000000D02*
X159750000Y-90500000D01*
X159750000Y-90500000D02*
X161750000Y-92500000D01*
X165000000Y-99500000D02*
X173750000Y-99500000D01*
D28*
X211750000Y-117250000D02*
X188000000Y-117250000D01*
X187000000Y-111250000D02*
X187000000Y-104500000D01*
X187500000Y-117250000D02*
X187250000Y-117000000D01*
X188000000Y-117250000D02*
X187500000Y-117250000D01*
X212000000Y-117000000D02*
X211750000Y-117250000D01*
X185750000Y-103250000D02*
X185500000Y-103250000D01*
X187000000Y-104500000D02*
X185750000Y-103250000D01*
X183750000Y-82500000D02*
X184500000Y-81750000D01*
X184500000Y-81750000D02*
X189500000Y-81750000D01*
X195782842Y-112750000D02*
X189750000Y-112750000D01*
X195786525Y-112753683D02*
X195782842Y-112750000D01*
X189750000Y-112750000D02*
X188750000Y-111750000D01*
X188750000Y-111750000D02*
X188750000Y-105000000D01*
X186000000Y-102250000D02*
X185500000Y-102250000D01*
X188750000Y-105000000D02*
X186000000Y-102250000D01*
D26*
X152500000Y-85250000D02*
X152500000Y-82250000D01*
X152500000Y-82250000D02*
X150250000Y-80000000D01*
X167750000Y-65000000D02*
X169500000Y-65000000D01*
X157750000Y-75000000D02*
X158250000Y-74500000D01*
X157750000Y-84250000D02*
X157750000Y-81750000D01*
X154000000Y-88000000D02*
X157750000Y-84250000D01*
X169500000Y-65000000D02*
X171000000Y-63500000D01*
X171000000Y-63500000D02*
X171000000Y-60000000D01*
X157750000Y-81750000D02*
X157750000Y-75000000D01*
X158250000Y-79000000D02*
X158250000Y-76000000D01*
X154750000Y-88750000D02*
X158250000Y-85250000D01*
X158250000Y-85250000D02*
X158250000Y-79000000D01*
X158250000Y-76000000D02*
X158250000Y-75500000D01*
X158250000Y-75500000D02*
X159250000Y-74500000D01*
X167750000Y-64000000D02*
X169250000Y-64000000D01*
X153250000Y-87250000D02*
X157250000Y-83250000D01*
X157250000Y-83250000D02*
X157250000Y-74500000D01*
D28*
X198750000Y-82250000D02*
X198750000Y-81750000D01*
X201000000Y-89000000D02*
X198750000Y-86750000D01*
X198750000Y-86750000D02*
X198750000Y-82250000D01*
X208500000Y-89000000D02*
X201000000Y-89000000D01*
X208440000Y-99000000D02*
X199750000Y-99000000D01*
X199750000Y-99000000D02*
X197500000Y-96750000D01*
X208500000Y-99060000D02*
X208440000Y-99000000D01*
X197500000Y-96750000D02*
X197500000Y-82157398D01*
X197500000Y-82157398D02*
X197500000Y-79750000D01*
X207000000Y-75750000D02*
X197500000Y-75750000D01*
D27*
X152500000Y-71750000D02*
X144000000Y-80250000D01*
X144000000Y-80250000D02*
X144000000Y-81750000D01*
X163875000Y-72125000D02*
X163500000Y-71750000D01*
X163500000Y-71750000D02*
X152500000Y-71750000D01*
X152750000Y-72500000D02*
X144750000Y-80500000D01*
X144750000Y-80500000D02*
X144750000Y-80750000D01*
X163000000Y-72500000D02*
X152750000Y-72500000D01*
X145750000Y-80500000D02*
X145750000Y-81250000D01*
X153000000Y-73250000D02*
X145750000Y-80500000D01*
X174000000Y-82500000D02*
X176000000Y-82500000D01*
X162000000Y-73250000D02*
X153000000Y-73250000D01*
%TA.AperFunction,Conductor*%
G36*
X202458456Y-70459698D02*
G01*
X202491272Y-70489860D01*
X202687940Y-70750289D01*
X202687947Y-70750299D01*
X202955838Y-71044161D01*
X203249700Y-71312052D01*
X203249704Y-71312055D01*
X203567035Y-71551692D01*
X203905122Y-71761027D01*
X204261082Y-71938274D01*
X204631878Y-72081921D01*
X205014338Y-72190739D01*
X205014338Y-72190740D01*
X205014340Y-72190740D01*
X205014346Y-72190742D01*
X205405224Y-72263810D01*
X205405229Y-72263810D01*
X205405232Y-72263811D01*
X205596089Y-72281496D01*
X205801176Y-72300500D01*
X205960438Y-72300500D01*
X222952405Y-72300500D01*
X222996949Y-72300500D01*
X223003032Y-72300648D01*
X223356532Y-72318015D01*
X223368640Y-72319208D01*
X223477576Y-72335367D01*
X223715717Y-72370692D01*
X223727635Y-72373062D01*
X224068008Y-72458321D01*
X224079646Y-72461852D01*
X224409996Y-72580054D01*
X224421237Y-72584710D01*
X224646857Y-72691419D01*
X224738433Y-72734731D01*
X224749150Y-72740459D01*
X225050102Y-72920843D01*
X225060220Y-72927603D01*
X225342049Y-73136622D01*
X225351455Y-73144342D01*
X225611436Y-73379974D01*
X225620025Y-73388563D01*
X225748048Y-73529815D01*
X225855657Y-73648544D01*
X225863377Y-73657950D01*
X226072396Y-73939779D01*
X226079156Y-73949897D01*
X226186389Y-74128805D01*
X226259533Y-74250837D01*
X226265270Y-74261570D01*
X226415289Y-74578762D01*
X226419945Y-74590003D01*
X226538147Y-74920353D01*
X226541680Y-74931998D01*
X226626934Y-75272351D01*
X226629308Y-75284287D01*
X226680791Y-75631359D01*
X226681984Y-75643468D01*
X226699351Y-75996966D01*
X226699500Y-76003051D01*
X226699500Y-117996948D01*
X226699351Y-118003033D01*
X226681984Y-118356531D01*
X226680791Y-118368640D01*
X226629308Y-118715712D01*
X226626934Y-118727648D01*
X226541680Y-119068001D01*
X226538147Y-119079646D01*
X226419945Y-119409996D01*
X226415289Y-119421237D01*
X226265270Y-119738429D01*
X226259533Y-119749162D01*
X226079156Y-120050102D01*
X226072396Y-120060220D01*
X225863377Y-120342049D01*
X225855657Y-120351455D01*
X225620033Y-120611428D01*
X225611428Y-120620033D01*
X225351455Y-120855657D01*
X225342049Y-120863377D01*
X225060220Y-121072396D01*
X225050102Y-121079156D01*
X224749162Y-121259533D01*
X224738429Y-121265270D01*
X224421237Y-121415289D01*
X224409996Y-121419945D01*
X224079646Y-121538147D01*
X224068001Y-121541680D01*
X223727648Y-121626934D01*
X223715712Y-121629308D01*
X223368640Y-121680791D01*
X223356531Y-121681984D01*
X223023016Y-121698369D01*
X223003031Y-121699351D01*
X222996949Y-121699500D01*
X206047595Y-121699500D01*
X206000000Y-121699500D01*
X205801176Y-121699500D01*
X205729551Y-121706136D01*
X205405232Y-121736188D01*
X205405231Y-121736188D01*
X205014338Y-121809259D01*
X205014338Y-121809260D01*
X204631880Y-121918078D01*
X204261081Y-122061726D01*
X203905122Y-122238973D01*
X203567033Y-122448309D01*
X203249709Y-122687940D01*
X203249700Y-122687947D01*
X202955838Y-122955838D01*
X202687947Y-123249700D01*
X202687940Y-123249709D01*
X202448309Y-123567033D01*
X202238973Y-123905122D01*
X202061726Y-124261081D01*
X201918078Y-124631880D01*
X201809260Y-125014338D01*
X201809259Y-125014338D01*
X201736188Y-125405231D01*
X201736188Y-125405232D01*
X201699500Y-125801178D01*
X201699500Y-132996948D01*
X201699351Y-133003033D01*
X201681984Y-133356531D01*
X201680791Y-133368640D01*
X201629308Y-133715712D01*
X201626934Y-133727648D01*
X201541680Y-134068001D01*
X201538147Y-134079646D01*
X201419945Y-134409996D01*
X201415289Y-134421237D01*
X201265270Y-134738429D01*
X201259533Y-134749162D01*
X201079156Y-135050102D01*
X201072396Y-135060220D01*
X200863377Y-135342049D01*
X200855657Y-135351455D01*
X200620033Y-135611428D01*
X200611428Y-135620033D01*
X200351455Y-135855657D01*
X200342049Y-135863377D01*
X200060220Y-136072396D01*
X200050102Y-136079156D01*
X199749162Y-136259533D01*
X199738429Y-136265270D01*
X199421237Y-136415289D01*
X199409996Y-136419945D01*
X199079646Y-136538147D01*
X199068001Y-136541680D01*
X198727648Y-136626934D01*
X198715712Y-136629308D01*
X198368640Y-136680791D01*
X198356531Y-136681984D01*
X198023016Y-136698369D01*
X198003031Y-136699351D01*
X197996949Y-136699500D01*
X131003051Y-136699500D01*
X130996968Y-136699351D01*
X130975811Y-136698311D01*
X130643468Y-136681984D01*
X130631359Y-136680791D01*
X130284287Y-136629308D01*
X130272351Y-136626934D01*
X129931998Y-136541680D01*
X129920353Y-136538147D01*
X129590003Y-136419945D01*
X129578762Y-136415289D01*
X129261570Y-136265270D01*
X129250842Y-136259535D01*
X128949897Y-136079156D01*
X128939779Y-136072396D01*
X128657950Y-135863377D01*
X128648544Y-135855657D01*
X128532295Y-135750296D01*
X128388563Y-135620025D01*
X128379974Y-135611436D01*
X128144342Y-135351455D01*
X128136622Y-135342049D01*
X127927603Y-135060220D01*
X127920843Y-135050102D01*
X127740459Y-134749150D01*
X127734729Y-134738429D01*
X127584710Y-134421237D01*
X127580054Y-134409996D01*
X127461852Y-134079646D01*
X127458319Y-134068001D01*
X127373062Y-133727635D01*
X127370691Y-133715712D01*
X127319208Y-133368640D01*
X127318015Y-133356530D01*
X127300649Y-133003032D01*
X127300500Y-132996948D01*
X127300500Y-89374000D01*
X127320185Y-89306961D01*
X127372989Y-89261206D01*
X127424500Y-89250000D01*
X135942968Y-89250000D01*
X136010007Y-89269685D01*
X136037116Y-89293302D01*
X137470148Y-90965173D01*
X137498831Y-91028883D01*
X137500000Y-91045870D01*
X137500000Y-98102659D01*
X137480315Y-98169698D01*
X137427511Y-98215453D01*
X137358353Y-98225397D01*
X137294797Y-98196372D01*
X137267168Y-98162086D01*
X137187229Y-98015690D01*
X137187224Y-98015682D01*
X137015745Y-97786612D01*
X137015729Y-97786594D01*
X136813405Y-97584270D01*
X136813387Y-97584254D01*
X136584317Y-97412775D01*
X136584309Y-97412770D01*
X136333166Y-97275635D01*
X136333167Y-97275635D01*
X136121118Y-97196545D01*
X136065046Y-97175631D01*
X136065043Y-97175630D01*
X136065037Y-97175628D01*
X135785433Y-97114804D01*
X135571450Y-97099500D01*
X135571448Y-97099500D01*
X132428552Y-97099500D01*
X132428549Y-97099500D01*
X132214566Y-97114804D01*
X131934962Y-97175628D01*
X131666833Y-97275635D01*
X131415690Y-97412770D01*
X131415682Y-97412775D01*
X131186612Y-97584254D01*
X131186594Y-97584270D01*
X130984270Y-97786594D01*
X130984254Y-97786612D01*
X130812775Y-98015682D01*
X130812770Y-98015690D01*
X130675635Y-98266833D01*
X130575628Y-98534962D01*
X130514804Y-98814566D01*
X130499500Y-99028549D01*
X130499500Y-102171450D01*
X130514804Y-102385433D01*
X130575628Y-102665037D01*
X130575630Y-102665043D01*
X130575631Y-102665046D01*
X130591823Y-102708458D01*
X130675635Y-102933166D01*
X130812770Y-103184309D01*
X130812775Y-103184317D01*
X130984254Y-103413387D01*
X130984270Y-103413405D01*
X131186594Y-103615729D01*
X131186612Y-103615745D01*
X131415682Y-103787224D01*
X131415690Y-103787229D01*
X131666833Y-103924364D01*
X131666832Y-103924364D01*
X131666836Y-103924365D01*
X131666839Y-103924367D01*
X131934954Y-104024369D01*
X131934960Y-104024370D01*
X131934962Y-104024371D01*
X132214566Y-104085195D01*
X132214568Y-104085195D01*
X132214572Y-104085196D01*
X132428552Y-104100500D01*
X135571448Y-104100500D01*
X135785428Y-104085196D01*
X135813640Y-104079059D01*
X136065037Y-104024371D01*
X136065037Y-104024370D01*
X136065046Y-104024369D01*
X136333161Y-103924367D01*
X136584315Y-103787226D01*
X136813395Y-103615739D01*
X137015739Y-103413395D01*
X137187226Y-103184315D01*
X137252663Y-103064476D01*
X137267168Y-103037913D01*
X137316573Y-102988508D01*
X137384846Y-102973656D01*
X137450310Y-102998073D01*
X137492182Y-103054006D01*
X137500000Y-103097340D01*
X137500000Y-116000000D01*
X144000000Y-122500000D01*
X144640354Y-122500000D01*
X144650077Y-122500382D01*
X144651577Y-122500500D01*
X144651583Y-122500500D01*
X154848423Y-122500500D01*
X154849923Y-122500382D01*
X154859646Y-122500000D01*
X155926552Y-122500000D01*
X155944198Y-122501262D01*
X155947325Y-122501711D01*
X155973675Y-122505500D01*
X155973678Y-122505500D01*
X184698640Y-122505500D01*
X184706016Y-122505104D01*
X184752678Y-122502603D01*
X184770275Y-122500710D01*
X184783532Y-122500000D01*
X185500000Y-122500000D01*
X188000000Y-120000000D01*
X188000000Y-119241381D01*
X188001160Y-119224458D01*
X188001162Y-119224439D01*
X188005186Y-119195237D01*
X188000002Y-118314010D01*
X188000000Y-118313281D01*
X188000000Y-118074500D01*
X188019685Y-118007461D01*
X188072489Y-117961706D01*
X188124000Y-117950500D01*
X211818996Y-117950500D01*
X211910040Y-117932389D01*
X211954328Y-117923580D01*
X212081811Y-117870775D01*
X212196543Y-117794114D01*
X212199281Y-117791375D01*
X212246015Y-117762006D01*
X212349522Y-117725789D01*
X212502262Y-117629816D01*
X212629816Y-117502262D01*
X212725789Y-117349522D01*
X212785368Y-117179255D01*
X212805565Y-117000000D01*
X212785368Y-116820745D01*
X212725789Y-116650478D01*
X212629816Y-116497738D01*
X212502262Y-116370184D01*
X212461063Y-116344297D01*
X212349523Y-116274211D01*
X212179254Y-116214631D01*
X212179249Y-116214630D01*
X212000004Y-116194435D01*
X211999996Y-116194435D01*
X211820750Y-116214630D01*
X211820745Y-116214631D01*
X211650476Y-116274211D01*
X211497737Y-116370184D01*
X211370183Y-116497738D01*
X211366135Y-116502815D01*
X211308946Y-116542954D01*
X211269190Y-116549500D01*
X196131940Y-116549500D01*
X196064901Y-116529815D01*
X196019146Y-116477011D01*
X196009202Y-116407853D01*
X196038227Y-116344297D01*
X196044259Y-116337819D01*
X196067432Y-116314646D01*
X196129816Y-116252262D01*
X196225789Y-116099522D01*
X196285368Y-115929255D01*
X196305565Y-115750000D01*
X196287068Y-115585836D01*
X196285369Y-115570750D01*
X196285368Y-115570745D01*
X196255208Y-115484554D01*
X196225789Y-115400478D01*
X196129816Y-115247738D01*
X196002262Y-115120184D01*
X195849523Y-115024211D01*
X195757588Y-114992042D01*
X195700812Y-114951320D01*
X195675065Y-114886367D01*
X195688521Y-114817806D01*
X195736908Y-114767403D01*
X195757588Y-114757958D01*
X195849522Y-114725789D01*
X196002262Y-114629816D01*
X196129816Y-114502262D01*
X196225789Y-114349522D01*
X196285368Y-114179255D01*
X196287833Y-114157376D01*
X196305565Y-114000003D01*
X196305565Y-113999996D01*
X196285369Y-113820750D01*
X196285368Y-113820745D01*
X196225789Y-113650478D01*
X196189323Y-113592442D01*
X196170323Y-113525205D01*
X196190691Y-113458370D01*
X196228344Y-113421477D01*
X196288787Y-113383499D01*
X196416341Y-113255945D01*
X196512314Y-113103205D01*
X196571893Y-112932938D01*
X196592090Y-112753683D01*
X196571893Y-112574428D01*
X196512314Y-112404161D01*
X196416341Y-112251421D01*
X196361180Y-112196260D01*
X196327695Y-112134937D01*
X196332679Y-112065245D01*
X196361180Y-112020898D01*
X196368897Y-112013181D01*
X196379816Y-112002262D01*
X196475789Y-111849522D01*
X196535368Y-111679255D01*
X196535369Y-111679249D01*
X196555565Y-111500003D01*
X196555565Y-111499996D01*
X196535369Y-111320750D01*
X196535366Y-111320737D01*
X196475790Y-111150479D01*
X196469506Y-111140478D01*
X196450500Y-111074507D01*
X196450500Y-104591519D01*
X196470185Y-104524480D01*
X196486819Y-104503838D01*
X197490658Y-103499999D01*
X222469357Y-103499999D01*
X222469357Y-103500000D01*
X222489884Y-103721535D01*
X222489885Y-103721537D01*
X222550769Y-103935523D01*
X222550775Y-103935538D01*
X222649938Y-104134683D01*
X222649943Y-104134691D01*
X222784020Y-104312238D01*
X222948437Y-104462123D01*
X222948439Y-104462125D01*
X223137595Y-104579245D01*
X223137596Y-104579245D01*
X223137599Y-104579247D01*
X223345060Y-104659618D01*
X223563757Y-104700500D01*
X223563759Y-104700500D01*
X223786241Y-104700500D01*
X223786243Y-104700500D01*
X224004940Y-104659618D01*
X224212401Y-104579247D01*
X224401562Y-104462124D01*
X224565981Y-104312236D01*
X224700058Y-104134689D01*
X224799229Y-103935528D01*
X224860115Y-103721536D01*
X224880643Y-103500000D01*
X224877523Y-103466334D01*
X224860115Y-103278464D01*
X224860114Y-103278462D01*
X224857109Y-103267901D01*
X224799229Y-103064472D01*
X224799224Y-103064461D01*
X224700061Y-102865316D01*
X224700056Y-102865308D01*
X224565979Y-102687761D01*
X224401562Y-102537876D01*
X224401560Y-102537874D01*
X224212404Y-102420754D01*
X224212398Y-102420752D01*
X224004940Y-102340382D01*
X223786243Y-102299500D01*
X223563757Y-102299500D01*
X223345060Y-102340382D01*
X223228783Y-102385428D01*
X223137601Y-102420752D01*
X223137595Y-102420754D01*
X222948439Y-102537874D01*
X222948437Y-102537876D01*
X222784020Y-102687761D01*
X222649943Y-102865308D01*
X222649938Y-102865316D01*
X222550775Y-103064461D01*
X222550769Y-103064476D01*
X222489885Y-103278462D01*
X222489884Y-103278464D01*
X222469357Y-103499999D01*
X197490658Y-103499999D01*
X197794112Y-103196545D01*
X197794114Y-103196543D01*
X197870775Y-103081811D01*
X197877956Y-103064476D01*
X197915574Y-102973656D01*
X197923580Y-102954328D01*
X197941287Y-102865311D01*
X197950500Y-102818996D01*
X197950500Y-102181006D01*
X197944427Y-102150479D01*
X197944427Y-102150476D01*
X197933044Y-102093249D01*
X197923580Y-102045672D01*
X197895578Y-101978068D01*
X197870777Y-101918192D01*
X197794112Y-101803454D01*
X197274049Y-101283391D01*
X197240564Y-101222068D01*
X197245548Y-101152376D01*
X197274049Y-101108029D01*
X197288471Y-101093607D01*
X197379816Y-101002262D01*
X197475789Y-100849522D01*
X197535368Y-100679255D01*
X197541910Y-100621192D01*
X197555565Y-100500003D01*
X197555565Y-100499996D01*
X197535369Y-100320750D01*
X197535368Y-100320745D01*
X197475788Y-100150476D01*
X197436582Y-100088080D01*
X197379816Y-99997738D01*
X197252262Y-99870184D01*
X197099522Y-99774211D01*
X197099519Y-99774209D01*
X196996013Y-99737990D01*
X196949287Y-99708630D01*
X196196546Y-98955888D01*
X196196545Y-98955887D01*
X196081807Y-98879222D01*
X195954332Y-98826421D01*
X195954322Y-98826418D01*
X195818996Y-98799500D01*
X195818994Y-98799500D01*
X195818993Y-98799500D01*
X188591519Y-98799500D01*
X188524480Y-98779815D01*
X188503838Y-98763181D01*
X188036319Y-98295662D01*
X188002834Y-98234339D01*
X188000000Y-98207981D01*
X188000000Y-95074500D01*
X188019685Y-95007461D01*
X188072489Y-94961706D01*
X188124000Y-94950500D01*
X193068996Y-94950500D01*
X193160040Y-94932389D01*
X193204328Y-94923580D01*
X193268069Y-94897177D01*
X193331807Y-94870777D01*
X193331808Y-94870776D01*
X193331811Y-94870775D01*
X193446543Y-94794114D01*
X195949290Y-92291365D01*
X195996013Y-92262007D01*
X196099522Y-92225789D01*
X196252262Y-92129816D01*
X196379816Y-92002262D01*
X196475789Y-91849522D01*
X196535368Y-91679255D01*
X196537581Y-91659617D01*
X196552280Y-91529159D01*
X196563425Y-91502633D01*
X196556523Y-91491892D01*
X196552280Y-91470840D01*
X196535369Y-91320750D01*
X196535368Y-91320745D01*
X196475788Y-91150476D01*
X196410059Y-91045870D01*
X196379816Y-90997738D01*
X196252262Y-90870184D01*
X196227042Y-90854337D01*
X196099523Y-90774211D01*
X195929254Y-90714631D01*
X195929249Y-90714630D01*
X195750004Y-90694435D01*
X195749996Y-90694435D01*
X195570750Y-90714630D01*
X195570745Y-90714631D01*
X195400476Y-90774211D01*
X195247737Y-90870184D01*
X195120184Y-90997737D01*
X195024212Y-91150475D01*
X195024211Y-91150476D01*
X194987992Y-91253984D01*
X194958632Y-91300709D01*
X192746162Y-93513181D01*
X192684839Y-93546666D01*
X192658481Y-93549500D01*
X188124000Y-93549500D01*
X188056961Y-93529815D01*
X188011206Y-93477011D01*
X188000000Y-93425500D01*
X188000000Y-82574500D01*
X188019685Y-82507461D01*
X188072489Y-82461706D01*
X188124000Y-82450500D01*
X189074506Y-82450500D01*
X189140477Y-82469506D01*
X189150474Y-82475787D01*
X189150475Y-82475787D01*
X189150478Y-82475789D01*
X189320745Y-82535368D01*
X189320750Y-82535369D01*
X189499996Y-82555565D01*
X189500000Y-82555565D01*
X189500004Y-82555565D01*
X189679249Y-82535369D01*
X189679252Y-82535368D01*
X189679255Y-82535368D01*
X189849522Y-82475789D01*
X190002262Y-82379816D01*
X190129816Y-82252262D01*
X190225789Y-82099522D01*
X190285368Y-81929255D01*
X190305565Y-81750000D01*
X190287709Y-81591519D01*
X190287356Y-81588383D01*
X190299411Y-81519561D01*
X190346760Y-81468182D01*
X190410576Y-81450500D01*
X194658481Y-81450500D01*
X194725520Y-81470185D01*
X194746162Y-81486819D01*
X194763181Y-81503838D01*
X194796666Y-81565161D01*
X194799500Y-81591519D01*
X194799500Y-82824507D01*
X194780494Y-82890478D01*
X194774209Y-82900479D01*
X194714633Y-83070737D01*
X194714630Y-83070750D01*
X194694435Y-83249996D01*
X194694435Y-83250003D01*
X194714630Y-83429249D01*
X194714631Y-83429254D01*
X194774211Y-83599523D01*
X194834204Y-83695000D01*
X194870184Y-83752262D01*
X194997738Y-83879816D01*
X195150478Y-83975789D01*
X195320745Y-84035368D01*
X195320750Y-84035369D01*
X195499996Y-84055565D01*
X195500000Y-84055565D01*
X195500004Y-84055565D01*
X195679249Y-84035369D01*
X195679252Y-84035368D01*
X195679255Y-84035368D01*
X195849522Y-83975789D01*
X196002262Y-83879816D01*
X196129816Y-83752262D01*
X196225789Y-83599522D01*
X196285368Y-83429255D01*
X196298252Y-83314904D01*
X196305565Y-83250003D01*
X196305565Y-83249996D01*
X196285369Y-83070750D01*
X196285366Y-83070737D01*
X196225790Y-82900479D01*
X196219506Y-82890478D01*
X196200500Y-82824507D01*
X196200500Y-81181007D01*
X196198653Y-81171724D01*
X196198652Y-81171718D01*
X196177405Y-81064903D01*
X196173580Y-81045672D01*
X196167295Y-81030499D01*
X196120777Y-80918192D01*
X196044112Y-80803454D01*
X195446545Y-80205887D01*
X195331807Y-80129222D01*
X195204332Y-80076421D01*
X195204322Y-80076418D01*
X195068996Y-80049500D01*
X195068994Y-80049500D01*
X195068993Y-80049500D01*
X189660576Y-80049500D01*
X189593537Y-80029815D01*
X189547782Y-79977011D01*
X189537356Y-79911617D01*
X189555565Y-79750003D01*
X189555565Y-79749996D01*
X189535369Y-79570750D01*
X189535368Y-79570745D01*
X189475788Y-79400476D01*
X189379815Y-79247737D01*
X189252262Y-79120184D01*
X189099523Y-79024211D01*
X188929254Y-78964631D01*
X188929249Y-78964630D01*
X188750004Y-78944435D01*
X188749996Y-78944435D01*
X188570750Y-78964630D01*
X188570745Y-78964631D01*
X188400474Y-79024212D01*
X188390477Y-79030494D01*
X188324506Y-79049500D01*
X188124000Y-79049500D01*
X188056961Y-79029815D01*
X188011206Y-78977011D01*
X188000000Y-78925500D01*
X188000000Y-76821811D01*
X188019685Y-76754772D01*
X188042357Y-76728481D01*
X188098641Y-76679245D01*
X188373805Y-76438537D01*
X188375918Y-76436734D01*
X190062601Y-75031166D01*
X190124911Y-74979241D01*
X190189014Y-74951445D01*
X190204294Y-74950500D01*
X196868060Y-74950500D01*
X196935099Y-74970185D01*
X196980854Y-75022989D01*
X196990798Y-75092147D01*
X196961773Y-75155703D01*
X196955741Y-75162181D01*
X196870184Y-75247737D01*
X196774211Y-75400476D01*
X196714631Y-75570745D01*
X196714630Y-75570750D01*
X196694435Y-75749996D01*
X196694435Y-75750003D01*
X196714630Y-75929249D01*
X196714631Y-75929254D01*
X196774211Y-76099523D01*
X196870184Y-76252262D01*
X196997738Y-76379816D01*
X197046135Y-76410226D01*
X197150474Y-76475787D01*
X197150478Y-76475789D01*
X197291898Y-76525274D01*
X197320745Y-76535368D01*
X197320750Y-76535369D01*
X197499996Y-76555565D01*
X197500000Y-76555565D01*
X197500004Y-76555565D01*
X197679249Y-76535369D01*
X197679252Y-76535368D01*
X197679255Y-76535368D01*
X197849522Y-76475789D01*
X197850488Y-76475181D01*
X197859523Y-76469506D01*
X197925494Y-76450500D01*
X206574506Y-76450500D01*
X206640477Y-76469506D01*
X206650474Y-76475787D01*
X206650475Y-76475787D01*
X206650478Y-76475789D01*
X206820739Y-76535366D01*
X206820745Y-76535368D01*
X206820750Y-76535369D01*
X206999996Y-76555565D01*
X207000000Y-76555565D01*
X207000004Y-76555565D01*
X207179249Y-76535369D01*
X207179251Y-76535368D01*
X207179255Y-76535368D01*
X207197917Y-76528838D01*
X207267696Y-76525274D01*
X207328324Y-76560001D01*
X207360553Y-76621993D01*
X207354150Y-76691569D01*
X207346079Y-76708195D01*
X207344433Y-76711025D01*
X207284663Y-76841899D01*
X207264976Y-76908944D01*
X207244500Y-77051363D01*
X207244500Y-86948640D01*
X207247397Y-87002688D01*
X207247397Y-87002689D01*
X207250229Y-87029022D01*
X207250232Y-87029049D01*
X207258885Y-87082445D01*
X207258885Y-87082447D01*
X207298435Y-87188482D01*
X207309168Y-87217257D01*
X207342653Y-87278580D01*
X207428877Y-87393761D01*
X207428881Y-87393765D01*
X207428886Y-87393771D01*
X208122935Y-88087819D01*
X208156420Y-88149142D01*
X208151436Y-88218833D01*
X208109565Y-88274767D01*
X208044100Y-88299184D01*
X208035254Y-88299500D01*
X201341519Y-88299500D01*
X201274480Y-88279815D01*
X201253838Y-88263181D01*
X199486819Y-86496162D01*
X199453334Y-86434839D01*
X199450500Y-86408481D01*
X199450500Y-82175493D01*
X199469508Y-82109519D01*
X199475787Y-82099525D01*
X199475788Y-82099523D01*
X199475789Y-82099522D01*
X199535368Y-81929255D01*
X199555565Y-81750000D01*
X199537355Y-81588383D01*
X199535369Y-81570750D01*
X199535368Y-81570745D01*
X199500792Y-81471933D01*
X199475789Y-81400478D01*
X199470307Y-81391754D01*
X199422743Y-81316056D01*
X199379816Y-81247738D01*
X199252262Y-81120184D01*
X199164283Y-81064903D01*
X199099523Y-81024211D01*
X198929254Y-80964631D01*
X198929249Y-80964630D01*
X198750004Y-80944435D01*
X198749996Y-80944435D01*
X198570750Y-80964630D01*
X198570745Y-80964631D01*
X198400473Y-81024212D01*
X198390468Y-81030499D01*
X198323230Y-81049496D01*
X198256396Y-81029126D01*
X198211184Y-80975857D01*
X198200500Y-80925503D01*
X198200500Y-80175493D01*
X198219508Y-80109519D01*
X198225787Y-80099525D01*
X198225786Y-80099525D01*
X198225789Y-80099522D01*
X198285368Y-79929255D01*
X198285369Y-79929249D01*
X198305565Y-79750003D01*
X198305565Y-79749996D01*
X198285369Y-79570750D01*
X198285368Y-79570745D01*
X198225788Y-79400476D01*
X198129815Y-79247737D01*
X198002262Y-79120184D01*
X197849523Y-79024211D01*
X197679254Y-78964631D01*
X197679249Y-78964630D01*
X197500004Y-78944435D01*
X197499996Y-78944435D01*
X197320750Y-78964630D01*
X197320745Y-78964631D01*
X197150476Y-79024211D01*
X196997737Y-79120184D01*
X196870184Y-79247737D01*
X196774211Y-79400476D01*
X196714631Y-79570745D01*
X196714630Y-79570750D01*
X196694435Y-79749996D01*
X196694435Y-79750003D01*
X196714630Y-79929249D01*
X196714631Y-79929254D01*
X196774212Y-80099525D01*
X196780492Y-80109519D01*
X196799500Y-80175493D01*
X196799500Y-91456957D01*
X196786891Y-91499897D01*
X196797640Y-91521648D01*
X196799500Y-91543042D01*
X196799500Y-96681006D01*
X196799500Y-96818994D01*
X196799500Y-96818996D01*
X196799499Y-96818996D01*
X196826418Y-96954322D01*
X196826421Y-96954332D01*
X196879222Y-97081807D01*
X196955887Y-97196545D01*
X199303454Y-99544112D01*
X199418192Y-99620777D01*
X199545667Y-99673578D01*
X199545672Y-99673580D01*
X199545676Y-99673580D01*
X199545677Y-99673581D01*
X199681004Y-99700500D01*
X199681007Y-99700500D01*
X199818994Y-99700500D01*
X207979017Y-99700500D01*
X208044989Y-99719506D01*
X208150477Y-99785789D01*
X208150481Y-99785790D01*
X208320737Y-99845366D01*
X208320743Y-99845367D01*
X208320745Y-99845368D01*
X208320746Y-99845368D01*
X208320750Y-99845369D01*
X208499996Y-99865565D01*
X208500000Y-99865565D01*
X208500004Y-99865565D01*
X208679249Y-99845369D01*
X208679252Y-99845368D01*
X208679255Y-99845368D01*
X208849522Y-99785789D01*
X209002262Y-99689816D01*
X209129816Y-99562262D01*
X209225789Y-99409522D01*
X209285368Y-99239255D01*
X209305565Y-99060000D01*
X209302021Y-99028549D01*
X209285369Y-98880750D01*
X209285368Y-98880745D01*
X209249275Y-98777598D01*
X209225789Y-98710478D01*
X209129816Y-98557738D01*
X209002262Y-98430184D01*
X208988577Y-98421585D01*
X208849523Y-98334211D01*
X208679254Y-98274631D01*
X208679249Y-98274630D01*
X208500004Y-98254435D01*
X208499996Y-98254435D01*
X208320750Y-98274630D01*
X208320737Y-98274633D01*
X208269562Y-98292541D01*
X208228607Y-98299500D01*
X200091519Y-98299500D01*
X200024480Y-98279815D01*
X200003838Y-98263181D01*
X198236819Y-96496162D01*
X198203334Y-96434839D01*
X198200500Y-96408481D01*
X198200500Y-93499998D01*
X216669390Y-93499998D01*
X216669390Y-93500001D01*
X216689804Y-93785433D01*
X216750628Y-94065037D01*
X216850635Y-94333166D01*
X216987770Y-94584309D01*
X216987775Y-94584317D01*
X217159254Y-94813387D01*
X217159270Y-94813405D01*
X217361594Y-95015729D01*
X217361612Y-95015745D01*
X217541935Y-95150733D01*
X217583807Y-95206667D01*
X217588791Y-95276358D01*
X217555306Y-95337681D01*
X217541935Y-95349267D01*
X217361612Y-95484254D01*
X217361594Y-95484270D01*
X217159270Y-95686594D01*
X217159254Y-95686612D01*
X216987775Y-95915682D01*
X216987770Y-95915690D01*
X216850635Y-96166833D01*
X216750628Y-96434962D01*
X216689804Y-96714566D01*
X216669390Y-96999998D01*
X216669390Y-97000001D01*
X216689804Y-97285433D01*
X216750628Y-97565037D01*
X216750630Y-97565043D01*
X216750631Y-97565046D01*
X216850633Y-97833161D01*
X216850635Y-97833166D01*
X216987770Y-98084309D01*
X216987775Y-98084317D01*
X217155309Y-98308117D01*
X217179726Y-98373581D01*
X217164874Y-98441854D01*
X217115469Y-98491259D01*
X217075021Y-98503925D01*
X217075068Y-98504124D01*
X217072299Y-98504778D01*
X217069305Y-98505716D01*
X217067518Y-98505908D01*
X216932671Y-98556202D01*
X216932664Y-98556206D01*
X216817455Y-98642452D01*
X216817452Y-98642455D01*
X216731206Y-98757664D01*
X216731202Y-98757671D01*
X216680908Y-98892517D01*
X216674501Y-98952116D01*
X216674501Y-98952123D01*
X216674500Y-98952135D01*
X216674500Y-102047870D01*
X216674501Y-102047876D01*
X216680908Y-102107483D01*
X216731202Y-102242328D01*
X216731206Y-102242335D01*
X216817452Y-102357544D01*
X216817455Y-102357547D01*
X216932664Y-102443793D01*
X216932671Y-102443797D01*
X217067517Y-102494091D01*
X217067516Y-102494091D01*
X217074444Y-102494835D01*
X217127127Y-102500500D01*
X220222872Y-102500499D01*
X220282483Y-102494091D01*
X220417331Y-102443796D01*
X220532546Y-102357546D01*
X220618796Y-102242331D01*
X220669091Y-102107483D01*
X220675500Y-102047873D01*
X220675499Y-98952128D01*
X220669091Y-98892517D01*
X220664702Y-98880750D01*
X220618797Y-98757671D01*
X220618793Y-98757664D01*
X220532547Y-98642455D01*
X220532544Y-98642452D01*
X220417335Y-98556206D01*
X220417328Y-98556202D01*
X220282482Y-98505908D01*
X220282484Y-98505908D01*
X220280699Y-98505717D01*
X220279407Y-98505182D01*
X220274938Y-98504126D01*
X220275109Y-98503401D01*
X220216148Y-98478978D01*
X220176301Y-98421585D01*
X220173808Y-98351760D01*
X220194687Y-98308120D01*
X220362226Y-98084315D01*
X220499367Y-97833161D01*
X220599369Y-97565046D01*
X220599371Y-97565037D01*
X220660195Y-97285433D01*
X220660195Y-97285432D01*
X220660196Y-97285428D01*
X220680610Y-97000000D01*
X220677780Y-96960438D01*
X220667664Y-96818994D01*
X220660196Y-96714572D01*
X220650035Y-96667864D01*
X220599371Y-96434962D01*
X220599370Y-96434960D01*
X220599369Y-96434954D01*
X220499367Y-96166839D01*
X220362226Y-95915685D01*
X220356438Y-95907953D01*
X220190745Y-95686612D01*
X220190729Y-95686594D01*
X219988405Y-95484270D01*
X219988387Y-95484254D01*
X219808064Y-95349267D01*
X219766192Y-95293334D01*
X219761208Y-95223642D01*
X219794693Y-95162319D01*
X219808064Y-95150733D01*
X219988387Y-95015745D01*
X219988387Y-95015744D01*
X219988395Y-95015739D01*
X220190739Y-94813395D01*
X220362226Y-94584315D01*
X220499367Y-94333161D01*
X220599369Y-94065046D01*
X220660196Y-93785428D01*
X220680610Y-93500000D01*
X220660196Y-93214572D01*
X220599369Y-92934954D01*
X220499367Y-92666839D01*
X220478599Y-92628806D01*
X220362229Y-92415690D01*
X220362224Y-92415682D01*
X220190745Y-92186612D01*
X220190729Y-92186594D01*
X219988405Y-91984270D01*
X219988387Y-91984254D01*
X219759317Y-91812775D01*
X219759309Y-91812770D01*
X219508166Y-91675635D01*
X219508167Y-91675635D01*
X219324208Y-91607022D01*
X219240046Y-91575631D01*
X219240043Y-91575630D01*
X219240037Y-91575628D01*
X218960433Y-91514804D01*
X218675001Y-91494390D01*
X218674999Y-91494390D01*
X218389566Y-91514804D01*
X218109962Y-91575628D01*
X217841833Y-91675635D01*
X217590690Y-91812770D01*
X217590682Y-91812775D01*
X217361612Y-91984254D01*
X217361594Y-91984270D01*
X217159270Y-92186594D01*
X217159254Y-92186612D01*
X216987775Y-92415682D01*
X216987770Y-92415690D01*
X216850635Y-92666833D01*
X216750628Y-92934962D01*
X216689804Y-93214566D01*
X216669390Y-93499998D01*
X198200500Y-93499998D01*
X198200500Y-87490519D01*
X198220185Y-87423480D01*
X198272989Y-87377725D01*
X198342147Y-87367781D01*
X198405703Y-87396806D01*
X198412181Y-87402838D01*
X200553451Y-89544109D01*
X200553454Y-89544112D01*
X200579932Y-89561804D01*
X200668182Y-89620771D01*
X200668195Y-89620778D01*
X200795667Y-89673578D01*
X200795672Y-89673580D01*
X200795676Y-89673580D01*
X200795677Y-89673581D01*
X200931004Y-89700500D01*
X200931007Y-89700500D01*
X208074506Y-89700500D01*
X208140477Y-89719506D01*
X208150474Y-89725787D01*
X208150475Y-89725787D01*
X208150478Y-89725789D01*
X208320745Y-89785368D01*
X208320750Y-89785369D01*
X208499996Y-89805565D01*
X208500000Y-89805565D01*
X208500004Y-89805565D01*
X208679249Y-89785369D01*
X208679252Y-89785368D01*
X208679255Y-89785368D01*
X208849522Y-89725789D01*
X209002262Y-89629816D01*
X209129816Y-89502262D01*
X209225789Y-89349522D01*
X209285368Y-89179255D01*
X209285369Y-89179249D01*
X209305565Y-89000003D01*
X209305565Y-88999996D01*
X209285369Y-88820750D01*
X209285366Y-88820737D01*
X209232780Y-88670455D01*
X209229218Y-88600676D01*
X209263946Y-88540049D01*
X209325940Y-88507821D01*
X209349821Y-88505500D01*
X210739254Y-88505500D01*
X210806293Y-88525185D01*
X210826935Y-88541819D01*
X211208181Y-88923065D01*
X211241666Y-88984388D01*
X211244500Y-89010746D01*
X211244500Y-89948640D01*
X211247397Y-90002688D01*
X211247397Y-90002689D01*
X211250229Y-90029022D01*
X211250232Y-90029049D01*
X211258885Y-90082445D01*
X211258885Y-90082447D01*
X211309166Y-90217252D01*
X211309168Y-90217257D01*
X211321534Y-90239903D01*
X211342589Y-90278464D01*
X211342653Y-90278580D01*
X211428877Y-90393761D01*
X211428881Y-90393765D01*
X211428886Y-90393771D01*
X211671033Y-90635917D01*
X211856239Y-90821123D01*
X211856255Y-90821137D01*
X211856262Y-90821144D01*
X211896480Y-90857271D01*
X211896492Y-90857281D01*
X211896500Y-90857288D01*
X211917142Y-90873922D01*
X211961026Y-90905567D01*
X212091903Y-90965338D01*
X212158942Y-90985023D01*
X212158946Y-90985024D01*
X212301362Y-91005500D01*
X212301365Y-91005500D01*
X213948640Y-91005500D01*
X213958786Y-91004955D01*
X214002678Y-91002603D01*
X214002686Y-91002602D01*
X214002688Y-91002602D01*
X214002689Y-91002602D01*
X214009682Y-91001849D01*
X214029036Y-90999769D01*
X214029046Y-90999767D01*
X214029049Y-90999767D01*
X214041576Y-90997737D01*
X214082448Y-90991114D01*
X214217257Y-90940832D01*
X214278580Y-90907347D01*
X214393761Y-90821123D01*
X214714885Y-90499999D01*
X222469357Y-90499999D01*
X222469357Y-90500000D01*
X222489884Y-90721535D01*
X222489885Y-90721537D01*
X222550769Y-90935523D01*
X222550775Y-90935538D01*
X222649938Y-91134683D01*
X222649943Y-91134691D01*
X222784020Y-91312238D01*
X222948437Y-91462123D01*
X222948439Y-91462125D01*
X223137595Y-91579245D01*
X223137596Y-91579245D01*
X223137599Y-91579247D01*
X223345060Y-91659618D01*
X223563757Y-91700500D01*
X223563759Y-91700500D01*
X223786241Y-91700500D01*
X223786243Y-91700500D01*
X224004940Y-91659618D01*
X224212401Y-91579247D01*
X224401562Y-91462124D01*
X224541282Y-91334751D01*
X224565979Y-91312238D01*
X224566214Y-91311928D01*
X224700058Y-91134689D01*
X224799229Y-90935528D01*
X224860115Y-90721536D01*
X224880643Y-90500000D01*
X224880518Y-90498656D01*
X224860115Y-90278464D01*
X224860114Y-90278462D01*
X224852016Y-90250002D01*
X224799229Y-90064472D01*
X224799224Y-90064461D01*
X224700061Y-89865316D01*
X224700056Y-89865308D01*
X224565979Y-89687761D01*
X224401562Y-89537876D01*
X224401560Y-89537874D01*
X224212404Y-89420754D01*
X224212398Y-89420752D01*
X224004940Y-89340382D01*
X223786243Y-89299500D01*
X223563757Y-89299500D01*
X223345060Y-89340382D01*
X223258282Y-89374000D01*
X223137601Y-89420752D01*
X223137595Y-89420754D01*
X222948439Y-89537874D01*
X222948437Y-89537876D01*
X222784020Y-89687761D01*
X222649943Y-89865308D01*
X222649938Y-89865316D01*
X222550775Y-90064461D01*
X222550769Y-90064476D01*
X222489885Y-90278462D01*
X222489884Y-90278464D01*
X222469357Y-90499999D01*
X214714885Y-90499999D01*
X215321123Y-89893761D01*
X215357288Y-89853500D01*
X215373922Y-89832858D01*
X215405567Y-89788974D01*
X215465338Y-89658097D01*
X215485023Y-89591058D01*
X215485024Y-89591054D01*
X215505500Y-89448638D01*
X215505500Y-76812000D01*
X215497509Y-76722474D01*
X215489730Y-76679245D01*
X215466008Y-76592542D01*
X215397166Y-76466200D01*
X215355345Y-76410229D01*
X215355343Y-76410226D01*
X215253700Y-76308400D01*
X215178849Y-76252262D01*
X214336362Y-75620396D01*
X214331568Y-75616935D01*
X214321484Y-75609652D01*
X214314166Y-75604568D01*
X214308726Y-75600932D01*
X214299003Y-75594433D01*
X214298998Y-75594430D01*
X214298995Y-75594429D01*
X214168132Y-75534664D01*
X214168127Y-75534662D01*
X214168126Y-75534662D01*
X214101087Y-75514977D01*
X214101089Y-75514977D01*
X214101084Y-75514976D01*
X214053611Y-75508150D01*
X213958667Y-75494500D01*
X213958665Y-75494500D01*
X213064893Y-75494500D01*
X212997854Y-75474815D01*
X212952099Y-75422011D01*
X212943277Y-75394698D01*
X212923580Y-75295672D01*
X212916369Y-75278263D01*
X212870777Y-75168192D01*
X212794112Y-75053454D01*
X211446545Y-73705887D01*
X211331807Y-73629222D01*
X211204332Y-73576421D01*
X211204322Y-73576418D01*
X211068996Y-73549500D01*
X211068994Y-73549500D01*
X211068993Y-73549500D01*
X192183094Y-73549500D01*
X192116055Y-73529815D01*
X192070300Y-73477011D01*
X192060356Y-73407853D01*
X192089381Y-73344297D01*
X192103711Y-73330241D01*
X193003935Y-72580054D01*
X195465976Y-70528352D01*
X195530077Y-70500558D01*
X195544284Y-70499618D01*
X202391250Y-70440592D01*
X202458456Y-70459698D01*
G37*
%TD.AperFunction*%
%TA.AperFunction,Conductor*%
G36*
X214025706Y-76019685D02*
G01*
X214033062Y-76024796D01*
X214950400Y-76712800D01*
X214992221Y-76768771D01*
X215000000Y-76812000D01*
X215000000Y-89448638D01*
X214980315Y-89515677D01*
X214963681Y-89536319D01*
X214036319Y-90463681D01*
X213974996Y-90497166D01*
X213948638Y-90500000D01*
X212301362Y-90500000D01*
X212234323Y-90480315D01*
X212213681Y-90463681D01*
X211786319Y-90036319D01*
X211752834Y-89974996D01*
X211750000Y-89948638D01*
X211750000Y-88750000D01*
X211000000Y-88000000D01*
X208801362Y-88000000D01*
X208734323Y-87980315D01*
X208713681Y-87963681D01*
X207786319Y-87036319D01*
X207752834Y-86974996D01*
X207750000Y-86948638D01*
X207750000Y-77051362D01*
X207769685Y-76984323D01*
X207786319Y-76963681D01*
X208713681Y-76036319D01*
X208775004Y-76002834D01*
X208801362Y-76000000D01*
X213958667Y-76000000D01*
X214025706Y-76019685D01*
G37*
%TD.AperFunction*%
%TA.AperFunction,Conductor*%
G36*
X198003032Y-57300648D02*
G01*
X198356532Y-57318015D01*
X198368640Y-57319208D01*
X198477576Y-57335367D01*
X198715717Y-57370692D01*
X198727635Y-57373062D01*
X199068008Y-57458321D01*
X199079646Y-57461852D01*
X199409996Y-57580054D01*
X199421237Y-57584710D01*
X199646857Y-57691419D01*
X199738433Y-57734731D01*
X199749150Y-57740459D01*
X200050102Y-57920843D01*
X200060220Y-57927603D01*
X200342049Y-58136622D01*
X200351455Y-58144342D01*
X200611436Y-58379974D01*
X200620025Y-58388563D01*
X200773369Y-58557753D01*
X200855657Y-58648544D01*
X200863377Y-58657950D01*
X201072396Y-58939779D01*
X201079156Y-58949897D01*
X201113889Y-59007845D01*
X201244045Y-59224998D01*
X201259533Y-59250837D01*
X201265270Y-59261570D01*
X201415289Y-59578762D01*
X201419945Y-59590003D01*
X201538147Y-59920353D01*
X201541680Y-59931998D01*
X201626934Y-60272351D01*
X201629308Y-60284287D01*
X201680791Y-60631359D01*
X201681984Y-60643468D01*
X201699351Y-60996966D01*
X201699500Y-61003051D01*
X201699500Y-68198821D01*
X201736188Y-68594767D01*
X201736188Y-68594768D01*
X201759923Y-68721737D01*
X201809258Y-68985654D01*
X201809260Y-68985661D01*
X201918078Y-69368119D01*
X201918077Y-69368119D01*
X202000628Y-69581206D01*
X202006490Y-69650830D01*
X201973780Y-69712570D01*
X201912883Y-69746825D01*
X201885001Y-69750000D01*
X195252043Y-69750000D01*
X190943708Y-73518830D01*
X190880289Y-73548153D01*
X190862065Y-73549500D01*
X189425494Y-73549500D01*
X189359523Y-73530494D01*
X189349525Y-73524212D01*
X189179254Y-73464631D01*
X189179249Y-73464630D01*
X189000004Y-73444435D01*
X188999996Y-73444435D01*
X188820750Y-73464630D01*
X188820745Y-73464631D01*
X188650476Y-73524211D01*
X188497737Y-73620184D01*
X188370184Y-73747737D01*
X188274211Y-73900476D01*
X188214631Y-74070745D01*
X188214630Y-74070750D01*
X188194435Y-74249996D01*
X188194435Y-74250003D01*
X188214630Y-74429249D01*
X188214631Y-74429254D01*
X188274211Y-74599523D01*
X188325062Y-74680451D01*
X188370184Y-74752262D01*
X188497738Y-74879816D01*
X188567388Y-74923580D01*
X188632721Y-74964632D01*
X188650478Y-74975789D01*
X188764880Y-75015820D01*
X188820745Y-75035368D01*
X188820749Y-75035369D01*
X188886323Y-75042757D01*
X188950737Y-75069823D01*
X188990292Y-75127417D01*
X188992431Y-75197254D01*
X188956473Y-75257161D01*
X188954083Y-75259307D01*
X187249999Y-76750000D01*
X187262792Y-78924771D01*
X187243502Y-78991925D01*
X187190968Y-79037989D01*
X187138794Y-79049500D01*
X186175494Y-79049500D01*
X186109523Y-79030494D01*
X186099525Y-79024212D01*
X185929254Y-78964631D01*
X185929249Y-78964630D01*
X185750004Y-78944435D01*
X185749996Y-78944435D01*
X185570750Y-78964630D01*
X185570745Y-78964631D01*
X185400476Y-79024211D01*
X185247737Y-79120184D01*
X185120184Y-79247737D01*
X185024211Y-79400476D01*
X184964631Y-79570745D01*
X184964630Y-79570750D01*
X184944435Y-79749996D01*
X184944435Y-79750003D01*
X184962644Y-79911617D01*
X184950589Y-79980439D01*
X184903240Y-80031818D01*
X184839424Y-80049500D01*
X184175494Y-80049500D01*
X184109523Y-80030494D01*
X184099525Y-80024212D01*
X183929254Y-79964631D01*
X183929249Y-79964630D01*
X183750004Y-79944435D01*
X183749996Y-79944435D01*
X183570750Y-79964630D01*
X183570745Y-79964631D01*
X183400476Y-80024211D01*
X183247737Y-80120184D01*
X183120182Y-80247739D01*
X183026173Y-80397353D01*
X182973838Y-80443643D01*
X182904785Y-80454291D01*
X182840937Y-80425916D01*
X182802565Y-80367526D01*
X182797960Y-80317496D01*
X182805565Y-80250002D01*
X182805565Y-80249996D01*
X182785369Y-80070750D01*
X182785368Y-80070745D01*
X182771747Y-80031818D01*
X182725789Y-79900478D01*
X182724234Y-79898004D01*
X182684851Y-79835325D01*
X182629816Y-79747738D01*
X182502262Y-79620184D01*
X182493124Y-79614442D01*
X182349523Y-79524211D01*
X182179254Y-79464631D01*
X182179249Y-79464630D01*
X182000004Y-79444435D01*
X181999996Y-79444435D01*
X181820750Y-79464630D01*
X181820745Y-79464631D01*
X181650476Y-79524211D01*
X181497737Y-79620184D01*
X181370184Y-79747737D01*
X181274211Y-79900476D01*
X181214631Y-80070745D01*
X181214630Y-80070750D01*
X181194435Y-80249996D01*
X181194435Y-80250003D01*
X181214630Y-80429249D01*
X181214631Y-80429254D01*
X181274212Y-80599525D01*
X181280492Y-80609519D01*
X181299500Y-80675493D01*
X181299500Y-82078044D01*
X181279815Y-82145083D01*
X181227011Y-82190838D01*
X181189384Y-82201264D01*
X181070749Y-82214630D01*
X181070745Y-82214631D01*
X180900476Y-82274211D01*
X180747737Y-82370184D01*
X180620184Y-82497737D01*
X180524211Y-82650476D01*
X180464631Y-82820745D01*
X180464630Y-82820750D01*
X180444435Y-82999996D01*
X180444435Y-83000003D01*
X180464630Y-83179249D01*
X180464631Y-83179254D01*
X180524211Y-83349524D01*
X180580493Y-83439094D01*
X180599500Y-83505067D01*
X180599500Y-90429192D01*
X180579815Y-90496231D01*
X180563181Y-90516873D01*
X180266873Y-90813181D01*
X180205550Y-90846666D01*
X180179192Y-90849500D01*
X179293079Y-90849500D01*
X179226040Y-90829815D01*
X179180285Y-90777011D01*
X179170341Y-90707853D01*
X179188085Y-90659528D01*
X179225788Y-90599523D01*
X179225789Y-90599522D01*
X179285368Y-90429255D01*
X179285375Y-90429192D01*
X179305565Y-90250003D01*
X179305565Y-90249996D01*
X179285369Y-90070750D01*
X179285368Y-90070745D01*
X179230485Y-89913898D01*
X179225789Y-89900478D01*
X179225494Y-89900009D01*
X179159628Y-89795184D01*
X179129816Y-89747738D01*
X179002262Y-89620184D01*
X178909356Y-89561807D01*
X178849523Y-89524211D01*
X178679254Y-89464631D01*
X178679249Y-89464630D01*
X178500004Y-89444435D01*
X178499996Y-89444435D01*
X178320750Y-89464630D01*
X178320745Y-89464631D01*
X178150474Y-89524212D01*
X178140477Y-89530494D01*
X178074506Y-89549500D01*
X176425494Y-89549500D01*
X176359523Y-89530494D01*
X176349525Y-89524212D01*
X176179254Y-89464631D01*
X176179249Y-89464630D01*
X176000004Y-89444435D01*
X175999996Y-89444435D01*
X175820750Y-89464630D01*
X175820745Y-89464631D01*
X175650476Y-89524211D01*
X175497737Y-89620184D01*
X175370184Y-89747737D01*
X175274211Y-89900476D01*
X175214631Y-90070745D01*
X175214630Y-90070750D01*
X175194435Y-90249996D01*
X175194435Y-90250003D01*
X175214630Y-90429249D01*
X175214631Y-90429254D01*
X175274211Y-90599523D01*
X175311915Y-90659528D01*
X175370184Y-90752262D01*
X175497738Y-90879816D01*
X175574863Y-90928277D01*
X175650474Y-90975787D01*
X175650478Y-90975789D01*
X175713202Y-90997737D01*
X175820745Y-91035368D01*
X175820750Y-91035369D01*
X175999996Y-91055565D01*
X176000000Y-91055565D01*
X176000004Y-91055565D01*
X176179249Y-91035369D01*
X176179252Y-91035368D01*
X176179255Y-91035368D01*
X176349522Y-90975789D01*
X176350488Y-90975181D01*
X176359523Y-90969506D01*
X176425494Y-90950500D01*
X178074506Y-90950500D01*
X178140466Y-90969499D01*
X178143957Y-90971692D01*
X178190254Y-91024021D01*
X178200910Y-91093074D01*
X178172542Y-91156925D01*
X178165678Y-91164374D01*
X176494724Y-92835328D01*
X176451507Y-92900007D01*
X176451508Y-92900008D01*
X176423534Y-92941874D01*
X176374499Y-93060255D01*
X176374497Y-93060261D01*
X176349500Y-93185928D01*
X176349500Y-93185931D01*
X176349500Y-97564069D01*
X176366693Y-97650500D01*
X176369872Y-97666480D01*
X176374499Y-97689744D01*
X176423534Y-97808125D01*
X176494726Y-97914673D01*
X178335325Y-99755272D01*
X178335332Y-99755278D01*
X178398119Y-99797230D01*
X178398121Y-99797231D01*
X178398124Y-99797233D01*
X178441873Y-99826465D01*
X178560256Y-99875501D01*
X178560260Y-99875501D01*
X178560261Y-99875502D01*
X178685928Y-99900500D01*
X178685931Y-99900500D01*
X179929192Y-99900500D01*
X179996231Y-99920185D01*
X180016873Y-99936819D01*
X181860324Y-101780271D01*
X181860327Y-101780274D01*
X181860330Y-101780276D01*
X181937996Y-101832170D01*
X181966873Y-101851465D01*
X182085256Y-101900501D01*
X182085258Y-101900501D01*
X182085260Y-101900502D01*
X182090089Y-101901462D01*
X182100090Y-101903451D01*
X182162001Y-101935833D01*
X182173171Y-101948160D01*
X182177029Y-101953040D01*
X182177032Y-101953044D01*
X182177035Y-101953047D01*
X182296955Y-102072967D01*
X182296959Y-102072970D01*
X182441294Y-102161998D01*
X182441297Y-102161999D01*
X182441303Y-102162003D01*
X182602292Y-102215349D01*
X182701655Y-102225500D01*
X183298344Y-102225499D01*
X183298352Y-102225498D01*
X183298355Y-102225498D01*
X183352760Y-102219940D01*
X183397708Y-102215349D01*
X183558697Y-102162003D01*
X183703044Y-102072968D01*
X183814193Y-101961819D01*
X183875516Y-101928334D01*
X183901874Y-101925500D01*
X184003419Y-101925500D01*
X184070458Y-101945185D01*
X184108411Y-101983526D01*
X184120184Y-102002262D01*
X184247738Y-102129816D01*
X184308808Y-102168189D01*
X184400014Y-102225498D01*
X184400478Y-102225789D01*
X184570745Y-102285368D01*
X184601795Y-102288866D01*
X184666207Y-102315930D01*
X184705763Y-102373524D01*
X184711132Y-102398201D01*
X184714630Y-102429249D01*
X184774210Y-102599521D01*
X184774211Y-102599522D01*
X184825410Y-102681006D01*
X184827309Y-102684027D01*
X184846309Y-102751264D01*
X184827309Y-102815970D01*
X184774214Y-102900470D01*
X184774211Y-102900476D01*
X184748497Y-102973962D01*
X184707775Y-103030738D01*
X184645340Y-103056226D01*
X184570750Y-103064630D01*
X184400478Y-103124210D01*
X184247737Y-103220184D01*
X184120184Y-103347737D01*
X184024211Y-103500476D01*
X183964631Y-103670745D01*
X183964630Y-103670750D01*
X183944435Y-103849996D01*
X183944435Y-103850003D01*
X183964630Y-104029249D01*
X183964631Y-104029254D01*
X184024212Y-104199525D01*
X184030492Y-104209519D01*
X184049500Y-104275493D01*
X184049500Y-105581006D01*
X184049500Y-105718994D01*
X184049500Y-105718996D01*
X184049499Y-105718996D01*
X184076418Y-105854322D01*
X184076421Y-105854332D01*
X184129222Y-105981807D01*
X184205887Y-106096545D01*
X184205888Y-106096546D01*
X184708631Y-106599288D01*
X184737991Y-106646013D01*
X184751474Y-106684544D01*
X184755037Y-106754323D01*
X184720308Y-106814951D01*
X184658315Y-106847178D01*
X184634433Y-106849500D01*
X181505068Y-106849500D01*
X181439096Y-106830494D01*
X181349522Y-106774210D01*
X181349518Y-106774209D01*
X181179262Y-106714633D01*
X181179249Y-106714630D01*
X181000004Y-106694435D01*
X180999996Y-106694435D01*
X180820750Y-106714630D01*
X180820745Y-106714631D01*
X180650476Y-106774211D01*
X180497738Y-106870183D01*
X180492663Y-106875259D01*
X180431338Y-106908741D01*
X180361647Y-106903753D01*
X180305715Y-106861878D01*
X180289435Y-106826699D01*
X180287668Y-106827318D01*
X180228730Y-106658884D01*
X180225789Y-106650478D01*
X180222983Y-106646013D01*
X180174922Y-106569524D01*
X180129816Y-106497738D01*
X180002262Y-106370184D01*
X179913877Y-106314648D01*
X179849521Y-106274210D01*
X179679255Y-106214632D01*
X179679246Y-106214630D01*
X179672012Y-106213815D01*
X179607600Y-106186744D01*
X179598223Y-106178277D01*
X179186819Y-105766873D01*
X179153334Y-105705550D01*
X179150500Y-105679192D01*
X179150500Y-103005067D01*
X179169507Y-102939094D01*
X179225788Y-102849524D01*
X179272989Y-102714631D01*
X179285368Y-102679255D01*
X179305565Y-102500000D01*
X179297593Y-102429249D01*
X179285369Y-102320750D01*
X179285368Y-102320745D01*
X179252040Y-102225499D01*
X179225789Y-102150478D01*
X179195510Y-102102290D01*
X179177086Y-102072968D01*
X179129816Y-101997738D01*
X179002262Y-101870184D01*
X178941765Y-101832171D01*
X178849523Y-101774211D01*
X178679254Y-101714631D01*
X178679249Y-101714630D01*
X178500004Y-101694435D01*
X178499996Y-101694435D01*
X178320750Y-101714630D01*
X178320745Y-101714631D01*
X178150476Y-101774211D01*
X178028222Y-101851029D01*
X177960985Y-101870029D01*
X177894150Y-101849661D01*
X177856711Y-101811131D01*
X177847968Y-101796956D01*
X177786819Y-101735807D01*
X177753334Y-101674484D01*
X177750500Y-101648126D01*
X177750500Y-101601874D01*
X177770185Y-101534835D01*
X177786819Y-101514193D01*
X177798750Y-101502262D01*
X177847968Y-101453044D01*
X177937003Y-101308697D01*
X177990349Y-101147708D01*
X178000500Y-101048345D01*
X178000499Y-100451656D01*
X177990349Y-100352292D01*
X177937003Y-100191303D01*
X177936999Y-100191297D01*
X177936998Y-100191294D01*
X177847970Y-100046959D01*
X177847967Y-100046955D01*
X177728044Y-99927032D01*
X177728040Y-99927029D01*
X177583705Y-99838001D01*
X177583699Y-99837998D01*
X177583697Y-99837997D01*
X177583160Y-99837819D01*
X177422709Y-99784651D01*
X177323346Y-99774500D01*
X176776662Y-99774500D01*
X176776644Y-99774501D01*
X176677292Y-99784650D01*
X176677289Y-99784651D01*
X176516305Y-99837996D01*
X176516294Y-99838001D01*
X176371959Y-99927029D01*
X176371955Y-99927032D01*
X176362681Y-99936307D01*
X176301358Y-99969792D01*
X176231666Y-99964808D01*
X176187319Y-99936307D01*
X176178044Y-99927032D01*
X176178040Y-99927029D01*
X176033705Y-99838001D01*
X176033699Y-99837998D01*
X176033697Y-99837997D01*
X176033160Y-99837819D01*
X175872709Y-99784651D01*
X175773352Y-99774500D01*
X175773345Y-99774500D01*
X175524500Y-99774500D01*
X175457461Y-99754815D01*
X175411706Y-99702011D01*
X175400500Y-99650500D01*
X175400500Y-95435928D01*
X175375502Y-95310261D01*
X175375501Y-95310260D01*
X175375501Y-95310256D01*
X175326465Y-95191873D01*
X175314212Y-95173535D01*
X175314211Y-95173532D01*
X175255278Y-95085332D01*
X175255272Y-95085325D01*
X174664673Y-94494726D01*
X174664669Y-94494723D01*
X174558127Y-94423535D01*
X174439744Y-94374499D01*
X174439738Y-94374497D01*
X174314071Y-94349500D01*
X174314069Y-94349500D01*
X174255068Y-94349500D01*
X174189096Y-94330494D01*
X174099522Y-94274210D01*
X174099518Y-94274209D01*
X173929262Y-94214633D01*
X173929249Y-94214630D01*
X173750004Y-94194435D01*
X173749996Y-94194435D01*
X173570750Y-94214630D01*
X173570745Y-94214631D01*
X173400476Y-94274211D01*
X173247737Y-94370184D01*
X173120184Y-94497737D01*
X173024211Y-94650476D01*
X172964631Y-94820745D01*
X172964630Y-94820750D01*
X172944435Y-94999996D01*
X172944435Y-95000003D01*
X172964630Y-95179249D01*
X172964631Y-95179254D01*
X173024211Y-95349523D01*
X173076367Y-95432528D01*
X173095367Y-95499765D01*
X173074999Y-95566600D01*
X173021731Y-95611814D01*
X172971373Y-95622500D01*
X170814281Y-95622500D01*
X170747242Y-95602815D01*
X170701487Y-95550011D01*
X170691543Y-95480853D01*
X170720568Y-95417297D01*
X170726600Y-95410819D01*
X170987409Y-95150010D01*
X170987411Y-95150008D01*
X171004455Y-95124500D01*
X171056083Y-95047233D01*
X171103385Y-94933035D01*
X171124729Y-94825736D01*
X171127500Y-94811805D01*
X171127500Y-92041671D01*
X171146507Y-91975698D01*
X171153461Y-91964632D01*
X171225789Y-91849522D01*
X171285368Y-91679255D01*
X171293397Y-91607994D01*
X171305565Y-91500003D01*
X171305565Y-91499996D01*
X171285369Y-91320750D01*
X171285368Y-91320745D01*
X171225788Y-91150476D01*
X171153461Y-91035369D01*
X171129816Y-90997738D01*
X171002262Y-90870184D01*
X170969344Y-90849500D01*
X170849523Y-90774211D01*
X170679254Y-90714631D01*
X170679249Y-90714630D01*
X170500004Y-90694435D01*
X170499996Y-90694435D01*
X170320750Y-90714630D01*
X170320745Y-90714631D01*
X170150476Y-90774211D01*
X169997737Y-90870184D01*
X169870184Y-90997737D01*
X169774211Y-91150476D01*
X169714631Y-91320745D01*
X169714630Y-91320750D01*
X169694435Y-91499996D01*
X169694435Y-91500004D01*
X169706602Y-91607994D01*
X169694547Y-91676816D01*
X169647198Y-91728195D01*
X169624337Y-91738919D01*
X169523476Y-91774211D01*
X169370737Y-91870184D01*
X169243184Y-91997737D01*
X169147211Y-92150476D01*
X169087631Y-92320745D01*
X169087630Y-92320750D01*
X169067435Y-92499996D01*
X169067435Y-92500003D01*
X169087630Y-92679249D01*
X169087631Y-92679254D01*
X169147211Y-92849524D01*
X169226493Y-92975698D01*
X169245500Y-93041671D01*
X169245500Y-94065719D01*
X169225815Y-94132758D01*
X169209181Y-94153400D01*
X169026400Y-94336181D01*
X168965077Y-94369666D01*
X168938719Y-94372500D01*
X163561281Y-94372500D01*
X163494242Y-94352815D01*
X163473600Y-94336181D01*
X162347429Y-93210010D01*
X162313944Y-93148687D01*
X162318928Y-93078995D01*
X162347428Y-93034649D01*
X162379816Y-93002262D01*
X162475789Y-92849522D01*
X162528237Y-92699631D01*
X162568959Y-92642857D01*
X162633911Y-92617109D01*
X162702473Y-92630565D01*
X162732960Y-92652906D01*
X162928277Y-92848223D01*
X162961762Y-92909546D01*
X162963815Y-92922012D01*
X162964630Y-92929246D01*
X162964632Y-92929255D01*
X163024210Y-93099521D01*
X163103549Y-93225787D01*
X163120184Y-93252262D01*
X163247738Y-93379816D01*
X163400478Y-93475789D01*
X163570745Y-93535368D01*
X163570750Y-93535369D01*
X163749996Y-93555565D01*
X163750000Y-93555565D01*
X163750004Y-93555565D01*
X163929249Y-93535369D01*
X163929252Y-93535368D01*
X163929255Y-93535368D01*
X164099522Y-93475789D01*
X164252262Y-93379816D01*
X164379816Y-93252262D01*
X164475789Y-93099522D01*
X164535368Y-92929255D01*
X164537589Y-92909546D01*
X164555565Y-92750003D01*
X164555565Y-92749996D01*
X164535369Y-92570750D01*
X164535368Y-92570745D01*
X164475788Y-92400476D01*
X164436582Y-92338080D01*
X164379816Y-92247738D01*
X164252262Y-92120184D01*
X164219377Y-92099521D01*
X164099521Y-92024210D01*
X163929255Y-91964632D01*
X163929246Y-91964630D01*
X163922012Y-91963815D01*
X163857600Y-91936744D01*
X163848223Y-91928277D01*
X162331245Y-90411299D01*
X162297760Y-90349976D01*
X162295706Y-90337500D01*
X162285369Y-90245750D01*
X162285368Y-90245745D01*
X162225788Y-90075476D01*
X162129815Y-89922737D01*
X162002262Y-89795184D01*
X161849523Y-89699211D01*
X161679254Y-89639631D01*
X161679249Y-89639630D01*
X161500004Y-89619435D01*
X161499996Y-89619435D01*
X161320750Y-89639630D01*
X161320745Y-89639631D01*
X161150476Y-89699211D01*
X160997737Y-89795184D01*
X160870184Y-89922737D01*
X160774211Y-90075476D01*
X160714631Y-90245745D01*
X160714631Y-90245749D01*
X160709895Y-90287779D01*
X160682828Y-90352192D01*
X160625233Y-90391747D01*
X160555396Y-90393884D01*
X160498994Y-90361575D01*
X160413819Y-90276400D01*
X160380334Y-90215077D01*
X160377500Y-90188719D01*
X160377500Y-84541671D01*
X160396507Y-84475698D01*
X160475788Y-84349524D01*
X160519085Y-84225788D01*
X160535368Y-84179255D01*
X160535369Y-84179249D01*
X160555565Y-84000003D01*
X160555565Y-83999996D01*
X160535369Y-83820750D01*
X160535368Y-83820745D01*
X160500014Y-83719709D01*
X160475789Y-83650478D01*
X160379816Y-83497738D01*
X160252262Y-83370184D01*
X160219379Y-83349522D01*
X160099523Y-83274211D01*
X159929254Y-83214631D01*
X159929249Y-83214630D01*
X159750004Y-83194435D01*
X159749996Y-83194435D01*
X159570750Y-83214630D01*
X159570745Y-83214631D01*
X159400476Y-83274211D01*
X159247737Y-83370184D01*
X159120185Y-83497736D01*
X159106493Y-83519527D01*
X159054157Y-83565817D01*
X158985104Y-83576464D01*
X158921256Y-83548088D01*
X158882885Y-83489698D01*
X158877500Y-83453553D01*
X158877500Y-81142510D01*
X158897185Y-81075471D01*
X158949989Y-81029716D01*
X159019147Y-81019772D01*
X159042451Y-81025467D01*
X159070745Y-81035368D01*
X159070748Y-81035368D01*
X159070750Y-81035369D01*
X159160716Y-81045505D01*
X159225130Y-81072571D01*
X159251828Y-81102753D01*
X159300998Y-81181007D01*
X159304497Y-81186575D01*
X159432051Y-81314129D01*
X159536590Y-81379815D01*
X159584791Y-81410102D01*
X159668745Y-81439479D01*
X159725522Y-81480201D01*
X159744832Y-81515565D01*
X159774211Y-81599523D01*
X159774212Y-81599524D01*
X159826157Y-81682194D01*
X159870184Y-81752262D01*
X159997738Y-81879816D01*
X160076410Y-81929249D01*
X160116324Y-81954329D01*
X160150478Y-81975789D01*
X160320745Y-82035368D01*
X160320750Y-82035369D01*
X160499996Y-82055565D01*
X160500000Y-82055565D01*
X160500004Y-82055565D01*
X160679249Y-82035369D01*
X160679252Y-82035368D01*
X160679255Y-82035368D01*
X160849522Y-81975789D01*
X161002262Y-81879816D01*
X161129816Y-81752262D01*
X161225789Y-81599522D01*
X161285368Y-81429255D01*
X161290313Y-81385361D01*
X161317378Y-81320951D01*
X161325842Y-81311575D01*
X162235840Y-80401577D01*
X165999500Y-80401577D01*
X165999500Y-82598422D01*
X166030290Y-82792826D01*
X166091117Y-82980029D01*
X166167437Y-83129815D01*
X166180476Y-83155405D01*
X166296172Y-83314646D01*
X166435354Y-83453828D01*
X166594595Y-83569524D01*
X166608216Y-83576464D01*
X166769970Y-83658882D01*
X166769972Y-83658882D01*
X166769975Y-83658884D01*
X166870317Y-83691487D01*
X166957173Y-83719709D01*
X167151578Y-83750500D01*
X167151583Y-83750500D01*
X167348422Y-83750500D01*
X167542826Y-83719709D01*
X167730025Y-83658884D01*
X167905405Y-83569524D01*
X168001102Y-83499996D01*
X171944435Y-83499996D01*
X171944435Y-83500003D01*
X171964630Y-83679249D01*
X171964631Y-83679254D01*
X172024211Y-83849523D01*
X172103550Y-83975789D01*
X172120184Y-84002262D01*
X172247738Y-84129816D01*
X172326410Y-84179249D01*
X172400474Y-84225787D01*
X172400478Y-84225789D01*
X172570745Y-84285368D01*
X172570750Y-84285369D01*
X172749996Y-84305565D01*
X172750000Y-84305565D01*
X172750004Y-84305565D01*
X172929249Y-84285369D01*
X172929252Y-84285368D01*
X172929255Y-84285368D01*
X173099522Y-84225789D01*
X173100488Y-84225181D01*
X173109523Y-84219506D01*
X173175494Y-84200500D01*
X175824506Y-84200500D01*
X175890477Y-84219506D01*
X175900474Y-84225787D01*
X175900475Y-84225787D01*
X175900478Y-84225789D01*
X176070745Y-84285368D01*
X176070750Y-84285369D01*
X176249996Y-84305565D01*
X176250000Y-84305565D01*
X176250004Y-84305565D01*
X176429249Y-84285369D01*
X176429252Y-84285368D01*
X176429255Y-84285368D01*
X176599522Y-84225789D01*
X176752262Y-84129816D01*
X176879816Y-84002262D01*
X176975789Y-83849522D01*
X177035368Y-83679255D01*
X177035446Y-83678565D01*
X177055565Y-83500003D01*
X177055565Y-83499996D01*
X177035369Y-83320750D01*
X177035368Y-83320745D01*
X177002141Y-83225788D01*
X176975789Y-83150478D01*
X176879816Y-82997738D01*
X176782389Y-82900311D01*
X176748904Y-82838988D01*
X176753029Y-82771674D01*
X176785367Y-82679259D01*
X176785369Y-82679249D01*
X176805565Y-82500003D01*
X176805565Y-82499996D01*
X176785369Y-82320750D01*
X176785368Y-82320745D01*
X176743560Y-82201264D01*
X176725789Y-82150478D01*
X176629816Y-81997738D01*
X176502262Y-81870184D01*
X176439096Y-81830494D01*
X176349523Y-81774211D01*
X176179254Y-81714631D01*
X176179249Y-81714630D01*
X176000004Y-81694435D01*
X175999996Y-81694435D01*
X175820750Y-81714630D01*
X175820737Y-81714633D01*
X175650481Y-81774209D01*
X175650477Y-81774210D01*
X175560904Y-81830494D01*
X175494932Y-81849500D01*
X174505068Y-81849500D01*
X174439096Y-81830494D01*
X174349522Y-81774210D01*
X174349518Y-81774209D01*
X174179262Y-81714633D01*
X174179249Y-81714630D01*
X174000004Y-81694435D01*
X173999996Y-81694435D01*
X173820750Y-81714630D01*
X173820745Y-81714631D01*
X173650476Y-81774211D01*
X173497737Y-81870184D01*
X173370184Y-81997737D01*
X173274211Y-82150476D01*
X173214631Y-82320745D01*
X173214630Y-82320750D01*
X173194435Y-82499996D01*
X173194435Y-82500004D01*
X173208398Y-82623936D01*
X173196343Y-82692758D01*
X173148994Y-82744137D01*
X173081383Y-82761761D01*
X173044223Y-82754861D01*
X172929254Y-82714631D01*
X172929249Y-82714630D01*
X172750004Y-82694435D01*
X172749996Y-82694435D01*
X172570750Y-82714630D01*
X172570745Y-82714631D01*
X172400476Y-82774211D01*
X172247737Y-82870184D01*
X172120184Y-82997737D01*
X172024211Y-83150476D01*
X171964631Y-83320745D01*
X171964630Y-83320750D01*
X171944435Y-83499996D01*
X168001102Y-83499996D01*
X168064646Y-83453828D01*
X168203828Y-83314646D01*
X168319524Y-83155405D01*
X168408884Y-82980025D01*
X168469709Y-82792826D01*
X168477123Y-82746016D01*
X168500500Y-82598422D01*
X168500500Y-81069336D01*
X168520185Y-81002297D01*
X168536819Y-80981655D01*
X170731655Y-78786819D01*
X170792978Y-78753334D01*
X170819336Y-78750500D01*
X174348422Y-78750500D01*
X174542826Y-78719709D01*
X174603554Y-78699977D01*
X174730025Y-78658884D01*
X174905405Y-78569524D01*
X175064646Y-78453828D01*
X175203828Y-78314646D01*
X175319524Y-78155405D01*
X175408884Y-77980025D01*
X175469709Y-77792826D01*
X175476657Y-77748956D01*
X175500500Y-77598422D01*
X175500500Y-77401577D01*
X175469709Y-77207173D01*
X175441487Y-77120317D01*
X175408884Y-77019975D01*
X175408882Y-77019972D01*
X175408882Y-77019970D01*
X175335581Y-76876109D01*
X175319524Y-76844595D01*
X175203828Y-76685354D01*
X175064646Y-76546172D01*
X174905405Y-76430476D01*
X174891871Y-76423580D01*
X174730029Y-76341117D01*
X174542826Y-76280290D01*
X174348422Y-76249500D01*
X174348417Y-76249500D01*
X170151583Y-76249500D01*
X170151578Y-76249500D01*
X169957173Y-76280290D01*
X169769969Y-76341117D01*
X169594594Y-76430476D01*
X169567034Y-76450500D01*
X169435355Y-76546171D01*
X169435353Y-76546173D01*
X169435352Y-76546173D01*
X166296174Y-79685351D01*
X166296174Y-79685352D01*
X166296172Y-79685354D01*
X166247336Y-79752570D01*
X166180476Y-79844594D01*
X166091117Y-80019971D01*
X166056319Y-80127068D01*
X166056319Y-80127069D01*
X166030290Y-80207173D01*
X165999500Y-80401577D01*
X162235840Y-80401577D01*
X168737411Y-73900008D01*
X168754455Y-73874500D01*
X168806083Y-73797233D01*
X168853385Y-73683035D01*
X168869997Y-73599521D01*
X168877500Y-73561805D01*
X168877500Y-72291671D01*
X168896507Y-72225698D01*
X168918472Y-72190742D01*
X168975789Y-72099522D01*
X169035368Y-71929255D01*
X169051637Y-71784866D01*
X169055565Y-71750003D01*
X169055565Y-71749996D01*
X169035369Y-71570750D01*
X169035368Y-71570745D01*
X169008928Y-71495184D01*
X168975789Y-71400478D01*
X168974992Y-71399210D01*
X168920033Y-71311743D01*
X168879816Y-71247738D01*
X168752262Y-71120184D01*
X168681979Y-71076022D01*
X168599523Y-71024211D01*
X168429254Y-70964631D01*
X168429249Y-70964630D01*
X168250004Y-70944435D01*
X168249996Y-70944435D01*
X168070750Y-70964630D01*
X168070745Y-70964631D01*
X167900476Y-71024211D01*
X167747737Y-71120184D01*
X167620184Y-71247737D01*
X167524211Y-71400476D01*
X167464631Y-71570745D01*
X167464630Y-71570749D01*
X167455619Y-71650730D01*
X167428552Y-71715144D01*
X167370957Y-71754699D01*
X167301120Y-71756836D01*
X167291445Y-71753888D01*
X167179257Y-71714632D01*
X167179249Y-71714630D01*
X167000004Y-71694435D01*
X166999996Y-71694435D01*
X166820750Y-71714630D01*
X166820745Y-71714631D01*
X166650476Y-71774211D01*
X166497737Y-71870184D01*
X166370184Y-71997737D01*
X166274210Y-72150478D01*
X166214632Y-72320745D01*
X166209686Y-72364637D01*
X166182618Y-72429051D01*
X166174147Y-72438432D01*
X163267158Y-75345421D01*
X163205835Y-75378906D01*
X163136143Y-75373922D01*
X163080210Y-75332050D01*
X163055793Y-75266586D01*
X163055993Y-75256964D01*
X163055565Y-75256964D01*
X163055565Y-75249996D01*
X163035369Y-75070750D01*
X163035368Y-75070745D01*
X163002141Y-74975788D01*
X162975789Y-74900478D01*
X162879816Y-74747738D01*
X162752262Y-74620184D01*
X162678691Y-74573956D01*
X162599523Y-74524211D01*
X162429254Y-74464631D01*
X162429249Y-74464630D01*
X162250004Y-74444435D01*
X162249996Y-74444435D01*
X162070750Y-74464630D01*
X162070745Y-74464631D01*
X161900476Y-74524211D01*
X161747737Y-74620184D01*
X161620184Y-74747737D01*
X161524212Y-74900475D01*
X161524211Y-74900476D01*
X161487992Y-75003984D01*
X161458632Y-75050709D01*
X159089181Y-77420161D01*
X159027858Y-77453646D01*
X158958166Y-77448662D01*
X158902233Y-77406790D01*
X158877816Y-77341326D01*
X158877500Y-77332480D01*
X158877500Y-75811280D01*
X158897185Y-75744241D01*
X158913815Y-75723603D01*
X159311567Y-75325850D01*
X159372888Y-75292367D01*
X159385345Y-75290315D01*
X159429255Y-75285368D01*
X159599522Y-75225789D01*
X159752262Y-75129816D01*
X159879816Y-75002262D01*
X159975789Y-74849522D01*
X160035368Y-74679255D01*
X160044352Y-74599522D01*
X160055565Y-74500003D01*
X160055565Y-74499996D01*
X160035369Y-74320750D01*
X160035368Y-74320745D01*
X160028099Y-74299972D01*
X159975789Y-74150478D01*
X159945325Y-74101995D01*
X159938085Y-74090472D01*
X159919085Y-74023235D01*
X159939453Y-73956400D01*
X159992721Y-73911186D01*
X160043079Y-73900500D01*
X161494932Y-73900500D01*
X161560904Y-73919506D01*
X161650477Y-73975789D01*
X161650481Y-73975790D01*
X161820737Y-74035366D01*
X161820743Y-74035367D01*
X161820745Y-74035368D01*
X161820746Y-74035368D01*
X161820750Y-74035369D01*
X161999996Y-74055565D01*
X162000000Y-74055565D01*
X162000004Y-74055565D01*
X162179249Y-74035369D01*
X162179252Y-74035368D01*
X162179255Y-74035368D01*
X162349522Y-73975789D01*
X162502262Y-73879816D01*
X162629816Y-73752262D01*
X162725789Y-73599522D01*
X162785368Y-73429255D01*
X162787936Y-73406456D01*
X162815002Y-73342043D01*
X162872596Y-73302487D01*
X162925039Y-73297119D01*
X162962710Y-73301363D01*
X162999998Y-73305565D01*
X163000000Y-73305565D01*
X163000004Y-73305565D01*
X163179249Y-73285369D01*
X163179252Y-73285368D01*
X163179255Y-73285368D01*
X163349522Y-73225789D01*
X163502262Y-73129816D01*
X163629816Y-73002262D01*
X163646645Y-72975478D01*
X163698976Y-72929188D01*
X163765522Y-72918230D01*
X163874997Y-72930565D01*
X163875000Y-72930565D01*
X163875004Y-72930565D01*
X164054249Y-72910369D01*
X164054252Y-72910368D01*
X164054255Y-72910368D01*
X164224522Y-72850789D01*
X164377262Y-72754816D01*
X164504816Y-72627262D01*
X164600789Y-72474522D01*
X164660368Y-72304255D01*
X164661786Y-72291671D01*
X164680565Y-72125003D01*
X164680565Y-72124996D01*
X164660369Y-71945750D01*
X164660368Y-71945745D01*
X164654596Y-71929249D01*
X164600789Y-71775478D01*
X164589075Y-71756836D01*
X164549866Y-71694435D01*
X164504816Y-71622738D01*
X164377262Y-71495184D01*
X164328820Y-71464746D01*
X164224521Y-71399210D01*
X164054255Y-71339632D01*
X164054246Y-71339630D01*
X164047012Y-71338815D01*
X163982600Y-71311743D01*
X163973224Y-71303277D01*
X163914673Y-71244726D01*
X163914669Y-71244723D01*
X163808127Y-71173535D01*
X163764357Y-71155405D01*
X163689744Y-71124499D01*
X163689738Y-71124497D01*
X163564071Y-71099500D01*
X163564069Y-71099500D01*
X152435931Y-71099500D01*
X152435929Y-71099500D01*
X152310261Y-71124497D01*
X152310255Y-71124499D01*
X152191870Y-71173535D01*
X152085331Y-71244722D01*
X152085324Y-71244728D01*
X143494727Y-79835325D01*
X143494721Y-79835332D01*
X143439359Y-79918188D01*
X143439360Y-79918189D01*
X143423534Y-79941874D01*
X143374499Y-80060255D01*
X143374497Y-80060261D01*
X143349500Y-80185928D01*
X143349500Y-81244931D01*
X143330494Y-81310903D01*
X143274211Y-81400477D01*
X143274209Y-81400481D01*
X143214633Y-81570737D01*
X143214630Y-81570750D01*
X143194435Y-81749996D01*
X143194435Y-81750003D01*
X143214630Y-81929249D01*
X143214631Y-81929254D01*
X143274211Y-82099523D01*
X143333849Y-82194435D01*
X143370184Y-82252262D01*
X143497738Y-82379816D01*
X143588080Y-82436582D01*
X143642601Y-82470840D01*
X143650478Y-82475789D01*
X143803001Y-82529159D01*
X143820745Y-82535368D01*
X143820750Y-82535369D01*
X143999996Y-82555565D01*
X144000000Y-82555565D01*
X144000004Y-82555565D01*
X144179249Y-82535369D01*
X144179252Y-82535368D01*
X144179255Y-82535368D01*
X144349522Y-82475789D01*
X144502262Y-82379816D01*
X144629816Y-82252262D01*
X144725789Y-82099522D01*
X144785368Y-81929255D01*
X144785369Y-81929249D01*
X144805565Y-81750003D01*
X144805565Y-81749997D01*
X144797960Y-81682503D01*
X144810014Y-81613681D01*
X144857363Y-81562301D01*
X144924973Y-81544677D01*
X144991379Y-81566403D01*
X145026174Y-81602647D01*
X145076157Y-81682194D01*
X145120184Y-81752262D01*
X145247738Y-81879816D01*
X145326410Y-81929249D01*
X145366324Y-81954329D01*
X145400478Y-81975789D01*
X145570745Y-82035368D01*
X145570750Y-82035369D01*
X145749996Y-82055565D01*
X145750000Y-82055565D01*
X145750004Y-82055565D01*
X145929249Y-82035369D01*
X145929252Y-82035368D01*
X145929255Y-82035368D01*
X146099522Y-81975789D01*
X146252262Y-81879816D01*
X146379816Y-81752262D01*
X146475789Y-81599522D01*
X146535368Y-81429255D01*
X146538610Y-81400481D01*
X146555565Y-81250003D01*
X146555565Y-81249996D01*
X146944435Y-81249996D01*
X146944435Y-81250003D01*
X146964630Y-81429249D01*
X146964631Y-81429254D01*
X147024211Y-81599523D01*
X147076157Y-81682194D01*
X147120184Y-81752262D01*
X147247738Y-81879816D01*
X147326410Y-81929249D01*
X147366324Y-81954329D01*
X147400478Y-81975789D01*
X147570745Y-82035368D01*
X147570750Y-82035369D01*
X147749996Y-82055565D01*
X147750000Y-82055565D01*
X147750004Y-82055565D01*
X147929249Y-82035369D01*
X147929252Y-82035368D01*
X147929255Y-82035368D01*
X148099522Y-81975789D01*
X148225700Y-81896505D01*
X148291672Y-81877500D01*
X148688719Y-81877500D01*
X148755758Y-81897185D01*
X148776400Y-81913819D01*
X149797146Y-82934565D01*
X149830631Y-82995888D01*
X149832685Y-83008361D01*
X149837630Y-83052249D01*
X149897210Y-83222521D01*
X149929689Y-83274211D01*
X149993184Y-83375262D01*
X150120738Y-83502816D01*
X150273478Y-83598789D01*
X150421191Y-83650476D01*
X150443745Y-83658368D01*
X150443750Y-83658369D01*
X150622996Y-83678565D01*
X150623000Y-83678565D01*
X150623004Y-83678565D01*
X150802249Y-83658369D01*
X150802252Y-83658368D01*
X150802255Y-83658368D01*
X150972522Y-83598789D01*
X151125262Y-83502816D01*
X151252816Y-83375262D01*
X151348789Y-83222522D01*
X151408368Y-83052255D01*
X151408369Y-83052249D01*
X151428565Y-82873003D01*
X151428565Y-82872996D01*
X151408369Y-82693750D01*
X151408368Y-82693745D01*
X151393228Y-82650478D01*
X151348789Y-82523478D01*
X151340269Y-82509919D01*
X151252815Y-82370737D01*
X151125262Y-82243184D01*
X150972521Y-82147210D01*
X150802249Y-82087630D01*
X150758361Y-82082685D01*
X150693947Y-82055617D01*
X150684565Y-82047146D01*
X149400014Y-80762594D01*
X149400009Y-80762590D01*
X149389062Y-80755275D01*
X149389062Y-80755274D01*
X149297239Y-80693920D01*
X149297226Y-80693913D01*
X149261837Y-80679255D01*
X149261836Y-80679255D01*
X149183035Y-80646614D01*
X149183027Y-80646612D01*
X149061807Y-80622500D01*
X149061803Y-80622500D01*
X148291672Y-80622500D01*
X148225700Y-80603494D01*
X148099523Y-80524211D01*
X147929254Y-80464631D01*
X147929249Y-80464630D01*
X147750004Y-80444435D01*
X147749996Y-80444435D01*
X147570750Y-80464630D01*
X147570745Y-80464631D01*
X147400476Y-80524211D01*
X147247737Y-80620184D01*
X147120184Y-80747737D01*
X147024211Y-80900476D01*
X146964631Y-81070745D01*
X146964630Y-81070750D01*
X146944435Y-81249996D01*
X146555565Y-81249996D01*
X146535369Y-81070750D01*
X146535366Y-81070737D01*
X146475790Y-80900481D01*
X146475786Y-80900472D01*
X146448785Y-80857499D01*
X146429785Y-80790262D01*
X146450153Y-80723427D01*
X146466093Y-80703852D01*
X147169949Y-79999996D01*
X149444435Y-79999996D01*
X149444435Y-80000003D01*
X149464630Y-80179249D01*
X149464631Y-80179254D01*
X149524211Y-80349523D01*
X149576065Y-80432047D01*
X149620184Y-80502262D01*
X149747738Y-80629816D01*
X149826410Y-80679249D01*
X149865557Y-80703847D01*
X149900478Y-80725789D01*
X150070745Y-80785368D01*
X150114635Y-80790313D01*
X150179048Y-80817378D01*
X150188433Y-80825852D01*
X151836181Y-82473600D01*
X151869666Y-82534923D01*
X151872500Y-82561281D01*
X151872500Y-84708328D01*
X151853494Y-84774300D01*
X151774211Y-84900476D01*
X151714631Y-85070745D01*
X151714630Y-85070750D01*
X151694435Y-85249996D01*
X151694435Y-85250003D01*
X151714630Y-85429249D01*
X151714631Y-85429254D01*
X151774211Y-85599523D01*
X151806229Y-85650479D01*
X151870184Y-85752262D01*
X151997738Y-85879816D01*
X152150478Y-85975789D01*
X152219678Y-86000003D01*
X152320745Y-86035368D01*
X152320750Y-86035369D01*
X152499996Y-86055565D01*
X152500000Y-86055565D01*
X152500004Y-86055565D01*
X152679249Y-86035369D01*
X152679252Y-86035368D01*
X152679255Y-86035368D01*
X152849522Y-85975789D01*
X153002262Y-85879816D01*
X153129816Y-85752262D01*
X153225789Y-85599522D01*
X153285368Y-85429255D01*
X153295526Y-85339099D01*
X153305565Y-85250003D01*
X153305565Y-85249996D01*
X153285369Y-85070750D01*
X153285368Y-85070745D01*
X153225788Y-84900476D01*
X153146506Y-84774300D01*
X153127500Y-84708328D01*
X153127500Y-82188196D01*
X153127499Y-82188195D01*
X153115029Y-82125500D01*
X153103386Y-82066966D01*
X153056730Y-81954329D01*
X153056083Y-81952767D01*
X153056081Y-81952764D01*
X153056079Y-81952760D01*
X152987412Y-81849993D01*
X152967913Y-81830494D01*
X152900008Y-81762589D01*
X151075852Y-79938433D01*
X151042367Y-79877110D01*
X151040314Y-79864648D01*
X151035368Y-79820745D01*
X150975789Y-79650478D01*
X150879816Y-79497738D01*
X150752262Y-79370184D01*
X150599523Y-79274211D01*
X150429254Y-79214631D01*
X150429249Y-79214630D01*
X150250004Y-79194435D01*
X150249996Y-79194435D01*
X150070750Y-79214630D01*
X150070745Y-79214631D01*
X149900476Y-79274211D01*
X149747737Y-79370184D01*
X149620184Y-79497737D01*
X149524211Y-79650476D01*
X149464631Y-79820745D01*
X149464630Y-79820750D01*
X149444435Y-79999996D01*
X147169949Y-79999996D01*
X153233127Y-73936819D01*
X153294450Y-73903334D01*
X153320808Y-73900500D01*
X154072411Y-73900500D01*
X154139450Y-73920185D01*
X154185205Y-73972989D01*
X154195631Y-74010617D01*
X154214630Y-74179249D01*
X154214631Y-74179254D01*
X154274211Y-74349524D01*
X154330493Y-74439094D01*
X154349500Y-74505067D01*
X154349500Y-77866587D01*
X154329815Y-77933626D01*
X154277011Y-77979381D01*
X154266455Y-77983629D01*
X154150476Y-78024211D01*
X153997737Y-78120184D01*
X153870184Y-78247737D01*
X153774211Y-78400476D01*
X153714631Y-78570745D01*
X153714630Y-78570750D01*
X153694435Y-78749996D01*
X153694435Y-78750003D01*
X153714630Y-78929249D01*
X153714631Y-78929254D01*
X153774211Y-79099523D01*
X153826032Y-79181995D01*
X153870184Y-79252262D01*
X153997738Y-79379816D01*
X154067385Y-79423578D01*
X154150474Y-79475787D01*
X154150478Y-79475789D01*
X154213202Y-79497737D01*
X154320745Y-79535368D01*
X154320750Y-79535369D01*
X154499996Y-79555565D01*
X154500000Y-79555565D01*
X154500004Y-79555565D01*
X154679249Y-79535369D01*
X154679252Y-79535368D01*
X154679255Y-79535368D01*
X154849522Y-79475789D01*
X154850488Y-79475181D01*
X154859523Y-79469506D01*
X154925494Y-79450500D01*
X155068996Y-79450500D01*
X155160040Y-79432389D01*
X155204328Y-79423580D01*
X155268069Y-79397177D01*
X155331807Y-79370777D01*
X155331808Y-79370776D01*
X155331811Y-79370775D01*
X155446543Y-79294114D01*
X155594114Y-79146543D01*
X155670775Y-79031811D01*
X155674239Y-79023450D01*
X155723578Y-78904332D01*
X155723580Y-78904328D01*
X155737072Y-78836502D01*
X155750500Y-78768996D01*
X155750500Y-74299972D01*
X155757458Y-74259017D01*
X155760615Y-74249996D01*
X155785368Y-74179255D01*
X155788611Y-74150478D01*
X155804369Y-74010617D01*
X155831435Y-73946203D01*
X155889030Y-73906648D01*
X155927589Y-73900500D01*
X156456921Y-73900500D01*
X156523960Y-73920185D01*
X156569715Y-73972989D01*
X156579659Y-74042147D01*
X156561915Y-74090472D01*
X156524211Y-74150476D01*
X156464631Y-74320745D01*
X156464630Y-74320750D01*
X156444435Y-74499996D01*
X156444435Y-74500003D01*
X156464630Y-74679249D01*
X156464631Y-74679254D01*
X156524211Y-74849524D01*
X156582189Y-74941794D01*
X156596539Y-74964632D01*
X156603493Y-74975698D01*
X156622500Y-75041671D01*
X156622500Y-82938718D01*
X156602815Y-83005757D01*
X156586181Y-83026399D01*
X153188432Y-86424147D01*
X153127109Y-86457632D01*
X153114637Y-86459686D01*
X153070745Y-86464632D01*
X152900478Y-86524210D01*
X152747737Y-86620184D01*
X152620184Y-86747737D01*
X152524211Y-86900476D01*
X152464631Y-87070745D01*
X152464630Y-87070750D01*
X152444435Y-87249996D01*
X152444435Y-87250003D01*
X152464630Y-87429249D01*
X152464631Y-87429254D01*
X152524211Y-87599523D01*
X152617341Y-87747737D01*
X152620184Y-87752262D01*
X152747738Y-87879816D01*
X152900478Y-87975789D01*
X153070745Y-88035368D01*
X153101795Y-88038866D01*
X153166207Y-88065930D01*
X153205763Y-88123524D01*
X153211132Y-88148201D01*
X153214630Y-88179249D01*
X153274210Y-88349521D01*
X153339751Y-88453829D01*
X153370184Y-88502262D01*
X153497738Y-88629816D01*
X153558808Y-88668189D01*
X153640801Y-88719709D01*
X153650478Y-88725789D01*
X153820745Y-88785368D01*
X153851795Y-88788866D01*
X153916207Y-88815930D01*
X153955763Y-88873524D01*
X153961132Y-88898201D01*
X153964630Y-88929249D01*
X154024210Y-89099521D01*
X154078143Y-89185354D01*
X154120184Y-89252262D01*
X154247738Y-89379816D01*
X154293110Y-89408325D01*
X154385441Y-89466341D01*
X154400478Y-89475789D01*
X154526757Y-89519976D01*
X154570745Y-89535368D01*
X154570750Y-89535369D01*
X154749996Y-89555565D01*
X154750000Y-89555565D01*
X154750004Y-89555565D01*
X154929249Y-89535369D01*
X154929252Y-89535368D01*
X154929255Y-89535368D01*
X155099522Y-89475789D01*
X155114559Y-89466341D01*
X155146068Y-89446542D01*
X155176650Y-89427325D01*
X155243887Y-89408325D01*
X155310722Y-89428692D01*
X155347613Y-89466341D01*
X155353490Y-89475693D01*
X155372500Y-89541671D01*
X155372500Y-89561807D01*
X155396612Y-89683027D01*
X155396614Y-89683035D01*
X155430062Y-89763785D01*
X155443915Y-89797229D01*
X155443920Y-89797238D01*
X155509036Y-89894690D01*
X155509037Y-89894694D01*
X155509038Y-89894694D01*
X155512589Y-89900009D01*
X162262589Y-96650008D01*
X162346323Y-96733742D01*
X162349994Y-96737413D01*
X162349996Y-96737414D01*
X162452756Y-96806076D01*
X162452758Y-96806077D01*
X162452767Y-96806083D01*
X162477772Y-96816440D01*
X162500071Y-96825677D01*
X162542254Y-96843149D01*
X162566966Y-96853386D01*
X162688192Y-96877499D01*
X162688196Y-96877500D01*
X162688197Y-96877500D01*
X162811804Y-96877500D01*
X173365326Y-96877500D01*
X173431297Y-96896505D01*
X173557476Y-96975789D01*
X173651522Y-97008697D01*
X173727743Y-97035368D01*
X173727748Y-97035369D01*
X173906994Y-97055565D01*
X173906998Y-97055565D01*
X173907000Y-97055565D01*
X173946453Y-97051119D01*
X173961616Y-97049411D01*
X174030438Y-97061465D01*
X174081817Y-97108814D01*
X174099500Y-97172631D01*
X174099500Y-97599441D01*
X174079815Y-97666480D01*
X174027011Y-97712235D01*
X173957853Y-97722179D01*
X173934546Y-97716483D01*
X173929257Y-97714632D01*
X173929249Y-97714630D01*
X173750004Y-97694435D01*
X173749996Y-97694435D01*
X173570750Y-97714630D01*
X173570745Y-97714631D01*
X173400476Y-97774211D01*
X173274300Y-97853494D01*
X173208328Y-97872500D01*
X164742091Y-97872500D01*
X164676119Y-97853494D01*
X164549942Y-97774211D01*
X164379673Y-97714631D01*
X164379668Y-97714630D01*
X164200423Y-97694435D01*
X164200415Y-97694435D01*
X164021169Y-97714630D01*
X164021164Y-97714631D01*
X163850895Y-97774211D01*
X163698156Y-97870184D01*
X163570603Y-97997737D01*
X163474630Y-98150476D01*
X163415050Y-98320745D01*
X163415049Y-98320750D01*
X163394854Y-98499996D01*
X163394854Y-98500003D01*
X163415049Y-98679249D01*
X163415050Y-98679254D01*
X163474630Y-98849523D01*
X163554997Y-98977425D01*
X163570603Y-99002262D01*
X163698157Y-99129816D01*
X163850897Y-99225789D01*
X164021164Y-99285368D01*
X164021169Y-99285369D01*
X164092920Y-99293453D01*
X164157335Y-99320519D01*
X164196890Y-99378113D01*
X164202259Y-99430555D01*
X164194435Y-99500003D01*
X164214630Y-99679249D01*
X164214631Y-99679254D01*
X164274211Y-99849523D01*
X164329063Y-99936819D01*
X164370184Y-100002262D01*
X164497738Y-100129816D01*
X164588080Y-100186582D01*
X164609417Y-100199989D01*
X164650478Y-100225789D01*
X164744515Y-100258694D01*
X164820745Y-100285368D01*
X164820750Y-100285369D01*
X164999996Y-100305565D01*
X165000000Y-100305565D01*
X165000004Y-100305565D01*
X165179249Y-100285369D01*
X165179252Y-100285368D01*
X165179255Y-100285368D01*
X165349522Y-100225789D01*
X165475700Y-100146505D01*
X165541672Y-100127500D01*
X173203554Y-100127500D01*
X173270593Y-100147185D01*
X173316348Y-100199989D01*
X173326292Y-100269147D01*
X173297267Y-100332703D01*
X173269527Y-100356492D01*
X173262149Y-100361128D01*
X173247737Y-100370184D01*
X173120184Y-100497737D01*
X173024211Y-100650476D01*
X172964631Y-100820745D01*
X172964630Y-100820750D01*
X172944435Y-100999996D01*
X172944435Y-101000003D01*
X172964630Y-101179249D01*
X172964631Y-101179254D01*
X173024211Y-101349523D01*
X173089256Y-101453040D01*
X173120184Y-101502262D01*
X173247738Y-101629816D01*
X173310904Y-101669506D01*
X173396021Y-101722989D01*
X173400478Y-101725789D01*
X173538223Y-101773988D01*
X173570745Y-101785368D01*
X173570750Y-101785369D01*
X173749996Y-101805565D01*
X173750000Y-101805565D01*
X173750004Y-101805565D01*
X173929249Y-101785369D01*
X173929251Y-101785368D01*
X173929255Y-101785368D01*
X173929258Y-101785366D01*
X173929262Y-101785366D01*
X174019377Y-101753832D01*
X174099522Y-101725789D01*
X174189096Y-101669505D01*
X174255068Y-101650500D01*
X174435931Y-101650500D01*
X174570192Y-101650500D01*
X174637231Y-101670185D01*
X174682986Y-101722989D01*
X174692930Y-101792147D01*
X174675730Y-101839597D01*
X174613001Y-101941294D01*
X174612996Y-101941305D01*
X174559651Y-102102290D01*
X174549500Y-102201647D01*
X174549500Y-102798337D01*
X174549501Y-102798355D01*
X174559650Y-102897707D01*
X174559651Y-102897710D01*
X174612996Y-103058694D01*
X174613001Y-103058705D01*
X174702029Y-103203040D01*
X174702032Y-103203044D01*
X174821955Y-103322967D01*
X174821959Y-103322970D01*
X174966294Y-103411998D01*
X174966297Y-103411999D01*
X174966303Y-103412003D01*
X175127292Y-103465349D01*
X175226655Y-103475500D01*
X175661130Y-103475499D01*
X175728169Y-103495183D01*
X175773924Y-103547987D01*
X175783868Y-103617146D01*
X175775793Y-103643653D01*
X175776511Y-103643905D01*
X175714631Y-103820745D01*
X175714630Y-103820750D01*
X175694435Y-103999996D01*
X175694435Y-104000003D01*
X175714630Y-104179249D01*
X175714631Y-104179254D01*
X175774211Y-104349523D01*
X175825078Y-104430476D01*
X175870184Y-104502262D01*
X175997738Y-104629816D01*
X176150478Y-104725789D01*
X176243481Y-104758332D01*
X176320745Y-104785368D01*
X176320750Y-104785369D01*
X176499996Y-104805565D01*
X176500000Y-104805565D01*
X176500004Y-104805565D01*
X176679249Y-104785369D01*
X176679252Y-104785368D01*
X176679255Y-104785368D01*
X176849522Y-104725789D01*
X177002262Y-104629816D01*
X177129816Y-104502262D01*
X177225789Y-104349522D01*
X177262008Y-104246011D01*
X177291364Y-104199291D01*
X177594113Y-103896543D01*
X177622398Y-103854211D01*
X177676011Y-103809407D01*
X177745336Y-103800700D01*
X177808363Y-103830855D01*
X177845082Y-103890298D01*
X177849500Y-103923103D01*
X177849500Y-106064069D01*
X177849500Y-106064071D01*
X177849499Y-106064071D01*
X177874497Y-106189738D01*
X177874499Y-106189744D01*
X177923535Y-106308127D01*
X177927892Y-106314648D01*
X177994726Y-106414673D01*
X177994727Y-106414674D01*
X178678277Y-107098223D01*
X178711762Y-107159546D01*
X178713815Y-107172012D01*
X178714630Y-107179246D01*
X178714632Y-107179255D01*
X178774210Y-107349521D01*
X178774211Y-107349522D01*
X178870184Y-107502262D01*
X178997738Y-107629816D01*
X179150478Y-107725789D01*
X179320745Y-107785368D01*
X179320750Y-107785369D01*
X179499996Y-107805565D01*
X179500000Y-107805565D01*
X179500004Y-107805565D01*
X179679249Y-107785369D01*
X179679252Y-107785368D01*
X179679255Y-107785368D01*
X179849522Y-107725789D01*
X180002262Y-107629816D01*
X180007331Y-107624746D01*
X180068649Y-107591261D01*
X180138341Y-107596242D01*
X180194276Y-107638111D01*
X180210573Y-107673297D01*
X180212332Y-107672682D01*
X180274211Y-107849523D01*
X180370184Y-108002262D01*
X180497738Y-108129816D01*
X180560904Y-108169506D01*
X180646021Y-108222989D01*
X180650478Y-108225789D01*
X180820739Y-108285366D01*
X180820745Y-108285368D01*
X180820750Y-108285369D01*
X180999996Y-108305565D01*
X181000000Y-108305565D01*
X181000004Y-108305565D01*
X181179249Y-108285369D01*
X181179251Y-108285368D01*
X181179255Y-108285368D01*
X181179258Y-108285366D01*
X181179262Y-108285366D01*
X181269377Y-108253832D01*
X181349522Y-108225789D01*
X181439096Y-108169505D01*
X181505068Y-108150500D01*
X184599441Y-108150500D01*
X184666480Y-108170185D01*
X184712235Y-108222989D01*
X184722179Y-108292147D01*
X184716483Y-108315454D01*
X184714632Y-108320742D01*
X184714630Y-108320750D01*
X184694435Y-108499996D01*
X184694435Y-108500003D01*
X184714630Y-108679249D01*
X184714631Y-108679254D01*
X184774212Y-108849525D01*
X184780492Y-108859519D01*
X184799500Y-108925493D01*
X184799500Y-112181006D01*
X184799500Y-112318994D01*
X184799500Y-112318996D01*
X184799499Y-112318996D01*
X184826418Y-112454322D01*
X184826421Y-112454332D01*
X184879222Y-112581807D01*
X184955887Y-112696545D01*
X186044711Y-113785369D01*
X186078196Y-113846692D01*
X186073212Y-113916384D01*
X186031340Y-113972317D01*
X185997984Y-113990092D01*
X185900478Y-114024210D01*
X185747737Y-114120184D01*
X185620184Y-114247737D01*
X185524211Y-114400476D01*
X185464631Y-114570745D01*
X185464630Y-114570750D01*
X185444435Y-114749996D01*
X185444435Y-114750003D01*
X185464630Y-114929249D01*
X185464631Y-114929254D01*
X185524211Y-115099523D01*
X185611776Y-115238881D01*
X185620184Y-115252262D01*
X185747738Y-115379816D01*
X185900478Y-115475789D01*
X186003984Y-115512007D01*
X186050710Y-115541367D01*
X186725951Y-116216608D01*
X186759436Y-116277931D01*
X186754452Y-116347623D01*
X186725952Y-116391970D01*
X186620183Y-116497739D01*
X186524211Y-116650476D01*
X186464631Y-116820745D01*
X186464630Y-116820750D01*
X186444435Y-116999996D01*
X186444435Y-117000003D01*
X186464630Y-117179249D01*
X186464631Y-117179254D01*
X186524211Y-117349523D01*
X186590065Y-117454328D01*
X186620184Y-117502262D01*
X186747738Y-117629816D01*
X186900478Y-117725789D01*
X187003984Y-117762007D01*
X187050711Y-117791368D01*
X187053454Y-117794111D01*
X187053458Y-117794114D01*
X187168182Y-117870771D01*
X187168186Y-117870773D01*
X187168189Y-117870775D01*
X187242866Y-117901707D01*
X187242867Y-117901707D01*
X187242869Y-117901709D01*
X187295666Y-117923578D01*
X187295671Y-117923580D01*
X187295680Y-117923581D01*
X187295681Y-117923582D01*
X187322539Y-117928924D01*
X187322551Y-117928926D01*
X187322591Y-117928934D01*
X187393218Y-117942983D01*
X187455128Y-117975370D01*
X187489701Y-118036086D01*
X187493022Y-118063871D01*
X187499695Y-119198211D01*
X187480405Y-119265365D01*
X187463378Y-119286621D01*
X184786319Y-121963681D01*
X184724996Y-121997166D01*
X184698638Y-122000000D01*
X155973675Y-122000000D01*
X155906636Y-121980315D01*
X155860881Y-121927511D01*
X155850937Y-121858353D01*
X155863190Y-121819705D01*
X155908882Y-121730029D01*
X155908882Y-121730028D01*
X155908884Y-121730025D01*
X155969709Y-121542826D01*
X156000500Y-121348422D01*
X156000500Y-121151577D01*
X155969709Y-120957173D01*
X155908882Y-120769970D01*
X155819523Y-120594594D01*
X155703828Y-120435354D01*
X155564646Y-120296172D01*
X155405405Y-120180476D01*
X155230029Y-120091117D01*
X155042826Y-120030290D01*
X154848422Y-119999500D01*
X154848417Y-119999500D01*
X152848417Y-119999500D01*
X145319336Y-119999500D01*
X145252297Y-119979815D01*
X145231655Y-119963181D01*
X140286819Y-115018345D01*
X140253334Y-114957022D01*
X140250500Y-114930664D01*
X140250500Y-114749994D01*
X174954357Y-114749994D01*
X174954357Y-114750005D01*
X174974890Y-114997812D01*
X174974892Y-114997824D01*
X175035936Y-115238881D01*
X175135826Y-115466606D01*
X175271833Y-115674782D01*
X175271836Y-115674785D01*
X175440256Y-115857738D01*
X175636491Y-116010474D01*
X175855190Y-116128828D01*
X176090386Y-116209571D01*
X176335665Y-116250500D01*
X176584335Y-116250500D01*
X176829614Y-116209571D01*
X177064810Y-116128828D01*
X177283509Y-116010474D01*
X177479744Y-115857738D01*
X177638771Y-115684988D01*
X177698657Y-115648999D01*
X177768495Y-115651099D01*
X177821228Y-115684988D01*
X177980256Y-115857738D01*
X178176491Y-116010474D01*
X178395190Y-116128828D01*
X178630386Y-116209571D01*
X178875665Y-116250500D01*
X179124335Y-116250500D01*
X179369614Y-116209571D01*
X179604810Y-116128828D01*
X179823509Y-116010474D01*
X180019744Y-115857738D01*
X180178771Y-115684988D01*
X180238657Y-115648999D01*
X180308495Y-115651099D01*
X180361228Y-115684988D01*
X180520256Y-115857738D01*
X180716491Y-116010474D01*
X180935190Y-116128828D01*
X181170386Y-116209571D01*
X181415665Y-116250500D01*
X181664335Y-116250500D01*
X181909614Y-116209571D01*
X182144810Y-116128828D01*
X182363509Y-116010474D01*
X182559744Y-115857738D01*
X182728164Y-115674785D01*
X182864173Y-115466607D01*
X182964063Y-115238881D01*
X183025108Y-114997821D01*
X183041039Y-114805565D01*
X183045643Y-114750005D01*
X183045643Y-114749994D01*
X183025109Y-114502187D01*
X183025107Y-114502175D01*
X182964063Y-114261118D01*
X182864173Y-114033393D01*
X182728166Y-113825217D01*
X182691483Y-113785369D01*
X182559744Y-113642262D01*
X182363509Y-113489526D01*
X182363507Y-113489525D01*
X182363506Y-113489524D01*
X182144811Y-113371172D01*
X182144802Y-113371169D01*
X181909616Y-113290429D01*
X181664335Y-113249500D01*
X181415665Y-113249500D01*
X181170383Y-113290429D01*
X180935197Y-113371169D01*
X180935188Y-113371172D01*
X180716493Y-113489524D01*
X180520257Y-113642261D01*
X180361230Y-113815010D01*
X180301342Y-113851001D01*
X180231504Y-113848900D01*
X180178770Y-113815010D01*
X180139108Y-113771926D01*
X180019744Y-113642262D01*
X179823509Y-113489526D01*
X179823507Y-113489525D01*
X179823506Y-113489524D01*
X179604811Y-113371172D01*
X179604802Y-113371169D01*
X179369616Y-113290429D01*
X179124335Y-113249500D01*
X178875665Y-113249500D01*
X178630383Y-113290429D01*
X178395197Y-113371169D01*
X178395188Y-113371172D01*
X178176493Y-113489524D01*
X177980257Y-113642261D01*
X177821230Y-113815010D01*
X177761342Y-113851001D01*
X177691504Y-113848900D01*
X177638770Y-113815010D01*
X177599108Y-113771926D01*
X177479744Y-113642262D01*
X177283509Y-113489526D01*
X177283507Y-113489525D01*
X177283506Y-113489524D01*
X177064811Y-113371172D01*
X177064802Y-113371169D01*
X176829616Y-113290429D01*
X176584335Y-113249500D01*
X176335665Y-113249500D01*
X176090383Y-113290429D01*
X175855197Y-113371169D01*
X175855188Y-113371172D01*
X175636493Y-113489524D01*
X175440257Y-113642261D01*
X175271833Y-113825217D01*
X175135826Y-114033393D01*
X175035936Y-114261118D01*
X174974892Y-114502175D01*
X174974890Y-114502187D01*
X174954357Y-114749994D01*
X140250500Y-114749994D01*
X140250500Y-105401577D01*
X164249500Y-105401577D01*
X164249500Y-105598422D01*
X164280290Y-105792826D01*
X164341117Y-105980029D01*
X164400486Y-106096546D01*
X164430476Y-106155405D01*
X164546172Y-106314646D01*
X164685354Y-106453828D01*
X164844595Y-106569524D01*
X164903011Y-106599288D01*
X165019970Y-106658882D01*
X165019972Y-106658882D01*
X165019975Y-106658884D01*
X165098948Y-106684544D01*
X165207173Y-106719709D01*
X165401578Y-106750500D01*
X165401583Y-106750500D01*
X171598422Y-106750500D01*
X171792826Y-106719709D01*
X171808457Y-106714630D01*
X171980025Y-106658884D01*
X172155405Y-106569524D01*
X172314646Y-106453828D01*
X172453828Y-106314646D01*
X172569524Y-106155405D01*
X172658884Y-105980025D01*
X172719709Y-105792826D01*
X172729572Y-105730554D01*
X172750500Y-105598422D01*
X172750500Y-105401577D01*
X172719709Y-105207173D01*
X172658882Y-105019970D01*
X172569523Y-104844594D01*
X172453828Y-104685354D01*
X172314646Y-104546172D01*
X172155405Y-104430476D01*
X171980029Y-104341117D01*
X171792826Y-104280290D01*
X171598422Y-104249500D01*
X171598417Y-104249500D01*
X168024500Y-104249500D01*
X167957461Y-104229815D01*
X167911706Y-104177011D01*
X167900500Y-104125500D01*
X167900500Y-104005067D01*
X167919507Y-103939094D01*
X167975788Y-103849524D01*
X167982321Y-103830855D01*
X168035368Y-103679255D01*
X168035369Y-103679249D01*
X168055565Y-103500003D01*
X168055565Y-103499996D01*
X168035369Y-103320750D01*
X168035368Y-103320745D01*
X168004710Y-103233129D01*
X167975789Y-103150478D01*
X167879816Y-102997738D01*
X167752262Y-102870184D01*
X167670794Y-102818994D01*
X167599523Y-102774211D01*
X167429254Y-102714631D01*
X167429249Y-102714630D01*
X167250004Y-102694435D01*
X167249996Y-102694435D01*
X167070750Y-102714630D01*
X167070745Y-102714631D01*
X166900476Y-102774211D01*
X166747737Y-102870184D01*
X166620184Y-102997737D01*
X166524211Y-103150476D01*
X166464631Y-103320745D01*
X166464630Y-103320750D01*
X166444435Y-103499996D01*
X166444435Y-103500003D01*
X166464630Y-103679249D01*
X166464631Y-103679254D01*
X166524211Y-103849524D01*
X166580493Y-103939094D01*
X166599500Y-104005067D01*
X166599500Y-104125500D01*
X166579815Y-104192539D01*
X166527011Y-104238294D01*
X166475500Y-104249500D01*
X165401578Y-104249500D01*
X165207173Y-104280290D01*
X165019970Y-104341117D01*
X164844594Y-104430476D01*
X164753741Y-104496485D01*
X164685354Y-104546172D01*
X164685352Y-104546174D01*
X164685351Y-104546174D01*
X164546174Y-104685351D01*
X164546174Y-104685352D01*
X164546172Y-104685354D01*
X164516795Y-104725788D01*
X164430476Y-104844594D01*
X164341117Y-105019970D01*
X164280290Y-105207173D01*
X164249500Y-105401577D01*
X140250500Y-105401577D01*
X140250500Y-100749996D01*
X146444435Y-100749996D01*
X146444435Y-100750003D01*
X146464630Y-100929249D01*
X146464631Y-100929254D01*
X146524211Y-101099523D01*
X146591044Y-101205886D01*
X146620184Y-101252262D01*
X146747738Y-101379816D01*
X146838080Y-101436582D01*
X146864279Y-101453044D01*
X146900478Y-101475789D01*
X147069222Y-101534835D01*
X147070745Y-101535368D01*
X147070750Y-101535369D01*
X147249996Y-101555565D01*
X147250000Y-101555565D01*
X147250004Y-101555565D01*
X147429249Y-101535369D01*
X147429252Y-101535368D01*
X147429255Y-101535368D01*
X147599522Y-101475789D01*
X147752262Y-101379816D01*
X147879816Y-101252262D01*
X147975789Y-101099522D01*
X148035368Y-100929255D01*
X148046437Y-100831003D01*
X148073502Y-100766592D01*
X148081966Y-100757217D01*
X152255277Y-96583908D01*
X152326465Y-96477366D01*
X152333144Y-96461243D01*
X152367116Y-96379225D01*
X152375501Y-96358983D01*
X152377445Y-96349209D01*
X152400105Y-96235293D01*
X152416726Y-96193518D01*
X152462800Y-96120193D01*
X152475788Y-96099524D01*
X152475789Y-96099522D01*
X152535368Y-95929255D01*
X152550274Y-95796959D01*
X152555565Y-95750003D01*
X152555565Y-95749996D01*
X152535369Y-95570750D01*
X152535368Y-95570745D01*
X152522738Y-95534650D01*
X152475789Y-95400478D01*
X152379816Y-95247738D01*
X152252262Y-95120184D01*
X152219016Y-95099294D01*
X152099523Y-95024211D01*
X151929254Y-94964631D01*
X151929249Y-94964630D01*
X151750004Y-94944435D01*
X151749996Y-94944435D01*
X151570750Y-94964630D01*
X151570745Y-94964631D01*
X151400476Y-95024211D01*
X151247737Y-95120184D01*
X151120184Y-95247737D01*
X151024211Y-95400476D01*
X150964631Y-95570745D01*
X150964630Y-95570750D01*
X150944435Y-95749996D01*
X150944435Y-95750003D01*
X150964631Y-95929253D01*
X150964631Y-95929256D01*
X150966220Y-95933795D01*
X150969782Y-96003574D01*
X150936860Y-96062431D01*
X147035250Y-99964041D01*
X146988525Y-99993401D01*
X146900476Y-100024211D01*
X146900475Y-100024212D01*
X146747737Y-100120184D01*
X146620184Y-100247737D01*
X146524211Y-100400476D01*
X146464631Y-100570745D01*
X146464630Y-100570750D01*
X146444435Y-100749996D01*
X140250500Y-100749996D01*
X140250500Y-92499996D01*
X140694435Y-92499996D01*
X140694435Y-92500003D01*
X140714630Y-92679249D01*
X140714631Y-92679254D01*
X140774211Y-92849523D01*
X140835922Y-92947734D01*
X140870184Y-93002262D01*
X140997738Y-93129816D01*
X141035167Y-93153334D01*
X141150474Y-93225787D01*
X141150478Y-93225789D01*
X141278958Y-93270746D01*
X141320745Y-93285368D01*
X141320750Y-93285369D01*
X141499996Y-93305565D01*
X141500000Y-93305565D01*
X141500004Y-93305565D01*
X141679249Y-93285369D01*
X141679252Y-93285368D01*
X141679255Y-93285368D01*
X141849522Y-93225789D01*
X141850488Y-93225181D01*
X141859523Y-93219506D01*
X141925494Y-93200500D01*
X145824506Y-93200500D01*
X145890477Y-93219506D01*
X145900474Y-93225787D01*
X145900475Y-93225787D01*
X145900478Y-93225789D01*
X146028958Y-93270746D01*
X146070745Y-93285368D01*
X146070750Y-93285369D01*
X146249996Y-93305565D01*
X146250000Y-93305565D01*
X146250004Y-93305565D01*
X146429249Y-93285369D01*
X146429252Y-93285368D01*
X146429255Y-93285368D01*
X146599522Y-93225789D01*
X146752262Y-93129816D01*
X146879816Y-93002262D01*
X146975789Y-92849522D01*
X147035368Y-92679255D01*
X147038337Y-92652906D01*
X147055565Y-92500003D01*
X147055565Y-92499996D01*
X147035369Y-92320750D01*
X147035368Y-92320745D01*
X146975788Y-92150476D01*
X146884114Y-92004578D01*
X146879816Y-91997738D01*
X146752262Y-91870184D01*
X146719379Y-91849522D01*
X146599523Y-91774211D01*
X146429254Y-91714631D01*
X146429249Y-91714630D01*
X146250004Y-91694435D01*
X146249996Y-91694435D01*
X146070750Y-91714630D01*
X146070745Y-91714631D01*
X145900474Y-91774212D01*
X145890477Y-91780494D01*
X145824506Y-91799500D01*
X141925494Y-91799500D01*
X141859523Y-91780494D01*
X141849525Y-91774212D01*
X141679254Y-91714631D01*
X141679249Y-91714630D01*
X141500004Y-91694435D01*
X141499996Y-91694435D01*
X141320750Y-91714630D01*
X141320745Y-91714631D01*
X141150476Y-91774211D01*
X140997737Y-91870184D01*
X140870184Y-91997737D01*
X140774211Y-92150476D01*
X140714631Y-92320745D01*
X140714630Y-92320750D01*
X140694435Y-92499996D01*
X140250500Y-92499996D01*
X140250500Y-89901577D01*
X140226929Y-89752758D01*
X140219709Y-89707174D01*
X140193171Y-89625500D01*
X140191444Y-89620184D01*
X140158885Y-89519976D01*
X140158884Y-89519973D01*
X140069523Y-89344594D01*
X139953828Y-89185354D01*
X139018470Y-88249996D01*
X145694435Y-88249996D01*
X145694435Y-88250003D01*
X145714630Y-88429249D01*
X145714631Y-88429254D01*
X145774211Y-88599523D01*
X145853549Y-88725788D01*
X145870184Y-88752262D01*
X145997738Y-88879816D01*
X146150478Y-88975789D01*
X146320745Y-89035368D01*
X146327974Y-89036182D01*
X146392388Y-89063246D01*
X146401776Y-89071722D01*
X149178277Y-91848223D01*
X149211762Y-91909546D01*
X149213815Y-91922012D01*
X149214630Y-91929246D01*
X149214632Y-91929255D01*
X149274210Y-92099521D01*
X149306229Y-92150478D01*
X149370184Y-92252262D01*
X149497738Y-92379816D01*
X149650478Y-92475789D01*
X149719678Y-92500003D01*
X149820745Y-92535368D01*
X149820750Y-92535369D01*
X149999996Y-92555565D01*
X150000000Y-92555565D01*
X150000004Y-92555565D01*
X150179249Y-92535369D01*
X150179252Y-92535368D01*
X150179255Y-92535368D01*
X150349522Y-92475789D01*
X150502262Y-92379816D01*
X150629816Y-92252262D01*
X150725789Y-92099522D01*
X150785368Y-91929255D01*
X150785369Y-91929246D01*
X150805565Y-91750003D01*
X150805565Y-91749996D01*
X150785369Y-91570750D01*
X150785368Y-91570745D01*
X150725788Y-91400476D01*
X150686582Y-91338080D01*
X150629816Y-91247738D01*
X150502262Y-91120184D01*
X150367280Y-91035369D01*
X150349521Y-91024210D01*
X150179255Y-90964632D01*
X150179246Y-90964630D01*
X150172012Y-90963815D01*
X150107600Y-90936744D01*
X150098223Y-90928277D01*
X147321722Y-88151776D01*
X147288237Y-88090453D01*
X147286182Y-88077973D01*
X147285368Y-88070745D01*
X147225789Y-87900478D01*
X147129816Y-87747738D01*
X147002262Y-87620184D01*
X146969379Y-87599522D01*
X146849523Y-87524211D01*
X146679254Y-87464631D01*
X146679249Y-87464630D01*
X146500004Y-87444435D01*
X146499996Y-87444435D01*
X146320750Y-87464630D01*
X146320745Y-87464631D01*
X146150476Y-87524211D01*
X145997737Y-87620184D01*
X145870184Y-87747737D01*
X145774211Y-87900476D01*
X145714631Y-88070745D01*
X145714630Y-88070750D01*
X145694435Y-88249996D01*
X139018470Y-88249996D01*
X137314646Y-86546172D01*
X137155405Y-86430476D01*
X137142984Y-86424147D01*
X136980030Y-86341117D01*
X136792826Y-86280290D01*
X136598422Y-86249500D01*
X136598417Y-86249500D01*
X130819337Y-86249500D01*
X130752298Y-86229815D01*
X130731656Y-86213181D01*
X129786819Y-85268344D01*
X129753334Y-85207021D01*
X129750500Y-85180663D01*
X129750500Y-77521044D01*
X131262050Y-77521044D01*
X131262050Y-77748956D01*
X131279877Y-77861509D01*
X131297704Y-77974063D01*
X131368130Y-78190817D01*
X131368131Y-78190820D01*
X131471602Y-78393891D01*
X131605566Y-78578276D01*
X131766724Y-78739434D01*
X131951109Y-78873398D01*
X132050709Y-78924146D01*
X132154179Y-78976868D01*
X132154182Y-78976869D01*
X132200521Y-78991925D01*
X132370938Y-79047296D01*
X132596044Y-79082950D01*
X132596045Y-79082950D01*
X132823955Y-79082950D01*
X132823956Y-79082950D01*
X133049062Y-79047296D01*
X133265820Y-78976868D01*
X133468891Y-78873398D01*
X133521119Y-78835451D01*
X133586924Y-78811971D01*
X133654978Y-78827796D01*
X133703674Y-78877901D01*
X133717550Y-78946379D01*
X133692202Y-79011488D01*
X133681687Y-79023449D01*
X133646931Y-79058205D01*
X133564217Y-79181995D01*
X133507245Y-79319540D01*
X133507243Y-79319548D01*
X133478200Y-79465555D01*
X133478200Y-79614444D01*
X133507243Y-79760451D01*
X133507245Y-79760459D01*
X133564217Y-79898004D01*
X133646931Y-80021794D01*
X133752205Y-80127068D01*
X133875995Y-80209782D01*
X133944767Y-80238268D01*
X134013541Y-80266755D01*
X134151632Y-80294223D01*
X134159555Y-80295799D01*
X134159558Y-80295800D01*
X134159560Y-80295800D01*
X134308442Y-80295800D01*
X134314505Y-80295203D01*
X134314726Y-80297455D01*
X134374230Y-80302759D01*
X134429422Y-80345603D01*
X134452690Y-80411485D01*
X134452090Y-80432047D01*
X134444435Y-80499994D01*
X134444435Y-80500003D01*
X134464630Y-80679249D01*
X134464631Y-80679254D01*
X134524211Y-80849524D01*
X134583849Y-80944435D01*
X134596539Y-80964632D01*
X134603493Y-80975698D01*
X134622500Y-81041671D01*
X134622500Y-81958328D01*
X134603494Y-82024300D01*
X134524211Y-82150476D01*
X134464631Y-82320745D01*
X134464630Y-82320750D01*
X134444435Y-82499996D01*
X134444435Y-82500003D01*
X134464630Y-82679249D01*
X134464631Y-82679254D01*
X134524211Y-82849523D01*
X134606214Y-82980029D01*
X134620184Y-83002262D01*
X134747738Y-83129816D01*
X134788463Y-83155405D01*
X134895278Y-83222522D01*
X134900478Y-83225789D01*
X135038860Y-83274211D01*
X135070745Y-83285368D01*
X135070750Y-83285369D01*
X135249996Y-83305565D01*
X135250000Y-83305565D01*
X135250004Y-83305565D01*
X135429249Y-83285369D01*
X135429252Y-83285368D01*
X135429255Y-83285368D01*
X135599522Y-83225789D01*
X135752262Y-83129816D01*
X135879816Y-83002262D01*
X135975789Y-82849522D01*
X136035368Y-82679255D01*
X136035369Y-82679249D01*
X136055565Y-82500003D01*
X136055565Y-82499996D01*
X136035369Y-82320750D01*
X136035368Y-82320745D01*
X135993560Y-82201264D01*
X135975789Y-82150478D01*
X135896505Y-82024299D01*
X135877500Y-81958328D01*
X135877500Y-81041671D01*
X135896507Y-80975698D01*
X135903461Y-80964632D01*
X135975789Y-80849522D01*
X136035368Y-80679255D01*
X136039817Y-80639769D01*
X136055565Y-80500003D01*
X136055565Y-80499997D01*
X136047909Y-80432049D01*
X136059963Y-80363227D01*
X136107312Y-80311847D01*
X136174923Y-80294223D01*
X136185472Y-80295426D01*
X136185495Y-80295203D01*
X136191558Y-80295800D01*
X136191560Y-80295800D01*
X136340442Y-80295800D01*
X136340443Y-80295799D01*
X136486459Y-80266755D01*
X136624006Y-80209781D01*
X136747794Y-80127068D01*
X136853068Y-80021794D01*
X136935781Y-79898006D01*
X136992755Y-79760459D01*
X137021800Y-79614440D01*
X137021800Y-79465560D01*
X137021800Y-79465557D01*
X137021799Y-79465555D01*
X137002946Y-79370775D01*
X136992755Y-79319541D01*
X136949300Y-79214631D01*
X136935782Y-79181995D01*
X136853068Y-79058205D01*
X136818313Y-79023450D01*
X136784828Y-78962127D01*
X136789812Y-78892435D01*
X136831684Y-78836502D01*
X136897148Y-78812085D01*
X136965421Y-78826937D01*
X136978877Y-78835449D01*
X137031109Y-78873398D01*
X137130709Y-78924146D01*
X137234179Y-78976868D01*
X137234182Y-78976869D01*
X137280521Y-78991925D01*
X137450938Y-79047296D01*
X137676044Y-79082950D01*
X137676045Y-79082950D01*
X137903955Y-79082950D01*
X137903956Y-79082950D01*
X138129062Y-79047296D01*
X138345820Y-78976868D01*
X138548891Y-78873398D01*
X138733276Y-78739434D01*
X138894434Y-78578276D01*
X139028398Y-78393891D01*
X139131868Y-78190820D01*
X139202296Y-77974062D01*
X139237950Y-77748956D01*
X139237950Y-77521044D01*
X139202296Y-77295938D01*
X139131868Y-77079180D01*
X139131868Y-77079179D01*
X139028397Y-76876108D01*
X138894434Y-76691724D01*
X138733276Y-76530566D01*
X138548891Y-76396602D01*
X138498203Y-76370775D01*
X138345820Y-76293131D01*
X138345817Y-76293130D01*
X138129063Y-76222704D01*
X138016509Y-76204877D01*
X137903956Y-76187050D01*
X137676044Y-76187050D01*
X137616115Y-76196542D01*
X137450936Y-76222704D01*
X137234182Y-76293130D01*
X137234179Y-76293131D01*
X137031108Y-76396602D01*
X136956925Y-76450500D01*
X136846724Y-76530566D01*
X136846722Y-76530568D01*
X136846721Y-76530568D01*
X136685568Y-76691721D01*
X136685568Y-76691722D01*
X136685566Y-76691724D01*
X136643226Y-76750000D01*
X136551602Y-76876108D01*
X136448131Y-77079179D01*
X136448130Y-77079182D01*
X136377704Y-77295936D01*
X136353514Y-77448662D01*
X136342050Y-77521044D01*
X136342050Y-77748956D01*
X136359877Y-77861509D01*
X136377704Y-77974063D01*
X136448130Y-78190817D01*
X136448131Y-78190820D01*
X136551602Y-78393891D01*
X136685566Y-78578276D01*
X136685568Y-78578278D01*
X136799106Y-78691816D01*
X136832591Y-78753139D01*
X136827607Y-78822831D01*
X136785735Y-78878764D01*
X136720271Y-78903181D01*
X136651998Y-78888329D01*
X136642535Y-78882600D01*
X136636794Y-78878764D01*
X136624006Y-78870219D01*
X136624003Y-78870217D01*
X136624002Y-78870217D01*
X136486459Y-78813245D01*
X136486451Y-78813243D01*
X136340443Y-78784200D01*
X136340440Y-78784200D01*
X136191560Y-78784200D01*
X136191557Y-78784200D01*
X136045548Y-78813243D01*
X136045540Y-78813245D01*
X135907995Y-78870217D01*
X135784205Y-78952931D01*
X135678931Y-79058205D01*
X135596217Y-79181995D01*
X135539245Y-79319540D01*
X135539243Y-79319548D01*
X135510200Y-79465555D01*
X135510200Y-79584996D01*
X135490515Y-79652035D01*
X135437711Y-79697790D01*
X135372317Y-79708216D01*
X135250004Y-79694435D01*
X135249996Y-79694435D01*
X135127683Y-79708216D01*
X135058861Y-79696161D01*
X135007482Y-79648812D01*
X134989800Y-79584996D01*
X134989800Y-79465557D01*
X134989799Y-79465555D01*
X134970946Y-79370775D01*
X134960755Y-79319541D01*
X134917300Y-79214631D01*
X134903782Y-79181995D01*
X134821068Y-79058205D01*
X134715794Y-78952931D01*
X134592004Y-78870217D01*
X134454459Y-78813245D01*
X134454451Y-78813243D01*
X134308443Y-78784200D01*
X134308440Y-78784200D01*
X134159560Y-78784200D01*
X134159557Y-78784200D01*
X134013548Y-78813243D01*
X134013540Y-78813245D01*
X133875995Y-78870218D01*
X133857462Y-78882601D01*
X133790784Y-78903477D01*
X133723404Y-78884990D01*
X133676715Y-78833010D01*
X133665541Y-78764040D01*
X133693429Y-78699977D01*
X133700871Y-78691838D01*
X133814434Y-78578276D01*
X133948398Y-78393891D01*
X134051868Y-78190820D01*
X134122296Y-77974062D01*
X134157950Y-77748956D01*
X134157950Y-77521044D01*
X134122296Y-77295938D01*
X134051868Y-77079180D01*
X134051868Y-77079179D01*
X133948397Y-76876108D01*
X133814434Y-76691724D01*
X133653276Y-76530566D01*
X133468891Y-76396602D01*
X133418203Y-76370775D01*
X133265820Y-76293131D01*
X133265817Y-76293130D01*
X133049063Y-76222704D01*
X132936509Y-76204877D01*
X132823956Y-76187050D01*
X132596044Y-76187050D01*
X132536115Y-76196542D01*
X132370936Y-76222704D01*
X132154182Y-76293130D01*
X132154179Y-76293131D01*
X131951108Y-76396602D01*
X131876925Y-76450500D01*
X131766724Y-76530566D01*
X131766722Y-76530568D01*
X131766721Y-76530568D01*
X131605568Y-76691721D01*
X131605568Y-76691722D01*
X131605566Y-76691724D01*
X131563226Y-76750000D01*
X131471602Y-76876108D01*
X131368131Y-77079179D01*
X131368130Y-77079182D01*
X131297704Y-77295936D01*
X131273514Y-77448662D01*
X131262050Y-77521044D01*
X129750500Y-77521044D01*
X129750500Y-74346044D01*
X131262050Y-74346044D01*
X131262050Y-74573956D01*
X131269372Y-74620184D01*
X131297704Y-74799063D01*
X131368130Y-75015817D01*
X131368131Y-75015820D01*
X131426215Y-75129815D01*
X131471602Y-75218891D01*
X131605566Y-75403276D01*
X131766724Y-75564434D01*
X131951109Y-75698398D01*
X131953865Y-75699802D01*
X132154179Y-75801868D01*
X132154182Y-75801869D01*
X132262559Y-75837082D01*
X132370938Y-75872296D01*
X132596044Y-75907950D01*
X132596045Y-75907950D01*
X132823955Y-75907950D01*
X132823956Y-75907950D01*
X133049062Y-75872296D01*
X133265820Y-75801868D01*
X133468891Y-75698398D01*
X133653276Y-75564434D01*
X133814434Y-75403276D01*
X133948398Y-75218891D01*
X134051868Y-75015820D01*
X134122296Y-74799062D01*
X134157950Y-74573956D01*
X134157950Y-74385555D01*
X134494200Y-74385555D01*
X134494200Y-74534444D01*
X134523243Y-74680451D01*
X134523245Y-74680459D01*
X134580217Y-74818004D01*
X134662931Y-74941794D01*
X134768205Y-75047068D01*
X134891995Y-75129782D01*
X134960767Y-75158268D01*
X135029541Y-75186755D01*
X135175555Y-75215799D01*
X135175558Y-75215800D01*
X135175560Y-75215800D01*
X135324442Y-75215800D01*
X135324443Y-75215799D01*
X135470459Y-75186755D01*
X135608006Y-75129781D01*
X135731794Y-75047068D01*
X135837068Y-74941794D01*
X135919781Y-74818006D01*
X135976755Y-74680459D01*
X136005800Y-74534440D01*
X136005800Y-74385560D01*
X136005800Y-74385557D01*
X136005799Y-74385555D01*
X135998632Y-74349524D01*
X135997940Y-74346044D01*
X136342050Y-74346044D01*
X136342050Y-74573956D01*
X136349372Y-74620184D01*
X136377704Y-74799063D01*
X136448130Y-75015817D01*
X136448131Y-75015820D01*
X136506215Y-75129815D01*
X136551602Y-75218891D01*
X136685566Y-75403276D01*
X136846724Y-75564434D01*
X137031109Y-75698398D01*
X137033865Y-75699802D01*
X137234179Y-75801868D01*
X137234182Y-75801869D01*
X137342559Y-75837082D01*
X137450938Y-75872296D01*
X137676044Y-75907950D01*
X137676045Y-75907950D01*
X137903955Y-75907950D01*
X137903956Y-75907950D01*
X138129062Y-75872296D01*
X138345820Y-75801868D01*
X138548891Y-75698398D01*
X138733276Y-75564434D01*
X138894434Y-75403276D01*
X139028398Y-75218891D01*
X139131868Y-75015820D01*
X139202296Y-74799062D01*
X139237950Y-74573956D01*
X139237950Y-74346044D01*
X139202296Y-74120938D01*
X139142473Y-73936819D01*
X139131869Y-73904182D01*
X139131868Y-73904179D01*
X139054462Y-73752262D01*
X139028398Y-73701109D01*
X138894434Y-73516724D01*
X138733276Y-73355566D01*
X138548891Y-73221602D01*
X138345820Y-73118131D01*
X138345817Y-73118130D01*
X138129063Y-73047704D01*
X138016509Y-73029877D01*
X137903956Y-73012050D01*
X137676044Y-73012050D01*
X137601008Y-73023934D01*
X137450936Y-73047704D01*
X137234182Y-73118130D01*
X137234179Y-73118131D01*
X137031108Y-73221602D01*
X136927169Y-73297119D01*
X136846724Y-73355566D01*
X136846722Y-73355568D01*
X136846721Y-73355568D01*
X136685568Y-73516721D01*
X136685568Y-73516722D01*
X136685566Y-73516724D01*
X136661753Y-73549500D01*
X136551602Y-73701108D01*
X136448131Y-73904179D01*
X136448130Y-73904182D01*
X136377704Y-74120936D01*
X136357263Y-74249996D01*
X136342050Y-74346044D01*
X135997940Y-74346044D01*
X135976755Y-74239541D01*
X135927627Y-74120936D01*
X135919782Y-74101995D01*
X135837068Y-73978205D01*
X135731794Y-73872931D01*
X135608004Y-73790217D01*
X135470459Y-73733245D01*
X135470451Y-73733243D01*
X135324443Y-73704200D01*
X135324440Y-73704200D01*
X135175560Y-73704200D01*
X135175557Y-73704200D01*
X135029548Y-73733243D01*
X135029540Y-73733245D01*
X134891995Y-73790217D01*
X134768205Y-73872931D01*
X134662931Y-73978205D01*
X134580217Y-74101995D01*
X134523245Y-74239540D01*
X134523243Y-74239548D01*
X134494200Y-74385555D01*
X134157950Y-74385555D01*
X134157950Y-74346044D01*
X134122296Y-74120938D01*
X134062473Y-73936819D01*
X134051869Y-73904182D01*
X134051868Y-73904179D01*
X133974462Y-73752262D01*
X133948398Y-73701109D01*
X133814434Y-73516724D01*
X133653276Y-73355566D01*
X133468891Y-73221602D01*
X133265820Y-73118131D01*
X133265817Y-73118130D01*
X133049063Y-73047704D01*
X132936509Y-73029877D01*
X132823956Y-73012050D01*
X132596044Y-73012050D01*
X132521008Y-73023934D01*
X132370936Y-73047704D01*
X132154182Y-73118130D01*
X132154179Y-73118131D01*
X131951108Y-73221602D01*
X131847169Y-73297119D01*
X131766724Y-73355566D01*
X131766722Y-73355568D01*
X131766721Y-73355568D01*
X131605568Y-73516721D01*
X131605568Y-73516722D01*
X131605566Y-73516724D01*
X131581753Y-73549500D01*
X131471602Y-73701108D01*
X131368131Y-73904179D01*
X131368130Y-73904182D01*
X131297704Y-74120936D01*
X131277263Y-74249996D01*
X131262050Y-74346044D01*
X129750500Y-74346044D01*
X129750500Y-72819336D01*
X129770185Y-72752297D01*
X129786819Y-72731655D01*
X130731656Y-71786819D01*
X130792979Y-71753334D01*
X130819337Y-71750500D01*
X136848422Y-71750500D01*
X137042826Y-71719709D01*
X137230025Y-71658884D01*
X137405405Y-71569524D01*
X137564646Y-71453828D01*
X137703828Y-71314646D01*
X137819524Y-71155405D01*
X137908884Y-70980025D01*
X137969709Y-70792826D01*
X137976445Y-70750296D01*
X138000500Y-70598422D01*
X138000500Y-70401584D01*
X137997980Y-70385674D01*
X138006934Y-70316380D01*
X138032769Y-70278597D01*
X141024548Y-67286819D01*
X141085871Y-67253334D01*
X141112229Y-67250500D01*
X148583678Y-67250500D01*
X148650717Y-67270185D01*
X148696472Y-67322989D01*
X148706898Y-67360617D01*
X148714630Y-67429249D01*
X148774210Y-67599521D01*
X148836754Y-67699058D01*
X148870184Y-67752262D01*
X148997738Y-67879816D01*
X149076410Y-67929249D01*
X149133746Y-67965276D01*
X149150478Y-67975789D01*
X149320745Y-68035368D01*
X149364635Y-68040313D01*
X149429048Y-68067378D01*
X149438433Y-68075852D01*
X149512589Y-68150008D01*
X149561402Y-68198821D01*
X149599994Y-68237413D01*
X149599996Y-68237414D01*
X149702756Y-68306076D01*
X149702758Y-68306077D01*
X149702767Y-68306083D01*
X149727772Y-68316440D01*
X149750071Y-68325677D01*
X149792254Y-68343149D01*
X149816966Y-68353386D01*
X149938192Y-68377499D01*
X149938196Y-68377500D01*
X149938197Y-68377500D01*
X150061803Y-68377500D01*
X152958328Y-68377500D01*
X153024300Y-68396506D01*
X153076419Y-68429255D01*
X153150478Y-68475789D01*
X153320745Y-68535368D01*
X153320750Y-68535369D01*
X153499996Y-68555565D01*
X153500000Y-68555565D01*
X153500004Y-68555565D01*
X153679249Y-68535369D01*
X153679252Y-68535368D01*
X153679255Y-68535368D01*
X153849522Y-68475789D01*
X154002262Y-68379816D01*
X154129816Y-68252262D01*
X154225789Y-68099522D01*
X154285368Y-67929255D01*
X154285369Y-67929249D01*
X154305565Y-67750003D01*
X154305565Y-67749996D01*
X154285369Y-67570750D01*
X154285368Y-67570745D01*
X154264806Y-67511982D01*
X154225789Y-67400478D01*
X154193253Y-67348698D01*
X154177325Y-67323348D01*
X154158325Y-67256112D01*
X154178693Y-67189276D01*
X154216348Y-67152382D01*
X154219381Y-67150476D01*
X154252262Y-67129816D01*
X154379816Y-67002262D01*
X154475789Y-66849522D01*
X154535368Y-66679255D01*
X154555565Y-66500000D01*
X154549034Y-66442039D01*
X154535369Y-66320750D01*
X154535368Y-66320745D01*
X154475788Y-66150476D01*
X154436299Y-66087630D01*
X154379816Y-65997738D01*
X154252262Y-65870184D01*
X154196138Y-65834919D01*
X154099523Y-65774211D01*
X153929254Y-65714631D01*
X153929249Y-65714630D01*
X153750004Y-65694435D01*
X153749996Y-65694435D01*
X153570750Y-65714630D01*
X153570745Y-65714631D01*
X153490983Y-65742542D01*
X153450028Y-65749500D01*
X140676080Y-65749500D01*
X140531092Y-65778340D01*
X140531082Y-65778343D01*
X140394511Y-65834912D01*
X140394498Y-65834919D01*
X140271584Y-65917048D01*
X140271580Y-65917051D01*
X136971404Y-69217226D01*
X136910081Y-69250711D01*
X136864329Y-69252019D01*
X136848421Y-69249500D01*
X136848417Y-69249500D01*
X135848417Y-69249500D01*
X134848417Y-69249500D01*
X133848417Y-69249500D01*
X130151583Y-69249500D01*
X130151578Y-69249500D01*
X129957173Y-69280290D01*
X129769969Y-69341117D01*
X129594591Y-69430478D01*
X129435360Y-69546165D01*
X129435355Y-69546169D01*
X127546174Y-71435351D01*
X127546171Y-71435354D01*
X127524817Y-71464746D01*
X127469486Y-71507411D01*
X127399873Y-71513389D01*
X127338078Y-71480782D01*
X127303722Y-71419943D01*
X127300500Y-71391859D01*
X127300500Y-63280415D01*
X128475080Y-63280415D01*
X128475080Y-63280422D01*
X128494424Y-63711156D01*
X128494424Y-63711164D01*
X128494425Y-63711166D01*
X128523364Y-63924805D01*
X128552304Y-64138446D01*
X128648249Y-64558810D01*
X128781492Y-64968891D01*
X128781495Y-64968899D01*
X128950952Y-65365366D01*
X128950956Y-65365374D01*
X128972549Y-65405500D01*
X129155282Y-65745074D01*
X129155286Y-65745080D01*
X129155286Y-65745081D01*
X129392813Y-66104920D01*
X129392823Y-66104933D01*
X129661644Y-66442026D01*
X129661656Y-66442039D01*
X129902312Y-66693745D01*
X129959629Y-66753693D01*
X130221054Y-66982094D01*
X130238960Y-66997738D01*
X130284339Y-67037384D01*
X130284349Y-67037391D01*
X130284350Y-67037392D01*
X130627656Y-67286819D01*
X130633172Y-67290826D01*
X131003319Y-67511979D01*
X131003322Y-67511980D01*
X131003323Y-67511981D01*
X131003325Y-67511982D01*
X131391791Y-67699058D01*
X131391805Y-67699064D01*
X131795474Y-67850563D01*
X131795478Y-67850564D01*
X131795488Y-67850568D01*
X132211130Y-67965278D01*
X132635383Y-68042269D01*
X133064828Y-68080919D01*
X133064835Y-68080919D01*
X133496003Y-68080919D01*
X133496010Y-68080919D01*
X133925455Y-68042269D01*
X134349708Y-67965278D01*
X134765350Y-67850568D01*
X135169038Y-67699062D01*
X135557519Y-67511979D01*
X135927666Y-67290826D01*
X136276499Y-67037384D01*
X136601209Y-66753693D01*
X136899183Y-66442038D01*
X136956044Y-66370737D01*
X137057763Y-66243184D01*
X137168020Y-66104926D01*
X137405556Y-65745074D01*
X137609880Y-65365377D01*
X137616657Y-65349523D01*
X137653424Y-65263498D01*
X137779345Y-64968894D01*
X137912587Y-64558816D01*
X137925203Y-64503543D01*
X144179499Y-64503543D01*
X144217947Y-64696829D01*
X144217950Y-64696839D01*
X144293364Y-64878907D01*
X144293371Y-64878920D01*
X144402860Y-65042781D01*
X144402863Y-65042785D01*
X144542214Y-65182136D01*
X144542218Y-65182139D01*
X144706079Y-65291628D01*
X144706092Y-65291635D01*
X144888160Y-65367049D01*
X144888165Y-65367051D01*
X144888169Y-65367051D01*
X144888170Y-65367052D01*
X145081456Y-65405500D01*
X145081459Y-65405500D01*
X145278543Y-65405500D01*
X145408582Y-65379632D01*
X145471835Y-65367051D01*
X145653914Y-65291632D01*
X145817782Y-65182139D01*
X145957139Y-65042782D01*
X146066632Y-64878914D01*
X146142051Y-64696835D01*
X146180500Y-64503541D01*
X146180500Y-63997879D01*
X146200185Y-63930840D01*
X146252989Y-63885085D01*
X146322147Y-63875141D01*
X146366501Y-63890492D01*
X146384006Y-63900599D01*
X146532917Y-63940500D01*
X146532920Y-63940500D01*
X146687080Y-63940500D01*
X146687083Y-63940500D01*
X146835994Y-63900599D01*
X146969505Y-63823516D01*
X147078516Y-63714505D01*
X147155599Y-63580994D01*
X147195500Y-63432083D01*
X147195500Y-63277917D01*
X151804500Y-63277917D01*
X151804500Y-63432083D01*
X151844401Y-63580994D01*
X151921484Y-63714505D01*
X152030495Y-63823516D01*
X152164006Y-63900599D01*
X152312917Y-63940500D01*
X152312920Y-63940500D01*
X152467080Y-63940500D01*
X152467083Y-63940500D01*
X152615994Y-63900599D01*
X152633498Y-63890492D01*
X152701398Y-63874019D01*
X152767425Y-63896870D01*
X152810617Y-63951791D01*
X152819500Y-63997879D01*
X152819500Y-64503541D01*
X152819500Y-64503543D01*
X152819499Y-64503543D01*
X152857947Y-64696829D01*
X152857950Y-64696839D01*
X152933364Y-64878907D01*
X152933371Y-64878920D01*
X153042860Y-65042781D01*
X153042863Y-65042785D01*
X153182214Y-65182136D01*
X153182218Y-65182139D01*
X153346079Y-65291628D01*
X153346092Y-65291635D01*
X153528160Y-65367049D01*
X153528165Y-65367051D01*
X153528169Y-65367051D01*
X153528170Y-65367052D01*
X153721456Y-65405500D01*
X153721459Y-65405500D01*
X153918543Y-65405500D01*
X154048582Y-65379632D01*
X154111835Y-65367051D01*
X154293914Y-65291632D01*
X154457782Y-65182139D01*
X154597139Y-65042782D01*
X154706632Y-64878914D01*
X154782051Y-64696835D01*
X154820500Y-64503541D01*
X154820500Y-63206459D01*
X154820500Y-63206456D01*
X154782052Y-63013170D01*
X154782051Y-63013169D01*
X154782051Y-63013165D01*
X154731262Y-62890548D01*
X154706635Y-62831092D01*
X154706628Y-62831079D01*
X154597139Y-62667218D01*
X154597136Y-62667214D01*
X154457785Y-62527863D01*
X154457781Y-62527860D01*
X154293920Y-62418371D01*
X154293907Y-62418364D01*
X154111839Y-62342950D01*
X154111829Y-62342947D01*
X153918543Y-62304500D01*
X153918541Y-62304500D01*
X153721459Y-62304500D01*
X153721457Y-62304500D01*
X153528170Y-62342947D01*
X153528160Y-62342950D01*
X153346092Y-62418364D01*
X153346079Y-62418371D01*
X153182218Y-62527860D01*
X153182214Y-62527863D01*
X153042863Y-62667214D01*
X153042860Y-62667218D01*
X152933371Y-62831079D01*
X152930498Y-62836456D01*
X152929426Y-62835883D01*
X152889593Y-62885296D01*
X152823295Y-62907349D01*
X152756668Y-62890330D01*
X152756543Y-62890548D01*
X152755767Y-62890100D01*
X152755598Y-62890057D01*
X152755047Y-62889684D01*
X152749505Y-62886484D01*
X152615994Y-62809401D01*
X152467083Y-62769500D01*
X152312917Y-62769500D01*
X152164006Y-62809401D01*
X152164004Y-62809401D01*
X152164004Y-62809402D01*
X152030495Y-62886484D01*
X152030492Y-62886486D01*
X151921486Y-62995492D01*
X151921484Y-62995495D01*
X151844401Y-63129006D01*
X151804500Y-63277917D01*
X147195500Y-63277917D01*
X147155599Y-63129006D01*
X147078516Y-62995495D01*
X146969505Y-62886484D01*
X146835994Y-62809401D01*
X146687083Y-62769500D01*
X146532917Y-62769500D01*
X146384006Y-62809401D01*
X146250495Y-62886484D01*
X146250493Y-62886485D01*
X146243457Y-62890548D01*
X146241740Y-62887575D01*
X146191246Y-62907013D01*
X146122822Y-62892876D01*
X146072902Y-62843990D01*
X146066790Y-62831384D01*
X146066634Y-62831092D01*
X146066632Y-62831086D01*
X146025482Y-62769500D01*
X145957139Y-62667217D01*
X145817785Y-62527863D01*
X145817781Y-62527860D01*
X145653920Y-62418371D01*
X145653907Y-62418364D01*
X145471839Y-62342950D01*
X145471829Y-62342947D01*
X145278543Y-62304500D01*
X145278541Y-62304500D01*
X145081459Y-62304500D01*
X145081457Y-62304500D01*
X144888170Y-62342947D01*
X144888160Y-62342950D01*
X144706092Y-62418364D01*
X144706079Y-62418371D01*
X144542218Y-62527860D01*
X144542214Y-62527863D01*
X144402863Y-62667214D01*
X144402860Y-62667218D01*
X144293371Y-62831079D01*
X144293364Y-62831092D01*
X144217950Y-63013160D01*
X144217947Y-63013170D01*
X144179500Y-63206456D01*
X144179500Y-63206459D01*
X144179500Y-64503541D01*
X144179500Y-64503543D01*
X144179499Y-64503543D01*
X137925203Y-64503543D01*
X138008534Y-64138445D01*
X138066413Y-63711166D01*
X138085758Y-63280419D01*
X138085577Y-63276399D01*
X138073756Y-63013170D01*
X138066413Y-62849672D01*
X138008534Y-62422393D01*
X137912587Y-62002022D01*
X137779345Y-61591944D01*
X137687284Y-61376557D01*
X137609885Y-61195471D01*
X137609881Y-61195463D01*
X137588166Y-61155110D01*
X137405556Y-60815764D01*
X137395927Y-60801176D01*
X137168024Y-60455917D01*
X137168014Y-60455904D01*
X136942840Y-60173543D01*
X144179499Y-60173543D01*
X144217947Y-60366829D01*
X144217950Y-60366839D01*
X144293364Y-60548907D01*
X144293371Y-60548920D01*
X144402860Y-60712781D01*
X144402863Y-60712785D01*
X144542214Y-60852136D01*
X144542218Y-60852139D01*
X144706079Y-60961628D01*
X144706092Y-60961635D01*
X144870331Y-61029664D01*
X144888165Y-61037051D01*
X144888169Y-61037051D01*
X144888170Y-61037052D01*
X145081456Y-61075500D01*
X145081459Y-61075500D01*
X145278543Y-61075500D01*
X145435236Y-61044331D01*
X145471835Y-61037051D01*
X145653914Y-60961632D01*
X145817782Y-60852139D01*
X145957139Y-60712782D01*
X146066632Y-60548914D01*
X146142051Y-60366835D01*
X146160845Y-60272351D01*
X146180500Y-60173543D01*
X152819499Y-60173543D01*
X152857947Y-60366829D01*
X152857950Y-60366839D01*
X152933364Y-60548907D01*
X152933371Y-60548920D01*
X153042860Y-60712781D01*
X153042863Y-60712785D01*
X153182214Y-60852136D01*
X153182218Y-60852139D01*
X153346079Y-60961628D01*
X153346092Y-60961635D01*
X153510331Y-61029664D01*
X153528165Y-61037051D01*
X153528169Y-61037051D01*
X153528170Y-61037052D01*
X153721456Y-61075500D01*
X153721459Y-61075500D01*
X153918543Y-61075500D01*
X154075236Y-61044331D01*
X154111835Y-61037051D01*
X154293914Y-60961632D01*
X154457782Y-60852139D01*
X154597139Y-60712782D01*
X154706632Y-60548914D01*
X154782051Y-60366835D01*
X154800845Y-60272351D01*
X154820500Y-60173543D01*
X154820500Y-59768713D01*
X162149500Y-59768713D01*
X162149500Y-60231287D01*
X162182754Y-60441243D01*
X162217736Y-60548907D01*
X162248444Y-60643414D01*
X162344951Y-60832820D01*
X162469890Y-61004786D01*
X162620213Y-61155109D01*
X162792179Y-61280048D01*
X162792181Y-61280049D01*
X162792184Y-61280051D01*
X162981588Y-61376557D01*
X163183757Y-61442246D01*
X163393713Y-61475500D01*
X163393714Y-61475500D01*
X163606286Y-61475500D01*
X163606287Y-61475500D01*
X163816243Y-61442246D01*
X164018412Y-61376557D01*
X164207816Y-61280051D01*
X164229789Y-61264086D01*
X164379786Y-61155109D01*
X164379788Y-61155106D01*
X164379792Y-61155104D01*
X164530104Y-61004792D01*
X164649991Y-60839779D01*
X164705320Y-60797115D01*
X164774933Y-60791136D01*
X164836729Y-60823741D01*
X164850627Y-60839781D01*
X164970272Y-61004459D01*
X164970276Y-61004464D01*
X165120535Y-61154723D01*
X165120540Y-61154727D01*
X165292442Y-61279620D01*
X165481782Y-61376095D01*
X165683871Y-61441757D01*
X165750000Y-61452231D01*
X165750000Y-60404145D01*
X165816657Y-60442630D01*
X165937465Y-60475000D01*
X166062535Y-60475000D01*
X166183343Y-60442630D01*
X166250000Y-60404145D01*
X166250000Y-61452230D01*
X166316126Y-61441757D01*
X166316129Y-61441757D01*
X166518217Y-61376095D01*
X166707557Y-61279620D01*
X166879459Y-61154727D01*
X166879464Y-61154723D01*
X167029721Y-61004466D01*
X167149371Y-60839781D01*
X167204701Y-60797115D01*
X167274314Y-60791136D01*
X167336110Y-60823741D01*
X167350008Y-60839781D01*
X167469890Y-61004785D01*
X167469894Y-61004790D01*
X167620213Y-61155109D01*
X167792179Y-61280048D01*
X167792181Y-61280049D01*
X167792184Y-61280051D01*
X167981588Y-61376557D01*
X168183757Y-61442246D01*
X168393713Y-61475500D01*
X168393714Y-61475500D01*
X168606286Y-61475500D01*
X168606287Y-61475500D01*
X168816243Y-61442246D01*
X169018412Y-61376557D01*
X169207816Y-61280051D01*
X169229789Y-61264086D01*
X169379786Y-61155109D01*
X169379788Y-61155106D01*
X169379792Y-61155104D01*
X169530104Y-61004792D01*
X169649683Y-60840204D01*
X169705011Y-60797540D01*
X169774624Y-60791561D01*
X169836420Y-60824166D01*
X169850313Y-60840199D01*
X169969896Y-61004792D01*
X170120208Y-61155104D01*
X170292184Y-61280051D01*
X170292188Y-61280053D01*
X170292195Y-61280057D01*
X170304790Y-61286474D01*
X170355588Y-61334446D01*
X170372500Y-61396961D01*
X170372500Y-63188718D01*
X170352815Y-63255757D01*
X170336181Y-63276399D01*
X170080456Y-63532124D01*
X170019133Y-63565609D01*
X169949441Y-63560625D01*
X169893508Y-63518753D01*
X169887781Y-63510414D01*
X169879818Y-63497740D01*
X169752262Y-63370184D01*
X169599523Y-63274211D01*
X169429254Y-63214631D01*
X169429249Y-63214630D01*
X169250004Y-63194435D01*
X169249996Y-63194435D01*
X169070750Y-63214630D01*
X169070745Y-63214631D01*
X168900476Y-63274211D01*
X168774300Y-63353494D01*
X168708328Y-63372500D01*
X168291672Y-63372500D01*
X168225700Y-63353494D01*
X168099523Y-63274211D01*
X167929254Y-63214631D01*
X167929249Y-63214630D01*
X167750004Y-63194435D01*
X167749996Y-63194435D01*
X167570750Y-63214630D01*
X167570745Y-63214631D01*
X167400476Y-63274211D01*
X167247737Y-63370184D01*
X167120184Y-63497737D01*
X167024211Y-63650476D01*
X166964631Y-63820745D01*
X166964630Y-63820750D01*
X166944435Y-63999996D01*
X166944435Y-64000003D01*
X166964630Y-64179249D01*
X166964633Y-64179262D01*
X167024209Y-64349520D01*
X167077309Y-64434029D01*
X167096309Y-64501266D01*
X167077309Y-64565971D01*
X167024209Y-64650479D01*
X166964633Y-64820737D01*
X166964630Y-64820750D01*
X166944435Y-64999996D01*
X166944435Y-65000003D01*
X166964630Y-65179249D01*
X166964631Y-65179254D01*
X167024211Y-65349523D01*
X167120184Y-65502262D01*
X167155741Y-65537819D01*
X167189226Y-65599142D01*
X167184242Y-65668834D01*
X167142370Y-65724767D01*
X167076906Y-65749184D01*
X167068060Y-65749500D01*
X163799972Y-65749500D01*
X163759017Y-65742542D01*
X163679254Y-65714631D01*
X163679249Y-65714630D01*
X163500004Y-65694435D01*
X163499996Y-65694435D01*
X163320750Y-65714630D01*
X163320745Y-65714631D01*
X163150476Y-65774211D01*
X162997737Y-65870184D01*
X162870184Y-65997737D01*
X162774211Y-66150476D01*
X162714631Y-66320745D01*
X162714630Y-66320750D01*
X162694435Y-66499996D01*
X162694435Y-66500003D01*
X162714630Y-66679249D01*
X162714631Y-66679254D01*
X162774211Y-66849523D01*
X162788963Y-66873000D01*
X162870184Y-67002262D01*
X162997738Y-67129816D01*
X163033652Y-67152382D01*
X163145351Y-67222568D01*
X163150478Y-67225789D01*
X163320745Y-67285368D01*
X163320750Y-67285369D01*
X163499996Y-67305565D01*
X163500000Y-67305565D01*
X163500004Y-67305565D01*
X163679249Y-67285369D01*
X163679252Y-67285368D01*
X163679255Y-67285368D01*
X163759017Y-67257457D01*
X163799972Y-67250500D01*
X168700028Y-67250500D01*
X168740982Y-67257457D01*
X168820745Y-67285368D01*
X168820750Y-67285369D01*
X168999996Y-67305565D01*
X169000000Y-67305565D01*
X169000004Y-67305565D01*
X169179249Y-67285369D01*
X169179252Y-67285368D01*
X169179255Y-67285368D01*
X169349522Y-67225789D01*
X169502262Y-67129816D01*
X169629816Y-67002262D01*
X169711039Y-66872996D01*
X176444435Y-66872996D01*
X176444435Y-66873003D01*
X176464630Y-67052249D01*
X176464631Y-67052254D01*
X176524211Y-67222524D01*
X176603493Y-67348698D01*
X176622500Y-67414671D01*
X176622500Y-68458328D01*
X176603494Y-68524300D01*
X176524211Y-68650476D01*
X176464631Y-68820745D01*
X176464630Y-68820750D01*
X176444435Y-68999996D01*
X176444435Y-69000003D01*
X176464630Y-69179249D01*
X176464631Y-69179254D01*
X176524211Y-69349523D01*
X176575078Y-69430476D01*
X176620184Y-69502262D01*
X176747738Y-69629816D01*
X176900478Y-69725789D01*
X177070745Y-69785368D01*
X177070750Y-69785369D01*
X177249996Y-69805565D01*
X177250000Y-69805565D01*
X177250004Y-69805565D01*
X177429249Y-69785369D01*
X177429252Y-69785368D01*
X177429255Y-69785368D01*
X177599522Y-69725789D01*
X177752262Y-69629816D01*
X177879816Y-69502262D01*
X177975789Y-69349522D01*
X178035368Y-69179255D01*
X178055565Y-69000000D01*
X178053949Y-68985661D01*
X178035369Y-68820750D01*
X178035368Y-68820745D01*
X178011405Y-68752262D01*
X177975789Y-68650478D01*
X177943772Y-68599524D01*
X177896506Y-68524300D01*
X177877500Y-68458328D01*
X177877500Y-67414671D01*
X177896507Y-67348698D01*
X177923610Y-67305565D01*
X177975789Y-67222522D01*
X178035368Y-67052255D01*
X178055565Y-66873000D01*
X178055565Y-66872996D01*
X179694435Y-66872996D01*
X179694435Y-66873003D01*
X179714630Y-67052249D01*
X179714631Y-67052254D01*
X179774211Y-67222524D01*
X179853493Y-67348698D01*
X179872500Y-67414671D01*
X179872500Y-67708328D01*
X179853494Y-67774300D01*
X179774211Y-67900476D01*
X179714631Y-68070745D01*
X179714630Y-68070750D01*
X179694435Y-68249996D01*
X179694435Y-68250003D01*
X179714630Y-68429249D01*
X179714631Y-68429254D01*
X179774211Y-68599524D01*
X179853493Y-68725698D01*
X179872500Y-68791671D01*
X179872500Y-69208328D01*
X179853494Y-69274300D01*
X179774211Y-69400476D01*
X179714631Y-69570745D01*
X179714630Y-69570750D01*
X179694435Y-69749996D01*
X179694435Y-69750000D01*
X179714630Y-69929249D01*
X179714631Y-69929254D01*
X179774211Y-70099523D01*
X179870184Y-70252262D01*
X179997738Y-70379816D01*
X180150478Y-70475789D01*
X180320745Y-70535368D01*
X180320750Y-70535369D01*
X180499996Y-70555565D01*
X180500000Y-70555565D01*
X180500004Y-70555565D01*
X180679249Y-70535369D01*
X180679252Y-70535368D01*
X180679255Y-70535368D01*
X180849522Y-70475789D01*
X181002262Y-70379816D01*
X181129816Y-70252262D01*
X181225789Y-70099522D01*
X181285368Y-69929255D01*
X181305565Y-69750000D01*
X181305207Y-69746825D01*
X181285369Y-69570750D01*
X181285368Y-69570745D01*
X181225788Y-69400476D01*
X181146506Y-69274300D01*
X181127500Y-69208328D01*
X181127500Y-68791671D01*
X181146507Y-68725698D01*
X181225788Y-68599524D01*
X181225789Y-68599522D01*
X181285368Y-68429255D01*
X181289058Y-68396506D01*
X181305565Y-68250003D01*
X181305565Y-68249996D01*
X181285369Y-68070750D01*
X181285368Y-68070745D01*
X181252141Y-67975788D01*
X181225789Y-67900478D01*
X181194428Y-67850568D01*
X181146506Y-67774300D01*
X181127500Y-67708328D01*
X181127500Y-67499996D01*
X182944435Y-67499996D01*
X182944435Y-67500003D01*
X182964630Y-67679249D01*
X182964631Y-67679254D01*
X183024211Y-67849524D01*
X183088857Y-67952405D01*
X183096945Y-67965278D01*
X183103493Y-67975698D01*
X183122500Y-68041671D01*
X183122500Y-69208328D01*
X183103494Y-69274300D01*
X183024211Y-69400476D01*
X182964631Y-69570745D01*
X182964630Y-69570750D01*
X182944435Y-69749996D01*
X182944435Y-69750000D01*
X182964630Y-69929249D01*
X182964631Y-69929254D01*
X183024211Y-70099523D01*
X183120184Y-70252262D01*
X183247738Y-70379816D01*
X183400478Y-70475789D01*
X183570745Y-70535368D01*
X183570750Y-70535369D01*
X183749996Y-70555565D01*
X183750000Y-70555565D01*
X183750004Y-70555565D01*
X183929249Y-70535369D01*
X183929252Y-70535368D01*
X183929255Y-70535368D01*
X184099522Y-70475789D01*
X184252262Y-70379816D01*
X184379816Y-70252262D01*
X184475789Y-70099522D01*
X184535368Y-69929255D01*
X184555565Y-69750000D01*
X184555207Y-69746825D01*
X184535369Y-69570750D01*
X184535368Y-69570745D01*
X184475788Y-69400476D01*
X184396506Y-69274300D01*
X184377500Y-69208328D01*
X184377500Y-68041671D01*
X184396507Y-67975698D01*
X184403055Y-67965278D01*
X184475789Y-67849522D01*
X184535368Y-67679255D01*
X184544352Y-67599521D01*
X184555565Y-67500003D01*
X184555565Y-67499996D01*
X184535369Y-67320750D01*
X184535368Y-67320745D01*
X184475788Y-67150476D01*
X184414071Y-67052254D01*
X184379816Y-66997738D01*
X184252262Y-66870184D01*
X184219379Y-66849522D01*
X184099523Y-66774211D01*
X183929254Y-66714631D01*
X183929249Y-66714630D01*
X183750004Y-66694435D01*
X183749996Y-66694435D01*
X183570750Y-66714630D01*
X183570745Y-66714631D01*
X183400476Y-66774211D01*
X183247737Y-66870184D01*
X183120184Y-66997737D01*
X183024211Y-67150476D01*
X182964631Y-67320745D01*
X182964630Y-67320750D01*
X182944435Y-67499996D01*
X181127500Y-67499996D01*
X181127500Y-67414671D01*
X181146507Y-67348698D01*
X181173610Y-67305565D01*
X181225789Y-67222522D01*
X181285368Y-67052255D01*
X181305565Y-66873000D01*
X181294434Y-66774211D01*
X181285369Y-66693750D01*
X181285368Y-66693745D01*
X181225788Y-66523476D01*
X181129815Y-66370737D01*
X181002262Y-66243184D01*
X180849523Y-66147211D01*
X180679254Y-66087631D01*
X180679249Y-66087630D01*
X180500004Y-66067435D01*
X180499996Y-66067435D01*
X180320750Y-66087630D01*
X180320745Y-66087631D01*
X180150476Y-66147211D01*
X179997737Y-66243184D01*
X179870184Y-66370737D01*
X179774211Y-66523476D01*
X179714631Y-66693745D01*
X179714630Y-66693750D01*
X179694435Y-66872996D01*
X178055565Y-66872996D01*
X178044434Y-66774211D01*
X178035369Y-66693750D01*
X178035368Y-66693745D01*
X177975788Y-66523476D01*
X177879815Y-66370737D01*
X177752262Y-66243184D01*
X177599523Y-66147211D01*
X177429254Y-66087631D01*
X177429249Y-66087630D01*
X177250004Y-66067435D01*
X177249996Y-66067435D01*
X177070750Y-66087630D01*
X177070745Y-66087631D01*
X176900476Y-66147211D01*
X176747737Y-66243184D01*
X176620184Y-66370737D01*
X176524211Y-66523476D01*
X176464631Y-66693745D01*
X176464630Y-66693750D01*
X176444435Y-66872996D01*
X169711039Y-66872996D01*
X169725789Y-66849522D01*
X169785368Y-66679255D01*
X169805565Y-66500000D01*
X169799034Y-66442039D01*
X169785369Y-66320750D01*
X169785368Y-66320745D01*
X169725788Y-66150476D01*
X169686299Y-66087630D01*
X169629816Y-65997738D01*
X169502262Y-65870184D01*
X169480473Y-65856493D01*
X169434183Y-65804159D01*
X169423535Y-65735106D01*
X169451910Y-65671257D01*
X169510299Y-65632885D01*
X169546446Y-65627500D01*
X169561804Y-65627500D01*
X169561805Y-65627499D01*
X169683035Y-65603386D01*
X169755667Y-65573299D01*
X169785754Y-65560838D01*
X169785756Y-65560836D01*
X169797233Y-65556083D01*
X169900008Y-65487411D01*
X169987411Y-65400008D01*
X171487411Y-63900008D01*
X171556083Y-63797233D01*
X171603385Y-63683035D01*
X171615887Y-63620184D01*
X171627500Y-63561805D01*
X171627500Y-61396961D01*
X171647185Y-61329922D01*
X171695210Y-61286474D01*
X171707804Y-61280057D01*
X171707816Y-61280051D01*
X171879792Y-61155104D01*
X172030104Y-61004792D01*
X172149683Y-60840204D01*
X172205011Y-60797540D01*
X172274624Y-60791561D01*
X172336420Y-60824166D01*
X172350313Y-60840199D01*
X172437671Y-60960438D01*
X172469896Y-61004792D01*
X172620213Y-61155109D01*
X172792179Y-61280048D01*
X172792181Y-61280049D01*
X172792184Y-61280051D01*
X172981588Y-61376557D01*
X173183757Y-61442246D01*
X173393713Y-61475500D01*
X173393714Y-61475500D01*
X173606286Y-61475500D01*
X173606287Y-61475500D01*
X173816243Y-61442246D01*
X174018412Y-61376557D01*
X174207816Y-61280051D01*
X174379792Y-61155104D01*
X174518604Y-61016291D01*
X174579923Y-60982809D01*
X174649615Y-60987793D01*
X174705549Y-61029664D01*
X174711821Y-61038878D01*
X174715185Y-61044333D01*
X174715186Y-61044334D01*
X174807288Y-61193656D01*
X174931344Y-61317712D01*
X175080666Y-61409814D01*
X175164505Y-61437595D01*
X175221948Y-61477366D01*
X175248772Y-61541882D01*
X175249500Y-61555300D01*
X175249500Y-63387768D01*
X175229815Y-63454807D01*
X175213179Y-63475451D01*
X175191934Y-63496695D01*
X175155878Y-63519366D01*
X175156756Y-63521188D01*
X175150478Y-63524211D01*
X174997737Y-63620184D01*
X174870184Y-63747737D01*
X174774211Y-63900476D01*
X174714631Y-64070745D01*
X174714630Y-64070750D01*
X174694435Y-64249996D01*
X174694435Y-64250003D01*
X174714630Y-64429249D01*
X174714631Y-64429254D01*
X174774211Y-64599523D01*
X174806229Y-64650479D01*
X174870184Y-64752262D01*
X174997738Y-64879816D01*
X175088080Y-64936582D01*
X175139512Y-64968899D01*
X175150478Y-64975789D01*
X175219678Y-65000003D01*
X175320745Y-65035368D01*
X175320750Y-65035369D01*
X175499996Y-65055565D01*
X175500000Y-65055565D01*
X175500004Y-65055565D01*
X175679249Y-65035369D01*
X175679252Y-65035368D01*
X175679255Y-65035368D01*
X175849522Y-64975789D01*
X176002262Y-64879816D01*
X176129816Y-64752262D01*
X176225789Y-64599522D01*
X176225790Y-64599518D01*
X176228811Y-64593246D01*
X176230655Y-64594134D01*
X176253303Y-64558063D01*
X176582952Y-64228416D01*
X176615795Y-64179262D01*
X176634817Y-64150793D01*
X176634818Y-64150791D01*
X176665084Y-64105495D01*
X176721658Y-63968913D01*
X176750500Y-63823918D01*
X176750500Y-61555300D01*
X176770185Y-61488261D01*
X176822989Y-61442506D01*
X176835482Y-61437599D01*
X176919334Y-61409814D01*
X177068656Y-61317712D01*
X177192712Y-61193656D01*
X177284814Y-61044334D01*
X177339999Y-60877797D01*
X177350500Y-60775009D01*
X177350499Y-59768713D01*
X182649500Y-59768713D01*
X182649500Y-60231287D01*
X182682754Y-60441243D01*
X182717736Y-60548907D01*
X182748444Y-60643414D01*
X182844951Y-60832820D01*
X182969890Y-61004786D01*
X183120213Y-61155109D01*
X183292179Y-61280048D01*
X183292181Y-61280049D01*
X183292184Y-61280051D01*
X183481588Y-61376557D01*
X183683757Y-61442246D01*
X183893713Y-61475500D01*
X183893714Y-61475500D01*
X184106286Y-61475500D01*
X184106287Y-61475500D01*
X184316243Y-61442246D01*
X184518412Y-61376557D01*
X184707816Y-61280051D01*
X184729789Y-61264086D01*
X184879786Y-61155109D01*
X184879788Y-61155106D01*
X184879792Y-61155104D01*
X185030104Y-61004792D01*
X185149683Y-60840204D01*
X185205011Y-60797540D01*
X185274624Y-60791561D01*
X185336420Y-60824166D01*
X185350313Y-60840199D01*
X185437671Y-60960438D01*
X185469896Y-61004792D01*
X185620213Y-61155109D01*
X185792179Y-61280048D01*
X185792181Y-61280049D01*
X185792184Y-61280051D01*
X185981588Y-61376557D01*
X186183757Y-61442246D01*
X186393713Y-61475500D01*
X186393714Y-61475500D01*
X186606286Y-61475500D01*
X186606287Y-61475500D01*
X186816243Y-61442246D01*
X187018412Y-61376557D01*
X187207816Y-61280051D01*
X187229789Y-61264086D01*
X187379786Y-61155109D01*
X187379788Y-61155106D01*
X187379792Y-61155104D01*
X187530104Y-61004792D01*
X187649683Y-60840204D01*
X187705011Y-60797540D01*
X187774624Y-60791561D01*
X187836420Y-60824166D01*
X187850313Y-60840199D01*
X187937671Y-60960438D01*
X187969896Y-61004792D01*
X188120213Y-61155109D01*
X188292179Y-61280048D01*
X188292181Y-61280049D01*
X188292184Y-61280051D01*
X188481588Y-61376557D01*
X188683757Y-61442246D01*
X188893713Y-61475500D01*
X188893714Y-61475500D01*
X189106286Y-61475500D01*
X189106287Y-61475500D01*
X189316243Y-61442246D01*
X189518412Y-61376557D01*
X189707816Y-61280051D01*
X189729789Y-61264086D01*
X189879786Y-61155109D01*
X189879788Y-61155106D01*
X189879792Y-61155104D01*
X190030104Y-61004792D01*
X190149683Y-60840204D01*
X190205011Y-60797540D01*
X190274624Y-60791561D01*
X190336420Y-60824166D01*
X190350313Y-60840199D01*
X190437671Y-60960438D01*
X190469896Y-61004792D01*
X190620213Y-61155109D01*
X190792179Y-61280048D01*
X190792181Y-61280049D01*
X190792184Y-61280051D01*
X190981588Y-61376557D01*
X191183757Y-61442246D01*
X191393713Y-61475500D01*
X191393714Y-61475500D01*
X191606286Y-61475500D01*
X191606287Y-61475500D01*
X191816243Y-61442246D01*
X192018412Y-61376557D01*
X192207816Y-61280051D01*
X192379792Y-61155104D01*
X192518604Y-61016291D01*
X192579923Y-60982809D01*
X192649615Y-60987793D01*
X192705549Y-61029664D01*
X192711821Y-61038878D01*
X192715185Y-61044333D01*
X192715186Y-61044334D01*
X192807288Y-61193656D01*
X192931344Y-61317712D01*
X193080666Y-61409814D01*
X193247203Y-61464999D01*
X193349991Y-61475500D01*
X194650008Y-61475499D01*
X194752797Y-61464999D01*
X194919334Y-61409814D01*
X195068656Y-61317712D01*
X195192712Y-61193656D01*
X195284814Y-61044334D01*
X195339999Y-60877797D01*
X195350500Y-60775009D01*
X195350499Y-59224992D01*
X195348851Y-59208863D01*
X195339999Y-59122203D01*
X195339998Y-59122200D01*
X195302104Y-59007845D01*
X195284814Y-58955666D01*
X195192712Y-58806344D01*
X195068656Y-58682288D01*
X194973253Y-58623443D01*
X194919336Y-58590187D01*
X194919331Y-58590185D01*
X194917862Y-58589698D01*
X194752797Y-58535001D01*
X194752795Y-58535000D01*
X194650010Y-58524500D01*
X193349998Y-58524500D01*
X193349981Y-58524501D01*
X193247203Y-58535000D01*
X193247200Y-58535001D01*
X193080668Y-58590185D01*
X193080663Y-58590187D01*
X192931342Y-58682289D01*
X192807289Y-58806342D01*
X192711821Y-58961121D01*
X192659873Y-59007845D01*
X192590910Y-59019068D01*
X192526828Y-58991224D01*
X192518601Y-58983705D01*
X192379786Y-58844890D01*
X192207820Y-58719951D01*
X192018414Y-58623444D01*
X192018413Y-58623443D01*
X192018412Y-58623443D01*
X191816243Y-58557754D01*
X191816241Y-58557753D01*
X191816240Y-58557753D01*
X191654957Y-58532208D01*
X191606287Y-58524500D01*
X191393713Y-58524500D01*
X191345042Y-58532208D01*
X191183760Y-58557753D01*
X190981585Y-58623444D01*
X190792179Y-58719951D01*
X190620213Y-58844890D01*
X190469894Y-58995209D01*
X190469890Y-58995214D01*
X190350318Y-59159793D01*
X190294989Y-59202459D01*
X190225375Y-59208438D01*
X190163580Y-59175833D01*
X190149682Y-59159793D01*
X190030109Y-58995214D01*
X190030105Y-58995209D01*
X189879786Y-58844890D01*
X189707820Y-58719951D01*
X189518414Y-58623444D01*
X189518413Y-58623443D01*
X189518412Y-58623443D01*
X189316243Y-58557754D01*
X189316241Y-58557753D01*
X189316240Y-58557753D01*
X189154957Y-58532208D01*
X189106287Y-58524500D01*
X188893713Y-58524500D01*
X188845042Y-58532208D01*
X188683760Y-58557753D01*
X188481585Y-58623444D01*
X188292179Y-58719951D01*
X188120213Y-58844890D01*
X187969894Y-58995209D01*
X187969890Y-58995214D01*
X187850318Y-59159793D01*
X187794989Y-59202459D01*
X187725375Y-59208438D01*
X187663580Y-59175833D01*
X187649682Y-59159793D01*
X187530109Y-58995214D01*
X187530105Y-58995209D01*
X187379786Y-58844890D01*
X187207820Y-58719951D01*
X187018414Y-58623444D01*
X187018413Y-58623443D01*
X187018412Y-58623443D01*
X186816243Y-58557754D01*
X186816241Y-58557753D01*
X186816240Y-58557753D01*
X186654957Y-58532208D01*
X186606287Y-58524500D01*
X186393713Y-58524500D01*
X186345042Y-58532208D01*
X186183760Y-58557753D01*
X185981585Y-58623444D01*
X185792179Y-58719951D01*
X185620213Y-58844890D01*
X185469894Y-58995209D01*
X185469890Y-58995214D01*
X185350318Y-59159793D01*
X185294989Y-59202459D01*
X185225375Y-59208438D01*
X185163580Y-59175833D01*
X185149682Y-59159793D01*
X185030109Y-58995214D01*
X185030105Y-58995209D01*
X184879786Y-58844890D01*
X184707820Y-58719951D01*
X184518414Y-58623444D01*
X184518413Y-58623443D01*
X184518412Y-58623443D01*
X184316243Y-58557754D01*
X184316241Y-58557753D01*
X184316240Y-58557753D01*
X184154957Y-58532208D01*
X184106287Y-58524500D01*
X183893713Y-58524500D01*
X183845042Y-58532208D01*
X183683760Y-58557753D01*
X183481585Y-58623444D01*
X183292179Y-58719951D01*
X183120213Y-58844890D01*
X182969890Y-58995213D01*
X182844951Y-59167179D01*
X182748444Y-59356585D01*
X182682753Y-59558760D01*
X182659062Y-59708343D01*
X182649500Y-59768713D01*
X177350499Y-59768713D01*
X177350499Y-59224992D01*
X177348851Y-59208863D01*
X177339999Y-59122203D01*
X177339998Y-59122200D01*
X177302104Y-59007845D01*
X177284814Y-58955666D01*
X177192712Y-58806344D01*
X177068656Y-58682288D01*
X176973253Y-58623443D01*
X176919336Y-58590187D01*
X176919331Y-58590185D01*
X176917862Y-58589698D01*
X176752797Y-58535001D01*
X176752795Y-58535000D01*
X176650010Y-58524500D01*
X175349998Y-58524500D01*
X175349981Y-58524501D01*
X175247203Y-58535000D01*
X175247200Y-58535001D01*
X175080668Y-58590185D01*
X175080663Y-58590187D01*
X174931342Y-58682289D01*
X174807289Y-58806342D01*
X174711821Y-58961121D01*
X174659873Y-59007845D01*
X174590910Y-59019068D01*
X174526828Y-58991224D01*
X174518601Y-58983705D01*
X174379786Y-58844890D01*
X174207820Y-58719951D01*
X174018414Y-58623444D01*
X174018413Y-58623443D01*
X174018412Y-58623443D01*
X173816243Y-58557754D01*
X173816241Y-58557753D01*
X173816240Y-58557753D01*
X173654957Y-58532208D01*
X173606287Y-58524500D01*
X173393713Y-58524500D01*
X173345042Y-58532208D01*
X173183760Y-58557753D01*
X172981585Y-58623444D01*
X172792179Y-58719951D01*
X172620213Y-58844890D01*
X172469894Y-58995209D01*
X172469890Y-58995214D01*
X172350318Y-59159793D01*
X172294989Y-59202459D01*
X172225375Y-59208438D01*
X172163580Y-59175833D01*
X172149682Y-59159793D01*
X172030109Y-58995214D01*
X172030105Y-58995209D01*
X171879786Y-58844890D01*
X171707820Y-58719951D01*
X171518414Y-58623444D01*
X171518413Y-58623443D01*
X171518412Y-58623443D01*
X171316243Y-58557754D01*
X171316241Y-58557753D01*
X171316240Y-58557753D01*
X171154957Y-58532208D01*
X171106287Y-58524500D01*
X170893713Y-58524500D01*
X170845042Y-58532208D01*
X170683760Y-58557753D01*
X170481585Y-58623444D01*
X170292179Y-58719951D01*
X170120213Y-58844890D01*
X169969894Y-58995209D01*
X169969890Y-58995214D01*
X169850318Y-59159793D01*
X169794989Y-59202459D01*
X169725375Y-59208438D01*
X169663580Y-59175833D01*
X169649682Y-59159793D01*
X169530109Y-58995214D01*
X169530105Y-58995209D01*
X169379786Y-58844890D01*
X169207820Y-58719951D01*
X169018414Y-58623444D01*
X169018413Y-58623443D01*
X169018412Y-58623443D01*
X168816243Y-58557754D01*
X168816241Y-58557753D01*
X168816240Y-58557753D01*
X168654957Y-58532208D01*
X168606287Y-58524500D01*
X168393713Y-58524500D01*
X168345042Y-58532208D01*
X168183760Y-58557753D01*
X167981585Y-58623444D01*
X167792179Y-58719951D01*
X167620213Y-58844890D01*
X167469894Y-58995209D01*
X167469890Y-58995214D01*
X167350008Y-59160218D01*
X167294678Y-59202884D01*
X167225065Y-59208863D01*
X167163270Y-59176257D01*
X167149372Y-59160218D01*
X167029727Y-58995540D01*
X167029723Y-58995535D01*
X166879464Y-58845276D01*
X166879459Y-58845272D01*
X166707557Y-58720379D01*
X166518215Y-58623903D01*
X166316124Y-58558241D01*
X166250000Y-58547768D01*
X166250000Y-59595854D01*
X166183343Y-59557370D01*
X166062535Y-59525000D01*
X165937465Y-59525000D01*
X165816657Y-59557370D01*
X165750000Y-59595854D01*
X165750000Y-58547768D01*
X165749999Y-58547768D01*
X165683875Y-58558241D01*
X165481784Y-58623903D01*
X165292442Y-58720379D01*
X165120540Y-58845272D01*
X165120535Y-58845276D01*
X164970276Y-58995535D01*
X164970272Y-58995540D01*
X164850627Y-59160218D01*
X164795297Y-59202884D01*
X164725684Y-59208863D01*
X164663889Y-59176257D01*
X164649991Y-59160218D01*
X164530109Y-58995214D01*
X164530105Y-58995209D01*
X164379786Y-58844890D01*
X164207820Y-58719951D01*
X164018414Y-58623444D01*
X164018413Y-58623443D01*
X164018412Y-58623443D01*
X163816243Y-58557754D01*
X163816241Y-58557753D01*
X163816240Y-58557753D01*
X163654957Y-58532208D01*
X163606287Y-58524500D01*
X163393713Y-58524500D01*
X163345042Y-58532208D01*
X163183760Y-58557753D01*
X162981585Y-58623444D01*
X162792179Y-58719951D01*
X162620213Y-58844890D01*
X162469890Y-58995213D01*
X162344951Y-59167179D01*
X162248444Y-59356585D01*
X162182753Y-59558760D01*
X162159062Y-59708343D01*
X162149500Y-59768713D01*
X154820500Y-59768713D01*
X154820500Y-59176456D01*
X154782052Y-58983170D01*
X154782051Y-58983169D01*
X154782051Y-58983165D01*
X154772920Y-58961121D01*
X154706635Y-58801092D01*
X154706628Y-58801079D01*
X154597139Y-58637218D01*
X154597136Y-58637214D01*
X154457785Y-58497863D01*
X154457781Y-58497860D01*
X154293920Y-58388371D01*
X154293907Y-58388364D01*
X154111839Y-58312950D01*
X154111829Y-58312947D01*
X153918543Y-58274500D01*
X153918541Y-58274500D01*
X153721459Y-58274500D01*
X153721457Y-58274500D01*
X153528170Y-58312947D01*
X153528160Y-58312950D01*
X153346092Y-58388364D01*
X153346079Y-58388371D01*
X153182218Y-58497860D01*
X153182214Y-58497863D01*
X153042863Y-58637214D01*
X153042860Y-58637218D01*
X152933371Y-58801079D01*
X152933364Y-58801092D01*
X152857950Y-58983160D01*
X152857947Y-58983170D01*
X152819500Y-59176456D01*
X152819500Y-59176459D01*
X152819500Y-60173541D01*
X152819500Y-60173543D01*
X152819499Y-60173543D01*
X146180500Y-60173543D01*
X146180500Y-59176456D01*
X146142052Y-58983170D01*
X146142051Y-58983169D01*
X146142051Y-58983165D01*
X146132920Y-58961121D01*
X146066635Y-58801092D01*
X146066628Y-58801079D01*
X145957139Y-58637218D01*
X145957136Y-58637214D01*
X145817785Y-58497863D01*
X145817781Y-58497860D01*
X145653920Y-58388371D01*
X145653907Y-58388364D01*
X145471839Y-58312950D01*
X145471829Y-58312947D01*
X145278543Y-58274500D01*
X145278541Y-58274500D01*
X145081459Y-58274500D01*
X145081457Y-58274500D01*
X144888170Y-58312947D01*
X144888160Y-58312950D01*
X144706092Y-58388364D01*
X144706079Y-58388371D01*
X144542218Y-58497860D01*
X144542214Y-58497863D01*
X144402863Y-58637214D01*
X144402860Y-58637218D01*
X144293371Y-58801079D01*
X144293364Y-58801092D01*
X144217950Y-58983160D01*
X144217947Y-58983170D01*
X144179500Y-59176456D01*
X144179500Y-59176459D01*
X144179500Y-60173541D01*
X144179500Y-60173543D01*
X144179499Y-60173543D01*
X136942840Y-60173543D01*
X136899193Y-60118811D01*
X136899181Y-60118798D01*
X136601213Y-59807149D01*
X136601212Y-59807148D01*
X136601209Y-59807145D01*
X136352670Y-59590003D01*
X136276504Y-59523458D01*
X136276487Y-59523445D01*
X135927675Y-59270018D01*
X135927670Y-59270015D01*
X135927666Y-59270012D01*
X135557519Y-59048859D01*
X135557514Y-59048856D01*
X135557512Y-59048855D01*
X135169046Y-58861779D01*
X135169032Y-58861773D01*
X134765363Y-58710274D01*
X134765338Y-58710266D01*
X134349714Y-58595561D01*
X133925462Y-58518570D01*
X133925459Y-58518569D01*
X133925455Y-58518569D01*
X133496010Y-58479919D01*
X133064828Y-58479919D01*
X132635383Y-58518569D01*
X132635379Y-58518569D01*
X132635375Y-58518570D01*
X132211123Y-58595561D01*
X131795499Y-58710266D01*
X131795474Y-58710274D01*
X131391805Y-58861773D01*
X131391791Y-58861779D01*
X131003325Y-59048855D01*
X131003323Y-59048856D01*
X130665265Y-59250837D01*
X130647302Y-59261570D01*
X130633162Y-59270018D01*
X130284350Y-59523445D01*
X130284333Y-59523458D01*
X129959629Y-59807145D01*
X129959624Y-59807149D01*
X129661656Y-60118798D01*
X129661644Y-60118811D01*
X129392823Y-60455904D01*
X129392813Y-60455917D01*
X129155286Y-60815756D01*
X129155286Y-60815757D01*
X129155283Y-60815762D01*
X129155282Y-60815764D01*
X129150761Y-60824166D01*
X128950956Y-61195463D01*
X128950952Y-61195471D01*
X128781495Y-61591938D01*
X128781492Y-61591946D01*
X128648249Y-62002027D01*
X128552304Y-62422391D01*
X128494425Y-62849672D01*
X128494424Y-62849681D01*
X128475080Y-63280415D01*
X127300500Y-63280415D01*
X127300500Y-61003051D01*
X127300649Y-60996967D01*
X127306503Y-60877797D01*
X127318015Y-60643465D01*
X127319208Y-60631359D01*
X127331437Y-60548920D01*
X127370692Y-60284278D01*
X127373061Y-60272367D01*
X127458322Y-59931986D01*
X127461852Y-59920353D01*
X127498956Y-59816657D01*
X127580055Y-59589999D01*
X127584710Y-59578762D01*
X127619835Y-59504495D01*
X127734735Y-59261557D01*
X127740454Y-59250857D01*
X127920851Y-58949884D01*
X127927594Y-58939791D01*
X128136630Y-58657939D01*
X128144333Y-58648554D01*
X128379983Y-58388553D01*
X128388553Y-58379983D01*
X128648554Y-58144333D01*
X128657939Y-58136630D01*
X128939791Y-57927594D01*
X128949884Y-57920851D01*
X129250857Y-57740454D01*
X129261557Y-57734735D01*
X129578762Y-57584710D01*
X129589999Y-57580055D01*
X129920361Y-57461849D01*
X129931986Y-57458322D01*
X130272367Y-57373061D01*
X130284278Y-57370692D01*
X130631359Y-57319207D01*
X130643465Y-57318015D01*
X130996967Y-57300648D01*
X131003051Y-57300500D01*
X131047595Y-57300500D01*
X197952405Y-57300500D01*
X197996949Y-57300500D01*
X198003032Y-57300648D01*
G37*
%TD.AperFunction*%
M02*
